0
SECTION
2
HEADER
9
$INSUNITS
70
4
9
$ACADVER
1
AC1014
9
$HANDSEED
5
FFFF
0
ENDSEC
0
SECTION
2
TABLES
0
TABLE
2
VPORT
5
8
100
AcDbSymbolTable
0
ENDTAB
0
TABLE
2
LTYPE
5
5
100
AcDbSymbolTable
0
LTYPE
5
14
100
AcDbSymbolTableRecord
100
AcDbLinetypeTableRecord
2
BYBLOCK
70
0
0
LTYPE
5
15
100
AcDbSymbolTableRecord
100
AcDbLinetypeTableRecord
2
BYLAYER
70
0
0
LTYPE
5
16
100
AcDbSymbolTableRecord
100
AcDbLinetypeTableRecord
2
DASHED
70
0
3
Dashed __ __ __ __ __ __ __ __ __ __ __ __ __ _
72
65
73
2
40
0.75
49
0.5
74
0
49
-0.25
74
0
0
ENDTAB
0
TABLE
2
LAYER
5
2
100
AcDbSymbolTable
70
2
0
LAYER
5
50
100
AcDbSymbolTableRecord
100
AcDbLayerTableRecord
2
0
70
0
62
7
6
CONTINUOUS
0
ENDTAB
0
TABLE
2
STYLE
5
3
100
AcDbSymbolTable
70
1
0
STYLE
5
11
100
AcDbSymbolTableRecord
100
AcDbTextStyleTableRecord
2
STANDARD
70
0
0
ENDTAB
0
TABLE
2
VIEW
5
6
100
AcDbSymbolTable
70
0
0
ENDTAB
0
TABLE
2
UCS
5
7
100
AcDbSymbolTable
70
0
0
ENDTAB
0
TABLE
2
APPID
5
9
100
AcDbSymbolTable
70
2
0
APPID
5
12
100
AcDbSymbolTableRecord
100
AcDbRegAppTableRecord
2
ACAD
70
0
0
ENDTAB
0
TABLE
2
DIMSTYLE
5
A
100
AcDbSymbolTable
70
1
0
ENDTAB
0
TABLE
2
BLOCK_RECORD
5
1
100
AcDbSymbolTable
70
1
0
BLOCK_RECORD
5
1F
100
AcDbSymbolTableRecord
100
AcDbBlockTableRecord
2
*MODEL_SPACE
0
BLOCK_RECORD
5
1B
100
AcDbSymbolTableRecord
100
AcDbBlockTableRecord
2
*PAPER_SPACE
0
ENDTAB
0
ENDSEC
0
SECTION
2
BLOCKS
0
BLOCK
5
20
100
AcDbEntity
100
AcDbBlockBegin
2
*MODEL_SPACE
0
ENDBLK
5
21
100
AcDbEntity
100
AcDbBlockEnd
0
BLOCK
5
1C
100
AcDbEntity
100
AcDbBlockBegin
2
*PAPER_SPACE
0
ENDBLK
5
1D
100
AcDbEntity
100
AcDbBlockEnd
0
ENDSEC
0
SECTION
2
ENTITIES
0
ARC
5
100
100
AcDbEntity
8
0
100
AcDbCircle
10
1.6431300764452317e-13
20
5.3912430075797602e-12
30
1.3684555315672042e-47
40
40.000000000000171
210
-3.0814879110189458e-33
220
5.3372936247955554e-33
230
1
100
AcDbArc
50
-209.99999999999321
51
29.999999999993221
6
DASHED
0
SPLINE
5
101
100
AcDbEntity
8
0
100
AcDbSpline
70
0
71
3
72
26
73
22
74
0
42
0.000000001
43
0.0000000001
44
0.0000000001
40
-17.133332850948392
40
-17.133332850948392
40
-17.133332850948392
40
-17.133332850948392
40
-15.849895912026286
40
-15.849895912026286
40
-14.566458973104181
40
-14.566458973104181
40
-12.745651601466157
40
-12.745651601466157
40
-10.924844229828134
40
-10.924844229828134
40
-9.1040368581901117
40
-9.1040368581901117
40
-7.2832294865520888
40
-7.2832294865520888
40
-5.4624221149140659
40
-5.4624221149140659
40
-3.6416147432760448
40
-3.6416147432760448
40
-1.8208073716380222
40
-1.8208073716380222
40
-0
40
-0
40
-0
40
-0
10
-46.610345101043833
20
-1.5765166949677223e-12
30
-8.8817841970012523e-15
10
-46.610345101043194
20
-4.2781231297419273
30
-8.8817841970012523e-15
10
-46.021344822020495
20
-8.5359491987836265
30
-2.2204460492503131e-14
10
-43.698561831739021
20
-16.770876595727483
30
-2.2204460492503131e-14
10
-41.975799295896785
20
-20.708908262435905
30
-2.2204460492503131e-14
10
-36.568673230342618
20
-29.531229469750741
30
-2.2204460492503131e-14
10
-32.416675503794281
20
-34.037046362813356
30
-2.2204460492503131e-14
10
-22.619236028686277
20
-41.203537922138487
30
-1.7763568394002505e-14
10
-17.067463141525721
20
-43.795697023054181
30
-1.7763568394002505e-14
10
-5.2827963648442555
20
-46.706032141363202
30
-1.7763568394002505e-14
10
0.83742968715194321
20
-46.996383768770315
30
-1.7763568394002505e-14
10
12.844688773401085
20
-45.214769115156876
30
-1.7763568394002505e-14
10
18.616925866327659
20
-43.159836041279874
30
-1.7763568394002505e-14
10
29.048811316802631
20
-36.953050441112005
30
-1.3322676295501878e-14
10
33.608725163627639
20
-32.860538168118246
30
-1.3322676295501878e-14
10
40.903167346039019
20
-23.157985164617557
30
-1.3322676295501878e-14
10
43.567956838583378
20
-17.640706129124055
30
-1.3322676295501878e-14
10
46.63268660640626
20
-5.8952451765473954
30
-1.3322676295501878e-14
10
47.003326394697602
20
0.22064373205831433
30
-1.3322676295501878e-14
10
45.379431375454615
20
12.250248318442715
30
-1.3322676295501878e-14
10
43.400421889395425
20
18.04895441973451
30
-1.3322676295501878e-14
10
40.365742936665931
20
23.30517255052316
30
-1.3322676295501878e-14
6
DASHED
0
LWPOLYLINE
5
102
100
AcDbEntity
8
0
100
AcDbPolyline
90
10
70
1
43
0.0
10
-5.1500000000007597
20
-38.658472551299646
10
-5.149999999999638
20
-46.324958396504819
42
0.055414894084199633
10
5.1500000000001656
20
-46.324958396504748
10
5.1499999999991584
20
-38.658472551299887
10
5.1499999999991584
20
-34.158472551299887
10
18.820168781436138
20
-34.15847255129988
42
0.42446761180928394
10
33.481338085569149
20
20.000000000001364
10
28.481338085568972
20
28.660254037845657
10
-28.481338085568822
20
28.66025403784576
10
-33.481338085568822
20
20.000000000001371
42
0.53880333833369809
0
LINE
5
103
100
AcDbEntity
8
0
100
AcDbLine
10
27.062302228962324
20
33.126717569658155
30
0
11
34.641016151380214
21
20.000000000001378
31
4.1053665947016125e-47
6
DASHED
0
LINE
5
104
100
AcDbEntity
8
0
100
AcDbLine
10
-34.641016151379894
20
20.000000000001371
30
-2.1349174499177935e-31
11
-27.062302228962348
21
33.126717569658169
31
0
6
DASHED
0
ENDSEC
0
SECTION
2
OBJECTS
0
DICTIONARY
5
C
100
AcDbDictionary
3
ACAD_GROUP
350
D
3
ACAD_MLINESTYLE
350
17
0
DICTIONARY
5
D
100
AcDbDictionary
0
DICTIONARY
5
1A
330
C
100
AcDbDictionary
0
DICTIONARY
5
17
100
AcDbDictionary
0
ENDSEC
0
EOF
