999
dxfrw 0.6.3
  0
SECTION
  2
HEADER
  9
$ACADVER
  1
AC1021
  9
$DWGCODEPAGE
  3
ANSI_1252
  9
$INSBASE
 10
0
 20
0
 30
0
  9
$EXTMIN
 10
4.65041468503937
 20
-5.222607401574803
 30
0
  9
$EXTMAX
 10
7.725178818897637
 20
-2.2554
 30
0
  9
$LIMMIN
 10
0
 20
0
  9
$LIMMAX
 10
420
 20
297
  9
$ORTHOMODE
 70
    0
  9
$REGENMODE
 70
    1
  9
$FILLMODE
 70
    1
  9
$QTEXTMODE
 70
    0
  9
$MIRRTEXT
 70
    0
  9
$LTSCALE
 40
1
  9
$ATTMODE
 70
    0
  9
$TEXTSIZE
 40
2.5
  9
$TRACEWID
 40
15.68
  9
$TEXTSTYLE
  7
STANDARD
  9
$CLAYER
  8
0
  9
$CELTYPE
  6
BYLAYER
  9
$CECOLOR
 62
  256
  9
$CELTSCALE
 40
1
  9
$DISPSILH
 70
    0
  9
$DIMSCALE
 40
2.5
  9
$DIMASZ
 40
2.5
  9
$DIMEXO
 40
0.625
  9
$DIMDLI
 40
3.75
  9
$DIMRND
 40
0
  9
$DIMDLE
 40
0
  9
$DIMEXE
 40
1.25
  9
$DIMTP
 40
0
  9
$DIMTM
 40
0
  9
$DIMTXT
 40
2.5
  9
$DIMCEN
 40
2.5
  9
$DIMTSZ
 40
0
  9
$DIMTOL
 70
    0
  9
$DIMLIM
 70
    0
  9
$DIMTIH
 70
    0
  9
$DIMTOH
 70
    0
  9
$DIMSE1
 70
    0
  9
$DIMSE2
 70
    0
  9
$DIMTAD
 70
    1
  9
$DIMZIN
 70
    8
  9
$DIMBLK
  1

  9
$DIMASO
 70
    1
  9
$DIMSHO
 70
    1
  9
$DIMPOST
  1

  9
$DIMAPOST
  1

  9
$DIMALT
 70
    0
  9
$DIMALTD
 70
    3
  9
$DIMALTF
 40
0.03937
  9
$DIMLFAC
 40
1
  9
$DIMTOFL
 70
    1
  9
$DIMTVP
 40
0
  9
$DIMTIX
 70
    0
  9
$DIMSOXD
 70
    0
  9
$DIMSAH
 70
    0
  9
$DIMBLK1
  1

  9
$DIMBLK2
  1

  9
$DIMSTYLE
  2
Standard
  9
$DIMCLRD
 70
    0
  9
$DIMCLRE
 70
    0
  9
$DIMCLRT
 70
    0
  9
$DIMTFAC
 40
1
  9
$DIMGAP
 40
0.625
  9
$DIMJUST
 70
    0
  9
$DIMSD1
 70
    0
  9
$DIMSD2
 70
    0
  9
$DIMTOLJ
 70
    0
  9
$DIMTZIN
 70
    8
  9
$DIMALTZ
 70
    0
  9
$DIMALTTZ
 70
    0
  9
$DIMUPT
 70
    0
  9
$DIMDEC
 70
    2
  9
$DIMTDEC
 70
    2
  9
$DIMALTU
 70
    2
  9
$DIMALTTD
 70
    3
  9
$DIMTXSTY
  7
STANDARD
  9
$DIMAUNIT
 70
    0
  9
$DIMADEC
 70
    0
  9
$DIMALTRND
 40
0
  9
$DIMAZIN
 70
    0
  9
$DIMDSEP
 70
   44
  9
$DIMATFIT
 70
    3
  9
$DIMFRAC
 70
    0
  9
$DIMLDRBLK
  1
STANDARD
  9
$DIMLUNIT
 70
    2
  9
$DIMLWD
 70
   -2
  9
$DIMLWE
 70
   -2
  9
$DIMTMOVE
 70
    0
  9
$DIMFXL
 40
1
  9
$DIMFXLON
 70
    0
  9
$DIMJOGANG
 40
0.7854
  9
$DIMTFILL
 70
    0
  9
$DIMTFILLCLR
 70
    0
  9
$DIMARCSYM
 70
    0
  9
$DIMLTYPE
  6

  9
$DIMLTEX1
  6

  9
$DIMLTEX2
  6

  9
$LUNITS
 70
    2
  9
$LUPREC
 70
    4
  9
$SKETCHINC
 40
1
  9
$FILLETRAD
 40
0
  9
$AUNITS
 70
    0
  9
$AUPREC
 70
    2
  9
$MENU
  1
.
  9
$ELEVATION
 40
0
  9
$PELEVATION
 40
0
  9
$THICKNESS
 40
0
  9
$LIMCHECK
 70
    0
  9
$CHAMFERA
 40
0
  9
$CHAMFERB
 40
0
  9
$CHAMFERC
 40
0
  9
$CHAMFERD
 40
0
  9
$SKPOLY
 70
    0
  9
$USRTIMER
 70
    1
  9
$ANGBASE
 50
0
  9
$ANGDIR
 70
    1
  9
$PDMODE
 70
   96
  9
$PDSIZE
 40
-2
  9
$PLINEWID
 40
0
  9
$SPLFRAME
 70
    0
  9
$SPLINETYPE
 70
    2
  9
$SPLINESEGS
 70
    8
  9
$HANDSEED
  5
20000
  9
$SURFTAB1
 70
    6
  9
$SURFTAB2
 70
    6
  9
$SURFTYPE
 70
    6
  9
$SURFU
 70
    6
  9
$SURFV
 70
    6
  9
$UCSBASE
  2

  9
$UCSNAME
  2

  9
$UCSORG
 10
0
 20
0
 30
0
  9
$UCSXDIR
 10
1
 20
0
 30
0
  9
$UCSYDIR
 10
0
 20
1
 30
0
  9
$UCSORTHOREF
  2

  9
$UCSORTHOVIEW
 70
    0
  9
$UCSORGTOP
 10
0
 20
0
 30
0
  9
$UCSORGBOTTOM
 10
0
 20
0
 30
0
  9
$UCSORGLEFT
 10
0
 20
0
 30
0
  9
$UCSORGRIGHT
 10
0
 20
0
 30
0
  9
$UCSORGFRONT
 10
0
 20
0
 30
0
  9
$UCSORGBACK
 10
0
 20
0
 30
0
  9
$PUCSBASE
  2

  9
$PUCSNAME
  2

  9
$PUCSORG
 10
0
 20
0
 30
0
  9
$PUCSXDIR
 10
1
 20
0
 30
0
  9
$PUCSYDIR
 10
0
 20
1
 30
0
  9
$PUCSORTHOREF
  2

  9
$PUCSORTHOVIEW
 70
    0
  9
$PUCSORGTOP
 10
0
 20
0
 30
0
  9
$PUCSORGBOTTOM
 10
0
 20
0
 30
0
  9
$PUCSORGLEFT
 10
0
 20
0
 30
0
  9
$PUCSORGRIGHT
 10
0
 20
0
 30
0
  9
$PUCSORGFRONT
 10
0
 20
0
 30
0
  9
$PUCSORGBACK
 10
0
 20
0
 30
0
  9
$USERI1
 70
    0
  9
$USERI2
 70
    0
  9
$USERI3
 70
    0
  9
$USERI4
 70
    0
  9
$USERI5
 70
    0
  9
$USERR1
 40
0
  9
$USERR2
 40
0
  9
$USERR3
 40
0
  9
$USERR4
 40
0
  9
$USERR5
 40
0
  9
$WORLDVIEW
 70
    1
  9
$SHADEDGE
 70
    3
  9
$SHADEDIF
 70
   70
  9
$TILEMODE
 70
    1
  9
$MAXACTVP
 70
   64
  9
$PINSBASE
 10
0
 20
0
 30
0
  9
$PLIMCHECK
 70
    0
  9
$PEXTMIN
 10
0
 20
0
 30
0
  9
$PEXTMAX
 10
0
 20
0
 30
0
  9
$SNAPSTYLE
 70
    0
  9
$PLIMMIN
 10
0
 20
0
  9
$PLIMMAX
 10
210
 20
297
  9
$UNITMODE
 70
    0
  9
$VISRETAIN
 70
    1
  9
$PLINEGEN
 70
    0
  9
$PSLTSCALE
 70
    1
  9
$TREEDEPTH
 70
 3020
  9
$CMLSTYLE
  2
Standard
  9
$CMLJUST
 70
    0
  9
$CMLSCALE
 40
20
  9
$PROXYGRAPHICS
 70
    1
  9
$MEASUREMENT
 70
    0
  9
$CELWEIGHT
370
   -1
  9
$ENDCAPS
280
    0
  9
$JOINSTYLE
280
    0
  9
$LWDISPLAY
290
    0
  9
$INSUNITS
 70
    1
  9
$HYPERLINKBASE
  1

  9
$STYLESHEET
  1

  9
$XEDIT
290
    1
  9
$CEPSNTYPE
380
    0
  9
$PSTYLEMODE
290
    1
  9
$EXTNAMES
290
    1
  9
$PSVPSCALE
 40
1
  9
$OLESTARTUP
290
    0
  9
$SORTENTS
280
  127
  9
$INDEXCTL
280
    0
  9
$HIDETEXT
280
    1
  9
$XCLIPFRAME
290
    0
  9
$HALOGAP
280
    0
  9
$OBSCOLOR
 70
  257
  9
$OBSLTYPE
280
    0
  9
$INTERSECTIONDISPLAY
280
    0
  9
$INTERSECTIONCOLOR
 70
  257
  9
$DIMASSOC
280
    1
  9
$PROJECTNAME
  1

  9
$CAMERADISPLAY
290
    0
  9
$LENSLENGTH
 40
50
  9
$CAMERAHEIGHT
 40
0
  9
$STEPSPERSEC
 40
2
  9
$STEPSIZE
 40
50
  9
$3DDWFPREC
 40
2
  9
$PSOLWIDTH
 40
5
  9
$PSOLHEIGHT
 40
80
  9
$LOFTANG1
 40
1.570796326794897
  9
$LOFTANG2
 40
1.570796326794897
  9
$LOFTMAG1
 40
0
  9
$LOFTMAG2
 40
0
  9
$LOFTPARAM
 70
    7
  9
$LOFTNORMALS
280
    1
  9
$LATITUDE
 40
1
  9
$LONGITUDE
 40
1
  9
$NORTHDIRECTION
 40
0
  9
$TIMEZONE
 70
-8000
  9
$LIGHTGLYPHDISPLAY
280
    1
  9
$TILEMODELIGHTSYNCH
280
    1
  9
$SOLIDHIST
280
    1
  9
$SHOWHIST
280
    1
  9
$DWFFRAME
280
    2
  9
$DGNFRAME
280
    0
  9
$REALWORLDSCALE
290
    1
  9
$INTERFERECOLOR
 62
    1
  9
$CSHADOW
280
    0
  9
$SHADOWPLANELOCATION
 40
0
  0
ENDSEC
  0
SECTION
  2
CLASSES
  0
ENDSEC
  0
SECTION
  2
TABLES
  0
TABLE
  2
VPORT
  5
8
330
0
100
AcDbSymbolTable
 70
    1
  0
VPORT
  5
31
330
2
100
AcDbSymbolTableRecord
100
AcDbViewportTableRecord
  2
*ACTIVE
 70
    0
 10
0
 20
0
 11
1
 21
1
 12
3.330519016615595
 22
-2.350519073262761
 13
0
 23
0
 14
10
 24
10
 15
10
 25
10
 16
0
 26
0
 36
1
 17
0
 27
0
 37
0
 40
0.2961581568081222
 41
1.862765957446809
 42
50
 43
0
 44
0
 50
0
 51
0
 71
    0
 72
  100
 73
    1
 74
    3
 75
    0
 76
    1
 77
    0
 78
    0
281
    0
 65
    1
110
0
120
0
130
0
111
1
121
0
131
0
112
0
122
1
132
0
 79
    0
146
0
348
10020
 60
    7
 61
    5
292
1
282
    1
141
0
142
0
 63
  250
421
3358443
  0
ENDTAB
  0
TABLE
  2
LTYPE
  5
5
330
0
100
AcDbSymbolTable
 70
    4
  0
LTYPE
  5
14
330
5
100
AcDbSymbolTableRecord
100
AcDbLinetypeTableRecord
  2
ByBlock
 70
    0
  3

 72
   65
 73
    0
 40
0
  0
LTYPE
  5
15
330
5
100
AcDbSymbolTableRecord
100
AcDbLinetypeTableRecord
  2
ByLayer
 70
    0
  3

 72
   65
 73
    0
 40
0
  0
LTYPE
  5
16
330
5
100
AcDbSymbolTableRecord
100
AcDbLinetypeTableRecord
  2
Continuous
 70
    0
  3
Solid line
 72
   65
 73
    0
 40
0
  0
LTYPE
  5
32
330
5
100
AcDbSymbolTableRecord
100
AcDbLinetypeTableRecord
  2
DOT
 70
    0
  3
Dot . . . . . . . . . . . . . . . . . . . . . .
 72
   65
 73
    2
 40
6.35
 49
0
 74
    0
 49
-6.35
 74
    0
  0
LTYPE
  5
33
330
5
100
AcDbSymbolTableRecord
100
AcDbLinetypeTableRecord
  2
DOTTINY
 70
    0
  3
Dot (.15x) .....................................
 72
   65
 73
    2
 40
0.9525
 49
0
 74
    0
 49
-0.9525
 74
    0
  0
LTYPE
  5
34
330
5
100
AcDbSymbolTableRecord
100
AcDbLinetypeTableRecord
  2
DOT2
 70
    0
  3
Dot (.5x) .....................................
 72
   65
 73
    2
 40
3.175
 49
0
 74
    0
 49
-3.175
 74
    0
  0
LTYPE
  5
35
330
5
100
AcDbSymbolTableRecord
100
AcDbLinetypeTableRecord
  2
DOTX2
 70
    0
  3
Dot (2x) .  .  .  .  .  .  .  .  .  .  .  .  .
 72
   65
 73
    2
 40
12.7
 49
0
 74
    0
 49
-12.7
 74
    0
  0
LTYPE
  5
36
330
5
100
AcDbSymbolTableRecord
100
AcDbLinetypeTableRecord
  2
DASHED
 70
    0
  3
Dashed _ _ _ _ _ _ _ _ _ _ _ _ _ _ _ _ _
 72
   65
 73
    2
 40
19.05
 49
12.7
 74
    0
 49
-6.35
 74
    0
  0
LTYPE
  5
37
330
5
100
AcDbSymbolTableRecord
100
AcDbLinetypeTableRecord
  2
DASHEDTINY
 70
    0
  3
Dashed (.15x) _ _ _ _ _ _ _ _ _ _ _ _ _ _ _ _ _
 72
   65
 73
    2
 40
2.8575
 49
1.905
 74
    0
 49
-0.9525
 74
    0
  0
LTYPE
  5
38
330
5
100
AcDbSymbolTableRecord
100
AcDbLinetypeTableRecord
  2
DASHED2
 70
    0
  3
Dashed (.5x) _ _ _ _ _ _ _ _ _ _ _ _ _ _ _ _ _
 72
   65
 73
    2
 40
9.524999999999999
 49
6.35
 74
    0
 49
-3.175
 74
    0
  0
LTYPE
  5
39
330
5
100
AcDbSymbolTableRecord
100
AcDbLinetypeTableRecord
  2
DASHEDX2
 70
    0
  3
Dashed (2x) ____  ____  ____  ____  ____  ___
 72
   65
 73
    2
 40
38.09999999999999
 49
25.4
 74
    0
 49
-12.7
 74
    0
  0
LTYPE
  5
3A
330
5
100
AcDbSymbolTableRecord
100
AcDbLinetypeTableRecord
  2
DASHDOT
 70
    0
  3
Dash dot __ . __ . __ . __ . __ . __ . __ . __
 72
   65
 73
    4
 40
25.4
 49
12.7
 74
    0
 49
-6.35
 74
    0
 49
0
 74
    0
 49
-6.35
 74
    0
  0
LTYPE
  5
3B
330
5
100
AcDbSymbolTableRecord
100
AcDbLinetypeTableRecord
  2
DASHDOTTINY
 70
    0
  3
Dash dot (.15x) _._._._._._._._._._._._._._._.
 72
   65
 73
    4
 40
3.81
 49
1.905
 74
    0
 49
-0.9525
 74
    0
 49
0
 74
    0
 49
-0.9525
 74
    0
  0
LTYPE
  5
3C
330
5
100
AcDbSymbolTableRecord
100
AcDbLinetypeTableRecord
  2
DASHDOT2
 70
    0
  3
Dash dot (.5x) _._._._._._._._._._._._._._._.
 72
   65
 73
    4
 40
12.7
 49
6.35
 74
    0
 49
-3.175
 74
    0
 49
0
 74
    0
 49
-3.175
 74
    0
  0
LTYPE
  5
3D
330
5
100
AcDbSymbolTableRecord
100
AcDbLinetypeTableRecord
  2
DASHDOTX2
 70
    0
  3
Dash dot (2x) ____  .  ____  .  ____  .  ___
 72
   65
 73
    4
 40
50.8
 49
25.4
 74
    0
 49
-12.7
 74
    0
 49
0
 74
    0
 49
-12.7
 74
    0
  0
LTYPE
  5
3E
330
5
100
AcDbSymbolTableRecord
100
AcDbLinetypeTableRecord
  2
DIVIDE
 70
    0
  3
Divide ____ . . ____ . . ____ . . ____ . . ____
 72
   65
 73
    6
 40
31.75
 49
12.7
 74
    0
 49
-6.35
 74
    0
 49
0
 74
    0
 49
-6.35
 74
    0
 49
0
 74
    0
 49
-6.35
 74
    0
  0
LTYPE
  5
3F
330
5
100
AcDbSymbolTableRecord
100
AcDbLinetypeTableRecord
  2
DIVIDETINY
 70
    0
  3
Divide (.15x) __..__..__..__..__..__..__..__.._
 72
   65
 73
    6
 40
4.7625
 49
1.905
 74
    0
 49
-0.9525
 74
    0
 49
0
 74
    0
 49
-0.9525
 74
    0
 49
0
 74
    0
 49
-0.9525
 74
    0
  0
LTYPE
  5
40
330
5
100
AcDbSymbolTableRecord
100
AcDbLinetypeTableRecord
  2
DIVIDE2
 70
    0
  3
Divide (.5x) __..__..__..__..__..__..__..__.._
 72
   65
 73
    6
 40
15.875
 49
6.35
 74
    0
 49
-3.175
 74
    0
 49
0
 74
    0
 49
-3.175
 74
    0
 49
0
 74
    0
 49
-3.175
 74
    0
  0
LTYPE
  5
41
330
5
100
AcDbSymbolTableRecord
100
AcDbLinetypeTableRecord
  2
DIVIDEX2
 70
    0
  3
Divide (2x) ________  .  .  ________  .  .  _
 72
   65
 73
    6
 40
63.5
 49
25.4
 74
    0
 49
-12.7
 74
    0
 49
0
 74
    0
 49
-12.7
 74
    0
 49
0
 74
    0
 49
-12.7
 74
    0
  0
LTYPE
  5
42
330
5
100
AcDbSymbolTableRecord
100
AcDbLinetypeTableRecord
  2
BORDER
 70
    0
  3
Border __ __ . __ __ . __ __ . __ __ . __ __ .
 72
   65
 73
    6
 40
44.45
 49
12.7
 74
    0
 49
-6.35
 74
    0
 49
12.7
 74
    0
 49
-6.35
 74
    0
 49
0
 74
    0
 49
-6.35
 74
    0
  0
LTYPE
  5
43
330
5
100
AcDbSymbolTableRecord
100
AcDbLinetypeTableRecord
  2
BORDERTINY
 70
    0
  3
Border (.15x) __.__.__.__.__.__.__.__.__.__.__.
 72
   65
 73
    6
 40
6.6675
 49
1.905
 74
    0
 49
-0.9525
 74
    0
 49
1.905
 74
    0
 49
-0.9525
 74
    0
 49
0
 74
    0
 49
-0.9525
 74
    0
  0
LTYPE
  5
44
330
5
100
AcDbSymbolTableRecord
100
AcDbLinetypeTableRecord
  2
BORDER2
 70
    0
  3
Border (.5x) __.__.__.__.__.__.__.__.__.__.__.
 72
   65
 73
    6
 40
22.225
 49
6.35
 74
    0
 49
-3.175
 74
    0
 49
6.35
 74
    0
 49
-3.175
 74
    0
 49
0
 74
    0
 49
-3.175
 74
    0
  0
LTYPE
  5
45
330
5
100
AcDbSymbolTableRecord
100
AcDbLinetypeTableRecord
  2
BORDERX2
 70
    0
  3
Border (2x) ____  ____  .  ____  ____  .  ___
 72
   65
 73
    6
 40
88.89999999999999
 49
25.4
 74
    0
 49
-12.7
 74
    0
 49
25.4
 74
    0
 49
-12.7
 74
    0
 49
0
 74
    0
 49
-12.7
 74
    0
  0
LTYPE
  5
46
330
5
100
AcDbSymbolTableRecord
100
AcDbLinetypeTableRecord
  2
CENTER
 70
    0
  3
Center ____ _ ____ _ ____ _ ____ _ ____ _ ____
 72
   65
 73
    4
 40
50.8
 49
31.75
 74
    0
 49
-6.35
 74
    0
 49
6.35
 74
    0
 49
-6.35
 74
    0
  0
LTYPE
  5
47
330
5
100
AcDbSymbolTableRecord
100
AcDbLinetypeTableRecord
  2
CENTERTINY
 70
    0
  3
Center (.15x) ___ _ ___ _ ___ _ ___ _ ___ _ ___
 72
   65
 73
    4
 40
7.619999999999999
 49
4.7625
 74
    0
 49
-0.9525
 74
    0
 49
0.9525
 74
    0
 49
-0.9525
 74
    0
  0
LTYPE
  5
48
330
5
100
AcDbSymbolTableRecord
100
AcDbLinetypeTableRecord
  2
CENTER2
 70
    0
  3
Center (.5x) ___ _ ___ _ ___ _ ___ _ ___ _ ___
 72
   65
 73
    4
 40
28.575
 49
19.05
 74
    0
 49
-3.175
 74
    0
 49
3.175
 74
    0
 49
-3.175
 74
    0
  0
LTYPE
  5
49
330
5
100
AcDbSymbolTableRecord
100
AcDbLinetypeTableRecord
  2
CENTERX2
 70
    0
  3
Center (2x) ________  __  ________  __  _____
 72
   65
 73
    4
 40
101.6
 49
63.5
 74
    0
 49
-12.7
 74
    0
 49
12.7
 74
    0
 49
-12.7
 74
    0
  0
ENDTAB
  0
TABLE
  2
LAYER
  5
2
330
0
100
AcDbSymbolTable
 70
    1
  0
LAYER
  5
10
330
2
100
AcDbSymbolTableRecord
100
AcDbLayerTableRecord
  2
0
 70
    0
 62
    7
  6
CONTINUOUS
370
   25
390
F
  0
LAYER
  5
4A
330
2
100
AcDbSymbolTableRecord
100
AcDbLayerTableRecord
  2
Edge.Cuts
 70
    0
 62
  254
420
13685453
  6
CONTINUOUS
370
   -3
390
F
  0
ENDTAB
  0
TABLE
  2
STYLE
  5
3
330
0
100
AcDbSymbolTable
 70
    3
  0
STYLE
  5
4B
330
2
100
AcDbSymbolTableRecord
100
AcDbTextStyleTableRecord
  2
Standard
 70
    0
 40
0
 41
1
 50
0
 71
    0
 42
1
  3
txt
  4

  0
ENDTAB
  0
TABLE
  2
VIEW
  5
6
330
0
100
AcDbSymbolTable
 70
    0
  0
ENDTAB
  0
TABLE
  2
UCS
  5
7
330
0
100
AcDbSymbolTable
 70
    0
  0
ENDTAB
  0
TABLE
  2
APPID
  5
9
330
0
100
AcDbSymbolTable
 70
    1
  0
APPID
  5
12
330
9
100
AcDbSymbolTableRecord
100
AcDbRegAppTableRecord
  2
ACAD
 70
    0
  0
APPID
  5
4C
330
9
100
AcDbSymbolTableRecord
100
AcDbRegAppTableRecord
  2
LibreCad
 70
    0
  0
ENDTAB
  0
TABLE
  2
DIMSTYLE
  5
A
330
0
100
AcDbSymbolTable
 70
    1
100
AcDbDimStyleTable
 71
    1
  0
DIMSTYLE
105
4D
330
A
100
AcDbSymbolTableRecord
100
AcDbDimStyleTableRecord
  2
Standard
 70
    0
 40
1
 41
2.5
 42
0.625
 43
0.38
 44
1.25
 45
0
 46
0
 47
0
 48
0
 49
1
140
2.5
141
0.09
142
2.5
143
25.4
144
1
145
0
146
1
147
0.625
148
0
 71
    0
 72
    0
 73
    0
 74
    1
 75
    0
 76
    0
 77
    0
 78
    1
 79
    0
170
    0
171
    2
172
    0
173
    0
174
    0
175
    0
176
    0
177
    0
178
    0
179
    0
271
    2
272
    4
273
    2
274
    2
275
    0
276
    0
277
    2
278
    0
279
    0
280
    0
281
    0
282
    0
283
    1
284
    0
285
    0
286
    0
288
    0
289
    3
340
4B
  0
ENDTAB
  0
TABLE
  2
BLOCK_RECORD
  5
1
330
0
100
AcDbSymbolTable
 70
    2
  0
BLOCK_RECORD
  5
1F
330
1
100
AcDbSymbolTableRecord
100
AcDbBlockTableRecord
  2
*Model_Space
 70
    0
280
    1
281
    0
  0
BLOCK_RECORD
  5
1E
330
1
100
AcDbSymbolTableRecord
100
AcDbBlockTableRecord
  2
*Paper_Space
 70
    0
280
    1
281
    0
  0
ENDTAB
  0
ENDSEC
  0
SECTION
  2
BLOCKS
  0
BLOCK
  5
20
330
1F
100
AcDbEntity
  8
0
100
AcDbBlockBegin
  2
*Model_Space
 70
    0
 10
0
 20
0
 30
0
  3
*Model_Space
  1

  0
ENDBLK
  5
21
330
1F
100
AcDbEntity
  8
0
100
AcDbBlockEnd
  0
BLOCK
  5
1C
330
1B
100
AcDbEntity
  8
0
100
AcDbBlockBegin
  2
*Paper_Space
 70
    0
 10
0
 20
0
 30
0
  3
*Paper_Space
  1

  0
ENDBLK
  5
1D
330
1F
100
AcDbEntity
  8
0
100
AcDbBlockEnd
  0
ENDSEC
  0
SECTION
  2
ENTITIES
  0
LINE
  5
4E
100
AcDbEntity
  8
Edge.Cuts
  6
CONTINUOUS
 62
  256
370
   -1
100
AcDbLine
 10
7.309862598425196
 20
-2.255549842519685
 11
7.310050669291338
 21
-2.255737913385827
  0
LINE
  5
4F
100
AcDbEntity
  8
Edge.Cuts
  6
CONTINUOUS
 62
  256
370
   -1
100
AcDbLine
 10
7.310050669291338
 20
-2.255737913385827
 11
7.310307637795275
 21
-2.255806771653543
  0
LINE
  5
50
100
AcDbEntity
  8
Edge.Cuts
  6
CONTINUOUS
 62
  256
370
   -1
100
AcDbLine
 10
7.310307637795275
 20
-2.255806771653543
 11
7.31081405511811
 21
-2.256384251968504
  0
LINE
  5
51
100
AcDbEntity
  8
Edge.Cuts
  6
CONTINUOUS
 62
  256
370
   -1
100
AcDbLine
 10
7.31081405511811
 20
-2.256384251968504
 11
7.507664448818898
 21
-2.597339133858268
  0
LINE
  5
52
100
AcDbEntity
  8
Edge.Cuts
  6
CONTINUOUS
 62
  256
370
   -1
100
AcDbLine
 10
7.507664448818898
 20
-2.597339133858268
 11
7.507664803149606
 21
-2.597340196850394
  0
LINE
  5
53
100
AcDbEntity
  8
Edge.Cuts
  6
CONTINUOUS
 62
  256
370
   -1
100
AcDbLine
 10
7.507664803149606
 20
-2.597340196850394
 11
7.531734763779528
 21
-2.639109763779528
  0
LINE
  5
54
100
AcDbEntity
  8
Edge.Cuts
  6
CONTINUOUS
 62
  256
370
   -1
100
AcDbLine
 10
7.531734763779528
 20
-2.639109763779528
 11
7.554496811023622
 21
-2.681640708661417
  0
LINE
  5
55
100
AcDbEntity
  8
Edge.Cuts
  6
CONTINUOUS
 62
  256
370
   -1
100
AcDbLine
 10
7.554496811023622
 20
-2.681640708661417
 11
7.575913267716535
 21
-2.724864803149606
  0
LINE
  5
56
100
AcDbEntity
  8
Edge.Cuts
  6
CONTINUOUS
 62
  256
370
   -1
100
AcDbLine
 10
7.575913267716535
 20
-2.724864803149606
 11
7.595963149606299
 21
-2.768739566929134
  0
LINE
  5
57
100
AcDbEntity
  8
Edge.Cuts
  6
CONTINUOUS
 62
  256
370
   -1
100
AcDbLine
 10
7.595963149606299
 20
-2.768739566929134
 11
7.614626692913386
 21
-2.813221692913386
  0
LINE
  5
58
100
AcDbEntity
  8
Edge.Cuts
  6
CONTINUOUS
 62
  256
370
   -1
100
AcDbLine
 10
7.614626692913386
 20
-2.813221692913386
 11
7.631885472440945
 21
-2.858267519685039
  0
LINE
  5
59
100
AcDbEntity
  8
Edge.Cuts
  6
CONTINUOUS
 62
  256
370
   -1
100
AcDbLine
 10
7.631885472440945
 20
-2.858267519685039
 11
7.647722559055118
 21
-2.903832598425197
  0
LINE
  5
5A
100
AcDbEntity
  8
Edge.Cuts
  6
CONTINUOUS
 62
  256
370
   -1
100
AcDbLine
 10
7.647722559055118
 20
-2.903832598425197
 11
7.662122322834645
 21
-2.949872086614173
  0
LINE
  5
5B
100
AcDbEntity
  8
Edge.Cuts
  6
CONTINUOUS
 62
  256
370
   -1
100
AcDbLine
 10
7.662122322834645
 20
-2.949872086614173
 11
7.675070590551181
 21
-2.996340708661417
  0
LINE
  5
5C
100
AcDbEntity
  8
Edge.Cuts
  6
CONTINUOUS
 62
  256
370
   -1
100
AcDbLine
 10
7.675070590551181
 20
-2.996340708661417
 11
7.686554645669291
 21
-3.043192677165354
  0
LINE
  5
5D
100
AcDbEntity
  8
Edge.Cuts
  6
CONTINUOUS
 62
  256
370
   -1
100
AcDbLine
 10
7.686554645669291
 20
-3.043192677165354
 11
7.696563149606299
 21
-3.090381850393701
  0
LINE
  5
5E
100
AcDbEntity
  8
Edge.Cuts
  6
CONTINUOUS
 62
  256
370
   -1
100
AcDbLine
 10
7.696563149606299
 20
-3.090381850393701
 11
7.70508625984252
 21
-3.137861811023622
  0
LINE
  5
5F
100
AcDbEntity
  8
Edge.Cuts
  6
CONTINUOUS
 62
  256
370
   -1
100
AcDbLine
 10
7.70508625984252
 20
-3.137861811023622
 11
7.712115590551181
 21
-3.185585787401575
  0
LINE
  5
60
100
AcDbEntity
  8
Edge.Cuts
  6
CONTINUOUS
 62
  256
370
   -1
100
AcDbLine
 10
7.712115590551181
 20
-3.185585787401575
 11
7.717644212598425
 21
-3.233506811023622
  0
LINE
  5
61
100
AcDbEntity
  8
Edge.Cuts
  6
CONTINUOUS
 62
  256
370
   -1
100
AcDbLine
 10
7.717644212598425
 20
-3.233506811023622
 11
7.721666692913385
 21
-3.281577677165354
  0
LINE
  5
62
100
AcDbEntity
  8
Edge.Cuts
  6
CONTINUOUS
 62
  256
370
   -1
100
AcDbLine
 10
7.721666692913385
 20
-3.281577677165354
 11
7.72417905511811
 21
-3.329751102362205
  0
LINE
  5
63
100
AcDbEntity
  8
Edge.Cuts
  6
CONTINUOUS
 62
  256
370
   -1
100
AcDbLine
 10
7.72417905511811
 20
-3.329751102362205
 11
7.725178818897637
 21
-3.377979606299212
  0
LINE
  5
64
100
AcDbEntity
  8
Edge.Cuts
  6
CONTINUOUS
 62
  256
370
   -1
100
AcDbLine
 10
7.725178818897637
 20
-3.377979606299212
 11
7.724665039370079
 21
-3.426215748031496
  0
LINE
  5
65
100
AcDbEntity
  8
Edge.Cuts
  6
CONTINUOUS
 62
  256
370
   -1
100
AcDbLine
 10
7.724665039370079
 20
-3.426215748031496
 11
7.722638188976378
 21
-3.474412047244094
  0
LINE
  5
66
100
AcDbEntity
  8
Edge.Cuts
  6
CONTINUOUS
 62
  256
370
   -1
100
AcDbLine
 10
7.722638188976378
 20
-3.474412047244094
 11
7.719100275590551
 21
-3.522521023622047
  0
LINE
  5
67
100
AcDbEntity
  8
Edge.Cuts
  6
CONTINUOUS
 62
  256
370
   -1
100
AcDbLine
 10
7.719100275590551
 20
-3.522521023622047
 11
7.714054763779528
 21
-3.57049531496063
  0
LINE
  5
68
100
AcDbEntity
  8
Edge.Cuts
  6
CONTINUOUS
 62
  256
370
   -1
100
AcDbLine
 10
7.714054763779528
 20
-3.57049531496063
 11
7.707506653543307
 21
-3.618287677165354
  0
LINE
  5
69
100
AcDbEntity
  8
Edge.Cuts
  6
CONTINUOUS
 62
  256
370
   -1
100
AcDbLine
 10
7.707506653543307
 20
-3.618287677165354
 11
7.699462362204724
 21
-3.665851102362204
  0
LINE
  5
6A
100
AcDbEntity
  8
Edge.Cuts
  6
CONTINUOUS
 62
  256
370
   -1
100
AcDbLine
 10
7.699462362204724
 20
-3.665851102362204
 11
7.689929842519684
 21
-3.71313874015748
  0
LINE
  5
6B
100
AcDbEntity
  8
Edge.Cuts
  6
CONTINUOUS
 62
  256
370
   -1
100
AcDbLine
 10
7.689929842519684
 20
-3.71313874015748
 11
7.678918464566929
 21
-3.76010405511811
  0
LINE
  5
6C
100
AcDbEntity
  8
Edge.Cuts
  6
CONTINUOUS
 62
  256
370
   -1
100
AcDbLine
 10
7.678918464566929
 20
-3.76010405511811
 11
7.666439015748031
 21
-3.806700748031496
  0
LINE
  5
6D
100
AcDbEntity
  8
Edge.Cuts
  6
CONTINUOUS
 62
  256
370
   -1
100
AcDbLine
 10
7.666439015748031
 20
-3.806700748031496
 11
7.652503858267717
 21
-3.852883031496063
  0
LINE
  5
6E
100
AcDbEntity
  8
Edge.Cuts
  6
CONTINUOUS
 62
  256
370
   -1
100
AcDbLine
 10
7.652503858267717
 20
-3.852883031496063
 11
7.637126692913386
 21
-3.898605354330709
  0
LINE
  5
6F
100
AcDbEntity
  8
Edge.Cuts
  6
CONTINUOUS
 62
  256
370
   -1
100
AcDbLine
 10
7.637126692913386
 20
-3.898605354330709
 11
7.620322637795275
 21
-3.943822755905512
  0
LINE
  5
70
100
AcDbEntity
  8
Edge.Cuts
  6
CONTINUOUS
 62
  256
370
   -1
100
AcDbLine
 10
7.620322637795275
 20
-3.943822755905512
 11
7.602108267716535
 21
-3.988490708661417
  0
LINE
  5
71
100
AcDbEntity
  8
Edge.Cuts
  6
CONTINUOUS
 62
  256
370
   -1
100
AcDbLine
 10
7.602108267716535
 20
-3.988490708661417
 11
7.582501496062992
 21
-4.032565236220472
  0
LINE
  5
72
100
AcDbEntity
  8
Edge.Cuts
  6
CONTINUOUS
 62
  256
370
   -1
100
AcDbLine
 10
7.582501496062992
 20
-4.032565236220472
 11
7.561521574803149
 21
-4.076002913385826
  0
LINE
  5
73
100
AcDbEntity
  8
Edge.Cuts
  6
CONTINUOUS
 62
  256
370
   -1
100
AcDbLine
 10
7.561521574803149
 20
-4.076002913385826
 11
7.539189251968504
 21
-4.118761062992126
  0
LINE
  5
74
100
AcDbEntity
  8
Edge.Cuts
  6
CONTINUOUS
 62
  256
370
   -1
100
AcDbLine
 10
7.539189251968504
 20
-4.118761062992126
 11
7.515526456692913
 21
-4.160797480314961
  0
LINE
  5
75
100
AcDbEntity
  8
Edge.Cuts
  6
CONTINUOUS
 62
  256
370
   -1
100
AcDbLine
 10
7.515526456692913
 20
-4.160797480314961
 11
7.490556496062992
 21
-4.202070866141733
  0
LINE
  5
76
100
AcDbEntity
  8
Edge.Cuts
  6
CONTINUOUS
 62
  256
370
   -1
100
AcDbLine
 10
7.490556496062992
 20
-4.202070866141733
 11
7.464303976377953
 21
-4.242540511811024
  0
LINE
  5
77
100
AcDbEntity
  8
Edge.Cuts
  6
CONTINUOUS
 62
  256
370
   -1
100
AcDbLine
 10
7.464303976377953
 20
-4.242540511811024
 11
7.436794724409449
 21
-4.282166653543307
  0
LINE
  5
78
100
AcDbEntity
  8
Edge.Cuts
  6
CONTINUOUS
 62
  256
370
   -1
100
AcDbLine
 10
7.436794724409449
 20
-4.282166653543307
 11
7.408055787401574
 21
-4.320910236220472
  0
LINE
  5
79
100
AcDbEntity
  8
Edge.Cuts
  6
CONTINUOUS
 62
  256
370
   -1
100
AcDbLine
 10
7.408055787401574
 20
-4.320910236220472
 11
7.378115511811023
 21
-4.35873311023622
  0
LINE
  5
7A
100
AcDbEntity
  8
Edge.Cuts
  6
CONTINUOUS
 62
  256
370
   -1
100
AcDbLine
 10
7.378115511811023
 20
-4.35873311023622
 11
7.347003385826771
 21
-4.395598031496063
  0
LINE
  5
7B
100
AcDbEntity
  8
Edge.Cuts
  6
CONTINUOUS
 62
  256
370
   -1
100
AcDbLine
 10
7.347003385826771
 20
-4.395598031496063
 11
7.314749960629921
 21
-4.43146874015748
  0
LINE
  5
7C
100
AcDbEntity
  8
Edge.Cuts
  6
CONTINUOUS
 62
  256
370
   -1
100
AcDbLine
 10
7.314749960629921
 20
-4.43146874015748
 11
7.281387086614173
 21
-4.466309921259842
  0
LINE
  5
7D
100
AcDbEntity
  8
Edge.Cuts
  6
CONTINUOUS
 62
  256
370
   -1
100
AcDbLine
 10
7.281387086614173
 20
-4.466309921259842
 11
7.246947519685039
 21
-4.500087244094488
  0
LINE
  5
7E
100
AcDbEntity
  8
Edge.Cuts
  6
CONTINUOUS
 62
  256
370
   -1
100
AcDbLine
 10
7.246947519685039
 20
-4.500087244094488
 11
7.211465236220472
 21
-4.532767440944882
  0
LINE
  5
7F
100
AcDbEntity
  8
Edge.Cuts
  6
CONTINUOUS
 62
  256
370
   -1
100
AcDbLine
 10
7.211465236220472
 20
-4.532767440944882
 11
7.174975118110236
 21
-4.564318385826772
  0
LINE
  5
80
100
AcDbEntity
  8
Edge.Cuts
  6
CONTINUOUS
 62
  256
370
   -1
100
AcDbLine
 10
7.174975118110236
 20
-4.564318385826772
 11
7.137513149606299
 21
-4.594708976377953
  0
LINE
  5
81
100
AcDbEntity
  8
Edge.Cuts
  6
CONTINUOUS
 62
  256
370
   -1
100
AcDbLine
 10
7.137513149606299
 20
-4.594708976377953
 11
7.099116141732283
 21
-4.623909330708662
  0
LINE
  5
82
100
AcDbEntity
  8
Edge.Cuts
  6
CONTINUOUS
 62
  256
370
   -1
100
AcDbLine
 10
7.099116141732283
 20
-4.623909330708662
 11
7.059821968503937
 21
-4.651890708661417
  0
LINE
  5
83
100
AcDbEntity
  8
Edge.Cuts
  6
CONTINUOUS
 62
  256
370
   -1
100
AcDbLine
 10
7.059821968503937
 20
-4.651890708661417
 11
7.019669251968504
 21
-4.678625511811023
  0
LINE
  5
84
100
AcDbEntity
  8
Edge.Cuts
  6
CONTINUOUS
 62
  256
370
   -1
100
AcDbLine
 10
7.019669251968504
 20
-4.678625511811023
 11
6.978697559055118
 21
-4.704087401574803
  0
LINE
  5
85
100
AcDbEntity
  8
Edge.Cuts
  6
CONTINUOUS
 62
  256
370
   -1
100
AcDbLine
 10
6.978697559055118
 20
-4.704087401574803
 11
6.936947204724409
 21
-4.728251417322834
  0
LINE
  5
86
100
AcDbEntity
  8
Edge.Cuts
  6
CONTINUOUS
 62
  256
370
   -1
100
AcDbLine
 10
6.936947204724409
 20
-4.728251417322834
 11
6.894459291338583
 21
-4.751093661417323
  0
LINE
  5
87
100
AcDbEntity
  8
Edge.Cuts
  6
CONTINUOUS
 62
  256
370
   -1
100
AcDbLine
 10
6.894459291338583
 20
-4.751093661417323
 11
6.851275708661417
 21
-4.772591692913386
  0
LINE
  5
88
100
AcDbEntity
  8
Edge.Cuts
  6
CONTINUOUS
 62
  256
370
   -1
100
AcDbLine
 10
6.851275708661417
 20
-4.772591692913386
 11
6.807438897637796
 21
-4.792724330708661
  0
LINE
  5
89
100
AcDbEntity
  8
Edge.Cuts
  6
CONTINUOUS
 62
  256
370
   -1
100
AcDbLine
 10
6.807438897637796
 20
-4.792724330708661
 11
6.762992047244095
 21
-4.811471811023622
  0
LINE
  5
8A
100
AcDbEntity
  8
Edge.Cuts
  6
CONTINUOUS
 62
  256
370
   -1
100
AcDbLine
 10
6.762992047244095
 20
-4.811471811023622
 11
6.717978897637795
 21
-4.828815590551181
  0
LINE
  5
8B
100
AcDbEntity
  8
Edge.Cuts
  6
CONTINUOUS
 62
  256
370
   -1
100
AcDbLine
 10
6.717978897637795
 20
-4.828815590551181
 11
6.672443779527559
 21
-4.844738622047244
  0
LINE
  5
8C
100
AcDbEntity
  8
Edge.Cuts
  6
CONTINUOUS
 62
  256
370
   -1
100
AcDbLine
 10
6.672443779527559
 20
-4.844738622047244
 11
6.626431535433071
 21
-4.859225275590551
  0
LINE
  5
8D
100
AcDbEntity
  8
Edge.Cuts
  6
CONTINUOUS
 62
  256
370
   -1
100
AcDbLine
 10
6.626431535433071
 20
-4.859225275590551
 11
6.579987440944882
 21
-4.872261220472441
  0
LINE
  5
8E
100
AcDbEntity
  8
Edge.Cuts
  6
CONTINUOUS
 62
  256
370
   -1
100
AcDbLine
 10
6.579987440944882
 20
-4.872261220472441
 11
6.533157244094488
 21
-4.883833700787402
  0
LINE
  5
8F
100
AcDbEntity
  8
Edge.Cuts
  6
CONTINUOUS
 62
  256
370
   -1
100
AcDbLine
 10
6.533157244094488
 20
-4.883833700787402
 11
6.485987047244095
 21
-4.893931259842519
  0
LINE
  5
90
100
AcDbEntity
  8
Edge.Cuts
  6
CONTINUOUS
 62
  256
370
   -1
100
AcDbLine
 10
6.485987047244095
 20
-4.893931259842519
 11
6.438523228346456
 21
-4.902543976377952
  0
LINE
  5
91
100
AcDbEntity
  8
Edge.Cuts
  6
CONTINUOUS
 62
  256
370
   -1
100
AcDbLine
 10
6.438523228346456
 20
-4.902543976377952
 11
6.392521181102362
 21
-4.909408385826771
  0
LINE
  5
92
100
AcDbEntity
  8
Edge.Cuts
  6
CONTINUOUS
 62
  256
370
   -1
100
AcDbLine
 10
6.392521181102362
 20
-4.909408385826771
 11
6.392521181102362
 21
-5.20954220472441
  0
LINE
  5
93
100
AcDbEntity
  8
Edge.Cuts
  6
CONTINUOUS
 62
  256
370
   -1
100
AcDbLine
 10
6.392521181102362
 20
-5.20954220472441
 11
6.392466771653543
 21
-5.209815669291339
  0
LINE
  5
94
100
AcDbEntity
  8
Edge.Cuts
  6
CONTINUOUS
 62
  256
370
   -1
100
AcDbLine
 10
6.392466771653543
 20
-5.209815669291339
 11
6.392480590551181
 21
-5.209939921259842
  0
LINE
  5
95
100
AcDbEntity
  8
Edge.Cuts
  6
CONTINUOUS
 62
  256
370
   -1
100
AcDbLine
 10
6.392480590551181
 20
-5.209939921259842
 11
6.392421377952756
 21
-5.210043897637795
  0
LINE
  5
96
100
AcDbEntity
  8
Edge.Cuts
  6
CONTINUOUS
 62
  256
370
   -1
100
AcDbLine
 10
6.392421377952756
 20
-5.210043897637795
 11
6.392371338582677
 21
-5.210295511811023
  0
LINE
  5
97
100
AcDbEntity
  8
Edge.Cuts
  6
CONTINUOUS
 62
  256
370
   -1
100
AcDbLine
 10
6.392371338582677
 20
-5.210295511811023
 11
6.392154842519685
 21
-5.210511968503937
  0
LINE
  5
98
100
AcDbEntity
  8
Edge.Cuts
  6
CONTINUOUS
 62
  256
370
   -1
100
AcDbLine
 10
6.392154842519685
 20
-5.210511968503937
 11
6.391878622047244
 21
-5.210997165354331
  0
LINE
  5
99
100
AcDbEntity
  8
Edge.Cuts
  6
CONTINUOUS
 62
  256
370
   -1
100
AcDbLine
 10
6.391878622047244
 20
-5.210997165354331
 11
6.391497007874015
 21
-5.211169803149606
  0
LINE
  5
9A
100
AcDbEntity
  8
Edge.Cuts
  6
CONTINUOUS
 62
  256
370
   -1
100
AcDbLine
 10
6.391497007874015
 20
-5.211169803149606
 11
6.391305984251968
 21
-5.211360866141733
  0
LINE
  5
9B
100
AcDbEntity
  8
Edge.Cuts
  6
CONTINUOUS
 62
  256
370
   -1
100
AcDbLine
 10
6.391305984251968
 20
-5.211360866141733
 11
6.391074763779527
 21
-5.211360866141733
  0
LINE
  5
9C
100
AcDbEntity
  8
Edge.Cuts
  6
CONTINUOUS
 62
  256
370
   -1
100
AcDbLine
 10
6.391074763779527
 20
-5.211360866141733
 11
6.390770196850394
 21
-5.211498661417322
  0
LINE
  5
9D
100
AcDbEntity
  8
Edge.Cuts
  6
CONTINUOUS
 62
  256
370
   -1
100
AcDbLine
 10
6.390770196850394
 20
-5.211498661417322
 11
6.345792519685039
 21
-5.215939488188976
  0
LINE
  5
9E
100
AcDbEntity
  8
Edge.Cuts
  6
CONTINUOUS
 62
  256
370
   -1
100
AcDbLine
 10
6.345792519685039
 20
-5.215939488188976
 11
6.300719251968504
 21
-5.219272440944882
  0
LINE
  5
9F
100
AcDbEntity
  8
Edge.Cuts
  6
CONTINUOUS
 62
  256
370
   -1
100
AcDbLine
 10
6.300719251968504
 20
-5.219272440944882
 11
6.255577598425197
 21
-5.221495511811024
  0
LINE
  5
A0
100
AcDbEntity
  8
Edge.Cuts
  6
CONTINUOUS
 62
  256
370
   -1
100
AcDbLine
 10
6.255577598425197
 20
-5.221495511811024
 11
6.210394960629921
 21
-5.222607401574803
  0
LINE
  5
A1
100
AcDbEntity
  8
Edge.Cuts
  6
CONTINUOUS
 62
  256
370
   -1
100
AcDbLine
 10
6.210394960629921
 20
-5.222607401574803
 11
6.165198582677165
 21
-5.222607401574803
  0
LINE
  5
A2
100
AcDbEntity
  8
Edge.Cuts
  6
CONTINUOUS
 62
  256
370
   -1
100
AcDbLine
 10
6.165198582677165
 20
-5.222607401574803
 11
6.12001594488189
 21
-5.221495511811024
  0
LINE
  5
A3
100
AcDbEntity
  8
Edge.Cuts
  6
CONTINUOUS
 62
  256
370
   -1
100
AcDbLine
 10
6.12001594488189
 20
-5.221495511811024
 11
6.074874291338583
 21
-5.219272440944882
  0
LINE
  5
A4
100
AcDbEntity
  8
Edge.Cuts
  6
CONTINUOUS
 62
  256
370
   -1
100
AcDbLine
 10
6.074874291338583
 20
-5.219272440944882
 11
6.029801023622047
 21
-5.215939488188976
  0
LINE
  5
A5
100
AcDbEntity
  8
Edge.Cuts
  6
CONTINUOUS
 62
  256
370
   -1
100
AcDbLine
 10
6.029801023622047
 20
-5.215939488188976
 11
5.984823346456693
 21
-5.211498661417322
  0
LINE
  5
A6
100
AcDbEntity
  8
Edge.Cuts
  6
CONTINUOUS
 62
  256
370
   -1
100
AcDbLine
 10
5.984823346456693
 20
-5.211498661417322
 11
5.984518779527559
 21
-5.211360866141733
  0
LINE
  5
A7
100
AcDbEntity
  8
Edge.Cuts
  6
CONTINUOUS
 62
  256
370
   -1
100
AcDbLine
 10
5.984518779527559
 20
-5.211360866141733
 11
5.984287559055118
 21
-5.211360866141733
  0
LINE
  5
A8
100
AcDbEntity
  8
Edge.Cuts
  6
CONTINUOUS
 62
  256
370
   -1
100
AcDbLine
 10
5.984287559055118
 20
-5.211360866141733
 11
5.984096496062992
 21
-5.211169803149606
  0
LINE
  5
A9
100
AcDbEntity
  8
Edge.Cuts
  6
CONTINUOUS
 62
  256
370
   -1
100
AcDbLine
 10
5.984096496062992
 20
-5.211169803149606
 11
5.983714921259843
 21
-5.210997165354331
  0
LINE
  5
AA
100
AcDbEntity
  8
Edge.Cuts
  6
CONTINUOUS
 62
  256
370
   -1
100
AcDbLine
 10
5.983714921259843
 20
-5.210997165354331
 11
5.983438661417322
 21
-5.210511968503937
  0
LINE
  5
AB
100
AcDbEntity
  8
Edge.Cuts
  6
CONTINUOUS
 62
  256
370
   -1
100
AcDbLine
 10
5.983438661417322
 20
-5.210511968503937
 11
5.983222204724409
 21
-5.210295511811023
  0
LINE
  5
AC
100
AcDbEntity
  8
Edge.Cuts
  6
CONTINUOUS
 62
  256
370
   -1
100
AcDbLine
 10
5.983222204724409
 20
-5.210295511811023
 11
5.983172125984252
 21
-5.210043897637795
  0
LINE
  5
AD
100
AcDbEntity
  8
Edge.Cuts
  6
CONTINUOUS
 62
  256
370
   -1
100
AcDbLine
 10
5.983172125984252
 20
-5.210043897637795
 11
5.983112952755905
 21
-5.209939921259842
  0
LINE
  5
AE
100
AcDbEntity
  8
Edge.Cuts
  6
CONTINUOUS
 62
  256
370
   -1
100
AcDbLine
 10
5.983112952755905
 20
-5.209939921259842
 11
5.983126732283464
 21
-5.209815669291339
  0
LINE
  5
AF
100
AcDbEntity
  8
Edge.Cuts
  6
CONTINUOUS
 62
  256
370
   -1
100
AcDbLine
 10
5.983126732283464
 20
-5.209815669291339
 11
5.983072362204724
 21
-5.20954220472441
  0
LINE
  5
B0
100
AcDbEntity
  8
Edge.Cuts
  6
CONTINUOUS
 62
  256
370
   -1
100
AcDbLine
 10
5.983072362204724
 20
-5.20954220472441
 11
5.983072362204724
 21
-4.909408385826771
  0
LINE
  5
B1
100
AcDbEntity
  8
Edge.Cuts
  6
CONTINUOUS
 62
  256
370
   -1
100
AcDbLine
 10
5.983072362204724
 20
-4.909408385826771
 11
5.937070275590551
 21
-4.902543976377952
  0
LINE
  5
B2
100
AcDbEntity
  8
Edge.Cuts
  6
CONTINUOUS
 62
  256
370
   -1
100
AcDbLine
 10
5.937070275590551
 20
-4.902543976377952
 11
5.889606496062992
 21
-4.893931259842519
  0
LINE
  5
B3
100
AcDbEntity
  8
Edge.Cuts
  6
CONTINUOUS
 62
  256
370
   -1
100
AcDbLine
 10
5.889606496062992
 20
-4.893931259842519
 11
5.842436299212598
 21
-4.883833700787402
  0
LINE
  5
B4
100
AcDbEntity
  8
Edge.Cuts
  6
CONTINUOUS
 62
  256
370
   -1
100
AcDbLine
 10
5.842436299212598
 20
-4.883833700787402
 11
5.795606102362204
 21
-4.87226125984252
  0
LINE
  5
B5
100
AcDbEntity
  8
Edge.Cuts
  6
CONTINUOUS
 62
  256
370
   -1
100
AcDbLine
 10
5.795606102362204
 20
-4.87226125984252
 11
5.749162007874015
 21
-4.859225275590551
  0
LINE
  5
B6
100
AcDbEntity
  8
Edge.Cuts
  6
CONTINUOUS
 62
  256
370
   -1
100
AcDbLine
 10
5.749162007874015
 20
-4.859225275590551
 11
5.703149763779527
 21
-4.844738661417323
  0
LINE
  5
B7
100
AcDbEntity
  8
Edge.Cuts
  6
CONTINUOUS
 62
  256
370
   -1
100
AcDbLine
 10
5.703149763779527
 20
-4.844738661417323
 11
5.657614645669291
 21
-4.828815590551181
  0
LINE
  5
B8
100
AcDbEntity
  8
Edge.Cuts
  6
CONTINUOUS
 62
  256
370
   -1
100
AcDbLine
 10
5.657614645669291
 20
-4.828815590551181
 11
5.612601496062992
 21
-4.811471811023622
  0
LINE
  5
B9
100
AcDbEntity
  8
Edge.Cuts
  6
CONTINUOUS
 62
  256
370
   -1
100
AcDbLine
 10
5.612601496062992
 20
-4.811471811023622
 11
5.568154645669291
 21
-4.79272437007874
  0
LINE
  5
BA
100
AcDbEntity
  8
Edge.Cuts
  6
CONTINUOUS
 62
  256
370
   -1
100
AcDbLine
 10
5.568154645669291
 20
-4.79272437007874
 11
5.524317834645669
 21
-4.772591692913386
  0
LINE
  5
BB
100
AcDbEntity
  8
Edge.Cuts
  6
CONTINUOUS
 62
  256
370
   -1
100
AcDbLine
 10
5.524317834645669
 20
-4.772591692913386
 11
5.481134212598425
 21
-4.751093661417323
  0
LINE
  5
BC
100
AcDbEntity
  8
Edge.Cuts
  6
CONTINUOUS
 62
  256
370
   -1
100
AcDbLine
 10
5.481134212598425
 20
-4.751093661417323
 11
5.438646338582677
 21
-4.728251417322834
  0
LINE
  5
BD
100
AcDbEntity
  8
Edge.Cuts
  6
CONTINUOUS
 62
  256
370
   -1
100
AcDbLine
 10
5.438646338582677
 20
-4.728251417322834
 11
5.396895984251969
 21
-4.704087440944882
  0
LINE
  5
BE
100
AcDbEntity
  8
Edge.Cuts
  6
CONTINUOUS
 62
  256
370
   -1
100
AcDbLine
 10
5.396895984251969
 20
-4.704087440944882
 11
5.355924291338582
 21
-4.678625511811023
  0
LINE
  5
BF
100
AcDbEntity
  8
Edge.Cuts
  6
CONTINUOUS
 62
  256
370
   -1
100
AcDbLine
 10
5.355924291338582
 20
-4.678625511811023
 11
5.31577157480315
 21
-4.651890708661417
  0
LINE
  5
C0
100
AcDbEntity
  8
Edge.Cuts
  6
CONTINUOUS
 62
  256
370
   -1
100
AcDbLine
 10
5.31577157480315
 20
-4.651890708661417
 11
5.276477362204724
 21
-4.62390937007874
  0
LINE
  5
C1
100
AcDbEntity
  8
Edge.Cuts
  6
CONTINUOUS
 62
  256
370
   -1
100
AcDbLine
 10
5.276477362204724
 20
-4.62390937007874
 11
5.238080393700788
 21
-4.594709015748031
  0
LINE
  5
C2
100
AcDbEntity
  8
Edge.Cuts
  6
CONTINUOUS
 62
  256
370
   -1
100
AcDbLine
 10
5.238080393700788
 20
-4.594709015748031
 11
5.200618385826772
 21
-4.56431842519685
  0
LINE
  5
C3
100
AcDbEntity
  8
Edge.Cuts
  6
CONTINUOUS
 62
  256
370
   -1
100
AcDbLine
 10
5.200618385826772
 20
-4.56431842519685
 11
5.164128267716535
 21
-4.532767480314961
  0
LINE
  5
C4
100
AcDbEntity
  8
Edge.Cuts
  6
CONTINUOUS
 62
  256
370
   -1
100
AcDbLine
 10
5.164128267716535
 20
-4.532767480314961
 11
5.128645984251968
 21
-4.500087244094488
  0
LINE
  5
C5
100
AcDbEntity
  8
Edge.Cuts
  6
CONTINUOUS
 62
  256
370
   -1
100
AcDbLine
 10
5.128645984251968
 20
-4.500087244094488
 11
5.094206456692913
 21
-4.466309921259842
  0
LINE
  5
C6
100
AcDbEntity
  8
Edge.Cuts
  6
CONTINUOUS
 62
  256
370
   -1
100
AcDbLine
 10
5.094206456692913
 20
-4.466309921259842
 11
5.060843543307087
 21
-4.431468779527559
  0
LINE
  5
C7
100
AcDbEntity
  8
Edge.Cuts
  6
CONTINUOUS
 62
  256
370
   -1
100
AcDbLine
 10
5.060843543307087
 20
-4.431468779527559
 11
5.028590157480314
 21
-4.395598070866142
  0
LINE
  5
C8
100
AcDbEntity
  8
Edge.Cuts
  6
CONTINUOUS
 62
  256
370
   -1
100
AcDbLine
 10
5.028590157480314
 20
-4.395598070866142
 11
4.997477992125984
 21
-4.35873311023622
  0
LINE
  5
C9
100
AcDbEntity
  8
Edge.Cuts
  6
CONTINUOUS
 62
  256
370
   -1
100
AcDbLine
 10
4.997477992125984
 20
-4.35873311023622
 11
4.967537716535433
 21
-4.320910236220472
  0
LINE
  5
CA
100
AcDbEntity
  8
Edge.Cuts
  6
CONTINUOUS
 62
  256
370
   -1
100
AcDbLine
 10
4.967537716535433
 20
-4.320910236220472
 11
4.938798818897638
 21
-4.282166653543307
  0
LINE
  5
CB
100
AcDbEntity
  8
Edge.Cuts
  6
CONTINUOUS
 62
  256
370
   -1
100
AcDbLine
 10
4.938798818897638
 20
-4.282166653543307
 11
4.911289527559055
 21
-4.242540551181103
  0
LINE
  5
CC
100
AcDbEntity
  8
Edge.Cuts
  6
CONTINUOUS
 62
  256
370
   -1
100
AcDbLine
 10
4.911289527559055
 20
-4.242540551181103
 11
4.885037007874016
 21
-4.202070866141733
  0
LINE
  5
CD
100
AcDbEntity
  8
Edge.Cuts
  6
CONTINUOUS
 62
  256
370
   -1
100
AcDbLine
 10
4.885037007874016
 20
-4.202070866141733
 11
4.860067047244095
 21
-4.16079751968504
  0
LINE
  5
CE
100
AcDbEntity
  8
Edge.Cuts
  6
CONTINUOUS
 62
  256
370
   -1
100
AcDbLine
 10
4.860067047244095
 20
-4.16079751968504
 11
4.836404251968504
 21
-4.118761062992126
  0
LINE
  5
CF
100
AcDbEntity
  8
Edge.Cuts
  6
CONTINUOUS
 62
  256
370
   -1
100
AcDbLine
 10
4.836404251968504
 20
-4.118761062992126
 11
4.814071929133858
 21
-4.076002952755905
  0
LINE
  5
D0
100
AcDbEntity
  8
Edge.Cuts
  6
CONTINUOUS
 62
  256
370
   -1
100
AcDbLine
 10
4.814071929133858
 20
-4.076002952755905
 11
4.793092047244095
 21
-4.032565236220472
  0
LINE
  5
D1
100
AcDbEntity
  8
Edge.Cuts
  6
CONTINUOUS
 62
  256
370
   -1
100
AcDbLine
 10
4.793092047244095
 20
-4.032565236220472
 11
4.773485236220472
 21
-3.988490708661417
  0
LINE
  5
D2
100
AcDbEntity
  8
Edge.Cuts
  6
CONTINUOUS
 62
  256
370
   -1
100
AcDbLine
 10
4.773485236220472
 20
-3.988490708661417
 11
4.755270866141732
 21
-3.943822755905512
  0
LINE
  5
D3
100
AcDbEntity
  8
Edge.Cuts
  6
CONTINUOUS
 62
  256
370
   -1
100
AcDbLine
 10
4.755270866141732
 20
-3.943822755905512
 11
4.738466811023622
 21
-3.898605354330709
  0
LINE
  5
D4
100
AcDbEntity
  8
Edge.Cuts
  6
CONTINUOUS
 62
  256
370
   -1
100
AcDbLine
 10
4.738466811023622
 20
-3.898605354330709
 11
4.723089645669291
 21
-3.852883031496063
  0
LINE
  5
D5
100
AcDbEntity
  8
Edge.Cuts
  6
CONTINUOUS
 62
  256
370
   -1
100
AcDbLine
 10
4.723089645669291
 20
-3.852883031496063
 11
4.709154488188976
 21
-3.806700748031496
  0
LINE
  5
D6
100
AcDbEntity
  8
Edge.Cuts
  6
CONTINUOUS
 62
  256
370
   -1
100
AcDbLine
 10
4.709154488188976
 20
-3.806700748031496
 11
4.696675078740157
 21
-3.76010405511811
  0
LINE
  5
D7
100
AcDbEntity
  8
Edge.Cuts
  6
CONTINUOUS
 62
  256
370
   -1
100
AcDbLine
 10
4.696675078740157
 20
-3.76010405511811
 11
4.685663661417323
 21
-3.71313874015748
  0
LINE
  5
D8
100
AcDbEntity
  8
Edge.Cuts
  6
CONTINUOUS
 62
  256
370
   -1
100
AcDbLine
 10
4.685663661417323
 20
-3.71313874015748
 11
4.676131141732284
 21
-3.665851102362204
  0
LINE
  5
D9
100
AcDbEntity
  8
Edge.Cuts
  6
CONTINUOUS
 62
  256
370
   -1
100
AcDbLine
 10
4.676131141732284
 20
-3.665851102362204
 11
4.668086850393701
 21
-3.618287677165354
  0
LINE
  5
DA
100
AcDbEntity
  8
Edge.Cuts
  6
CONTINUOUS
 62
  256
370
   -1
100
AcDbLine
 10
4.668086850393701
 20
-3.618287677165354
 11
4.66153874015748
 21
-3.57049531496063
  0
LINE
  5
DB
100
AcDbEntity
  8
Edge.Cuts
  6
CONTINUOUS
 62
  256
370
   -1
100
AcDbLine
 10
4.66153874015748
 20
-3.57049531496063
 11
4.656493267716535
 21
-3.522521023622047
  0
LINE
  5
DC
100
AcDbEntity
  8
Edge.Cuts
  6
CONTINUOUS
 62
  256
370
   -1
100
AcDbLine
 10
4.656493267716535
 20
-3.522521023622047
 11
4.65295531496063
 21
-3.474412047244094
  0
LINE
  5
DD
100
AcDbEntity
  8
Edge.Cuts
  6
CONTINUOUS
 62
  256
370
   -1
100
AcDbLine
 10
4.65295531496063
 20
-3.474412047244094
 11
4.650928503937008
 21
-3.426215787401575
  0
LINE
  5
DE
100
AcDbEntity
  8
Edge.Cuts
  6
CONTINUOUS
 62
  256
370
   -1
100
AcDbLine
 10
4.650928503937008
 20
-3.426215787401575
 11
4.65041468503937
 21
-3.377979606299212
  0
LINE
  5
DF
100
AcDbEntity
  8
Edge.Cuts
  6
CONTINUOUS
 62
  256
370
   -1
100
AcDbLine
 10
4.65041468503937
 20
-3.377979606299212
 11
4.651414488188976
 21
-3.329751102362205
  0
LINE
  5
E0
100
AcDbEntity
  8
Edge.Cuts
  6
CONTINUOUS
 62
  256
370
   -1
100
AcDbLine
 10
4.651414488188976
 20
-3.329751102362205
 11
4.653926850393701
 21
-3.281577677165354
  0
LINE
  5
E1
100
AcDbEntity
  8
Edge.Cuts
  6
CONTINUOUS
 62
  256
370
   -1
100
AcDbLine
 10
4.653926850393701
 20
-3.281577677165354
 11
4.657949291338583
 21
-3.233506811023622
  0
LINE
  5
E2
100
AcDbEntity
  8
Edge.Cuts
  6
CONTINUOUS
 62
  256
370
   -1
100
AcDbLine
 10
4.657949291338583
 20
-3.233506811023622
 11
4.663477913385827
 21
-3.185585787401575
  0
LINE
  5
E3
100
AcDbEntity
  8
Edge.Cuts
  6
CONTINUOUS
 62
  256
370
   -1
100
AcDbLine
 10
4.663477913385827
 20
-3.185585787401575
 11
4.670507244094488
 21
-3.137861811023622
  0
LINE
  5
E4
100
AcDbEntity
  8
Edge.Cuts
  6
CONTINUOUS
 62
  256
370
   -1
100
AcDbLine
 10
4.670507244094488
 20
-3.137861811023622
 11
4.679030354330709
 21
-3.090381850393701
  0
LINE
  5
E5
100
AcDbEntity
  8
Edge.Cuts
  6
CONTINUOUS
 62
  256
370
   -1
100
AcDbLine
 10
4.679030354330709
 20
-3.090381850393701
 11
4.689038858267716
 21
-3.043192677165354
  0
LINE
  5
E6
100
AcDbEntity
  8
Edge.Cuts
  6
CONTINUOUS
 62
  256
370
   -1
100
AcDbLine
 10
4.689038858267716
 20
-3.043192677165354
 11
4.700522913385827
 21
-2.996340708661417
  0
LINE
  5
E7
100
AcDbEntity
  8
Edge.Cuts
  6
CONTINUOUS
 62
  256
370
   -1
100
AcDbLine
 10
4.700522913385827
 20
-2.996340708661417
 11
4.713471181102362
 21
-2.949872086614173
  0
LINE
  5
E8
100
AcDbEntity
  8
Edge.Cuts
  6
CONTINUOUS
 62
  256
370
   -1
100
AcDbLine
 10
4.713471181102362
 20
-2.949872086614173
 11
4.727870984251968
 21
-2.903832598425197
  0
LINE
  5
E9
100
AcDbEntity
  8
Edge.Cuts
  6
CONTINUOUS
 62
  256
370
   -1
100
AcDbLine
 10
4.727870984251968
 20
-2.903832598425197
 11
4.743708031496062
 21
-2.858267519685039
  0
LINE
  5
EA
100
AcDbEntity
  8
Edge.Cuts
  6
CONTINUOUS
 62
  256
370
   -1
100
AcDbLine
 10
4.743708031496062
 20
-2.858267519685039
 11
4.760966850393701
 21
-2.813221692913386
  0
LINE
  5
EB
100
AcDbEntity
  8
Edge.Cuts
  6
CONTINUOUS
 62
  256
370
   -1
100
AcDbLine
 10
4.760966850393701
 20
-2.813221692913386
 11
4.779630354330709
 21
-2.768739566929134
  0
LINE
  5
EC
100
AcDbEntity
  8
Edge.Cuts
  6
CONTINUOUS
 62
  256
370
   -1
100
AcDbLine
 10
4.779630354330709
 20
-2.768739566929134
 11
4.799680236220472
 21
-2.724864803149606
  0
LINE
  5
ED
100
AcDbEntity
  8
Edge.Cuts
  6
CONTINUOUS
 62
  256
370
   -1
100
AcDbLine
 10
4.799680236220472
 20
-2.724864803149606
 11
4.821096732283465
 21
-2.681640708661417
  0
LINE
  5
EE
100
AcDbEntity
  8
Edge.Cuts
  6
CONTINUOUS
 62
  256
370
   -1
100
AcDbLine
 10
4.821096732283465
 20
-2.681640708661417
 11
4.843858779527559
 21
-2.639109763779528
  0
LINE
  5
EF
100
AcDbEntity
  8
Edge.Cuts
  6
CONTINUOUS
 62
  256
370
   -1
100
AcDbLine
 10
4.843858779527559
 20
-2.639109763779528
 11
4.867928700787401
 21
-2.597340196850394
  0
LINE
  5
F0
100
AcDbEntity
  8
Edge.Cuts
  6
CONTINUOUS
 62
  256
370
   -1
100
AcDbLine
 10
4.867928700787401
 20
-2.597340196850394
 11
4.867929094488189
 21
-2.597339133858268
  0
LINE
  5
F1
100
AcDbEntity
  8
Edge.Cuts
  6
CONTINUOUS
 62
  256
370
   -1
100
AcDbLine
 10
4.867929094488189
 20
-2.597339133858268
 11
5.064779488188976
 21
-2.256384251968504
  0
LINE
  5
F2
100
AcDbEntity
  8
Edge.Cuts
  6
CONTINUOUS
 62
  256
370
   -1
100
AcDbLine
 10
5.064779488188976
 20
-2.256384251968504
 11
5.065285905511811
 21
-2.255806771653543
  0
LINE
  5
F3
100
AcDbEntity
  8
Edge.Cuts
  6
CONTINUOUS
 62
  256
370
   -1
100
AcDbLine
 10
5.065285905511811
 20
-2.255806771653543
 11
5.065542834645669
 21
-2.255737913385827
  0
LINE
  5
F4
100
AcDbEntity
  8
Edge.Cuts
  6
CONTINUOUS
 62
  256
370
   -1
100
AcDbLine
 10
5.065542834645669
 20
-2.255737913385827
 11
5.065730944881889
 21
-2.255549842519685
  0
LINE
  5
F5
100
AcDbEntity
  8
Edge.Cuts
  6
CONTINUOUS
 62
  256
370
   -1
100
AcDbLine
 10
5.065730944881889
 20
-2.255549842519685
 11
5.066484251968504
 21
-2.2554
  0
LINE
  5
F6
100
AcDbEntity
  8
Edge.Cuts
  6
CONTINUOUS
 62
  256
370
   -1
100
AcDbLine
 10
5.066484251968504
 20
-2.2554
 11
7.309109291338583
 21
-2.2554
  0
LINE
  5
F7
100
AcDbEntity
  8
Edge.Cuts
  6
CONTINUOUS
 62
  256
370
   -1
100
AcDbLine
 10
7.309109291338583
 20
-2.2554
 11
7.309862598425196
 21
-2.255549842519685
  0
LINE
  5
F8
100
AcDbEntity
  8
Edge.Cuts
  6
CONTINUOUS
 62
  256
370
   -1
100
AcDbLine
 10
4.871338622047244
 20
-2.599307637795276
 11
4.871326377952756
 21
-2.59932157480315
  0
LINE
  5
F9
100
AcDbEntity
  8
Edge.Cuts
  6
CONTINUOUS
 62
  256
370
   -1
100
AcDbLine
 10
4.871326377952756
 20
-2.59932157480315
 11
4.871323818897638
 21
-2.599332874015748
  0
LINE
  5
FA
100
AcDbEntity
  8
Edge.Cuts
  6
CONTINUOUS
 62
  256
370
   -1
100
AcDbLine
 10
7.504269724409449
 20
-2.599332874015748
 11
7.504267125984252
 21
-2.59932157480315
  0
LINE
  5
FB
100
AcDbEntity
  8
Edge.Cuts
  6
CONTINUOUS
 62
  256
370
   -1
100
AcDbLine
 10
7.504267125984252
 20
-2.59932157480315
 11
7.504254921259842
 21
-2.599307637795276
  0
ENDSEC
  0
SECTION
  2
OBJECTS
  0
DICTIONARY
  5
C
330
0
100
AcDbDictionary
281
    1
  3
ACAD_GROUP
350
D
  0
DICTIONARY
  5
D
330
C
100
AcDbDictionary
281
    1
  0
PLOTSETTINGS
  5
FC
100
AcDbPlotSettings
  6
1x1
 40
0
 41
0
 42
0
 43
0
  0
ENDSEC
  0
EOF
