<?xml version="1.0" encoding="UTF-8" standalone="no"?>
<!-- Created with Inkscape (http://www.inkscape.org/) -->

<svg
   width="5mm"
   height="3.2mm"
   viewBox="0 0 5 3.2"
   version="1.1"
   id="svg1"
   xml:space="preserve"
   inkscape:version="1.4.3 (0d15f75042, 2025-12-25)"
   sodipodi:docname="accelerometer-label.svg"
   xmlns:inkscape="http://www.inkscape.org/namespaces/inkscape"
   xmlns:sodipodi="http://sodipodi.sourceforge.net/DTD/sodipodi-0.dtd"
   xmlns="http://www.w3.org/2000/svg"
   xmlns:svg="http://www.w3.org/2000/svg"><sodipodi:namedview
     id="namedview1"
     pagecolor="#ffffff"
     bordercolor="#000000"
     borderopacity="0.25"
     inkscape:showpageshadow="2"
     inkscape:pageopacity="0.0"
     inkscape:pagecheckerboard="0"
     inkscape:deskcolor="#d1d1d1"
     inkscape:document-units="mm"
     inkscape:zoom="49.159949"
     inkscape:cx="14.717265"
     inkscape:cy="6.1330414"
     inkscape:window-width="3440"
     inkscape:window-height="1358"
     inkscape:window-x="0"
     inkscape:window-y="0"
     inkscape:window-maximized="1"
     inkscape:current-layer="layer1" /><defs
     id="defs1"><inkscape:path-effect
       effect="fillet_chamfer"
       id="path-effect25"
       is_visible="true"
       lpeversion="1"
       nodesatellites_param="F,0,0,1,0,0,0,1 @ F,0,0,1,0,1.3229166,0,1 @ F,0,0,1,0,1.3229166,0,1 @ F,0,0,1,0,0,0,1"
       radius="5"
       unit="px"
       method="auto"
       mode="F"
       chamfer_steps="1"
       flexible="false"
       use_knot_distance="true"
       apply_no_radius="true"
       apply_with_radius="true"
       only_selected="false"
       hide_knots="false" /><inkscape:path-effect
       effect="fillet_chamfer"
       id="path-effect1"
       is_visible="true"
       lpeversion="1"
       nodesatellites_param="F,0,0,1,0,0,0,1 @ F,0,0,1,0,1.3229166,0,1 @ F,0,0,1,0,1.3229166,0,1 @ F,0,0,1,0,0,0,1"
       radius="5"
       unit="px"
       method="auto"
       mode="F"
       chamfer_steps="1"
       flexible="false"
       use_knot_distance="true"
       apply_no_radius="true"
       apply_with_radius="true"
       only_selected="false"
       hide_knots="false" /></defs><g
     inkscape:label="Layer 1"
     inkscape:groupmode="layer"
     id="layer1"><path
       d="m 0,0 v 3.1998047 h 3.6772949 c 0.7306267,10e-8 1.3229168,-0.59229 1.3229167,-1.3229167 V 1.3229167 C 5.0002117,0.59228993 4.4079216,-5.5228483e-8 3.6772949,0 Z M 3.3910075,0.3519165 H 3.5517212 L 3.6819458,0.73173828 3.8225057,0.3519165 H 3.9858032 L 3.6468058,1.1337809 H 3.4953939 L 3.6054647,0.88315023 Z m -2.90266521,0.0697632 v 0.16174723 c -0.0687915,0.0529165 -0.0981852,0.11413904 -0.0981852,0.20515544 0,0.0793748 0.0296914,0.14719525 0.0857829,0.19482015 0.0465665,0.0402161 0.11426713,0.0645955 0.17776693,0.0645955 0.14604955,0 0.26665039,-0.11752501 0.26665039,-0.26251623 0,-0.0751414 -0.0253092,-0.12922852 -0.091984,-0.19378662 V 0.42167969 c 0.14287454,0.0613831 0.23151039,0.19983532 0.23151039,0.36070149 0,0.22859932 -0.18072763,0.41186122 -0.40721026,0.41186122 -0.22119098,0 -0.40255941,-0.1808518 -0.40255941,-0.40204269 0,-0.0952497 0.0317089,-0.18744929 0.089917,-0.25941569 0.0433915,-0.0529166 0.0805783,-0.0804127 0.14831137,-0.11110433 z M 3.9563477,1.1337809 c 0.00292,-1.982e-4 0.00586,-1.982e-4 0.00878,0 0.00881,4.952e-4 0.017425,0.00278 0.025322,0.00672 l 0.3374471,0.1689819 c 0.038192,0.019482 0.038192,0.074052 0,0.093534 l -0.3374471,0.168982 c -0.043321,0.021789 -0.094366,-0.0099 -0.094051,-0.058394 V 1.4314372 H 2.5740031 V 2.580721 h 0.083716 c 0.048265,7.16e-5 0.079564,0.050932 0.057878,0.094051 L 2.5471313,3.0117025 c -0.019298,0.038877 -0.074754,0.038877 -0.094051,0 L 2.2846151,2.6747721 c -0.021686,-0.043119 0.00961,-0.093979 0.057878,-0.094051 h 0.083199 V 1.3575399 c -9.5e-6,-6.9e-4 -9.5e-6,-0.00138 0,-0.00207 3.188e-4,-0.040965 0.033449,-0.074095 0.074414,-0.074414 H 3.896403 v -0.082166 c -2.139e-4,-0.034077 0.025967,-0.062514 0.059945,-0.065112 z M 0.48834229,1.2407511 v 0.1617473 c -0.0687915,0.052917 -0.0981852,0.1146562 -0.0981852,0.2056722 0,0.079375 0.0296914,0.1466784 0.0857829,0.1943034 0.0465665,0.040216 0.11426713,0.064596 0.17776693,0.064596 0.14604955,0 0.26665039,-0.1175251 0.26665039,-0.2625163 0,-0.075141 -0.0253092,-0.1287118 -0.091984,-0.1932698 V 1.2407511 c 0.14287454,0.061383 0.23151039,0.1998353 0.23151039,0.3607015 0,0.2285993 -0.18072763,0.4118612 -0.40721026,0.4118612 -0.22119098,0 -0.40255941,-0.1808516 -0.40255941,-0.4020426 0,-0.09525 0.0317089,-0.1874497 0.089917,-0.2594157 0.0433915,-0.052917 0.0805783,-0.080412 0.14831137,-0.1111044 z M 1.045931,2.0102132 V 2.1698934 L 0.84387614,2.2536092 V 2.5316284 L 1.045931,2.6184448 v 0.160197 L 0.26406657,2.4525635 V 2.3383586 Z M 0.7053833,2.3114868 0.46818848,2.3952026 0.7053833,2.4789185 Z M 2.7946615,2.4546305 H 2.9533081 L 3.0592448,2.6313639 3.1631144,2.4546305 H 3.3217611 L 3.1429606,2.7383341 3.3512166,3.0406413 H 3.1822347 L 3.0592448,2.83962 2.9362549,3.0406413 H 2.7672729 L 2.9744954,2.7383341 Z"
       style="stroke-width:0.15;stroke-linecap:round;stroke-linejoin:round;stroke-miterlimit:3.5"
       id="path2" /></g></svg>
