<?xml version="1.0" encoding="UTF-8" standalone="no"?>
<!-- Created with Inkscape (http://www.inkscape.org/) -->

<svg
   width="10.28mm"
   height="2.5mm"
   viewBox="0 0 10.28 2.5"
   version="1.1"
   id="svg1"
   sodipodi:docname="display-label.svg"
   inkscape:version="1.4.3 (0d15f75042, 2025-12-25)"
   xmlns:inkscape="http://www.inkscape.org/namespaces/inkscape"
   xmlns:sodipodi="http://sodipodi.sourceforge.net/DTD/sodipodi-0.dtd"
   xmlns="http://www.w3.org/2000/svg"
   xmlns:svg="http://www.w3.org/2000/svg">
  <sodipodi:namedview
     id="namedview1"
     pagecolor="#ffffff"
     bordercolor="#000000"
     borderopacity="0.25"
     inkscape:showpageshadow="2"
     inkscape:pageopacity="0.0"
     inkscape:pagecheckerboard="0"
     inkscape:deskcolor="#d1d1d1"
     inkscape:document-units="mm"
     inkscape:zoom="23.161199"
     inkscape:cx="14.269555"
     inkscape:cy="7.6205035"
     inkscape:window-width="3440"
     inkscape:window-height="1358"
     inkscape:window-x="0"
     inkscape:window-y="0"
     inkscape:window-maximized="1"
     inkscape:current-layer="layer1" />
  <defs
     id="defs1">
    <inkscape:path-effect
       effect="fillet_chamfer"
       id="path-effect1"
       is_visible="true"
       lpeversion="1"
       nodesatellites_param="F,0,0,1,0,0,0,1 @ F,0,0,1,0,0,0,1 @ F,0,0,1,0,1.3229167,0,1 @ F,0,0,1,0,1.3229167,0,1"
       radius="5"
       unit="px"
       method="auto"
       mode="F"
       chamfer_steps="1"
       flexible="false"
       use_knot_distance="true"
       apply_no_radius="true"
       apply_with_radius="true"
       only_selected="false"
       hide_knots="false" />
  </defs>
  <g
     inkscape:label="Layer 1"
     inkscape:groupmode="layer"
     id="layer1">
    <path
       d="M 3.3664856e-6,0 V 1.1770833 C 3.3664856e-6,1.90771 0.59229337,2.5 1.3229201,2.5 h 7.6341593 c 0.7306267,-10e-8 1.3229166,-0.59229 1.3229166,-1.3229167 V 0 Z M 3.656111,0.22003577 c 0.1460503,0 0.2817191,0.061081 0.3663859,0.1669149 0.0635,0.078317 0.090802,0.1589688 0.097152,0.2775024 H 3.8194085 c -0.00847,-0.1058333 -0.067998,-0.1653646 -0.1653646,-0.1653646 -0.09525,0 -0.1607137,0.065514 -0.1607137,0.1586467 0,0.05715 0.029666,0.1061272 0.086816,0.1421102 0.021167,0.0127 0.025466,0.01473 0.1736328,0.069763 0.1545169,0.059267 0.2032004,0.084443 0.2645834,0.14159343 0.1583843,0.2743297 0.1395263,0.1948448 0.1395263,0.3260783 0,0.2836338 -0.218194,0.5017781 -0.4997111,0.5017781 -0.1672169,0 -0.3192449,-0.070085 -0.4123779,-0.188619 -0.0635,-0.084667 -0.09122,-0.1630037 -0.1018026,-0.2857706 h 0.3028243 c 0.0127,0.1312337 0.08224,0.1948201 0.2113566,0.1948201 0.124884,0 0.2118734,-0.077986 0.2118734,-0.1901692 0,-0.065617 -0.025263,-0.1210635 -0.07183,-0.1591635 C 3.7516545,1.174173 3.7364702,1.1680672 3.5269199,1.0897502 3.3152529,1.0114335 3.2013584,0.86130337 3.2013584,0.66445307 c 0,-0.2476504 0.2007522,-0.4444173 0.4547526,-0.4444173 z m -2.4722005,0.0273885 h 0.3576009 c 0.2455337,0 0.4317213,0.038054 0.5544881,0.1121379 0.218017,0.1312336 0.3410644,0.3743766 0.3410644,0.67282713 0,0.3153838 -0.1416219,0.5739302 -0.3829223,0.6924642 -0.1270002,0.0635 -0.2688453,0.086816 -0.5059123,0.086816 H 1.1839105 Z m 1.4815633,0 H 2.9553786 V 1.8116699 H 2.6654738 Z m 1.6934367,0 h 0.3875732 c 0.2053169,0 0.3110749,0.018913 0.3999756,0.07183 0.135467,0.08255 0.2113566,0.2309107 0.2113566,0.4108277 0,0.1799169 -0.078155,0.33659583 -0.2051554,0.41702883 -0.086784,0.052917 -0.1885773,0.069763 -0.4108277,0.069763 H 4.6488152 V 1.8116699 H 4.3589105 Z m 1.1792561,0 H 5.8280714 V 1.5341675 h 0.478007 V 1.8116699 H 5.5381666 Z m 1.5068848,0 H 7.2734612 L 7.9297519,1.8116699 H 7.6103916 L 7.4429599,1.4070434 H 6.8864048 L 6.712772,1.8116699 H 6.3928948 Z m 0.7322551,0 h 0.3131591 l 0.3451986,0.7193359 0.3472656,-0.7193359 H 9.096089 L 8.5819085,1.2339274 V 1.8116699 H 8.291487 V 1.2339274 Z M 1.4738152,0.52440997 V 1.5341675 h 0.063562 c 0.1735669,0 0.2940713,-0.023196 0.3808553,-0.069763 0.1397006,-0.0762 0.2268595,-0.2436314 0.2268595,-0.432015 0,-0.20108373 -0.091095,-0.36821733 -0.2392619,-0.44441733 -0.091017,-0.0465672 -0.1883871,-0.0635622 -0.374654,-0.0635622 z m 3.175,0 v 0.4149617 h 0.084749 c 0.1143002,0 0.1927448,-0.012374 0.2371948,-0.035657 0.061383,-0.033867 0.095085,-0.093299 0.095085,-0.1694987 0,-0.097367 -0.050725,-0.1715371 -0.1353923,-0.1948201 -0.04445,-0.010587 -0.088718,-0.0149861 -0.1839681,-0.014986 z M 7.1592563,0.65566807 6.9923415,1.1300578 H 7.326688 Z"
       style="stroke-width:0.15;stroke-linecap:round;stroke-linejoin:round;stroke-miterlimit:3.5"
       id="path2"
       sodipodi:nodetypes="cssssccscccsscccsscccssccsscscscsccccccccscscsccccccccccccccccccccccccccccccccscscscccscscsccccc" />
  </g>
</svg>
