<?xml version="1.0" encoding="UTF-8" standalone="no"?>
<svg
   version="1.0"
   width="519.53406pt"
   height="642.56903pt"
   viewBox="0 0 519.53406 642.56904"
   preserveAspectRatio="xMidYMid"
   id="svg17"
   sodipodi:docname="dropbot-logo-text.svg"
   inkscape:version="1.4.3 (0d15f75042, 2025-12-25)"
   xmlns:inkscape="http://www.inkscape.org/namespaces/inkscape"
   xmlns:sodipodi="http://sodipodi.sourceforge.net/DTD/sodipodi-0.dtd"
   xmlns="http://www.w3.org/2000/svg"
   xmlns:svg="http://www.w3.org/2000/svg">
  <defs
     id="defs17">
    <inkscape:path-effect
       effect="fillet_chamfer"
       id="path-effect17"
       is_visible="true"
       lpeversion="1"
       nodesatellites_param="F,0,0,1,0,75.000003,0,1 @ F,0,0,1,0,75.000003,0,1 @ F,0,0,1,0,75.000003,0,1 @ F,0,0,1,0,75.000003,0,1"
       radius="100"
       unit="px"
       method="auto"
       mode="F"
       chamfer_steps="1"
       flexible="false"
       use_knot_distance="true"
       apply_no_radius="true"
       apply_with_radius="true"
       only_selected="false"
       hide_knots="false" />
  </defs>
  <sodipodi:namedview
     id="namedview17"
     pagecolor="#ffffff"
     bordercolor="#000000"
     borderopacity="0.25"
     inkscape:showpageshadow="2"
     inkscape:pageopacity="0.0"
     inkscape:pagecheckerboard="0"
     inkscape:deskcolor="#d1d1d1"
     inkscape:document-units="pt"
     inkscape:zoom="0.95921699"
     inkscape:cx="375.82737"
     inkscape:cy="476.95152"
     inkscape:window-width="3440"
     inkscape:window-height="1358"
     inkscape:window-x="0"
     inkscape:window-y="0"
     inkscape:window-maximized="1"
     inkscape:current-layer="g17" />
  <g
     transform="matrix(0.1,0,0,-0.1,-188.16594,973.99409)"
     fill="#000000"
     stroke="none"
     id="g17">
    <path
       d="m 2421.0001,5609.9995 4.9951,-31.9922 c 49,-272 163.003,-554.0078 318.003,-793.0078 340,-520 892.9961,-870.0049 1485.9961,-940.0049 652,-78 1269.9737,144.0406 1730.0097,621.0059 164.964,171.0347 269.9893,318.0039 373.9893,524.0039 95,186 157.0058,369.0029 201.0058,588.0029 l 7.002,31.9922 H 4480.9952 Z m 804.8291,-281.1475 h 453.208 c 533.3215,-633.5019 1064.5116,-633.5019 1593.5596,0 h 452.2559 l -158.0274,-316.0107 192.9932,-318.0029 -297.9932,-275.9913 -307.998,199.9952 -386.9971,-157.002 -81.0205,-347.1533 -416.9824,-3.8379 -93.003,357.9932 -376.9921,150 -305.0098,-199.9952 -290.6543,282.3194 182.6514,312.6855 z"
       id="path2" />
    <path
       style="fill:#000000;stroke-width:2.83465;stroke-linecap:square;stroke-miterlimit:3.5"
       id="rect17"
       width="1999.9999"
       height="1088.2415"
       x="3480.4072"
       y="-7449.0063"
       transform="scale(1,-1)"
       inkscape:path-effect="#path-effect17"
       sodipodi:type="rect"
       d="m 3555.4072,-7449.0063 h 1849.9999 a 75.000003,75.000003 45 0 1 75,75 l 0,938.2414 a 75.000003,75.000003 135 0 1 -75,75 H 3555.4072 a 75.000003,75.000003 45 0 1 -75,-75 v -938.2414 a 75.000003,75.000003 135 0 1 75,-75 z" />
    <ellipse
       style="fill:#000000;stroke-width:2.83465;stroke-linecap:square;stroke-miterlimit:3.5"
       id="path18"
       cx="4480.4072"
       cy="-8861.1104"
       transform="scale(1,-1)"
       rx="159.56923"
       ry="159.49716" />
    <ellipse
       style="fill:#000000;stroke-width:2.83465;stroke-linecap:square;stroke-miterlimit:3.5"
       id="path18-3"
       cx="6089.7998"
       cy="-6904.8857"
       transform="scale(1,-1)"
       rx="159.56923"
       ry="159.49716" />
    <ellipse
       style="fill:#000000;stroke-width:2.83465;stroke-linecap:square;stroke-miterlimit:3.5"
       id="path18-3-6"
       cx="2873.4119"
       cy="-6904.8857"
       transform="scale(1,-1)"
       rx="159.56923"
       ry="159.49716" />
    <ellipse
       style="fill:#000000;stroke-width:2.83465;stroke-linecap:square;stroke-miterlimit:3.5"
       id="path18-3-6-9"
       cx="3639.7302"
       cy="-6008.9512"
       transform="scale(1,-1)"
       rx="159.56923"
       ry="159.49716" />
    <ellipse
       style="fill:#000000;stroke-width:2.83465;stroke-linecap:square;stroke-miterlimit:3.5"
       id="path18-3-6-9-2"
       cx="3639.7302"
       cy="-7910.3926"
       transform="scale(1,-1)"
       rx="159.56923"
       ry="159.49716" />
    <ellipse
       style="fill:#000000;stroke-width:2.83465;stroke-linecap:square;stroke-miterlimit:3.5"
       id="path18-3-6-9-2-0"
       cx="5320.2573"
       cy="-7909.1118"
       transform="scale(1,-1)"
       rx="159.56923"
       ry="159.49716" />
    <ellipse
       style="fill:#000000;stroke-width:2.83465;stroke-linecap:square;stroke-miterlimit:3.5"
       id="path18-3-6-9-2-0-3"
       cx="5320.2573"
       cy="-6009.0225"
       transform="scale(1,-1)"
       rx="159.56923"
       ry="159.49716" />
    <path
       style="fill:none;fill-opacity:1;stroke:#000000;stroke-width:100;stroke-linecap:square;stroke-miterlimit:3.5;stroke-dasharray:none;stroke-opacity:1"
       d="M 4480.4072,9689.9409 C 5160.6881,9689.9409 7027,7064.3829 7027,5978 7027,4719.8456 6007.7292,3364.2505 4482.5744,3364.2505 c -1497.1091,0 -2550.9148,1355.5951 -2550.9148,2484.3483 -0.7285,1215.7841 1867.6399,3841.3421 2548.7476,3841.3421 z"
       id="path20"
       sodipodi:nodetypes="ccccc" />
  </g>
</svg>
