<?xml version="1.0" encoding="UTF-8" standalone="no"?>
<!-- Created with Inkscape (http://www.inkscape.org/) -->

<svg
   version="1.1"
   id="svg1"
   width="1600"
   height="322.79999"
   viewBox="0 0 1600 322.79999"
   sodipodi:docname="EasyEDA_Horz_Blue_Trans.ai"
   inkscape:export-filename="/home/nicolas/Documents/repos/Project-Emerge/rover-circuit/fig/EasyEDA_Horz_Blue_Trans.svg"
   inkscape:export-xdpi="96"
   inkscape:export-ydpi="96"
   xmlns:inkscape="http://www.inkscape.org/namespaces/inkscape"
   xmlns:sodipodi="http://sodipodi.sourceforge.net/DTD/sodipodi-0.dtd"
   xmlns="http://www.w3.org/2000/svg"
   xmlns:svg="http://www.w3.org/2000/svg">
  <defs
     id="defs1" />
  <sodipodi:namedview
     id="namedview1"
     pagecolor="#ffffff"
     bordercolor="#999999"
     borderopacity="1"
     inkscape:showpageshadow="2"
     inkscape:pageopacity="0"
     inkscape:pagecheckerboard="0"
     inkscape:deskcolor="#d1d1d1">
    <inkscape:page
       x="0"
       y="0"
       inkscape:label="1"
       id="page1"
       width="1600"
       height="322.79999"
       margin="0"
       bleed="0" />
  </sodipodi:namedview>
  <g
     id="g1"
     inkscape:groupmode="layer"
     inkscape:label="1">
    <path
       id="path1"
       d="m 641.477,113.773 c 1.722,-1.347 3.824,-2.023 6.222,-2.023 3.227,0 6.676,1.199 10.352,3.523 3.676,2.329 7.199,6 10.574,11.028 l 13.051,-20.926 C 677.625,99.523 672.602,94.949 666.523,91.727 660.449,88.5 654,86.926 647.25,86.926 c -9.602,0 -18,2.926 -25.051,8.773 -7.051,5.852 -10.574,13.5 -10.574,22.801 0,6.676 2.25,13.051 6.75,19.051 3.227,4.273 9.074,9.449 17.477,15.449 7.273,5.176 11.773,8.773 13.421,10.801 1.653,2.023 2.477,3.972 2.477,5.926 0,2.398 -1.051,4.421 -3.227,6.222 -2.171,1.727 -5.023,2.625 -8.625,2.625 -9.074,0 -17.472,-5.023 -25.125,-15.148 l -16.875,19.648 c 7.5,7.949 14.329,13.5 20.403,16.5 6.074,3 12.898,4.5 20.324,4.5 12.898,0 22.727,-3.676 29.551,-11.023 6.824,-7.352 10.199,-15.227 10.199,-23.477 0,-6.301 -1.648,-12.074 -4.949,-17.472 -3.301,-5.329 -10.199,-11.778 -20.699,-19.278 -6.602,-4.722 -10.5,-7.875 -11.778,-9.523 -1.347,-1.653 -2.023,-3.301 -2.023,-4.949 -0.153,-1.727 0.75,-3.227 2.551,-4.579 z"
       style="fill:#1765f6;fill-opacity:1;fill-rule:nonzero;stroke:none"
       transform="scale(1.3333333)" />
    <path
       id="path2"
       d="m 744.301,155.926 -21.75,-66.153 h -26.852 l 31.426,96.301 -31.727,56.028 h 28.875 L 811.949,89.773 h -29.551 z"
       style="fill:#1765f6;fill-opacity:1;fill-rule:nonzero;stroke:none"
       transform="scale(1.3333333)" />
    <path
       id="path3"
       d="m 453.602,108.523 h -52.875 l 4.347,-31.273 c 0,0 56.102,-0.074 56.403,-0.074 7.347,0 13.347,-6 13.347,-13.352 0,-7.347 -6,-13.347 -13.347,-13.347 h -81.301 l -20.699,150.898 h 84.972 c 7.125,-0.148 12.903,-6 12.903,-13.125 0,-7.125 -5.926,-13.199 -13.204,-13.199 -0.296,0 -52.722,0.074 -52.722,0.074 l 5.551,-39.977 c 0,0 53.847,0.079 54.296,0.079 7.352,0 13.352,-6 13.352,-13.352 0.148,-6.824 -4.648,-12.301 -11.023,-13.352 z"
       style="fill:#1765f6;fill-opacity:1;fill-rule:nonzero;stroke:none"
       transform="scale(1.3333333)" />
    <path
       id="path4"
       d="m 916.727,50.551 h -81.375 l -20.551,150.75 h 85.051 c 7.125,-0.153 12.898,-6 12.898,-13.125 0,-7.125 -5.926,-13.199 -13.199,-13.199 -0.301,0 -52.727,0.074 -52.727,0.074 l 5.551,-39.977 c 0,0 53.852,0.074 54.375,0.074 7.352,0 13.352,-6 13.352,-13.347 0,-6.602 -4.801,-12.074 -11.102,-13.125 h -52.875 l 4.352,-31.278 c 0,0 56.097,-0.074 56.398,-0.074 7.352,0 13.352,-6 13.352,-13.347 -0.153,-7.5 -6.079,-13.5 -13.5,-13.426 z"
       style="fill:#1765f6;fill-opacity:1;fill-rule:nonzero;stroke:none"
       transform="scale(1.3333333)" />
    <path
       id="path5"
       d="m 1068.602,122.699 c 0,-14.773 -3.454,-27.898 -10.278,-39.222 -6.824,-11.329 -15.676,-19.653 -26.625,-24.903 -10.949,-5.324 -27.523,-7.949 -50.023,-7.949 H 957.75 l -20.551,150.75 H 984 c 19.648,0 35.023,-2.926 46.051,-8.773 11.023,-5.852 20.25,-15.153 27.523,-27.829 7.352,-12.824 10.949,-26.773 11.028,-42.074 z m -37.125,31.199 c -5.477,8.25 -12.676,14.102 -21.676,17.477 -6.449,2.398 -16.801,3.602 -31.125,3.602 h -9.301 l 13.273,-97.875 h 7.125 c 11.625,0 20.926,1.796 27.903,5.472 6.972,3.676 12.375,8.852 16.273,15.602 3.824,6.75 5.778,15.074 5.778,25.051 -0.079,12.148 -2.778,22.421 -8.25,30.671 z"
       style="fill:#1765f6;fill-opacity:1;fill-rule:nonzero;stroke:none"
       transform="scale(1.3333333)" />
    <path
       id="path6"
       d="m 1180.051,120.977 -16.727,9.222 c -1.347,12.153 -11.699,21.528 -24.148,21.528 -13.426,0 -24.301,-10.875 -24.301,-24.301 0,-13.426 10.875,-24.301 24.301,-24.301 5.176,0 9.972,1.648 13.875,4.352 L 1173.824,96 1162.574,50.773 h -23.773 l -81.074,150.153 h 30.296 l 17.102,-31.949 h 59.625 l 7.949,31.949 H 1200 Z"
       style="fill:#1765f6;fill-opacity:1;fill-rule:nonzero;stroke:none"
       transform="scale(1.3333333)" />
    <path
       id="path7"
       d="m 1130.176,126.824 c 0,5.176 4.199,9.375 9.375,9.375 5.176,0 9.375,-4.199 9.375,-9.375 0,-5.176 -4.199,-9.375 -9.375,-9.375 -5.176,0 -9.375,4.199 -9.375,9.375 z"
       style="fill:#1765f6;fill-opacity:1;fill-rule:nonzero;stroke:none"
       transform="scale(1.3333333)" />
    <path
       id="path8"
       d="m 576.227,107.324 c 0,0 0,-0.074 0,0 h -9.375 l -0.977,-1.801 C 562.051,99.449 557.25,94.875 551.477,91.727 545.625,88.574 536.398,87 529.5,87 c -10.273,0 -20.102,2.773 -29.477,8.324 -9.375,5.551 -16.875,13.278 -22.421,23.25 -5.551,9.903 -8.403,20.403 -8.403,31.352 0,14.398 4.352,27 13.051,37.875 8.699,10.875 20.477,16.273 35.25,16.273 6.449,0 12.227,-1.051 17.398,-3.301 5.176,-2.171 10.727,-6 16.653,-11.546 0,0 6.972,6.074 7.051,6 4.347,3.449 9.75,5.625 15.597,6 h 2.699 l 0.375,-3.227 9.528,-80.25 h -0.153 c 0,-5.625 -4.648,-10.273 -10.421,-10.426 z m -21.977,53.852 c -3.375,6.375 -7.574,11.097 -12.602,14.097 -5.023,3 -10.875,4.5 -17.625,4.5 -8.097,0 -14.699,-2.625 -19.875,-8.023 -5.171,-5.324 -7.722,-12.375 -7.722,-21.074 0,-11.324 3.375,-20.551 10.199,-27.75 6.824,-7.199 15.074,-10.727 24.824,-10.727 8.403,0 15.153,2.699 20.25,8.028 5.102,5.398 7.653,12.449 7.653,21.296 0.074,6.676 -1.653,13.278 -5.102,19.653 z"
       style="fill:#1765f6;fill-opacity:1;fill-rule:nonzero;stroke:none"
       transform="scale(1.3333333)" />
    <path
       id="path9"
       d="M 268.051,65.176 C 262.426,50.25 253.273,36.75 241.199,25.875 222.676,9.227 198.602,0 173.625,0 152.023,0 131.324,6.75 113.926,19.5 105.523,25.648 98.25,32.926 92.25,41.25 88.5,40.727 84.676,40.426 80.773,40.426 59.25,40.426 38.926,48.824 23.625,64.051 8.398,79.273 0,99.523 0,121.125 c 0,20.023 7.426,39.227 20.852,54.148 10.648,11.778 24.449,20.102 39.75,24 6.597,19.653 25.199,33.829 47.097,33.829 27.375,0 49.727,-22.278 49.727,-49.727 0,-1.574 -0.074,-3.227 -0.227,-4.801 l 69.75,-36.597 -15.222,-26.403 -66.676,34.949 c -9.074,-10.347 -22.426,-16.875 -37.278,-16.875 -21.523,0 -39.972,13.801 -46.796,33 C 43.426,158.926 31.125,141.449 31.125,120.977 30.898,93.602 53.25,71.25 80.773,71.25 c 9.676,0 18.75,2.773 26.403,7.574 9.222,-27.824 35.472,-48 66.449,-48 36,0 65.625,27.153 69.602,62.102 1.273,-0.153 2.546,-0.227 3.824,-0.227 21.523,0 39,17.477 39,39 0,20.403 -15.676,37.125 -35.625,38.926 h -22.278 c -0.972,-0.227 -2.023,-0.301 -3.074,-0.301 -8.625,0 -15.597,6.977 -15.597,15.602 0,8.176 6.296,14.847 14.324,15.523 v 0.153 h 27.972 l 1.352,-0.153 c 17.398,-1.5 33.523,-9.375 45.375,-22.273 11.926,-12.977 18.523,-29.778 18.523,-47.477 0.079,-31.051 -20.625,-57.597 -48.972,-66.523 z M 107.625,164.25 c 10.574,0 19.199,8.625 19.199,19.199 0,10.574 -8.625,19.199 -19.199,19.199 -10.574,0 -19.199,-8.625 -19.199,-19.199 0,-10.574 8.625,-19.199 19.199,-19.199 z"
       style="fill:#1765f6;fill-opacity:1;fill-rule:nonzero;stroke:none"
       transform="scale(1.3333333)" />
  </g>
</svg>
