<?xml version="1.0" encoding="UTF-8" standalone="no"?>
<!-- Created with Inkscape (http://www.inkscape.org/) -->

<svg
   width="3.2mm"
   height="5mm"
   viewBox="0 0 3.2 4.9999999"
   version="1.1"
   id="svg1"
   xml:space="preserve"
   inkscape:version="1.4.3 (0d15f75042, 2025-12-25)"
   sodipodi:docname="gyro-label.svg"
   xmlns:inkscape="http://www.inkscape.org/namespaces/inkscape"
   xmlns:sodipodi="http://sodipodi.sourceforge.net/DTD/sodipodi-0.dtd"
   xmlns="http://www.w3.org/2000/svg"
   xmlns:svg="http://www.w3.org/2000/svg"><sodipodi:namedview
     id="namedview1"
     pagecolor="#ffffff"
     bordercolor="#000000"
     borderopacity="0.25"
     inkscape:showpageshadow="2"
     inkscape:pageopacity="0.0"
     inkscape:pagecheckerboard="0"
     inkscape:deskcolor="#d1d1d1"
     inkscape:document-units="mm"
     inkscape:zoom="49.159949"
     inkscape:cx="6.6415854"
     inkscape:cy="9.1436222"
     inkscape:window-width="3440"
     inkscape:window-height="1358"
     inkscape:window-x="0"
     inkscape:window-y="0"
     inkscape:window-maximized="1"
     inkscape:current-layer="layer1" /><defs
     id="defs1"><inkscape:path-effect
       effect="fillet_chamfer"
       id="path-effect2"
       is_visible="true"
       lpeversion="1"
       nodesatellites_param="F,0,0,1,0,0,0,1 @ F,0,0,1,0,0,0,1 @ F,0,0,1,0,1.3229167,0,1 @ F,0,0,1,0,1.3229167,0,1"
       radius="5"
       unit="px"
       method="auto"
       mode="F"
       chamfer_steps="1"
       flexible="false"
       use_knot_distance="true"
       apply_no_radius="true"
       apply_with_radius="true"
       only_selected="false"
       hide_knots="false" /><inkscape:path-effect
       effect="fillet_chamfer"
       id="path-effect25"
       is_visible="true"
       lpeversion="1"
       nodesatellites_param="F,0,0,1,0,0,0,1 @ F,0,0,1,0,1.3229166,0,1 @ F,0,0,1,0,1.3229166,0,1 @ F,0,0,1,0,0,0,1"
       radius="5"
       unit="px"
       method="auto"
       mode="F"
       chamfer_steps="1"
       flexible="false"
       use_knot_distance="true"
       apply_no_radius="true"
       apply_with_radius="true"
       only_selected="false"
       hide_knots="false" /><inkscape:path-effect
       effect="fillet_chamfer"
       id="path-effect1"
       is_visible="true"
       lpeversion="1"
       nodesatellites_param="F,0,0,1,0,0,0,1 @ F,0,0,1,0,1.3229166,0,1 @ F,0,0,1,0,1.3229166,0,1 @ F,0,0,1,0,0,0,1"
       radius="5"
       unit="px"
       method="auto"
       mode="F"
       chamfer_steps="1"
       flexible="false"
       use_knot_distance="true"
       apply_no_radius="true"
       apply_with_radius="true"
       only_selected="false"
       hide_knots="false" /></defs><g
     inkscape:label="Layer 1"
     inkscape:groupmode="layer"
     id="layer1"><path
       d="M 0,0 V 3.6772949 C 0,4.4079216 0.59228995,5.0002116 1.3229167,5.0002116 H 1.876888 c 0.7306267,0 1.3229167,-0.59229 1.3229167,-1.3229167 V 0 Z m 1.686202,0.19430339 c 0.1703911,0 0.3310888,0.10263809 0.3818888,0.24339599 H 1.8980754 c -0.047625,-0.0666749 -0.123958,-0.10335286 -0.214974,-0.10335286 -0.075141,0 -0.1441445,0.0272812 -0.1896525,0.0759644 -0.04445,0.0476248 -0.072864,0.12191941 -0.072864,0.18965251 0,0.15028286 0.1173266,0.26458333 0.2707845,0.26458333 0.1037163,0 0.1886852,-0.051193 0.2299602,-0.13797607 H 1.5973185 V 0.59117839 h 0.5110799 v 0.0191203 c 0,0.10054135 -0.040171,0.19822692 -0.1121378,0.27336832 -0.077258,0.0793748 -0.177573,0.12040611 -0.296106,0.12040611 -0.2402409,0 -0.4258138,-0.17651916 -0.4258138,-0.40617678 0,-0.22542431 0.1822036,-0.40359293 0.4118612,-0.40359293 z M 0.36225179,0.20825602 H 0.56120605 L 0.7720459,0.8009847 0.98030192,0.20825602 H 1.1792562 V 0.99012044 H 1.0345622 V 0.4041097 L 0.8299235,0.99012044 H 0.71158447 L 0.50746257,0.4041097 V 0.99012044 H 0.36225179 Z m 1.84174801,0 H 2.3688477 L 2.6928589,0.77773031 V 0.20825602 h 0.144694 V 0.99012044 H 2.6758057 L 2.3486938,0.42219645 V 0.99012044 H 2.2039998 Z M 2.4680664,2.1135661 c 0.011769,-9.035e-4 0.02356,0.00142 0.034107,0.00672 L 2.83962,2.2887492 c 0.038877,0.019297 0.038877,0.074754 0,0.094051 L 2.5021729,2.5512655 c -0.042984,0.021142 -0.093274,-0.00998 -0.093534,-0.057878 V 2.4101888 H 0.9255249 v 1.5265218 h 0.0821655 c 0.048491,-3.141e-4 0.080183,0.05073 0.058394,0.094051 L 0.89710286,4.3682088 c -0.0194817,0.038193 -0.0740526,0.038193 -0.0935343,0 L 0.63458659,4.0307617 c -0.0217891,-0.043321 0.009903,-0.094365 0.0583944,-0.094051 h 0.0821655 V 2.3357747 c 6.023e-4,-0.040761 0.0336496,-0.073579 0.0744141,-0.073897 H 2.4086385 v -0.083716 c 3.48e-5,-0.033695 0.025853,-0.061758 0.059428,-0.064596 z M 2.273763,2.615861 H 2.4344767 L 2.5647013,2.9961995 2.705778,2.615861 H 2.8685588 L 2.5300781,3.3982422 H 2.3786662 L 2.488737,3.1470947 Z M 1.1916585,3.8106201 H 1.3503052 L 1.4562419,3.9873535 1.5601115,3.8106201 H 1.7187581 L 1.5399577,4.0943237 1.7482137,4.3971476 H 1.578715 L 1.4562419,4.1961263 1.333252,4.3971476 H 1.16427 L 1.3714925,4.0943237 Z"
       style="stroke-width:0.15;stroke-linecap:round;stroke-linejoin:round;stroke-miterlimit:3.5"
       id="path17" /></g></svg>
