<?xml version="1.0" encoding="UTF-8" standalone="no"?>
<!-- Created with Inkscape (http://www.inkscape.org/) -->

<svg
   width="18mm"
   height="6.2836185mm"
   viewBox="0 0 18 6.2836185"
   version="1.1"
   id="svg1"
   inkscape:version="1.4.3 (0d15f75042, 2025-12-25)"
   sodipodi:docname="header-label.svg"
   xmlns:inkscape="http://www.inkscape.org/namespaces/inkscape"
   xmlns:sodipodi="http://sodipodi.sourceforge.net/DTD/sodipodi-0.dtd"
   xmlns="http://www.w3.org/2000/svg"
   xmlns:svg="http://www.w3.org/2000/svg">
  <sodipodi:namedview
     id="namedview1"
     pagecolor="#ffffff"
     bordercolor="#000000"
     borderopacity="0.25"
     inkscape:showpageshadow="2"
     inkscape:pageopacity="0.0"
     inkscape:pagecheckerboard="0"
     inkscape:deskcolor="#d1d1d1"
     inkscape:document-units="mm"
     showguides="true"
     inkscape:zoom="20.659189"
     inkscape:cx="24.855768"
     inkscape:cy="18.272741"
     inkscape:window-width="3440"
     inkscape:window-height="1358"
     inkscape:window-x="0"
     inkscape:window-y="0"
     inkscape:window-maximized="1"
     inkscape:current-layer="layer1">
    <sodipodi:guide
       position="0.97945535,0.74413555"
       orientation="0,1"
       id="guide1"
       inkscape:locked="false"
       inkscape:label=""
       inkscape:color="rgb(0,134,229)" />
    <sodipodi:guide
       position="2.57,0.74413545"
       orientation="-1,0"
       id="guide2"
       inkscape:locked="false"
       inkscape:label=""
       inkscape:color="rgb(0,134,229)" />
    <sodipodi:guide
       position="5.14,2.7441355"
       orientation="-1,0"
       id="guide3"
       inkscape:locked="false"
       inkscape:label=""
       inkscape:color="rgb(0,134,229)" />
    <sodipodi:guide
       position="10.28,3.9880977"
       orientation="-1,0"
       id="guide4"
       inkscape:locked="false"
       inkscape:label=""
       inkscape:color="rgb(0,134,229)" />
    <sodipodi:guide
       position="7.71,2.7441355"
       orientation="-1,0"
       id="guide5"
       inkscape:locked="false"
       inkscape:label=""
       inkscape:color="rgb(0,134,229)" />
    <sodipodi:guide
       position="12.85,0.74413545"
       orientation="-1,0"
       id="guide6"
       inkscape:locked="false"
       inkscape:label=""
       inkscape:color="rgb(0,134,229)" />
    <sodipodi:guide
       position="15.42,2.2264069"
       orientation="-1,0"
       id="guide7"
       inkscape:locked="false"
       inkscape:label=""
       inkscape:color="rgb(0,134,229)" />
  </sodipodi:namedview>
  <defs
     id="defs1" />
  <g
     inkscape:label="Layer 1"
     inkscape:groupmode="layer"
     id="layer1"
     transform="translate(0,1.2558644)">
    <path
       style="fill:#000000;stroke:#000000;stroke-width:0.15;stroke-linejoin:round;stroke-miterlimit:3.5;stroke-dasharray:none;stroke-opacity:1"
       d="M 0,2 H 18"
       id="path7" />
    <path
       style="fill:#000000;stroke:#000000;stroke-width:0.15;stroke-linejoin:round;stroke-miterlimit:3.5;stroke-dasharray:none;stroke-opacity:1"
       d="M 10.281203,3.9999999 V 0"
       id="path8" />
    <path
       style="fill:#000000;stroke:#000000;stroke-width:0.15;stroke-linejoin:round;stroke-miterlimit:3.5;stroke-dasharray:none;stroke-opacity:1"
       d="M 15.419214,0 V 2"
       id="path9" />
    <path
       style="fill:#000000;stroke:#000000;stroke-width:0.15;stroke-linejoin:round;stroke-miterlimit:3.5;stroke-dasharray:none;stroke-opacity:1"
       d="M 12.849861,0 12.85,2"
       id="path10" />
    <path
       style="fill:#000000;stroke:#000000;stroke-width:0.15;stroke-linejoin:round;stroke-miterlimit:3.5;stroke-dasharray:none;stroke-opacity:1"
       d="M 5.14,1.0088303e-7 V 3.9999999"
       id="path11" />
    <path
       style="fill:#000000;stroke:#000000;stroke-width:0.15;stroke-linejoin:round;stroke-miterlimit:3.5;stroke-dasharray:none;stroke-opacity:1"
       d="M 7.7099998,1.0088303e-7 V 3.9999999"
       id="path12" />
    <path
       d="m 13.101009,2.4937775 c -0.306211,0 -0.54932,0.2373852 -0.54932,0.5379517 0,0.3062109 0.247085,0.541569 0.567407,0.541569 0.158044,0 0.292314,-0.05488 0.395325,-0.1607137 0.09596,-0.1001888 0.149344,-0.2297466 0.149344,-0.3638021 v -0.025838 h -0.681612 v 0.1808675 h 0.432015 c -0.05503,0.115711 -0.168152,0.1834513 -0.306441,0.1834513 -0.204611,0 -0.361218,-0.1525724 -0.361218,-0.35295 0,-0.090311 0.0384,-0.1891977 0.09767,-0.2526977 0.06068,-0.064911 0.151992,-0.1012859 0.252181,-0.1012859 0.121356,0 0.223304,0.049076 0.286804,0.1379761 h 0.22686 c -0.06774,-0.1876777 -0.281825,-0.324528 -0.509013,-0.324528 z m 0.68988,0.018603 v 1.0428304 h 0.19327 V 2.7971182 l 0.436149,0.7580932 h 0.215491 V 2.512381 h -0.19327 V 3.2715078 L 14.011031,2.512381 Z m 1.044381,0 v 1.0428304 h 0.242363 c 0.158044,0 0.25278,-0.015545 0.337447,-0.057878 0.160866,-0.079022 0.255281,-0.2512151 0.255281,-0.4614705 0,-0.1989665 -0.08203,-0.3610626 -0.227376,-0.4485514 -0.08184,-0.049389 -0.205797,-0.074931 -0.369486,-0.074931 z m 0.19327,0.1850017 h 0.03772 c 0.124177,0 0.189437,0.010814 0.250114,0.041858 0.09878,0.0508 0.159163,0.1625673 0.159163,0.2966227 0,0.1255888 -0.05777,0.2370377 -0.150895,0.2878377 -0.05786,0.031044 -0.13802,0.046509 -0.253731,0.046509 h -0.04237 z"
       style="font-weight:bold;font-size:1.41111px;line-height:0.9;font-family:'URW Gothic';-inkscape-font-specification:'URW Gothic, Bold';text-align:center;letter-spacing:0px;word-spacing:0.0211667px;text-anchor:middle;stroke-width:0.15;stroke-linejoin:round;stroke-miterlimit:3.5"
       id="path26" />
    <path
       d="m 1.8391642,2.5242666 -0.097668,0.5446696 0.1669148,0.044958 c 0.046567,-0.057856 0.085944,-0.079065 0.1452108,-0.079065 0.097367,0 0.1694987,0.080718 0.1694987,0.1865519 0,0.1128888 -0.070999,0.1917196 -0.1725993,0.1917196 -0.090311,0 -0.1492263,-0.05653 -0.1689819,-0.1581299 H 1.6939535 c 0.00988,0.1876776 0.1675185,0.3302124 0.3622517,0.3302124 0.2031998,0 0.3545004,-0.1566473 0.3545004,-0.3669027 0,-0.2046109 -0.1397125,-0.3555338 -0.3302124,-0.3555338 -0.047978,0 -0.079325,0.00688 -0.1343588,0.029456 L 1.9802409,2.7004833 H 2.3104533 V 2.5242666 Z m 0.6392375,0 0.4061768,1.0428304 H 3.0427083 L 3.4463013,2.5242666 H 3.2432129 L 2.9620931,3.3169831 2.6814901,2.5242666 Z"
       style="font-weight:bold;font-size:1.41111px;line-height:0.9;font-family:'URW Gothic';-inkscape-font-specification:'URW Gothic, Bold';text-align:center;letter-spacing:0px;word-spacing:0.0211667px;text-anchor:middle;stroke-width:0.15;stroke-linejoin:round;stroke-miterlimit:3.5"
       id="path25" />
    <path
       d="m 1.6805176,0.39623114 c -0.081844,0 -0.1570785,0.0324391 -0.2092896,0.0888835 -0.043744,0.0479777 -0.060641,0.0931004 -0.067696,0.17776693 h 0.190686 c 0.00847,-0.0663222 0.035122,-0.0945679 0.087333,-0.0945679 0.053622,0 0.091984,0.0413632 0.091984,0.0992187 0,0.0451555 -0.021467,0.0774953 -0.060978,0.0930176 -0.023989,0.009878 -0.049453,0.0125415 -0.1002523,0.0139526 v 0.18086752 h 0.031523 c 0.1255888,0 0.2046387,0.0688331 0.2046387,0.17466636 0,0.1001888 -0.069269,0.1736328 -0.1638143,0.1736328 -0.091722,0 -0.1567987,-0.063486 -0.1694987,-0.162264 H 1.3260173 c 0.011289,0.1961443 0.1592903,0.3343465 0.3596679,0.3343465 0.2017888,0 0.3503662,-0.1480606 0.3503662,-0.3498494 0,-0.13123325 -0.053608,-0.22036215 -0.162264,-0.26975101 0.060678,-0.0437444 0.087333,-0.0983672 0.087333,-0.17880046 0,-0.16086655 -0.1197365,-0.28111979 -0.280603,-0.28111979 z m 1.7776692,0 c -0.081844,0 -0.1565616,0.0324391 -0.2087727,0.0888835 -0.043744,0.0479777 -0.060641,0.0931004 -0.067696,0.17776693 H 3.372404 c 0.00847,-0.0663222 0.035122,-0.0945679 0.087333,-0.0945679 0.053622,0 0.091467,0.0413632 0.091467,0.0992187 0,0.0451555 -0.02095,0.0774953 -0.060461,0.0930176 -0.023989,0.009878 -0.049453,0.0125415 -0.1002523,0.0139526 v 0.18086752 h 0.031006 c 0.1255888,0 0.2046387,0.0688331 0.2046387,0.17466636 0,0.1001888 -0.069269,0.1736328 -0.1638143,0.1736328 -0.091722,0 -0.156282,-0.063486 -0.168982,-0.162264 H 3.1042033 c 0.011289,0.1961443 0.1592904,0.3343465 0.359668,0.3343465 0.2017888,0 0.3498494,-0.1480606 0.3498494,-0.3498494 0,-0.13123325 -0.053608,-0.22036215 -0.162264,-0.26975101 0.060678,-0.0437444 0.08785,-0.0983672 0.08785,-0.17880046 0,-0.16086655 -0.1202533,-0.28111979 -0.2811198,-0.28111979 z M 2.1063314,0.41483466 2.5130249,1.4576651 H 2.670638 L 3.074231,0.41483466 H 2.8711426 L 2.5905396,1.2075511 2.3094198,0.41483466 Z"
       style="font-weight:bold;font-size:1.41111px;line-height:0.9;font-family:'URW Gothic';-inkscape-font-specification:'URW Gothic, Bold';text-align:center;letter-spacing:0px;word-spacing:0.0211667px;text-anchor:middle;stroke-width:0.15;stroke-linejoin:round;stroke-miterlimit:3.5"
       id="path24" />
    <path
       d="m 14.655953,-0.91014907 -1.04283,0.43769938 v 0.15192871 l 1.04283,0.4345988 v -0.2129069 l -0.269234,-0.11575521 v -0.37103678 l 0.269234,-0.1116211 z m -0.454236,0.40204265 v 0.22324218 l -0.31626,-0.11162109 z m -0.06511,0.63251953 c -0.198966,0 -0.361063,0.0815152 -0.448552,0.22685953 -0.04939,0.0818444 -0.07493,0.20631449 -0.07493,0.37000326 v 0.23822835 h 1.04283 V 0.71662502 c 0,-0.15804433 -0.01554,-0.25226374 -0.05788,-0.33693034 -0.07902,-0.16086655 -0.251215,-0.25528157 -0.46147,-0.25528157 z m 0,0.19430338 c 0.125589,0 0.237039,0.0582787 0.287838,0.15141195 0.03104,0.0578555 0.04651,0.13802025 0.04651,0.25373128 v 0.0423747 h -0.672827 v -0.0382406 c 0,-0.12417769 0.01134,-0.18891944 0.04237,-0.24959717 0.0508,-0.0987777 0.162051,-0.15968018 0.296106,-0.15968018 z M 14.339693,1.093863 c -0.08749,0 -0.160597,0.030929 -0.217041,0.093018 -0.0381,0.040922 -0.05506,0.073206 -0.09457,0.1762166 -0.03669,0.098778 -0.03804,0.1016441 -0.04651,0.1157552 -0.02399,0.0381 -0.05647,0.057878 -0.09457,0.057878 -0.06209,0 -0.105937,-0.043987 -0.105937,-0.107487 0,-0.064911 0.03951,-0.1044263 0.110071,-0.1100708 V 1.1191844 c -0.07902,0.00423 -0.13279,0.022263 -0.185002,0.064596 -0.07055,0.056444 -0.111104,0.1470629 -0.111104,0.2444295 0,0.1693332 0.131006,0.3033407 0.296106,0.3033407 0.131233,0 0.231492,-0.076447 0.283703,-0.2175578 0.05221,-0.1396999 0.05663,-0.1493063 0.08062,-0.1803508 0.0254,-0.031044 0.06168,-0.048059 0.10542,-0.048059 0.07479,0 0.127124,0.057822 0.127124,0.1410767 0,0.086078 -0.04222,0.13261 -0.129708,0.1410767 v 0.2020548 c 0.08184,-0.00706 0.134242,-0.02588 0.190686,-0.068213 0.07902,-0.062089 0.125573,-0.1634409 0.125573,-0.2749186 0,-0.1876776 -0.145774,-0.3327962 -0.334863,-0.3327962 z"
       style="font-weight:bold;font-size:1.41111px;line-height:0.9;font-family:'URW Gothic';-inkscape-font-specification:'URW Gothic, Bold';text-align:center;letter-spacing:0px;word-spacing:0.0211667px;text-anchor:middle;stroke-width:0.15;stroke-linejoin:round;stroke-miterlimit:3.5"
       id="path23" />
    <path
       d="m 17.015499,-0.65745131 v 0.31884358 H 16.15767 v 0.19326986 h 1.04283 v -0.51211344 z m -0.558622,0.63613688 c -0.09031,0.04092219 -0.139549,0.07775586 -0.197404,0.14831136 -0.07761,0.0959555 -0.11989,0.21871543 -0.11989,0.34571533 0,0.294922 0.240963,0.53640134 0.535885,0.53640134 0.301978,0 0.543636,-0.24452068 0.543636,-0.54932045 0,-0.21448873 -0.118525,-0.3992632 -0.309025,-0.48110758 v 0.2273763 c 0.0889,0.0860777 0.122473,0.15819335 0.122473,0.25838216 0,0.19332208 -0.1608,0.34984945 -0.355534,0.34984945 -0.08467,0 -0.175106,-0.0326774 -0.237195,-0.0862996 -0.07479,-0.0634999 -0.114205,-0.15358244 -0.114205,-0.25941569 0,-0.12135546 0.03954,-0.2033296 0.131259,-0.2738851 z M 16.884241,1.093863 c -0.08749,0 -0.160597,0.030929 -0.217041,0.093018 -0.0381,0.040922 -0.05505,0.073206 -0.09457,0.1762166 -0.03669,0.098778 -0.03804,0.1016441 -0.04651,0.1157552 -0.02399,0.0381 -0.05647,0.057878 -0.09457,0.057878 -0.06209,0 -0.105937,-0.043987 -0.105937,-0.107487 0,-0.064911 0.03951,-0.1044263 0.110071,-0.1100708 V 1.1191844 c -0.07902,0.00423 -0.13279,0.022263 -0.185001,0.064596 -0.07056,0.056444 -0.111621,0.1470629 -0.111621,0.2444295 0,0.1693332 0.131522,0.3033407 0.296622,0.3033407 0.131233,0 0.231493,-0.076447 0.283704,-0.2175578 0.05221,-0.1396999 0.05611,-0.1493063 0.0801,-0.1803508 0.0254,-0.031044 0.06219,-0.048059 0.105937,-0.048059 0.07479,0 0.127124,0.057822 0.127124,0.1410767 0,0.086078 -0.04222,0.13261 -0.129708,0.1410767 v 0.2020548 c 0.08184,-0.00706 0.133725,-0.02588 0.19017,-0.068213 0.07902,-0.062089 0.125573,-0.1634409 0.125573,-0.2749186 0,-0.1876776 -0.145258,-0.3327962 -0.334346,-0.3327962 z"
       style="font-weight:bold;font-size:1.41111px;line-height:0.9;font-family:'URW Gothic';-inkscape-font-specification:'URW Gothic, Bold';text-align:center;letter-spacing:0px;word-spacing:0.0211667px;text-anchor:middle;stroke-width:0.15;stroke-linejoin:round;stroke-miterlimit:3.5"
       id="path21" />
    <path
       d="m 6.72052,0.39623114 c -0.1594555,0 -0.2868042,0.12683201 -0.2868042,0.28628744 0,0.0776111 0.021389,0.12567578 0.0863,0.19482014 -0.047978,0.0268111 -0.069267,0.0436081 -0.090434,0.0718302 -0.0381,0.0465666 -0.058911,0.11468463 -0.058911,0.18241783 0,0.1947332 0.1507436,0.344165 0.3482991,0.344165 0.1975554,0 0.3457154,-0.1481599 0.3457154,-0.3457153 0,-0.074789 -0.02264,-0.14115802 -0.063562,-0.18913576 C 6.979956,0.91691184 6.960257,0.90132752 6.917924,0.87733872 6.978602,0.82936102 7.0052572,0.76742357 7.0052572,0.67993475 7.0052572,0.5176571 6.8842087,0.39623114 6.72052,0.39623114 Z M 5.7526204,0.41483466 V 0.59105129 H 5.8833618 V 1.4571483 H 6.071464 V 0.41483466 Z m 0.9689331,0.153479 c 0.057855,0 0.1049032,0.0496715 0.1049032,0.11317139 0,0.0634999 -0.04667,0.11420491 -0.1059367,0.11420491 -0.060678,0 -0.107487,-0.0496715 -0.107487,-0.11317138 0,-0.0649111 0.046432,-0.11420492 0.1085205,-0.11420492 z M 6.72052,0.97604071 c 0.086078,0 0.1565796,0.0735033 0.1565796,0.16381429 0,0.093133 -0.067679,0.1638143 -0.1565796,0.1638143 -0.091722,0 -0.162264,-0.072232 -0.162264,-0.1653646 0,-0.091722 0.070542,-0.16226399 0.162264,-0.16226399 z"
       style="font-weight:bold;font-size:1.41111px;line-height:0.9;font-family:'URW Gothic';-inkscape-font-specification:'URW Gothic, Bold';text-align:center;letter-spacing:0px;word-spacing:0.0211667px;text-anchor:middle;stroke-width:0.15;stroke-linejoin:round;stroke-miterlimit:3.5"
       id="path30" />
    <path
       d="m 9.3146769,0.4055329 c -0.2074332,0 -0.3539835,0.15489855 -0.3539835,0.3736206 0,0.18908875 0.1225986,0.333313 0.2862874,0.333313 0.032456,0 0.050882,-0.00435 0.084749,-0.017053 L 9.0805827,1.4664501 H 9.3048584 L 9.5771932,1.0571727 C 9.6519822,0.94569503 9.6805461,0.86693998 9.6805461,0.76675116 9.6805461,0.55931799 9.5249323,0.4055329 9.3146769,0.4055329 Z m -0.9596313,0.0180868 v 0.1767334 H 8.4863037 V 1.4664501 H 8.6744059 V 0.42361965 Z m 0.9596313,0.15399577 c 0.103011,0 0.1777669,0.0762069 0.1777669,0.18345133 0,0.11006659 -0.070105,0.18500163 -0.173116,0.18500163 -0.098778,0 -0.171049,-0.0777573 -0.171049,-0.18500163 0,-0.10865547 0.06762,-0.18345133 0.1663981,-0.18345133 z"
       style="font-weight:bold;font-size:1.41111px;line-height:0.9;font-family:'URW Gothic';-inkscape-font-specification:'URW Gothic, Bold';text-align:center;letter-spacing:0px;word-spacing:0.0211667px;text-anchor:middle;stroke-width:0.15;stroke-linejoin:round;stroke-miterlimit:3.5"
       id="path29" />
    <path
       d="M 6.9298096,2.2462474 5.8874959,2.68343 V 2.8358755 L 6.9298096,3.2704743 V 3.0575674 L 6.6605754,2.9418122 V 2.5707754 L 6.9298096,2.4591543 Z M 6.4755737,2.6482901 V 2.8710155 L 6.1598307,2.7599112 Z m -0.064596,0.6320027 c -0.1989665,0 -0.3615794,0.082032 -0.4490682,0.2273763 -0.049389,0.081844 -0.074414,0.2057978 -0.074414,0.3694865 V 4.1159007 H 6.9298096 V 3.8730215 c 0,-0.1580443 -0.015028,-0.2522637 -0.057361,-0.3369303 C 6.7934267,3.3752247 6.6212336,3.2802928 6.4109782,3.2802928 Z m 0,0.1948202 c 0.1255888,0 0.2370377,0.057762 0.2878377,0.1508952 0.031044,0.057856 0.046509,0.1385369 0.046509,0.254248 v 0.042375 H 6.0719808 v -0.038241 c 0,-0.1241777 0.011331,-0.1889194 0.042375,-0.2495971 0.0508,-0.098778 0.1625673,-0.1596802 0.2966227,-0.1596802 z m 0.2030884,0.7746297 c -0.087489,0 -0.1611134,0.03093 -0.2175578,0.093018 -0.0381,0.040922 -0.055057,0.073723 -0.094568,0.1767334 -0.036689,0.098778 -0.038042,0.1016441 -0.046509,0.1157552 -0.023989,0.0381 -0.056468,0.057878 -0.094568,0.057878 -0.062089,0 -0.1059367,-0.043987 -0.1059367,-0.107487 0,-0.064911 0.039515,-0.1044264 0.1100708,-0.1100708 V 4.2750641 c -0.079022,0.00423 -0.1322738,0.022779 -0.1844849,0.065112 -0.070556,0.056444 -0.1116211,0.1465461 -0.1116211,0.2439127 0,0.1693332 0.1310061,0.3038574 0.296106,0.3038574 0.1312332,0 0.2314925,-0.076447 0.2837036,-0.2175577 0.052211,-0.1396999 0.056626,-0.1498232 0.080615,-0.1808676 0.0254,-0.031045 0.062192,-0.047542 0.1059367,-0.047542 0.074789,0 0.127124,0.057822 0.127124,0.1410767 0,0.086078 -0.042736,0.13261 -0.1302246,0.1410766 v 0.2015381 c 0.081844,-0.00706 0.1342417,-0.025363 0.1906861,-0.067696 0.079022,-0.062089 0.1255737,-0.1634409 0.1255737,-0.2749186 0,-0.1876776 -0.1452578,-0.333313 -0.3343465,-0.333313 z m 0.315743,1.12913 -0.3849895,0.2821534 C 6.5250641,5.5805931 6.5069558,5.540817 6.4688558,5.4956615 6.4081778,5.4236945 6.3262645,5.3886913 6.2218424,5.3886913 c -0.1072444,0 -0.196154,0.038104 -0.2568318,0.1100708 -0.057855,0.067733 -0.077515,0.142215 -0.077515,0.2847371 V 6.084256 H 6.9298096 V 5.8909862 H 6.5308675 L 6.9298096,5.6171011 Z M 6.2275269,5.5835114 c 0.1100666,0 0.1576131,0.063329 0.1576131,0.2129069 v 0.094568 H 6.0719808 v -0.0863 c 0,-0.090311 0.00988,-0.1394877 0.03669,-0.1705322 0.026811,-0.033867 0.068056,-0.050643 0.1188558,-0.050643 z"
       style="font-weight:bold;font-size:1.41111px;line-height:0.9;font-family:'URW Gothic';-inkscape-font-specification:'URW Gothic, Bold';text-align:center;letter-spacing:0px;word-spacing:0.0211667px;text-anchor:middle;stroke-width:0.15;stroke-linejoin:round;stroke-miterlimit:3.5"
       id="path32" />
    <path
       d="M 9.3477498,2.2069733 V 2.5263337 H 8.4899211 V 2.7196035 H 9.5327515 V 2.2069733 Z M 8.7891276,2.843627 c -0.090311,0.040922 -0.1395485,0.077756 -0.197404,0.1483113 -0.077611,0.095955 -0.1198893,0.2187155 -0.1198893,0.3457154 0,0.294922 0.2409626,0.5358846 0.5358846,0.5358846 0.3019776,0 0.5436361,-0.2440039 0.5436361,-0.5488037 0,-0.2144887 -0.119042,-0.3992632 -0.3095418,-0.4811076 v 0.2273763 c 0.0889,0.086078 0.1229899,0.1576765 0.1229899,0.2578654 0,0.193322 -0.1608007,0.3498494 -0.3555339,0.3498494 -0.084667,0 -0.1751059,-0.032161 -0.2371948,-0.085783 -0.074789,-0.0635 -0.1142049,-0.1540992 -0.1142049,-0.2599324 0,-0.1213555 0.039536,-0.2028128 0.1312581,-0.2733683 z m 0.4273641,1.1146606 c -0.087489,0 -0.1605966,0.030929 -0.217041,0.093018 -0.0381,0.040922 -0.055057,0.073723 -0.094568,0.1767334 -0.036689,0.098778 -0.038042,0.1016441 -0.046509,0.1157552 -0.023989,0.0381 -0.056468,0.057878 -0.094568,0.057878 -0.062089,0 -0.1059367,-0.043987 -0.1059367,-0.107487 0,-0.064911 0.039515,-0.1044264 0.1100708,-0.1100708 V 3.9836091 c -0.079022,0.00423 -0.1327907,0.022779 -0.1850017,0.065112 -0.070555,0.056444 -0.1111043,0.1465461 -0.1111043,0.2439127 0,0.1693332 0.1310061,0.3033407 0.296106,0.3033407 0.1312332,0 0.2314925,-0.07593 0.2837036,-0.217041 0.052211,-0.1396999 0.056109,-0.1498231 0.080099,-0.1808675 0.0254,-0.031044 0.062192,-0.047542 0.1059366,-0.047542 0.074789,0 0.1271241,0.057822 0.1271241,0.1410767 0,0.086078 -0.042219,0.13261 -0.1297079,0.1410767 v 0.2015381 c 0.081844,-0.00706 0.1337249,-0.025363 0.1901693,-0.067696 0.079022,-0.062089 0.1255737,-0.1634409 0.1255737,-0.2749186 0,-0.1876777 -0.1452578,-0.333313 -0.3343465,-0.333313 z M 9.5327515,5.0874177 9.147762,5.369571 C 9.128006,5.289138 9.1093809,5.2493619 9.0712809,5.2042064 9.0106029,5.1322394 8.9286897,5.0972362 8.8242676,5.0972362 c -0.1072444,0 -0.1961542,0.038104 -0.2568319,0.1100708 -0.057856,0.067733 -0.077515,0.1422149 -0.077515,0.2847371 V 5.792801 H 9.5327515 V 5.5995311 H 9.1332926 L 9.5327515,5.325646 Z M 8.829952,5.2920563 c 0.1100666,0 0.1581299,0.063329 0.1581299,0.2129069 v 0.094568 H 8.6749227 v -0.0863 c 0,-0.090311 0.00988,-0.1394879 0.03669,-0.1705323 0.026811,-0.033867 0.067539,-0.050643 0.118339,-0.050643 z"
       style="font-weight:bold;font-size:1.41111px;line-height:0.9;font-family:'URW Gothic';-inkscape-font-specification:'URW Gothic, Bold';text-align:center;letter-spacing:0px;word-spacing:0.0211667px;text-anchor:middle;stroke-width:0.15;stroke-linejoin:round;stroke-miterlimit:3.5"
       id="path31" />
  </g>
</svg>
