<?xml version="1.0" encoding="UTF-8" standalone="no"?>
<!-- Created with Inkscape (http://www.inkscape.org/) -->

<svg
   width="7.9000001mm"
   height="3.171mm"
   viewBox="0 0 7.9000002 3.171"
   version="1.1"
   id="svg1"
   xml:space="preserve"
   sodipodi:docname="power-button.svg"
   inkscape:version="1.4.3 (0d15f75042, 2025-12-25)"
   xmlns:inkscape="http://www.inkscape.org/namespaces/inkscape"
   xmlns:sodipodi="http://sodipodi.sourceforge.net/DTD/sodipodi-0.dtd"
   xmlns="http://www.w3.org/2000/svg"
   xmlns:svg="http://www.w3.org/2000/svg"><sodipodi:namedview
     id="namedview1"
     pagecolor="#ffffff"
     bordercolor="#000000"
     borderopacity="0.25"
     inkscape:showpageshadow="2"
     inkscape:pageopacity="0.0"
     inkscape:pagecheckerboard="0"
     inkscape:deskcolor="#d1d1d1"
     inkscape:document-units="mm"
     showguides="true"
     inkscape:zoom="30.836146"
     inkscape:cx="17.236266"
     inkscape:cy="1.7998358"
     inkscape:window-width="3440"
     inkscape:window-height="1358"
     inkscape:window-x="0"
     inkscape:window-y="0"
     inkscape:window-maximized="1"
     inkscape:current-layer="layer1"><sodipodi:guide
       position="2.1014305e-09,6.9656879"
       orientation="-1,0"
       id="guide1"
       inkscape:locked="false"
       inkscape:label=""
       inkscape:color="rgb(0,134,229)" /><sodipodi:guide
       position="2.7999999,5.2433412"
       orientation="-1,0"
       id="guide2"
       inkscape:locked="false"
       inkscape:label=""
       inkscape:color="rgb(0,134,229)" /><sodipodi:guide
       position="7.9000005,2.7985078"
       orientation="1,0"
       id="guide9"
       inkscape:locked="false" /><sodipodi:guide
       position="5.1,2.5516254"
       orientation="-1,0"
       id="guide10"
       inkscape:locked="false"
       inkscape:label=""
       inkscape:color="rgb(0,134,229)" /><sodipodi:guide
       position="6.5000001,3.4790755"
       orientation="-1,0"
       id="guide11"
       inkscape:locked="false"
       inkscape:label=""
       inkscape:color="rgb(0,134,229)" /><sodipodi:guide
       position="-1.1999095e-07,1.585567"
       orientation="0,-1"
       id="guide12"
       inkscape:locked="false" /><sodipodi:guide
       position="3.1,5.5734874"
       orientation="-1,0"
       id="guide13"
       inkscape:locked="false"
       inkscape:label=""
       inkscape:color="rgb(0,134,229)" /></sodipodi:namedview><defs
     id="defs1"><inkscape:path-effect
       effect="fillet_chamfer"
       id="path-effect2"
       is_visible="true"
       lpeversion="1"
       nodesatellites_param="F,0,0,1,0,0,0,1 @ F,0,0,1,0,0,0,1 @ F,0,0,1,0,1.3184504,0,1 @ F,0,0,1,0,1.3184504,0,1"
       radius="5"
       unit="px"
       method="auto"
       mode="F"
       chamfer_steps="1"
       flexible="false"
       use_knot_distance="true"
       apply_no_radius="true"
       apply_with_radius="true"
       only_selected="false"
       hide_knots="false" /></defs><g
     inkscape:label="Layer 1"
     inkscape:groupmode="layer"
     id="layer1"
     transform="translate(-1.1,-0.96531591)"><path
       d="M 1.1,0.96531591 V 3.4390667 A 0.74335142,0.69671927 0 0 0 1.8431071,4.1361818 H 3.156722 A 0.74335142,0.69671927 0 0 0 3.8998291,3.4390667 V 0.96531591 Z M 2.4999146,1.4784629 a 0.10722277,0.10722278 0 0 1 0.1074869,0.1069702 v 0.964799 A 0.10722277,0.10722278 0 0 1 2.4999146,2.6577191 0.10722277,0.10722278 0 0 1 2.3929443,2.5502321 V 1.5854331 A 0.10722277,0.10722278 0 0 1 2.4999146,1.4784629 Z M 1.8172689,1.761133 a 0.10722277,0.10722278 0 0 1 0.075448,0.031523 0.10722277,0.10722278 0 0 1 0,0.1519287 c -0.119942,0.1199811 -0.2015351,0.272339 -0.234611,0.4387329 -0.033078,0.1664024 -0.015843,0.3388396 0.049093,0.495577 0.064936,0.1567268 0.1746814,0.2907436 0.315743,0.3849894 0.1410618,0.094246 0.3068036,0.144694 0.4764567,0.144694 0.025747,0 0.051504,-0.00132 0.076998,-0.00362 C 2.7188896,3.3921 2.8561981,3.343825 2.9758554,3.2638813 3.1169191,3.1696343 3.2271886,3.0356136 3.2921152,2.8788919 c 0.032469,-0.078368 0.052817,-0.160411 0.060978,-0.2439128 0.00816,-0.083502 0.00414,-0.1684625 -0.012402,-0.2516642 -0.033075,-0.16639 -0.114668,-0.3187493 -0.2346121,-0.4387306 a 0.10722277,0.10722278 0 0 1 0,-0.1519287 0.10722277,0.10722278 0 0 1 0.1519287,0 C 3.407922,1.9426162 3.5101912,2.1334855 3.5515299,2.3414593 3.5928679,2.5494351 3.5711983,2.7651621 3.490035,2.9610597 3.4088813,3.1569509 3.2715414,3.3243696 3.0952271,3.4421673 2.918913,3.5599638 2.7114363,3.6230348 2.4993978,3.6230348 c -0.2120386,0 -0.4189993,-0.06307 -0.5953125,-0.1808675 C 1.7277719,3.3243694 1.5904383,3.1569458 1.5092773,2.9610597 1.4281183,2.7651628 1.4064404,2.5494361 1.4477824,2.3414593 1.4891233,2.1334871 1.5913925,1.9426164 1.7413045,1.7926556 a 0.10722277,0.10722278 0 0 1 0.075964,-0.031523 z"
       style="stroke-width:0.287939;stroke-linecap:round;stroke-linejoin:round;stroke-miterlimit:3.5"
       id="path9" /><path
       style="fill:none;fill-opacity:1;stroke:#000000;stroke-width:0.3;stroke-linecap:butt;stroke-linejoin:round;stroke-miterlimit:3.5;stroke-dasharray:none;stroke-opacity:1"
       d="m 4.2003327,2.5508159 3.3996672,-6.7e-5 V 0.96531591"
       id="path13" /><path
       d="m 5.3018107,2.8695924 c -0.3104442,0 -0.5498372,0.235219 -0.5498372,0.5400188 0,0.3019775 0.2425928,0.5395019 0.5488037,0.5395019 0.3033887,0 0.5374349,-0.2361133 0.5374349,-0.5395019 0,-0.3005665 -0.2386572,-0.5400188 -0.5364014,-0.5400188 z m 0.6888469,0.018087 V 3.9305096 H 6.1839274 V 3.5031455 H 6.5058716 V 3.3181439 H 6.1839274 V 3.0726808 H 6.5213745 V 2.8876792 Z m 0.677478,0 V 3.9305096 H 6.8614054 V 3.5031455 H 7.1828328 V 3.3181439 H 6.8614054 V 3.0726808 H 7.1988525 V 2.8876792 Z M 5.2992269,3.0556276 c 0.1933221,0 0.344165,0.1551563 0.344165,0.3555339 0,0.2017887 -0.1466096,0.3513997 -0.344165,0.3513997 -0.1975554,0 -0.35295,-0.1553946 -0.35295,-0.35295 0,-0.2017888 0.1525724,-0.3539836 0.35295,-0.3539836 z"
       style="font-weight:bold;font-size:1.41111px;line-height:0.9;font-family:'URW Gothic';-inkscape-font-specification:'URW Gothic, Bold';text-align:center;letter-spacing:0px;word-spacing:0.0211667px;text-anchor:middle;stroke-width:0.3;stroke-linejoin:round;stroke-miterlimit:3.5"
       id="path14" /></g></svg>
