<?xml version="1.0" encoding="UTF-8" standalone="no"?>
<!-- Created with Inkscape (http://www.inkscape.org/) -->

<svg
   width="18mm"
   height="4mm"
   viewBox="0 0 18 4"
   version="1.1"
   id="svg1"
   inkscape:version="1.4.4 (dcaf3e7d9e, 2026-05-05)"
   sodipodi:docname="signature-revision.svg"
   xmlns:inkscape="http://www.inkscape.org/namespaces/inkscape"
   xmlns:sodipodi="http://sodipodi.sourceforge.net/DTD/sodipodi-0.dtd"
   xmlns="http://www.w3.org/2000/svg"
   xmlns:svg="http://www.w3.org/2000/svg">
  <sodipodi:namedview
     id="namedview1"
     pagecolor="#ffffff"
     bordercolor="#000000"
     borderopacity="0.25"
     inkscape:showpageshadow="2"
     inkscape:pageopacity="0.0"
     inkscape:pagecheckerboard="0"
     inkscape:deskcolor="#d1d1d1"
     inkscape:document-units="mm"
     inkscape:zoom="21.944678"
     inkscape:cx="46.252671"
     inkscape:cy="6.6758782"
     inkscape:window-width="3440"
     inkscape:window-height="1358"
     inkscape:window-x="0"
     inkscape:window-y="0"
     inkscape:window-maximized="1"
     inkscape:current-layer="layer1" />
  <defs
     id="defs1">
    <inkscape:path-effect
       effect="fillet_chamfer"
       id="path-effect2"
       is_visible="true"
       lpeversion="1"
       nodesatellites_param="F,0,0,1,0,0,0,1 @ F,0,0,1,0,0.52916668,0,1 @ F,0,0,1,0,0,0,1 @ F,0,0,1,0,0.52916668,0,1"
       radius="2"
       unit="px"
       method="auto"
       mode="F"
       chamfer_steps="1"
       flexible="false"
       use_knot_distance="true"
       apply_no_radius="true"
       apply_with_radius="true"
       only_selected="false"
       hide_knots="false" />
    <inkscape:path-effect
       effect="fillet_chamfer"
       id="path-effect1"
       is_visible="true"
       lpeversion="1"
       nodesatellites_param="F,0,0,1,0,0.52916668,0,1 @ F,0,0,1,0,0.52916668,0,1 @ F,0,0,1,0,0.52916668,0,1 @ F,0,0,1,0,0.52916668,0,1"
       radius="2"
       unit="px"
       method="auto"
       mode="F"
       chamfer_steps="1"
       flexible="false"
       use_knot_distance="true"
       apply_no_radius="true"
       apply_with_radius="true"
       only_selected="false"
       hide_knots="false" />
  </defs>
  <g
     inkscape:label="Layer 1"
     inkscape:groupmode="layer"
     id="layer1">
    <path
       d="M 0.52916667,0 C 0.23691599,0 0,0.23691599 0,0.52916667 V 3.4705892 C -1.1045695e-8,3.7628399 0.23691598,3.9997559 0.52916667,3.9997559 H 17.470768 c 0.292251,2e-7 0.529167,-0.2369159 0.529167,-0.5291667 V 1.4453898 h -3.81062 c -0.292251,2e-7 -0.529167,-0.2369159 -0.529167,-0.52916666 V 0 Z M 1.1100098,0.42943115 h 0.1788004 c 0.1227663,0 0.2161193,0.0192862 0.2775025,0.0563273 0.1090081,0.0656165 0.1705322,0.18718904 0.1705322,0.33641358 0,0.15769118 -0.07107,0.28696506 -0.1917196,0.34623206 -0.0635,0.03175 -0.1346816,0.043408 -0.2532145,0.043408 h -0.181901 z m 1.8670695,0 H 3.1176392 V 0.56172282 H 2.9770793 Z m 2.7207641,0 H 5.8389201 V 1.2118123 H 5.709729 v -0.076481 c -0.05715,0.0635 -0.1144116,0.089917 -0.1937866,0.089917 -0.1672162,0 -0.2940389,-0.133367 -0.2940389,-0.30799153 0,-0.17568279 0.1289394,-0.31315918 0.2940389,-0.31315918 0.073025,0 0.140626,0.0273556 0.181901,0.0728638 z m 0.5653402,0 h 0.1405599 v 0.25011393 c 0.055033,-0.0539748 0.1051598,-0.0754476 0.1824178,-0.0754476 0.1693328,0 0.2950724,0.13225915 0.2950724,0.3100586 0,0.0783164 -0.02428,0.15162281 -0.06873,0.20877281 -0.053975,0.068791 -0.126025,0.1023193 -0.217041,0.1023193 -0.086783,0 -0.1427634,-0.024325 -0.2030884,-0.088884 v 0.075448 H 6.2631836 Z M 1.2552205,0.56844076 V 1.0728027 h 0.031523 c 0.086783,0 0.147294,-0.01134 0.190686,-0.034623 0.069849,-0.0381 0.1131714,-0.12181606 0.1131714,-0.21600746 0,-0.10054135 -0.04529,-0.18410876 -0.1193726,-0.22220866 -0.045508,-0.0232829 -0.094452,-0.0315226 -0.1875854,-0.0315226 z m 0.8645468,0.0428914 c 0.1746244,0 0.3028238,0.13373504 0.3028238,0.31470948 0,0.0211666 -0.00145,0.0336104 -0.00568,0.054777 h -0.453719 c 0.016933,0.070908 0.078139,0.11523842 0.1617472,0.11523842 0.058208,0 0.093208,-0.015545 0.1291911,-0.057878 h 0.153479 c -0.00953,0.029633 -0.024284,0.054133 -0.046509,0.081649 -0.061383,0.070908 -0.1367527,0.1054199 -0.2330607,0.1054199 -0.1788578,0 -0.3172933,-0.1334414 -0.3172933,-0.30489094 0,-0.1725078 0.1365173,-0.30902507 0.3090251,-0.30902507 z m 0.5705078,0 c 0.058208,0 0.1133368,0.0233207 0.1503784,0.0645955 0.028575,0.0317499 0.040258,0.0613623 0.042375,0.11110433 H 2.7450521 c -0.00635,-0.0306915 -0.025144,-0.0465088 -0.054777,-0.0465088 -0.030692,0 -0.05426,0.021576 -0.05426,0.0490926 0,0.0179916 0.010972,0.0313239 0.027905,0.0397909 0.013758,0.00635 0.013622,0.006296 0.07183,0.0242879 0.1185328,0.0359832 0.1627808,0.082666 0.1627808,0.17156574 0,0.1121834 -0.091815,0.1999878 -0.2092896,0.1999878 -0.070908,0 -0.1375998,-0.030332 -0.1756998,-0.081132 -0.023283,-0.030692 -0.032924,-0.061706 -0.039274,-0.1188558 h 0.1421102 c 0.013758,0.049741 0.036756,0.070797 0.078031,0.070797 0.037042,0 0.063562,-0.024036 0.063562,-0.056844 0,-0.01905 -0.00942,-0.034892 -0.026355,-0.0454753 -0.014817,-0.009525 -0.020463,-0.0119807 -0.07338,-0.0299723 -0.1174748,-0.0391582 -0.1627808,-0.0873913 -0.1627808,-0.17311605 0,-0.10054138 0.084754,-0.17931722 0.1948202,-0.17931722 z m 0.8097697,0 c 0.084666,0 0.1467528,0.0285834 0.1912028,0.0878499 V 0.62528483 H 3.8256063 V 1.100708 c 0,0.112183 -0.017636,0.1837366 -0.058911,0.2377116 -0.055033,0.06985 -0.1385965,0.1069702 -0.2444295,0.1069702 -0.1439329,0 -0.2541653,-0.06856 -0.3017903,-0.1860351 h 0.1596801 c 0.041275,0.045508 0.081662,0.062528 0.1472779,0.062528 0.1047741,0 0.1585243,-0.061644 0.1638143,-0.1875854 -0.055033,0.064558 -0.1096864,0.09095 -0.1922364,0.09095 -0.1672161,0 -0.2883545,-0.1301176 -0.2883545,-0.31109211 0,-0.17356613 0.1232303,-0.3028239 0.2893881,-0.3028239 z m 0.7301879,0 c 0.081491,0 0.1448346,0.0297161 0.1829346,0.0847493 0.03175,0.0455082 0.042375,0.0962466 0.042375,0.20102132 V 1.2118123 H 4.3149821 V 0.92500814 c 0,-0.0783164 -0.00886,-0.12187793 -0.027905,-0.14727783 -0.01905,-0.0243415 -0.047707,-0.037207 -0.084749,-0.037207 -0.045508,0 -0.081128,0.0193354 -0.1033529,0.0542603 -0.017993,0.0285749 -0.023254,0.0622435 -0.023254,0.14055989 V 1.2118123 H 3.9346436 V 0.62528483 h 0.1302246 v 0.0563273 c 0.051858,-0.0507999 0.097631,-0.0702799 0.1653645,-0.0702799 z m 0.6232178,0 c 0.1746245,0 0.3028239,0.13373504 0.3028239,0.31470948 0,0.0211666 -0.00145,0.0336104 -0.00568,0.054777 H 4.6968709 c 0.016933,0.070908 0.078139,0.11523842 0.1617473,0.11523842 0.058208,0 0.093208,-0.015545 0.129191,-0.057878 h 0.153479 c -0.00953,0.029633 -0.024284,0.054133 -0.046509,0.081649 -0.061383,0.070908 -0.1367528,0.1054199 -0.2330608,0.1054199 -0.1788577,0 -0.3172932,-0.1334414 -0.3172932,-0.30489094 0,-0.1725078 0.1365172,-0.30902507 0.309025,-0.30902507 z M 2.9770793,0.62528483 H 3.1176392 V 1.2118123 H 2.9770793 Z m 3.9113891,0 H 7.0496989 L 7.1794067,1.0051066 7.3204834,0.62528483 H 7.4832642 L 7.1447835,1.407666 H 6.9933716 L 7.1034424,1.1565186 Z m 0.6893636,0.0552938 h 0.1405599 v 0.1405599 H 7.577832 Z m -2.0427693,0.05271 c -0.096309,0 -0.1715658,0.0772256 -0.1715658,0.17776693 0,0.1047748 0.076241,0.1850016 0.1746663,0.1850016 0.09525,0 0.1705323,-0.079268 0.1705323,-0.18086748 0,-0.10371637 -0.075208,-0.18190105 -0.1736328,-0.18190105 z m 1.0309448,0 c -0.099483,0 -0.1705322,0.0750345 -0.1705322,0.18086752 0,0.10689181 0.070975,0.18190101 0.1736328,0.18190101 0.1005412,0 0.1705322,-0.072918 0.1705322,-0.18086748 0,-0.10583297 -0.073091,-0.18190105 -0.1736328,-0.18190105 z m -4.4441732,0.007235 c -0.083608,0 -0.1405558,0.0405889 -0.1627808,0.11678874 h 0.324528 C 2.2655899,0.78217061 2.2086173,0.74052327 2.1218343,0.74052327 Z m 1.3937134,0 c -0.098425,0 -0.1627808,0.0718843 -0.1627808,0.17983399 0,0.10689084 0.064306,0.17569984 0.1648478,0.17569984 0.1016001,0 0.1674317,-0.069867 0.1674317,-0.17569984 0,-0.10794971 -0.068957,-0.17983399 -0.1694987,-0.17983399 z m 1.3399699,0 c -0.083608,0 -0.1405558,0.0405889 -0.1627808,0.11678874 h 0.324528 C 4.9992732,0.78217061 4.9423006,0.74052327 4.8555176,0.74052327 Z M 7.577832,1.0764201 H 7.7183919 V 1.2118123 H 7.577832 Z M 1.1100098,1.9998779 H 1.3854451 L 1.9249471,2.949174 V 1.9998779 H 2.1667928 V 3.3036743 H 1.8970418 L 1.3518555,2.3564453 v 0.947229 H 1.1100098 Z m 1.280542,0 h 0.234611 v 0.2206584 h -0.234611 z m 2.6515177,0 h 0.234611 v 1.3037964 h -0.234611 z m 2.9279867,0 H 8.6330648 V 2.2308716 H 8.2113851 v 0.306958 H 8.6139445 V 2.7688232 H 8.2113851 V 3.3036743 H 7.9700562 Z m 3.6705768,0 h 0.234611 V 2.41639 c 0.09172,-0.089958 0.174577,-0.1255738 0.303341,-0.1255738 0.282222,0 0.491959,0.2209476 0.491959,0.5172811 0,0.1305279 -0.04064,0.2520157 -0.114721,0.3472657 -0.08996,0.1146524 -0.209524,0.1710489 -0.361219,0.1710489 -0.144639,0 -0.238455,-0.040714 -0.338997,-0.1483113 v 0.1255737 h -0.214974 z m 4.591451,0 h 0.234611 v 1.3037964 h -0.234611 z m 0.42323,0 h 0.234611 V 2.2205363 H 16.655314 Z M 3.2866211,2.3032186 c 0.1358196,0 0.2649346,0.049782 0.3601847,0.1379761 0.067028,0.061736 0.098778,0.1125787 0.1322917,0.2113566 H 3.5145142 c -0.047625,-0.089959 -0.1220597,-0.133842 -0.2278931,-0.133842 -0.1640417,0 -0.278536,0.1216944 -0.278536,0.2945557 0,0.1710973 0.1219425,0.298173 0.2842204,0.298173 0.097014,0 0.1640007,-0.039233 0.2222087,-0.1291911 h 0.2645833 c -0.081139,0.2187224 -0.255936,0.344165 -0.4852417,0.344165 -0.289278,0 -0.521932,-0.2276103 -0.521932,-0.5115966 0,-0.2875141 0.2254194,-0.5115967 0.5146973,-0.5115967 z m 1.100708,0 c 0.2945697,0 0.5224487,0.2277896 0.5224487,0.5188314 0,0.2751669 -0.2363953,0.5043619 -0.5203816,0.5043619 -0.2857502,0 -0.5188314,-0.2293742 -0.5188314,-0.5115966 0,-0.2804586 0.232778,-0.5115967 0.5167643,-0.5115967 z m 1.532723,0 c 0.1411112,0 0.2382213,0.045882 0.3193603,0.153479 V 2.326473 H 6.4549032 V 3.3036743 H 6.2394124 v -0.127124 c -0.093486,0.1075977 -0.1869446,0.1498616 -0.324528,0.1498616 -0.2857502,0 -0.4919596,-0.2134096 -0.4919596,-0.5079793 0,-0.2980974 0.2078493,-0.515214 0.4971273,-0.515214 z m 1.0319783,0 c 0.097014,0 0.1888945,0.039212 0.2506307,0.1080037 0.047625,0.052917 0.066752,0.1020998 0.07028,0.1850017 H 7.0440145 c -0.010583,-0.051153 -0.042595,-0.077515 -0.091984,-0.077515 -0.051152,0 -0.089917,0.035271 -0.089917,0.081132 0,0.029986 0.01777,0.052552 0.045992,0.066663 0.022931,0.010584 0.022875,0.010838 0.1198893,0.040824 0.197556,0.059972 0.271818,0.1376039 0.271818,0.2857707 0,0.1869723 -0.1535409,0.3333129 -0.3493327,0.3333129 -0.1181806,0 -0.2295053,-0.051242 -0.2930053,-0.135909 C 6.6186688,3.1393501 6.6029455,3.088349 6.5923625,2.993099 h 0.2361613 c 0.022931,0.082903 0.061949,0.118339 0.1307413,0.118339 0.061736,0 0.1059367,-0.04092 0.1059367,-0.095601 0,-0.03175 -0.01622,-0.057809 -0.044442,-0.075448 C 6.9960657,2.924514 6.9875155,2.9207656 6.8993205,2.8907796 6.7035284,2.8255157 6.6275024,2.7442667 6.6275024,2.6013916 c 0,-0.1675696 0.1410834,-0.298173 0.324528,-0.298173 z m 2.2789307,0 c 0.1411112,0 0.2382215,0.045882 0.3193604,0.153479 V 2.326473 H 9.7652954 V 3.3036743 H 9.5503215 V 3.1765503 C 9.4568353,3.284148 9.363377,3.3264119 9.2257935,3.3264119 c -0.2857502,0 -0.4919597,-0.2134096 -0.4919597,-0.5079793 0,-0.2980974 0.2078493,-0.515214 0.4971273,-0.515214 z m 1.1358479,0 h 0.01809 v 0.225826 c -0.141113,0.00529 -0.215623,0.086355 -0.210323,0.2309936 V 3.3036743 H 9.9399618 V 2.326473 h 0.2154902 v 0.095085 c 0.06174,-0.089959 0.110815,-0.118339 0.211357,-0.118339 z m 0.564823,0 c 0.141111,0 0.237705,0.045882 0.318844,0.153479 V 2.326473 h 0.215491 v 0.9772013 h -0.215491 v -0.127124 c -0.09349,0.1075977 -0.186944,0.1498616 -0.324528,0.1498616 -0.28575,0 -0.49196,-0.2134096 -0.49196,-0.5079793 0,-0.2980974 0.208366,-0.515214 0.497644,-0.515214 z m 2.345594,0 c 0.291041,0 0.504878,0.2223738 0.504878,0.523999 0,0.035277 -0.0017,0.056706 -0.0088,0.091984 H 13.01626 c 0.02822,0.118181 0.130404,0.1922363 0.269751,0.1922363 0.09701,0 0.15552,-0.026596 0.21549,-0.097152 H 13.7573 c -0.01587,0.049389 -0.04048,0.090048 -0.07752,0.135909 -0.102306,0.118181 -0.227576,0.1762166 -0.38809,0.1762166 -0.298098,0 -0.529167,-0.2222291 -0.529167,-0.5079793 0,-0.287514 0.227184,-0.515214 0.514698,-0.515214 z m 1.091923,0 c 0.141111,0 0.24528,0.047983 0.31936,0.1467611 V 2.326473 h 0.224276 v 0.7916829 c 0,0.1869724 -0.03043,0.306917 -0.09922,0.396875 -0.09172,0.1164169 -0.230821,0.1782837 -0.40721,0.1782837 -0.239889,0 -0.423442,-0.1147835 -0.502812,-0.3105753 h 0.26665 c 0.06879,0.075848 0.135586,0.1043864 0.244947,0.1043864 0.174623,0 0.264568,-0.1022228 0.273368,-0.3121257 -0.09172,0.1075976 -0.183327,0.1514119 -0.320911,0.1514119 -0.278694,0 -0.480074,-0.2166894 -0.480074,-0.5183146 0,-0.289278 0.204694,-0.5048787 0.481625,-0.5048787 z m 1.208195,0 c 0.29457,0 0.522448,0.2277896 0.522448,0.5188314 0,0.2751669 -0.236395,0.5043619 -0.520381,0.5043619 -0.28575,0 -0.518832,-0.2293742 -0.518832,-0.5115966 0,-0.2804586 0.232779,-0.5115967 0.516765,-0.5115967 z M 2.3905518,2.326473 h 0.234611 v 0.9772013 h -0.234611 z m 14.2647622,0 h 0.234611 v 0.9772013 h -0.234611 z m -4.510319,0.179834 c -0.165805,0 -0.28422,0.1254013 -0.28422,0.3017903 0,0.1781529 0.118291,0.3033407 0.289388,0.3033407 0.167569,0 0.28422,-0.1218736 0.28422,-0.3017904 0,-0.176389 -0.121818,-0.3033406 -0.289388,-0.3033406 z m -7.7555988,0.012402 c -0.1552223,0 -0.2826701,0.1319746 -0.2826701,0.2924886 0,0.1675695 0.1254703,0.3002401 0.2842204,0.3002401 0.1552223,0 0.2821533,-0.132581 0.2821533,-0.2966227 0,-0.1640418 -0.1267174,-0.296106 -0.2837036,-0.296106 z m 1.5554606,0 c -0.1675699,-5e-7 -0.2857707,0.1267381 -0.2857707,0.304891 0,0.1710973 0.1182907,0.2878377 0.289388,0.2878377 0.089958,0 0.1657987,-0.030159 0.2134237,-0.088367 0.042334,-0.049389 0.070797,-0.1304653 0.070797,-0.2010213 0,-0.1781529 -0.1202681,-0.3033407 -0.2878377,-0.3033407 z m 3.310909,0 c -0.16757,-5e-7 -0.2857707,0.1267381 -0.2857707,0.304891 0,0.1710973 0.1182907,0.2878377 0.289388,0.2878377 0.089958,0 0.1657987,-0.030159 0.2134237,-0.088367 0.042334,-0.049389 0.07028,-0.1304653 0.07028,-0.2010213 0,-0.1781529 -0.1197515,-0.3033407 -0.287321,-0.3033407 z m 1.7001542,0 c -0.167569,0 -0.28577,0.1267381 -0.28577,0.304891 0,0.1710973 0.118291,0.2878377 0.289388,0.2878377 0.08996,0 0.165793,-0.030159 0.213423,-0.088367 0.04234,-0.049389 0.0708,-0.1304653 0.0708,-0.2010213 0,-0.1781529 -0.120268,-0.3033407 -0.287838,-0.3033407 z m 2.324923,0 c -0.139347,0 -0.234261,0.066787 -0.271301,0.1937866 h 0.541052 C 13.520607,2.58726 13.425482,2.5187093 13.280843,2.5187093 Z m 1.114661,0 c -0.164042,0 -0.271302,0.1198066 -0.271302,0.2997233 0,0.1781529 0.10735,0.2930054 0.274919,0.2930054 0.169334,0 0.279053,-0.1166164 0.279053,-0.2930054 0,-0.1799167 -0.115101,-0.2997233 -0.28267,-0.2997233 z m 1.183907,0 c -0.155222,0 -0.282154,0.1319746 -0.282154,0.2924886 0,0.1675695 0.124954,0.3002401 0.283704,0.3002401 0.155222,0 0.282153,-0.132581 0.282153,-0.2966227 0,-0.1640418 -0.126717,-0.296106 -0.283703,-0.296106 z"
       style="stroke-width:3.52777;stroke-linecap:square;stroke-miterlimit:3.5"
       id="path5" />
    <path
       d="M 14.375699,0.31987712 V 1.1022583 h 0.144694 V 0.80253499 l 0.205155,0.29972331 h 0.179317 L 14.692992,0.81338704 c 0.06033,-0.0148166 0.09016,-0.0287859 0.124024,-0.0573608 0.05397,-0.0455082 0.0801,-0.10668519 0.0801,-0.18500162 0,-0.0804331 -0.0282,-0.14724491 -0.08217,-0.1927531 -0.0508,-0.0433915 -0.107049,-0.0583944 -0.21394,-0.0583944 z m 0.628385,0 V 1.1022583 h 0.42013 V 0.9632487 H 15.149295 V 0.78134766 h 0.26355 V 0.64285482 h -0.26355 v -0.1839681 h 0.274919 v -0.1390096 z m 0.488859,0 0.304891,0.78238118 h 0.118339 l 0.302824,-0.78238118 h -0.152445 l -0.210323,0.59479573 -0.21084,-0.59479573 z m 1.596285,0 -0.326078,0.78238118 h 0.15968 l 0.08682,-0.20205485 h 0.278536 l 0.0832,0.20205485 h 0.160197 l -0.32815,-0.78238118 z m -2.568835,0.1390096 h 0.0646 c 0.06773,0 0.104874,0.00728 0.128158,0.0273885 0.0254,0.0201083 0.03824,0.0507836 0.03824,0.0888835 0,0.0825497 -0.04802,0.11833903 -0.160196,0.11833903 h -0.0708 z m 2.625679,0.0656291 0.08372,0.23667806 H 17.062356 Z M 16.217964,0.96686605 V 1.1022583 H 16.35904 V 0.96686605 Z"
       style="font-weight:bold;font-size:1.05833px;line-height:0.9;font-family:'URW Gothic';-inkscape-font-specification:'URW Gothic, Bold';text-align:center;letter-spacing:0px;word-spacing:0.0211667px;text-anchor:middle;stroke-width:3.52778;stroke-linecap:square;stroke-miterlimit:3.5"
       id="path6" />
  </g>
</svg>
