M48
; DRILL file KiCad 10.0.3 date 2026-05-30T17:55:04
; FORMAT={-:-/ absolute / inch / decimal}
; #@! TF.CreationDate,2026-05-30T17:55:04+02:00
; #@! TF.GenerationSoftware,Kicad,Pcbnew,10.0.3
; #@! TF.FileFunction,NonPlated,1,2,NPTH
FMAT,2
INCH
; #@! TA.AperFunction,NonPlated,NPTH,ComponentDrill
T1C0.0197
; #@! TA.AperFunction,NonPlated,NPTH,ComponentDrill
T2C0.0256
; #@! TA.AperFunction,NonPlated,NPTH,ComponentDrill
T3C0.0866
; #@! TA.AperFunction,NonPlated,NPTH,ComponentDrill
T4C0.0984
%
G90
G05
T1
X1.4564Y-0.2756
X1.4564Y-3.3177
X1.4564Y-6.3599
X1.4564Y-3.2372
X1.4564Y-6.2794
X1.4564Y-9.3215
X1.4879Y-3.2383
X1.4879Y-6.2805
X1.4879Y-9.3226
X1.4879Y-0.2756
X1.4879Y-3.3177
X1.4879Y-6.3599
X1.5194Y-3.2389
X1.5194Y-6.2811
X1.5194Y-9.3232
X1.5194Y-0.2756
X1.5194Y-3.3177
X1.5194Y-6.3599
X1.5509Y-0.2756
X1.5509Y-3.3177
X1.5509Y-6.3599
X1.5509Y-3.2389
X1.5509Y-6.2811
X1.5509Y-9.3232
X1.5824Y-0.2756
X1.5824Y-3.3177
X1.5824Y-6.3599
X1.5824Y-3.2383
X1.5824Y-6.2805
X1.5824Y-9.3226
X1.6139Y-3.2372
X1.6139Y-6.2794
X1.6139Y-9.3215
X1.6139Y-0.2756
X1.6139Y-3.3177
X1.6139Y-6.3599
X2.9962Y-1.8744
X2.9962Y-4.9165
X2.9962Y-7.9587
X3.0069Y-1.8415
X3.0069Y-4.8837
X3.0069Y-7.9258
X3.0159Y-1.8082
X3.0159Y-4.8503
X3.0159Y-7.8925
X3.0249Y-1.7748
X3.0249Y-4.817
X3.0249Y-7.8591
X3.0326Y-1.7412
X3.0326Y-4.7833
X3.0326Y-7.8255
X3.0399Y-1.7074
X3.0399Y-4.7496
X3.0399Y-7.7917
X3.0464Y-1.6735
X3.0464Y-4.7156
X3.0464Y-7.7578
X3.0519Y-1.6394
X3.0519Y-4.6815
X3.0519Y-7.7237
X3.1679Y-1.6393
X3.1679Y-4.6815
X3.1679Y-7.7236
X3.1734Y-1.6735
X3.1734Y-4.7156
X3.1734Y-7.7578
X3.1801Y-1.7074
X3.1801Y-4.7495
X3.1801Y-7.7917
X3.1869Y-1.7413
X3.1869Y-4.7834
X3.1869Y-7.8256
X3.1953Y-1.7748
X3.1953Y-4.8169
X3.1953Y-7.8591
X3.2037Y-1.8083
X3.2037Y-4.8504
X3.2037Y-7.8926
X3.2134Y-1.8415
X3.2134Y-4.8836
X3.2134Y-7.9258
X3.2236Y-1.8745
X3.2236Y-4.9166
X3.2236Y-7.9588
X4.606Y-0.2756
X4.606Y-3.3177
X4.606Y-6.3599
X4.606Y-3.2372
X4.606Y-6.2794
X4.606Y-9.3215
X4.6375Y-3.2383
X4.6375Y-6.2805
X4.6375Y-9.3226
X4.6375Y-0.2756
X4.6375Y-3.3177
X4.6375Y-6.3599
X4.669Y-3.2389
X4.669Y-6.2811
X4.669Y-9.3232
X4.669Y-0.2756
X4.669Y-3.3177
X4.669Y-6.3599
X4.7005Y-0.2756
X4.7005Y-3.3177
X4.7005Y-6.3599
X4.7005Y-3.2389
X4.7005Y-6.2811
X4.7005Y-9.3232
X4.732Y-0.2756
X4.732Y-3.3177
X4.732Y-6.3599
X4.732Y-3.2383
X4.732Y-6.2805
X4.732Y-9.3226
X4.7635Y-3.2372
X4.7635Y-6.2794
X4.7635Y-9.3215
X4.7635Y-0.2756
X4.7635Y-3.3177
X4.7635Y-6.3599
X6.1458Y-1.8744
X6.1458Y-4.9165
X6.1458Y-7.9587
X6.1565Y-1.8415
X6.1565Y-4.8837
X6.1565Y-7.9258
X6.1655Y-1.8082
X6.1655Y-4.8503
X6.1655Y-7.8925
X6.1745Y-1.7748
X6.1745Y-4.817
X6.1745Y-7.8591
X6.1822Y-1.7412
X6.1822Y-4.7833
X6.1822Y-7.8255
X6.1895Y-1.7074
X6.1895Y-4.7496
X6.1895Y-7.7917
X6.196Y-1.6735
X6.196Y-4.7156
X6.196Y-7.7578
X6.2016Y-1.6394
X6.2016Y-4.6815
X6.2016Y-7.7237
X6.3175Y-1.6393
X6.3175Y-4.6815
X6.3175Y-7.7236
X6.323Y-1.6735
X6.323Y-4.7156
X6.323Y-7.7578
X6.3297Y-1.7074
X6.3297Y-4.7495
X6.3297Y-7.7917
X6.3365Y-1.7413
X6.3365Y-4.7834
X6.3365Y-7.8256
X6.3449Y-1.7748
X6.3449Y-4.8169
X6.3449Y-7.8591
X6.3533Y-1.8083
X6.3533Y-4.8504
X6.3533Y-7.8926
X6.363Y-1.8415
X6.363Y-4.8836
X6.363Y-7.9258
X6.3732Y-1.8745
X6.3732Y-4.9166
X6.3732Y-7.9588
X7.7556Y-0.2756
X7.7556Y-3.3177
X7.7556Y-6.3599
X7.7556Y-3.2372
X7.7556Y-6.2794
X7.7556Y-9.3215
X7.7871Y-3.2383
X7.7871Y-6.2805
X7.7871Y-9.3226
X7.7871Y-0.2756
X7.7871Y-3.3177
X7.7871Y-6.3599
X7.8186Y-3.2389
X7.8186Y-6.2811
X7.8186Y-9.3232
X7.8186Y-0.2756
X7.8186Y-3.3177
X7.8186Y-6.3599
X7.8501Y-0.2756
X7.8501Y-3.3177
X7.8501Y-6.3599
X7.8501Y-3.2389
X7.8501Y-6.2811
X7.8501Y-9.3232
X7.8816Y-0.2756
X7.8816Y-3.3177
X7.8816Y-6.3599
X7.8816Y-3.2383
X7.8816Y-6.2805
X7.8816Y-9.3226
X7.9131Y-3.2372
X7.9131Y-6.2794
X7.9131Y-9.3215
X7.9131Y-0.2756
X7.9131Y-3.3177
X7.9131Y-6.3599
X9.2954Y-1.8744
X9.2954Y-4.9165
X9.2954Y-7.9587
X9.3061Y-1.8415
X9.3061Y-4.8837
X9.3061Y-7.9258
X9.3151Y-1.8082
X9.3151Y-4.8503
X9.3151Y-7.8925
X9.3241Y-1.7748
X9.3241Y-4.817
X9.3241Y-7.8591
X9.3318Y-1.7412
X9.3318Y-4.7833
X9.3318Y-7.8255
X9.3391Y-1.7074
X9.3391Y-4.7496
X9.3391Y-7.7917
X9.3456Y-1.6735
X9.3456Y-4.7156
X9.3456Y-7.7578
X9.3512Y-1.6394
X9.3512Y-4.6815
X9.3512Y-7.7237
X9.4671Y-1.6393
X9.4671Y-4.6815
X9.4671Y-7.7236
X9.4726Y-1.6735
X9.4726Y-4.7156
X9.4726Y-7.7578
X9.4793Y-1.7074
X9.4793Y-4.7495
X9.4793Y-7.7917
X9.4861Y-1.7413
X9.4861Y-4.7834
X9.4861Y-7.8256
X9.4945Y-1.7748
X9.4945Y-4.8169
X9.4945Y-7.8591
X9.503Y-1.8083
X9.503Y-4.8504
X9.503Y-7.8926
X9.5126Y-1.8415
X9.5126Y-4.8836
X9.5126Y-7.9258
X9.5228Y-1.8745
X9.5228Y-4.9166
X9.5228Y-7.9588
X10.9052Y-0.2756
X10.9052Y-3.3177
X10.9052Y-6.3599
X10.9052Y-3.2372
X10.9052Y-6.2794
X10.9052Y-9.3215
X10.9367Y-3.2383
X10.9367Y-6.2805
X10.9367Y-9.3226
X10.9367Y-0.2756
X10.9367Y-3.3177
X10.9367Y-6.3599
X10.9682Y-3.2389
X10.9682Y-6.2811
X10.9682Y-9.3232
X10.9682Y-0.2756
X10.9682Y-3.3177
X10.9682Y-6.3599
X10.9997Y-0.2756
X10.9997Y-3.3177
X10.9997Y-6.3599
X10.9997Y-3.2389
X10.9997Y-6.2811
X10.9997Y-9.3232
X11.0312Y-0.2756
X11.0312Y-3.3177
X11.0312Y-6.3599
X11.0312Y-3.2383
X11.0312Y-6.2805
X11.0312Y-9.3226
X11.0627Y-3.2372
X11.0627Y-6.2794
X11.0627Y-9.3215
X11.0627Y-0.2756
X11.0627Y-3.3177
X11.0627Y-6.3599
T2
X1.4214Y-2.9593
X1.4214Y-6.0014
X1.4214Y-9.0436
X1.6489Y-2.9593
X1.6489Y-6.0014
X1.6489Y-9.0436
X4.571Y-2.9593
X4.571Y-6.0014
X4.571Y-9.0436
X4.7985Y-2.9593
X4.7985Y-6.0014
X4.7985Y-9.0436
X7.7206Y-2.9593
X7.7206Y-6.0014
X7.7206Y-9.0436
X7.9482Y-2.9593
X7.9482Y-6.0014
X7.9482Y-9.0436
X10.8702Y-2.9593
X10.8702Y-6.0014
X10.8702Y-9.0436
X11.0978Y-2.9593
X11.0978Y-6.0014
X11.0978Y-9.0436
T3
X0.1663Y-0.9057
X0.1663Y-1.9022
X0.1663Y-3.9479
X0.1663Y-4.9443
X0.1663Y-6.99
X0.1663Y-7.9865
X2.904Y-0.9057
X2.904Y-1.9022
X2.904Y-3.9479
X2.904Y-4.9443
X2.904Y-6.99
X2.904Y-7.9865
X3.3159Y-0.9057
X3.3159Y-1.9022
X3.3159Y-3.9479
X3.3159Y-4.9443
X3.3159Y-6.99
X3.3159Y-7.9865
X6.0536Y-0.9057
X6.0536Y-1.9022
X6.0536Y-3.9479
X6.0536Y-4.9443
X6.0536Y-6.99
X6.0536Y-7.9865
X6.4655Y-0.9057
X6.4655Y-1.9022
X6.4655Y-3.9479
X6.4655Y-4.9443
X6.4655Y-6.99
X6.4655Y-7.9865
X9.2032Y-0.9057
X9.2032Y-1.9022
X9.2032Y-3.9479
X9.2032Y-4.9443
X9.2032Y-6.99
X9.2032Y-7.9865
X9.6151Y-0.9057
X9.6151Y-1.9022
X9.6151Y-3.9479
X9.6151Y-4.9443
X9.6151Y-6.99
X9.6151Y-7.9865
X12.3528Y-0.9057
X12.3528Y-1.9022
X12.3528Y-3.9479
X12.3528Y-4.9443
X12.3528Y-6.99
X12.3528Y-7.9865
T4
X0.3945Y-2.1276
X0.3945Y-5.1698
X0.3945Y-8.2119
X2.678Y-2.1276
X2.678Y-5.1698
X2.678Y-8.2119
X3.5441Y-2.1276
X3.5441Y-5.1698
X3.5441Y-8.2119
X5.8276Y-2.1276
X5.8276Y-5.1698
X5.8276Y-8.2119
X6.6938Y-2.1276
X6.6938Y-5.1698
X6.6938Y-8.2119
X8.9772Y-2.1276
X8.9772Y-5.1698
X8.9772Y-8.2119
X9.8434Y-2.1276
X9.8434Y-5.1698
X9.8434Y-8.2119
X12.1268Y-2.1276
X12.1268Y-5.1698
X12.1268Y-8.2119
M30
