M48
; DRILL file KiCad 10.0.3 date 2026-05-30T17:55:04
; FORMAT={-:-/ absolute / inch / decimal}
; #@! TF.CreationDate,2026-05-30T17:55:04+02:00
; #@! TF.GenerationSoftware,Kicad,Pcbnew,10.0.3
; #@! TF.FileFunction,Plated,1,2,PTH
FMAT,2
INCH
; #@! TA.AperFunction,Plated,PTH,ViaDrill
T1C0.0079
; #@! TA.AperFunction,Plated,PTH,ComponentDrill
T2C0.0079
; #@! TA.AperFunction,Plated,PTH,ComponentDrill
T3C0.0098
; #@! TA.AperFunction,Plated,PTH,ViaDrill
T4C0.0118
; #@! TA.AperFunction,Plated,PTH,ViaDrill
T5C0.0157
; #@! TA.AperFunction,Plated,PTH,ComponentDrill
T6C0.0236
; #@! TA.AperFunction,Plated,PTH,ComponentDrill
T7C0.0394
%
G90
G05
T1
X0.0874Y-1.5778
X0.0874Y-4.6199
X0.0874Y-7.6621
X0.1626Y-1.5778
X0.1626Y-4.6199
X0.1626Y-7.6621
X0.2378Y-1.5778
X0.2378Y-1.631
X0.2378Y-4.6199
X0.2378Y-4.6731
X0.2378Y-7.6621
X0.2378Y-7.7153
X0.313Y-1.5778
X0.313Y-1.631
X0.313Y-4.6199
X0.313Y-4.6731
X0.313Y-7.6621
X0.313Y-7.7153
X0.3394Y-1.1948
X0.3394Y-4.2369
X0.3394Y-7.2791
X0.3604Y-1.8918
X0.3604Y-4.9339
X0.3604Y-7.9761
X0.3644Y-1.4628
X0.3644Y-4.5049
X0.3644Y-7.5471
X0.3882Y-1.631
X0.3882Y-4.6731
X0.3882Y-7.7153
X0.3926Y-1.2515
X0.3926Y-4.2937
X0.3926Y-7.3358
X0.4184Y-0.8688
X0.4184Y-3.9109
X0.4184Y-6.9531
X0.4194Y-1.0918
X0.4194Y-4.1339
X0.4194Y-7.1761
X0.4634Y-1.631
X0.4634Y-4.6731
X0.4634Y-7.7153
X0.4794Y-1.9378
X0.4794Y-4.9799
X0.4794Y-8.0221
X0.5144Y-1.9808
X0.5144Y-5.0229
X0.5144Y-8.0651
X0.5184Y-1.6318
X0.5184Y-4.6739
X0.5184Y-7.7161
X0.5374Y-1.3588
X0.5374Y-4.4009
X0.5374Y-7.4431
X0.5394Y-0.8688
X0.5394Y-3.9109
X0.5394Y-6.9531
X0.5484Y-1.6768
X0.5484Y-4.7189
X0.5484Y-7.7611
X0.5614Y-1.4078
X0.5614Y-4.4499
X0.5614Y-7.4921
X0.5624Y-0.9958
X0.5624Y-1.0248
X0.5624Y-1.5018
X0.5624Y-4.0379
X0.5624Y-4.0669
X0.5624Y-4.5439
X0.5624Y-7.0801
X0.5624Y-7.1091
X0.5624Y-7.5861
X0.6011Y-1.235
X0.6011Y-1.253
X0.6011Y-4.2772
X0.6011Y-4.2952
X0.6011Y-7.3193
X0.6011Y-7.3373
X0.6024Y-1.7068
X0.6024Y-4.7489
X0.6024Y-7.7911
X0.6174Y-1.1132
X0.6174Y-1.1342
X0.6174Y-1.1562
X0.6174Y-4.1554
X0.6174Y-4.1764
X0.6174Y-4.1984
X0.6174Y-7.1975
X0.6174Y-7.2185
X0.6174Y-7.2405
X0.6344Y-0.8688
X0.6344Y-3.9109
X0.6344Y-6.9531
X0.6384Y-1.1232
X0.6384Y-1.1452
X0.6384Y-4.1654
X0.6384Y-4.1874
X0.6384Y-7.2075
X0.6384Y-7.2295
X0.6524Y-1.8978
X0.6524Y-1.9278
X0.6524Y-4.9399
X0.6524Y-4.9699
X0.6524Y-7.9821
X0.6524Y-8.0121
X0.6564Y-1.8308
X0.6564Y-4.8729
X0.6564Y-7.9151
X0.6964Y-1.0398
X0.6964Y-4.0819
X0.6964Y-7.1241
X0.7174Y-0.9348
X0.7174Y-3.9769
X0.7174Y-7.0191
X0.7234Y-1.3588
X0.7234Y-4.4009
X0.7234Y-7.4431
X0.7424Y-1.4338
X0.7424Y-4.4759
X0.7424Y-7.5181
X0.7534Y-0.8328
X0.7534Y-3.8749
X0.7534Y-6.9171
X0.7724Y-1.0938
X0.7724Y-4.1359
X0.7724Y-7.1781
X0.7874Y-1.4398
X0.7874Y-1.5598
X0.7874Y-4.4819
X0.7874Y-4.6019
X0.7874Y-7.5241
X0.7874Y-7.6441
X0.8004Y-1.0948
X0.8004Y-4.1369
X0.8004Y-7.1791
X0.8054Y-1.6468
X0.8054Y-4.6889
X0.8054Y-7.7311
X0.8064Y-1.5838
X0.8064Y-4.6259
X0.8064Y-7.6681
X0.8164Y-1.4388
X0.8164Y-4.4809
X0.8164Y-7.5231
X0.8266Y-1.5608
X0.8266Y-4.6029
X0.8266Y-7.6451
X0.8324Y-2.5788
X0.8324Y-2.6078
X0.8324Y-5.6209
X0.8324Y-5.6499
X0.8324Y-8.6631
X0.8324Y-8.6921
X0.8774Y-1.8062
X0.8774Y-4.8484
X0.8774Y-7.8905
X0.8854Y-1.0898
X0.8854Y-1.4548
X0.8854Y-4.1319
X0.8854Y-4.4969
X0.8854Y-7.1741
X0.8854Y-7.5391
X0.9254Y-1.7688
X0.9254Y-4.8109
X0.9254Y-7.8531
X0.9374Y-1.0908
X0.9374Y-4.1329
X0.9374Y-7.1751
X0.9464Y-1.4508
X0.9464Y-4.4929
X0.9464Y-7.5351
X0.9574Y-1.7088
X0.9574Y-4.7509
X0.9574Y-7.7931
X0.9644Y-1.9218
X0.9644Y-4.9639
X0.9644Y-8.0061
X0.9714Y-1.0908
X0.9714Y-4.1329
X0.9714Y-7.1751
X0.9814Y-1.4968
X0.9814Y-4.5389
X0.9814Y-7.5811
X0.9954Y-0.8328
X0.9954Y-1.3018
X0.9954Y-3.8749
X0.9954Y-4.3439
X0.9954Y-6.9171
X0.9954Y-7.3861
X0.9964Y-1.7498
X0.9964Y-1.8358
X0.9964Y-4.7919
X0.9964Y-4.8779
X0.9964Y-7.8341
X0.9964Y-7.9201
X1.0304Y-0.9368
X1.0304Y-3.9789
X1.0304Y-7.0211
X1.0574Y-1.6058
X1.0574Y-4.6479
X1.0574Y-7.6901
X1.0764Y-1.7498
X1.0764Y-1.9478
X1.0764Y-4.7919
X1.0764Y-4.9899
X1.0764Y-7.8341
X1.0764Y-8.0321
X1.0954Y-1.5098
X1.0954Y-4.5519
X1.0954Y-7.5941
X1.0974Y-1.8348
X1.0974Y-4.8769
X1.0974Y-7.9191
X1.1024Y-1.0658
X1.1024Y-4.1079
X1.1024Y-7.1501
X1.1644Y-0.8538
X1.1644Y-3.8959
X1.1644Y-6.9381
X1.1654Y-0.7898
X1.1654Y-0.9138
X1.1654Y-3.8319
X1.1654Y-3.9559
X1.1654Y-6.8741
X1.1654Y-6.9981
X1.1664Y-1.4688
X1.1664Y-4.5109
X1.1664Y-7.5531
X1.2254Y-0.7498
X1.2254Y-3.7919
X1.2254Y-6.8341
X1.2334Y-1.6468
X1.2334Y-4.6889
X1.2334Y-7.7311
X1.2494Y-1.4678
X1.2494Y-4.5099
X1.2494Y-7.5521
X1.2564Y-0.7218
X1.2564Y-3.7639
X1.2564Y-6.8061
X1.2624Y-2.7848
X1.2624Y-2.8123
X1.2624Y-2.8399
X1.2624Y-5.8269
X1.2624Y-5.8545
X1.2624Y-5.882
X1.2624Y-8.8691
X1.2624Y-8.8966
X1.2624Y-8.9242
X1.2644Y-0.6898
X1.2644Y-0.7528
X1.2644Y-3.7319
X1.2644Y-3.7949
X1.2644Y-6.7741
X1.2644Y-6.8371
X1.2814Y-1.5888
X1.2814Y-4.6309
X1.2814Y-7.6731
X1.2874Y-0.7208
X1.2874Y-3.7629
X1.2874Y-6.8051
X1.2954Y-1.4218
X1.2954Y-4.4639
X1.2954Y-7.5061
X1.316Y-0.7208
X1.316Y-3.7629
X1.316Y-6.8051
X1.3254Y-1.5448
X1.3254Y-4.5869
X1.3254Y-7.6291
X1.3374Y-0.6888
X1.3374Y-0.7518
X1.3374Y-3.7309
X1.3374Y-3.7939
X1.3374Y-6.7731
X1.3374Y-6.8361
X1.3424Y-1.5668
X1.3424Y-4.6089
X1.3424Y-7.6511
X1.3484Y-0.7208
X1.3484Y-3.7629
X1.3484Y-6.8051
X1.3814Y-1.7108
X1.3814Y-4.7529
X1.3814Y-7.7951
X1.4484Y-0.9846
X1.4484Y-1.0598
X1.4484Y-4.0267
X1.4484Y-4.1019
X1.4484Y-7.0689
X1.4484Y-7.1441
X1.4634Y-1.3458
X1.4634Y-4.3879
X1.4634Y-7.4301
X1.4664Y-1.4758
X1.4664Y-1.551
X1.4664Y-4.5179
X1.4664Y-4.5931
X1.4664Y-7.5601
X1.4664Y-7.6353
X1.4774Y-1.6278
X1.4774Y-4.6699
X1.4774Y-7.7121
X1.4794Y-1.5998
X1.4794Y-4.6419
X1.4794Y-7.6841
X1.5144Y-1.3948
X1.5144Y-4.4369
X1.5144Y-7.4791
X1.5236Y-0.9846
X1.5236Y-1.0598
X1.5236Y-4.0267
X1.5236Y-4.1019
X1.5236Y-7.0689
X1.5236Y-7.1441
X1.5371Y-2.7528
X1.5371Y-5.7949
X1.5371Y-8.8371
X1.5416Y-1.4758
X1.5416Y-1.551
X1.5416Y-4.5179
X1.5416Y-4.5931
X1.5416Y-7.5601
X1.5416Y-7.6353
X1.5514Y-2.7948
X1.5514Y-5.8369
X1.5514Y-8.8791
X1.5646Y-2.7528
X1.5646Y-5.7949
X1.5646Y-8.8371
X1.5988Y-0.9846
X1.5988Y-1.0598
X1.5988Y-4.0267
X1.5988Y-4.1019
X1.5988Y-7.0689
X1.5988Y-7.1441
X1.6064Y-1.2408
X1.6064Y-4.2829
X1.6064Y-7.3251
X1.6104Y-1.3218
X1.6104Y-4.3639
X1.6104Y-7.4061
X1.6168Y-1.4758
X1.6168Y-1.551
X1.6168Y-4.5179
X1.6168Y-4.5931
X1.6168Y-7.5601
X1.6168Y-7.6353
X1.6194Y-1.3968
X1.6194Y-4.4389
X1.6194Y-7.4811
X1.6364Y-1.3218
X1.6364Y-4.3639
X1.6364Y-7.4061
X1.6524Y-1.3958
X1.6524Y-4.4379
X1.6524Y-7.4801
X1.6694Y-1.6018
X1.6694Y-4.6439
X1.6694Y-7.6861
X1.674Y-0.9846
X1.674Y-1.0598
X1.674Y-4.0267
X1.674Y-4.1019
X1.674Y-7.0689
X1.674Y-7.1441
X1.6764Y-1.3798
X1.6764Y-4.4219
X1.6764Y-7.4641
X1.7084Y-1.2688
X1.7084Y-4.3109
X1.7084Y-7.3531
X1.7194Y-1.3458
X1.7194Y-4.3879
X1.7194Y-7.4301
X1.7524Y-1.6028
X1.7524Y-4.6449
X1.7524Y-7.6871
X1.7624Y-1.2188
X1.7624Y-4.2609
X1.7624Y-7.3031
X1.8164Y-1.1888
X1.8164Y-4.2309
X1.8164Y-7.2731
X1.8344Y-1.1668
X1.8344Y-4.2089
X1.8344Y-7.2511
X1.8384Y-1.5488
X1.8384Y-1.5788
X1.8384Y-4.5909
X1.8384Y-4.6209
X1.8384Y-7.6331
X1.8384Y-7.6631
X1.8464Y-2.5378
X1.8464Y-5.5799
X1.8464Y-8.6221
X1.8527Y-1.145
X1.8527Y-4.1872
X1.8527Y-7.2293
X1.8584Y-2.5108
X1.8584Y-2.5648
X1.8584Y-5.5529
X1.8584Y-5.6069
X1.8584Y-8.5951
X1.8584Y-8.6491
X1.8704Y-1.1238
X1.8704Y-4.1659
X1.8704Y-7.2081
X1.8894Y-1.1028
X1.8894Y-4.1449
X1.8894Y-7.1871
X1.8994Y-1.6218
X1.8994Y-4.6639
X1.8994Y-7.7061
X1.9294Y-2.5158
X1.9294Y-5.5579
X1.9294Y-8.6001
X1.9304Y-2.5538
X1.9304Y-5.5959
X1.9304Y-8.6381
X1.9774Y-1.6228
X1.9774Y-4.6649
X1.9774Y-7.7071
X1.9924Y-2.5098
X1.9924Y-5.5519
X1.9924Y-8.5941
X2.0004Y-2.5348
X2.0004Y-5.5769
X2.0004Y-8.6191
X2.0374Y-0.3898
X2.0374Y-0.4448
X2.0374Y-3.4319
X2.0374Y-3.4869
X2.0374Y-6.4741
X2.0374Y-6.5291
X2.0404Y-1.2508
X2.0404Y-1.326
X2.0404Y-1.4012
X2.0404Y-1.5178
X2.0404Y-1.593
X2.0404Y-4.2929
X2.0404Y-4.3681
X2.0404Y-4.4433
X2.0404Y-4.5599
X2.0404Y-4.6351
X2.0404Y-7.3351
X2.0404Y-7.4103
X2.0404Y-7.4855
X2.0404Y-7.6021
X2.0404Y-7.6773
X2.0714Y-1.0088
X2.0714Y-4.0509
X2.0714Y-7.0931
X2.0724Y-0.9798
X2.0724Y-4.0219
X2.0724Y-7.0641
X2.0914Y-0.9578
X2.0914Y-3.9999
X2.0914Y-7.0421
X2.1067Y-0.981
X2.1067Y-4.0232
X2.1067Y-7.0653
X2.1156Y-1.2508
X2.1156Y-1.326
X2.1156Y-1.4012
X2.1156Y-1.5178
X2.1156Y-1.593
X2.1156Y-4.2929
X2.1156Y-4.3681
X2.1156Y-4.4433
X2.1156Y-4.5599
X2.1156Y-4.6351
X2.1156Y-7.3351
X2.1156Y-7.4103
X2.1156Y-7.4855
X2.1156Y-7.6021
X2.1156Y-7.6773
X2.1261Y-1.0005
X2.1261Y-4.0427
X2.1261Y-7.0848
X2.1294Y-1.8088
X2.1294Y-4.8509
X2.1294Y-7.8931
X2.1554Y-1.0098
X2.1554Y-4.0519
X2.1554Y-7.0941
X2.1794Y-1.8298
X2.1794Y-4.8719
X2.1794Y-7.9141
X2.1908Y-1.2508
X2.1908Y-1.326
X2.1908Y-1.4012
X2.1908Y-1.593
X2.1908Y-4.2929
X2.1908Y-4.3681
X2.1908Y-4.4433
X2.1908Y-4.6351
X2.1908Y-7.3351
X2.1908Y-7.4103
X2.1908Y-7.4855
X2.1908Y-7.6773
X2.266Y-1.2508
X2.266Y-1.326
X2.266Y-1.4012
X2.266Y-4.2929
X2.266Y-4.3681
X2.266Y-4.4433
X2.266Y-7.3351
X2.266Y-7.4103
X2.266Y-7.4855
X2.3114Y-1.6898
X2.3114Y-4.7319
X2.3114Y-7.7741
X2.3184Y-1.6608
X2.3184Y-4.7029
X2.3184Y-7.7451
X2.3284Y-0.4878
X2.3284Y-0.5118
X2.3284Y-3.5299
X2.3284Y-3.5539
X2.3284Y-6.5721
X2.3284Y-6.5961
X2.3394Y-1.6928
X2.3394Y-4.7349
X2.3394Y-7.7771
X2.3412Y-1.2508
X2.3412Y-1.326
X2.3412Y-1.4012
X2.3412Y-4.2929
X2.3412Y-4.3681
X2.3412Y-4.4433
X2.3412Y-7.3351
X2.3412Y-7.4103
X2.3412Y-7.4855
X2.3684Y-1.6928
X2.3684Y-4.7349
X2.3684Y-7.7771
X2.4768Y-0.4448
X2.4768Y-3.4869
X2.4768Y-6.5291
X2.5824Y-1.6972
X2.5824Y-4.7394
X2.5824Y-7.7815
X2.6294Y-1.6968
X2.6294Y-4.7389
X2.6294Y-7.7811
X2.6794Y-1.6968
X2.6794Y-4.7389
X2.6794Y-7.7811
X2.7534Y-0.8978
X2.7534Y-3.9399
X2.7534Y-6.9821
X2.7704Y-1.0108
X2.7704Y-4.0529
X2.7704Y-7.0951
X2.8014Y-0.9538
X2.8014Y-3.9959
X2.8014Y-7.0381
X3.237Y-1.5778
X3.237Y-4.6199
X3.237Y-7.6621
X3.3122Y-1.5778
X3.3122Y-4.6199
X3.3122Y-7.6621
X3.3874Y-1.5778
X3.3874Y-1.631
X3.3874Y-4.6199
X3.3874Y-4.6731
X3.3874Y-7.6621
X3.3874Y-7.7153
X3.4626Y-1.5778
X3.4626Y-1.631
X3.4626Y-4.6199
X3.4626Y-4.6731
X3.4626Y-7.6621
X3.4626Y-7.7153
X3.489Y-1.1948
X3.489Y-4.2369
X3.489Y-7.2791
X3.51Y-1.8918
X3.51Y-4.9339
X3.51Y-7.9761
X3.514Y-1.4628
X3.514Y-4.5049
X3.514Y-7.5471
X3.5378Y-1.631
X3.5378Y-4.6731
X3.5378Y-7.7153
X3.5422Y-1.2515
X3.5422Y-4.2937
X3.5422Y-7.3358
X3.568Y-0.8688
X3.568Y-3.9109
X3.568Y-6.9531
X3.569Y-1.0918
X3.569Y-4.1339
X3.569Y-7.1761
X3.613Y-1.631
X3.613Y-4.6731
X3.613Y-7.7153
X3.629Y-1.9378
X3.629Y-4.9799
X3.629Y-8.0221
X3.664Y-1.9808
X3.664Y-5.0229
X3.664Y-8.0651
X3.668Y-1.6318
X3.668Y-4.6739
X3.668Y-7.7161
X3.687Y-1.3588
X3.687Y-4.4009
X3.687Y-7.4431
X3.689Y-0.8688
X3.689Y-3.9109
X3.689Y-6.9531
X3.698Y-1.6768
X3.698Y-4.7189
X3.698Y-7.7611
X3.711Y-1.4078
X3.711Y-4.4499
X3.711Y-7.4921
X3.712Y-0.9958
X3.712Y-1.0248
X3.712Y-1.5018
X3.712Y-4.0379
X3.712Y-4.0669
X3.712Y-4.5439
X3.712Y-7.0801
X3.712Y-7.1091
X3.712Y-7.5861
X3.7507Y-1.235
X3.7507Y-1.253
X3.7507Y-4.2772
X3.7507Y-4.2952
X3.7507Y-7.3193
X3.7507Y-7.3373
X3.752Y-1.7068
X3.752Y-4.7489
X3.752Y-7.7911
X3.767Y-1.1132
X3.767Y-1.1342
X3.767Y-1.1562
X3.767Y-4.1554
X3.767Y-4.1764
X3.767Y-4.1984
X3.767Y-7.1975
X3.767Y-7.2185
X3.767Y-7.2405
X3.784Y-0.8688
X3.784Y-3.9109
X3.784Y-6.9531
X3.788Y-1.1232
X3.788Y-1.1452
X3.788Y-4.1654
X3.788Y-4.1874
X3.788Y-7.2075
X3.788Y-7.2295
X3.802Y-1.8978
X3.802Y-1.9278
X3.802Y-4.9399
X3.802Y-4.9699
X3.802Y-7.9821
X3.802Y-8.0121
X3.806Y-1.8308
X3.806Y-4.8729
X3.806Y-7.9151
X3.846Y-1.0398
X3.846Y-4.0819
X3.846Y-7.1241
X3.867Y-0.9348
X3.867Y-3.9769
X3.867Y-7.0191
X3.873Y-1.3588
X3.873Y-4.4009
X3.873Y-7.4431
X3.892Y-1.4338
X3.892Y-4.4759
X3.892Y-7.5181
X3.903Y-0.8328
X3.903Y-3.8749
X3.903Y-6.9171
X3.922Y-1.0938
X3.922Y-4.1359
X3.922Y-7.1781
X3.937Y-1.4398
X3.937Y-1.5598
X3.937Y-4.4819
X3.937Y-4.6019
X3.937Y-7.5241
X3.937Y-7.6441
X3.95Y-1.0948
X3.95Y-4.1369
X3.95Y-7.1791
X3.955Y-1.6468
X3.955Y-4.6889
X3.955Y-7.7311
X3.956Y-1.5838
X3.956Y-4.6259
X3.956Y-7.6681
X3.966Y-1.4388
X3.966Y-4.4809
X3.966Y-7.5231
X3.9762Y-1.5608
X3.9762Y-4.6029
X3.9762Y-7.6451
X3.982Y-2.5788
X3.982Y-2.6078
X3.982Y-5.6209
X3.982Y-5.6499
X3.982Y-8.6631
X3.982Y-8.6921
X4.027Y-1.8062
X4.027Y-4.8484
X4.027Y-7.8905
X4.035Y-1.0898
X4.035Y-1.4548
X4.035Y-4.1319
X4.035Y-4.4969
X4.035Y-7.1741
X4.035Y-7.5391
X4.075Y-1.7688
X4.075Y-4.8109
X4.075Y-7.8531
X4.087Y-1.0908
X4.087Y-4.1329
X4.087Y-7.1751
X4.096Y-1.4508
X4.096Y-4.4929
X4.096Y-7.5351
X4.107Y-1.7088
X4.107Y-4.7509
X4.107Y-7.7931
X4.114Y-1.9218
X4.114Y-4.9639
X4.114Y-8.0061
X4.121Y-1.0908
X4.121Y-4.1329
X4.121Y-7.1751
X4.131Y-1.4968
X4.131Y-4.5389
X4.131Y-7.5811
X4.145Y-0.8328
X4.145Y-1.3018
X4.145Y-3.8749
X4.145Y-4.3439
X4.145Y-6.9171
X4.145Y-7.3861
X4.146Y-1.7498
X4.146Y-1.8358
X4.146Y-4.7919
X4.146Y-4.8779
X4.146Y-7.8341
X4.146Y-7.9201
X4.18Y-0.9368
X4.18Y-3.9789
X4.18Y-7.0211
X4.207Y-1.6058
X4.207Y-4.6479
X4.207Y-7.6901
X4.226Y-1.7498
X4.226Y-1.9478
X4.226Y-4.7919
X4.226Y-4.9899
X4.226Y-7.8341
X4.226Y-8.0321
X4.245Y-1.5098
X4.245Y-4.5519
X4.245Y-7.5941
X4.247Y-1.8348
X4.247Y-4.8769
X4.247Y-7.9191
X4.252Y-1.0658
X4.252Y-4.1079
X4.252Y-7.1501
X4.314Y-0.8538
X4.314Y-3.8959
X4.314Y-6.9381
X4.315Y-0.7898
X4.315Y-0.9138
X4.315Y-3.8319
X4.315Y-3.9559
X4.315Y-6.8741
X4.315Y-6.9981
X4.316Y-1.4688
X4.316Y-4.5109
X4.316Y-7.5531
X4.375Y-0.7498
X4.375Y-3.7919
X4.375Y-6.8341
X4.383Y-1.6468
X4.383Y-4.6889
X4.383Y-7.7311
X4.399Y-1.4678
X4.399Y-4.5099
X4.399Y-7.5521
X4.406Y-0.7218
X4.406Y-3.7639
X4.406Y-6.8061
X4.412Y-2.7848
X4.412Y-2.8123
X4.412Y-2.8399
X4.412Y-5.8269
X4.412Y-5.8545
X4.412Y-5.882
X4.412Y-8.8691
X4.412Y-8.8966
X4.412Y-8.9242
X4.414Y-0.6898
X4.414Y-0.7528
X4.414Y-3.7319
X4.414Y-3.7949
X4.414Y-6.7741
X4.414Y-6.8371
X4.431Y-1.5888
X4.431Y-4.6309
X4.431Y-7.6731
X4.437Y-0.7208
X4.437Y-3.7629
X4.437Y-6.8051
X4.445Y-1.4218
X4.445Y-4.4639
X4.445Y-7.5061
X4.4656Y-0.7208
X4.4656Y-3.7629
X4.4656Y-6.8051
X4.475Y-1.5448
X4.475Y-4.5869
X4.475Y-7.6291
X4.487Y-0.6888
X4.487Y-0.7518
X4.487Y-3.7309
X4.487Y-3.7939
X4.487Y-6.7731
X4.487Y-6.8361
X4.492Y-1.5668
X4.492Y-4.6089
X4.492Y-7.6511
X4.498Y-0.7208
X4.498Y-3.7629
X4.498Y-6.8051
X4.531Y-1.7108
X4.531Y-4.7529
X4.531Y-7.7951
X4.598Y-0.9846
X4.598Y-1.0598
X4.598Y-4.0267
X4.598Y-4.1019
X4.598Y-7.0689
X4.598Y-7.1441
X4.613Y-1.3458
X4.613Y-4.3879
X4.613Y-7.4301
X4.616Y-1.4758
X4.616Y-1.551
X4.616Y-4.5179
X4.616Y-4.5931
X4.616Y-7.5601
X4.616Y-7.6353
X4.627Y-1.6278
X4.627Y-4.6699
X4.627Y-7.7121
X4.629Y-1.5998
X4.629Y-4.6419
X4.629Y-7.6841
X4.664Y-1.3948
X4.664Y-4.4369
X4.664Y-7.4791
X4.6732Y-0.9846
X4.6732Y-1.0598
X4.6732Y-4.0267
X4.6732Y-4.1019
X4.6732Y-7.0689
X4.6732Y-7.1441
X4.6867Y-2.7528
X4.6867Y-5.7949
X4.6867Y-8.8371
X4.6912Y-1.4758
X4.6912Y-1.551
X4.6912Y-4.5179
X4.6912Y-4.5931
X4.6912Y-7.5601
X4.6912Y-7.6353
X4.701Y-2.7948
X4.701Y-5.8369
X4.701Y-8.8791
X4.7142Y-2.7528
X4.7142Y-5.7949
X4.7142Y-8.8371
X4.7484Y-0.9846
X4.7484Y-1.0598
X4.7484Y-4.0267
X4.7484Y-4.1019
X4.7484Y-7.0689
X4.7484Y-7.1441
X4.756Y-1.2408
X4.756Y-4.2829
X4.756Y-7.3251
X4.76Y-1.3218
X4.76Y-4.3639
X4.76Y-7.4061
X4.7664Y-1.4758
X4.7664Y-1.551
X4.7664Y-4.5179
X4.7664Y-4.5931
X4.7664Y-7.5601
X4.7664Y-7.6353
X4.769Y-1.3968
X4.769Y-4.4389
X4.769Y-7.4811
X4.786Y-1.3218
X4.786Y-4.3639
X4.786Y-7.4061
X4.802Y-1.3958
X4.802Y-4.4379
X4.802Y-7.4801
X4.819Y-1.6018
X4.819Y-4.6439
X4.819Y-7.6861
X4.8236Y-0.9846
X4.8236Y-1.0598
X4.8236Y-4.0267
X4.8236Y-4.1019
X4.8236Y-7.0689
X4.8236Y-7.1441
X4.826Y-1.3798
X4.826Y-4.4219
X4.826Y-7.4641
X4.858Y-1.2688
X4.858Y-4.3109
X4.858Y-7.3531
X4.869Y-1.3458
X4.869Y-4.3879
X4.869Y-7.4301
X4.902Y-1.6028
X4.902Y-4.6449
X4.902Y-7.6871
X4.912Y-1.2188
X4.912Y-4.2609
X4.912Y-7.3031
X4.966Y-1.1888
X4.966Y-4.2309
X4.966Y-7.2731
X4.984Y-1.1668
X4.984Y-4.2089
X4.984Y-7.2511
X4.988Y-1.5488
X4.988Y-1.5788
X4.988Y-4.5909
X4.988Y-4.6209
X4.988Y-7.6331
X4.988Y-7.6631
X4.996Y-2.5378
X4.996Y-5.5799
X4.996Y-8.6221
X5.0023Y-1.145
X5.0023Y-4.1872
X5.0023Y-7.2293
X5.008Y-2.5108
X5.008Y-2.5648
X5.008Y-5.5529
X5.008Y-5.6069
X5.008Y-8.5951
X5.008Y-8.6491
X5.02Y-1.1238
X5.02Y-4.1659
X5.02Y-7.2081
X5.039Y-1.1028
X5.039Y-4.1449
X5.039Y-7.1871
X5.049Y-1.6218
X5.049Y-4.6639
X5.049Y-7.7061
X5.079Y-2.5158
X5.079Y-5.5579
X5.079Y-8.6001
X5.08Y-2.5538
X5.08Y-5.5959
X5.08Y-8.6381
X5.127Y-1.6228
X5.127Y-4.6649
X5.127Y-7.7071
X5.142Y-2.5098
X5.142Y-5.5519
X5.142Y-8.5941
X5.15Y-2.5348
X5.15Y-5.5769
X5.15Y-8.6191
X5.187Y-0.3898
X5.187Y-0.4448
X5.187Y-3.4319
X5.187Y-3.4869
X5.187Y-6.4741
X5.187Y-6.5291
X5.19Y-1.2508
X5.19Y-1.326
X5.19Y-1.4012
X5.19Y-1.5178
X5.19Y-1.593
X5.19Y-4.2929
X5.19Y-4.3681
X5.19Y-4.4433
X5.19Y-4.5599
X5.19Y-4.6351
X5.19Y-7.3351
X5.19Y-7.4103
X5.19Y-7.4855
X5.19Y-7.6021
X5.19Y-7.6773
X5.221Y-1.0088
X5.221Y-4.0509
X5.221Y-7.0931
X5.222Y-0.9798
X5.222Y-4.0219
X5.222Y-7.0641
X5.241Y-0.9578
X5.241Y-3.9999
X5.241Y-7.0421
X5.2563Y-0.981
X5.2563Y-4.0232
X5.2563Y-7.0653
X5.2652Y-1.2508
X5.2652Y-1.326
X5.2652Y-1.4012
X5.2652Y-1.5178
X5.2652Y-1.593
X5.2652Y-4.2929
X5.2652Y-4.3681
X5.2652Y-4.4433
X5.2652Y-4.5599
X5.2652Y-4.6351
X5.2652Y-7.3351
X5.2652Y-7.4103
X5.2652Y-7.4855
X5.2652Y-7.6021
X5.2652Y-7.6773
X5.2758Y-1.0005
X5.2758Y-4.0427
X5.2758Y-7.0848
X5.279Y-1.8088
X5.279Y-4.8509
X5.279Y-7.8931
X5.305Y-1.0098
X5.305Y-4.0519
X5.305Y-7.0941
X5.329Y-1.8298
X5.329Y-4.8719
X5.329Y-7.9141
X5.3404Y-1.2508
X5.3404Y-1.326
X5.3404Y-1.4012
X5.3404Y-1.593
X5.3404Y-4.2929
X5.3404Y-4.3681
X5.3404Y-4.4433
X5.3404Y-4.6351
X5.3404Y-7.3351
X5.3404Y-7.4103
X5.3404Y-7.4855
X5.3404Y-7.6773
X5.4156Y-1.2508
X5.4156Y-1.326
X5.4156Y-1.4012
X5.4156Y-4.2929
X5.4156Y-4.3681
X5.4156Y-4.4433
X5.4156Y-7.3351
X5.4156Y-7.4103
X5.4156Y-7.4855
X5.461Y-1.6898
X5.461Y-4.7319
X5.461Y-7.7741
X5.468Y-1.6608
X5.468Y-4.7029
X5.468Y-7.7451
X5.478Y-0.4878
X5.478Y-0.5118
X5.478Y-3.5299
X5.478Y-3.5539
X5.478Y-6.5721
X5.478Y-6.5961
X5.489Y-1.6928
X5.489Y-4.7349
X5.489Y-7.7771
X5.4908Y-1.2508
X5.4908Y-1.326
X5.4908Y-1.4012
X5.4908Y-4.2929
X5.4908Y-4.3681
X5.4908Y-4.4433
X5.4908Y-7.3351
X5.4908Y-7.4103
X5.4908Y-7.4855
X5.518Y-1.6928
X5.518Y-4.7349
X5.518Y-7.7771
X5.6264Y-0.4448
X5.6264Y-3.4869
X5.6264Y-6.5291
X5.732Y-1.6972
X5.732Y-4.7394
X5.732Y-7.7815
X5.779Y-1.6968
X5.779Y-4.7389
X5.779Y-7.7811
X5.829Y-1.6968
X5.829Y-4.7389
X5.829Y-7.7811
X5.903Y-0.8978
X5.903Y-3.9399
X5.903Y-6.9821
X5.92Y-1.0108
X5.92Y-4.0529
X5.92Y-7.0951
X5.951Y-0.9538
X5.951Y-3.9959
X5.951Y-7.0381
X6.3866Y-1.5778
X6.3866Y-4.6199
X6.3866Y-7.6621
X6.4618Y-1.5778
X6.4618Y-4.6199
X6.4618Y-7.6621
X6.537Y-1.5778
X6.537Y-1.631
X6.537Y-4.6199
X6.537Y-4.6731
X6.537Y-7.6621
X6.537Y-7.7153
X6.6122Y-1.5778
X6.6122Y-1.631
X6.6122Y-4.6199
X6.6122Y-4.6731
X6.6122Y-7.6621
X6.6122Y-7.7153
X6.6386Y-1.1948
X6.6386Y-4.2369
X6.6386Y-7.2791
X6.6596Y-1.8918
X6.6596Y-4.9339
X6.6596Y-7.9761
X6.6636Y-1.4628
X6.6636Y-4.5049
X6.6636Y-7.5471
X6.6874Y-1.631
X6.6874Y-4.6731
X6.6874Y-7.7153
X6.6918Y-1.2515
X6.6918Y-4.2937
X6.6918Y-7.3358
X6.7176Y-0.8688
X6.7176Y-3.9109
X6.7176Y-6.9531
X6.7186Y-1.0918
X6.7186Y-4.1339
X6.7186Y-7.1761
X6.7626Y-1.631
X6.7626Y-4.6731
X6.7626Y-7.7153
X6.7786Y-1.9378
X6.7786Y-4.9799
X6.7786Y-8.0221
X6.8136Y-1.9808
X6.8136Y-5.0229
X6.8136Y-8.0651
X6.8176Y-1.6318
X6.8176Y-4.6739
X6.8176Y-7.7161
X6.8366Y-1.3588
X6.8366Y-4.4009
X6.8366Y-7.4431
X6.8386Y-0.8688
X6.8386Y-3.9109
X6.8386Y-6.9531
X6.8476Y-1.6768
X6.8476Y-4.7189
X6.8476Y-7.7611
X6.8606Y-1.4078
X6.8606Y-4.4499
X6.8606Y-7.4921
X6.8616Y-0.9958
X6.8616Y-1.0248
X6.8616Y-1.5018
X6.8616Y-4.0379
X6.8616Y-4.0669
X6.8616Y-4.5439
X6.8616Y-7.0801
X6.8616Y-7.1091
X6.8616Y-7.5861
X6.9003Y-1.235
X6.9003Y-1.253
X6.9003Y-4.2772
X6.9003Y-4.2952
X6.9003Y-7.3193
X6.9003Y-7.3373
X6.9016Y-1.7068
X6.9016Y-4.7489
X6.9016Y-7.7911
X6.9166Y-1.1132
X6.9166Y-1.1342
X6.9166Y-1.1562
X6.9166Y-4.1554
X6.9166Y-4.1764
X6.9166Y-4.1984
X6.9166Y-7.1975
X6.9166Y-7.2185
X6.9166Y-7.2405
X6.9336Y-0.8688
X6.9336Y-3.9109
X6.9336Y-6.9531
X6.9376Y-1.1232
X6.9376Y-1.1452
X6.9376Y-4.1654
X6.9376Y-4.1874
X6.9376Y-7.2075
X6.9376Y-7.2295
X6.9516Y-1.8978
X6.9516Y-1.9278
X6.9516Y-4.9399
X6.9516Y-4.9699
X6.9516Y-7.9821
X6.9516Y-8.0121
X6.9556Y-1.8308
X6.9556Y-4.8729
X6.9556Y-7.9151
X6.9956Y-1.0398
X6.9956Y-4.0819
X6.9956Y-7.1241
X7.0166Y-0.9348
X7.0166Y-3.9769
X7.0166Y-7.0191
X7.0226Y-1.3588
X7.0226Y-4.4009
X7.0226Y-7.4431
X7.0416Y-1.4338
X7.0416Y-4.4759
X7.0416Y-7.5181
X7.0526Y-0.8328
X7.0526Y-3.8749
X7.0526Y-6.9171
X7.0716Y-1.0938
X7.0716Y-4.1359
X7.0716Y-7.1781
X7.0866Y-1.4398
X7.0866Y-1.5598
X7.0866Y-4.4819
X7.0866Y-4.6019
X7.0866Y-7.5241
X7.0866Y-7.6441
X7.0996Y-1.0948
X7.0996Y-4.1369
X7.0996Y-7.1791
X7.1046Y-1.6468
X7.1046Y-4.6889
X7.1046Y-7.7311
X7.1056Y-1.5838
X7.1056Y-4.6259
X7.1056Y-7.6681
X7.1156Y-1.4388
X7.1156Y-4.4809
X7.1156Y-7.5231
X7.1258Y-1.5608
X7.1258Y-4.6029
X7.1258Y-7.6451
X7.1316Y-2.5788
X7.1316Y-2.6078
X7.1316Y-5.6209
X7.1316Y-5.6499
X7.1316Y-8.6631
X7.1316Y-8.6921
X7.1766Y-1.8062
X7.1766Y-4.8484
X7.1766Y-7.8905
X7.1846Y-1.0898
X7.1846Y-1.4548
X7.1846Y-4.1319
X7.1846Y-4.4969
X7.1846Y-7.1741
X7.1846Y-7.5391
X7.2246Y-1.7688
X7.2246Y-4.8109
X7.2246Y-7.8531
X7.2366Y-1.0908
X7.2366Y-4.1329
X7.2366Y-7.1751
X7.2456Y-1.4508
X7.2456Y-4.4929
X7.2456Y-7.5351
X7.2566Y-1.7088
X7.2566Y-4.7509
X7.2566Y-7.7931
X7.2636Y-1.9218
X7.2636Y-4.9639
X7.2636Y-8.0061
X7.2706Y-1.0908
X7.2706Y-4.1329
X7.2706Y-7.1751
X7.2806Y-1.4968
X7.2806Y-4.5389
X7.2806Y-7.5811
X7.2946Y-0.8328
X7.2946Y-1.3018
X7.2946Y-3.8749
X7.2946Y-4.3439
X7.2946Y-6.9171
X7.2946Y-7.3861
X7.2956Y-1.7498
X7.2956Y-1.8358
X7.2956Y-4.7919
X7.2956Y-4.8779
X7.2956Y-7.8341
X7.2956Y-7.9201
X7.3296Y-0.9368
X7.3296Y-3.9789
X7.3296Y-7.0211
X7.3566Y-1.6058
X7.3566Y-4.6479
X7.3566Y-7.6901
X7.3756Y-1.7498
X7.3756Y-1.9478
X7.3756Y-4.7919
X7.3756Y-4.9899
X7.3756Y-7.8341
X7.3756Y-8.0321
X7.3946Y-1.5098
X7.3946Y-4.5519
X7.3946Y-7.5941
X7.3966Y-1.8348
X7.3966Y-4.8769
X7.3966Y-7.9191
X7.4016Y-1.0658
X7.4016Y-4.1079
X7.4016Y-7.1501
X7.4636Y-0.8538
X7.4636Y-3.8959
X7.4636Y-6.9381
X7.4646Y-0.7898
X7.4646Y-0.9138
X7.4646Y-3.8319
X7.4646Y-3.9559
X7.4646Y-6.8741
X7.4646Y-6.9981
X7.4656Y-1.4688
X7.4656Y-4.5109
X7.4656Y-7.5531
X7.5246Y-0.7498
X7.5246Y-3.7919
X7.5246Y-6.8341
X7.5326Y-1.6468
X7.5326Y-4.6889
X7.5326Y-7.7311
X7.5486Y-1.4678
X7.5486Y-4.5099
X7.5486Y-7.5521
X7.5556Y-0.7218
X7.5556Y-3.7639
X7.5556Y-6.8061
X7.5616Y-2.7848
X7.5616Y-2.8123
X7.5616Y-2.8399
X7.5616Y-5.8269
X7.5616Y-5.8545
X7.5616Y-5.882
X7.5616Y-8.8691
X7.5616Y-8.8966
X7.5616Y-8.9242
X7.5636Y-0.6898
X7.5636Y-0.7528
X7.5636Y-3.7319
X7.5636Y-3.7949
X7.5636Y-6.7741
X7.5636Y-6.8371
X7.5806Y-1.5888
X7.5806Y-4.6309
X7.5806Y-7.6731
X7.5866Y-0.7208
X7.5866Y-3.7629
X7.5866Y-6.8051
X7.5946Y-1.4218
X7.5946Y-4.4639
X7.5946Y-7.5061
X7.6152Y-0.7208
X7.6152Y-3.7629
X7.6152Y-6.8051
X7.6246Y-1.5448
X7.6246Y-4.5869
X7.6246Y-7.6291
X7.6366Y-0.6888
X7.6366Y-0.7518
X7.6366Y-3.7309
X7.6366Y-3.7939
X7.6366Y-6.7731
X7.6366Y-6.8361
X7.6416Y-1.5668
X7.6416Y-4.6089
X7.6416Y-7.6511
X7.6476Y-0.7208
X7.6476Y-3.7629
X7.6476Y-6.8051
X7.6806Y-1.7108
X7.6806Y-4.7529
X7.6806Y-7.7951
X7.7476Y-0.9846
X7.7476Y-1.0598
X7.7476Y-4.0267
X7.7476Y-4.1019
X7.7476Y-7.0689
X7.7476Y-7.1441
X7.7626Y-1.3458
X7.7626Y-4.3879
X7.7626Y-7.4301
X7.7656Y-1.4758
X7.7656Y-1.551
X7.7656Y-4.5179
X7.7656Y-4.5931
X7.7656Y-7.5601
X7.7656Y-7.6353
X7.7766Y-1.6278
X7.7766Y-4.6699
X7.7766Y-7.7121
X7.7786Y-1.5998
X7.7786Y-4.6419
X7.7786Y-7.6841
X7.8136Y-1.3948
X7.8136Y-4.4369
X7.8136Y-7.4791
X7.8228Y-0.9846
X7.8228Y-1.0598
X7.8228Y-4.0267
X7.8228Y-4.1019
X7.8228Y-7.0689
X7.8228Y-7.1441
X7.8363Y-2.7528
X7.8363Y-5.7949
X7.8363Y-8.8371
X7.8408Y-1.4758
X7.8408Y-1.551
X7.8408Y-4.5179
X7.8408Y-4.5931
X7.8408Y-7.5601
X7.8408Y-7.6353
X7.8506Y-2.7948
X7.8506Y-5.8369
X7.8506Y-8.8791
X7.8638Y-2.7528
X7.8638Y-5.7949
X7.8638Y-8.8371
X7.898Y-0.9846
X7.898Y-1.0598
X7.898Y-4.0267
X7.898Y-4.1019
X7.898Y-7.0689
X7.898Y-7.1441
X7.9056Y-1.2408
X7.9056Y-4.2829
X7.9056Y-7.3251
X7.9096Y-1.3218
X7.9096Y-4.3639
X7.9096Y-7.4061
X7.916Y-1.4758
X7.916Y-1.551
X7.916Y-4.5179
X7.916Y-4.5931
X7.916Y-7.5601
X7.916Y-7.6353
X7.9186Y-1.3968
X7.9186Y-4.4389
X7.9186Y-7.4811
X7.9356Y-1.3218
X7.9356Y-4.3639
X7.9356Y-7.4061
X7.9516Y-1.3958
X7.9516Y-4.4379
X7.9516Y-7.4801
X7.9686Y-1.6018
X7.9686Y-4.6439
X7.9686Y-7.6861
X7.9732Y-0.9846
X7.9732Y-1.0598
X7.9732Y-4.0267
X7.9732Y-4.1019
X7.9732Y-7.0689
X7.9732Y-7.1441
X7.9756Y-1.3798
X7.9756Y-4.4219
X7.9756Y-7.4641
X8.0076Y-1.2688
X8.0076Y-4.3109
X8.0076Y-7.3531
X8.0186Y-1.3458
X8.0186Y-4.3879
X8.0186Y-7.4301
X8.0516Y-1.6028
X8.0516Y-4.6449
X8.0516Y-7.6871
X8.0616Y-1.2188
X8.0616Y-4.2609
X8.0616Y-7.3031
X8.1156Y-1.1888
X8.1156Y-4.2309
X8.1156Y-7.2731
X8.1336Y-1.1668
X8.1336Y-4.2089
X8.1336Y-7.2511
X8.1376Y-1.5488
X8.1376Y-1.5788
X8.1376Y-4.5909
X8.1376Y-4.6209
X8.1376Y-7.6331
X8.1376Y-7.6631
X8.1456Y-2.5378
X8.1456Y-5.5799
X8.1456Y-8.6221
X8.1519Y-1.145
X8.1519Y-4.1872
X8.1519Y-7.2293
X8.1576Y-2.5108
X8.1576Y-2.5648
X8.1576Y-5.5529
X8.1576Y-5.6069
X8.1576Y-8.5951
X8.1576Y-8.6491
X8.1696Y-1.1238
X8.1696Y-4.1659
X8.1696Y-7.2081
X8.1886Y-1.1028
X8.1886Y-4.1449
X8.1886Y-7.1871
X8.1986Y-1.6218
X8.1986Y-4.6639
X8.1986Y-7.7061
X8.2286Y-2.5158
X8.2286Y-5.5579
X8.2286Y-8.6001
X8.2296Y-2.5538
X8.2296Y-5.5959
X8.2296Y-8.6381
X8.2766Y-1.6228
X8.2766Y-4.6649
X8.2766Y-7.7071
X8.2916Y-2.5098
X8.2916Y-5.5519
X8.2916Y-8.5941
X8.2996Y-2.5348
X8.2996Y-5.5769
X8.2996Y-8.6191
X8.3366Y-0.3898
X8.3366Y-0.4448
X8.3366Y-3.4319
X8.3366Y-3.4869
X8.3366Y-6.4741
X8.3366Y-6.5291
X8.3396Y-1.2508
X8.3396Y-1.326
X8.3396Y-1.4012
X8.3396Y-1.5178
X8.3396Y-1.593
X8.3396Y-4.2929
X8.3396Y-4.3681
X8.3396Y-4.4433
X8.3396Y-4.5599
X8.3396Y-4.6351
X8.3396Y-7.3351
X8.3396Y-7.4103
X8.3396Y-7.4855
X8.3396Y-7.6021
X8.3396Y-7.6773
X8.3706Y-1.0088
X8.3706Y-4.0509
X8.3706Y-7.0931
X8.3716Y-0.9798
X8.3716Y-4.0219
X8.3716Y-7.0641
X8.3906Y-0.9578
X8.3906Y-3.9999
X8.3906Y-7.0421
X8.4059Y-0.981
X8.4059Y-4.0232
X8.4059Y-7.0653
X8.4148Y-1.2508
X8.4148Y-1.326
X8.4148Y-1.4012
X8.4148Y-1.5178
X8.4148Y-1.593
X8.4148Y-4.2929
X8.4148Y-4.3681
X8.4148Y-4.4433
X8.4148Y-4.5599
X8.4148Y-4.6351
X8.4148Y-7.3351
X8.4148Y-7.4103
X8.4148Y-7.4855
X8.4148Y-7.6021
X8.4148Y-7.6773
X8.4254Y-1.0005
X8.4254Y-4.0427
X8.4254Y-7.0848
X8.4286Y-1.8088
X8.4286Y-4.8509
X8.4286Y-7.8931
X8.4546Y-1.0098
X8.4546Y-4.0519
X8.4546Y-7.0941
X8.4786Y-1.8298
X8.4786Y-4.8719
X8.4786Y-7.9141
X8.49Y-1.2508
X8.49Y-1.326
X8.49Y-1.4012
X8.49Y-1.593
X8.49Y-4.2929
X8.49Y-4.3681
X8.49Y-4.4433
X8.49Y-4.6351
X8.49Y-7.3351
X8.49Y-7.4103
X8.49Y-7.4855
X8.49Y-7.6773
X8.5652Y-1.2508
X8.5652Y-1.326
X8.5652Y-1.4012
X8.5652Y-4.2929
X8.5652Y-4.3681
X8.5652Y-4.4433
X8.5652Y-7.3351
X8.5652Y-7.4103
X8.5652Y-7.4855
X8.6106Y-1.6898
X8.6106Y-4.7319
X8.6106Y-7.7741
X8.6176Y-1.6608
X8.6176Y-4.7029
X8.6176Y-7.7451
X8.6276Y-0.4878
X8.6276Y-0.5118
X8.6276Y-3.5299
X8.6276Y-3.5539
X8.6276Y-6.5721
X8.6276Y-6.5961
X8.6386Y-1.6928
X8.6386Y-4.7349
X8.6386Y-7.7771
X8.6404Y-1.2508
X8.6404Y-1.326
X8.6404Y-1.4012
X8.6404Y-4.2929
X8.6404Y-4.3681
X8.6404Y-4.4433
X8.6404Y-7.3351
X8.6404Y-7.4103
X8.6404Y-7.4855
X8.6676Y-1.6928
X8.6676Y-4.7349
X8.6676Y-7.7771
X8.776Y-0.4448
X8.776Y-3.4869
X8.776Y-6.5291
X8.8816Y-1.6972
X8.8816Y-4.7394
X8.8816Y-7.7815
X8.9286Y-1.6968
X8.9286Y-4.7389
X8.9286Y-7.7811
X8.9786Y-1.6968
X8.9786Y-4.7389
X8.9786Y-7.7811
X9.0526Y-0.8978
X9.0526Y-3.9399
X9.0526Y-6.9821
X9.0696Y-1.0108
X9.0696Y-4.0529
X9.0696Y-7.0951
X9.1006Y-0.9538
X9.1006Y-3.9959
X9.1006Y-7.0381
X9.5362Y-1.5778
X9.5362Y-4.6199
X9.5362Y-7.6621
X9.6114Y-1.5778
X9.6114Y-4.6199
X9.6114Y-7.6621
X9.6866Y-1.5778
X9.6866Y-1.631
X9.6866Y-4.6199
X9.6866Y-4.6731
X9.6866Y-7.6621
X9.6866Y-7.7153
X9.7618Y-1.5778
X9.7618Y-1.631
X9.7618Y-4.6199
X9.7618Y-4.6731
X9.7618Y-7.6621
X9.7618Y-7.7153
X9.7882Y-1.1948
X9.7882Y-4.2369
X9.7882Y-7.2791
X9.8092Y-1.8918
X9.8092Y-4.9339
X9.8092Y-7.9761
X9.8132Y-1.4628
X9.8132Y-4.5049
X9.8132Y-7.5471
X9.837Y-1.631
X9.837Y-4.6731
X9.837Y-7.7153
X9.8414Y-1.2515
X9.8414Y-4.2937
X9.8414Y-7.3358
X9.8672Y-0.8688
X9.8672Y-3.9109
X9.8672Y-6.9531
X9.8682Y-1.0918
X9.8682Y-4.1339
X9.8682Y-7.1761
X9.9122Y-1.631
X9.9122Y-4.6731
X9.9122Y-7.7153
X9.9282Y-1.9378
X9.9282Y-4.9799
X9.9282Y-8.0221
X9.9632Y-1.9808
X9.9632Y-5.0229
X9.9632Y-8.0651
X9.9672Y-1.6318
X9.9672Y-4.6739
X9.9672Y-7.7161
X9.9862Y-1.3588
X9.9862Y-4.4009
X9.9862Y-7.4431
X9.9882Y-0.8688
X9.9882Y-3.9109
X9.9882Y-6.9531
X9.9972Y-1.6768
X9.9972Y-4.7189
X9.9972Y-7.7611
X10.0102Y-1.4078
X10.0102Y-4.4499
X10.0102Y-7.4921
X10.0112Y-0.9958
X10.0112Y-1.0248
X10.0112Y-1.5018
X10.0112Y-4.0379
X10.0112Y-4.0669
X10.0112Y-4.5439
X10.0112Y-7.0801
X10.0112Y-7.1091
X10.0112Y-7.5861
X10.0499Y-1.235
X10.0499Y-1.253
X10.0499Y-4.2772
X10.0499Y-4.2952
X10.0499Y-7.3193
X10.0499Y-7.3373
X10.0512Y-1.7068
X10.0512Y-4.7489
X10.0512Y-7.7911
X10.0662Y-1.1132
X10.0662Y-1.1342
X10.0662Y-1.1562
X10.0662Y-4.1554
X10.0662Y-4.1764
X10.0662Y-4.1984
X10.0662Y-7.1975
X10.0662Y-7.2185
X10.0662Y-7.2405
X10.0832Y-0.8688
X10.0832Y-3.9109
X10.0832Y-6.9531
X10.0872Y-1.1232
X10.0872Y-1.1452
X10.0872Y-4.1654
X10.0872Y-4.1874
X10.0872Y-7.2075
X10.0872Y-7.2295
X10.1012Y-1.8978
X10.1012Y-1.9278
X10.1012Y-4.9399
X10.1012Y-4.9699
X10.1012Y-7.9821
X10.1012Y-8.0121
X10.1052Y-1.8308
X10.1052Y-4.8729
X10.1052Y-7.9151
X10.1452Y-1.0398
X10.1452Y-4.0819
X10.1452Y-7.1241
X10.1662Y-0.9348
X10.1662Y-3.9769
X10.1662Y-7.0191
X10.1722Y-1.3588
X10.1722Y-4.4009
X10.1722Y-7.4431
X10.1912Y-1.4338
X10.1912Y-4.4759
X10.1912Y-7.5181
X10.2022Y-0.8328
X10.2022Y-3.8749
X10.2022Y-6.9171
X10.2212Y-1.0938
X10.2212Y-4.1359
X10.2212Y-7.1781
X10.2362Y-1.4398
X10.2362Y-1.5598
X10.2362Y-4.4819
X10.2362Y-4.6019
X10.2362Y-7.5241
X10.2362Y-7.6441
X10.2492Y-1.0948
X10.2492Y-4.1369
X10.2492Y-7.1791
X10.2542Y-1.6468
X10.2542Y-4.6889
X10.2542Y-7.7311
X10.2552Y-1.5838
X10.2552Y-4.6259
X10.2552Y-7.6681
X10.2652Y-1.4388
X10.2652Y-4.4809
X10.2652Y-7.5231
X10.2754Y-1.5608
X10.2754Y-4.6029
X10.2754Y-7.6451
X10.2812Y-2.5788
X10.2812Y-2.6078
X10.2812Y-5.6209
X10.2812Y-5.6499
X10.2812Y-8.6631
X10.2812Y-8.6921
X10.3262Y-1.8062
X10.3262Y-4.8484
X10.3262Y-7.8905
X10.3342Y-1.0898
X10.3342Y-1.4548
X10.3342Y-4.1319
X10.3342Y-4.4969
X10.3342Y-7.1741
X10.3342Y-7.5391
X10.3742Y-1.7688
X10.3742Y-4.8109
X10.3742Y-7.8531
X10.3862Y-1.0908
X10.3862Y-4.1329
X10.3862Y-7.1751
X10.3952Y-1.4508
X10.3952Y-4.4929
X10.3952Y-7.5351
X10.4062Y-1.7088
X10.4062Y-4.7509
X10.4062Y-7.7931
X10.4132Y-1.9218
X10.4132Y-4.9639
X10.4132Y-8.0061
X10.4202Y-1.0908
X10.4202Y-4.1329
X10.4202Y-7.1751
X10.4302Y-1.4968
X10.4302Y-4.5389
X10.4302Y-7.5811
X10.4442Y-0.8328
X10.4442Y-1.3018
X10.4442Y-3.8749
X10.4442Y-4.3439
X10.4442Y-6.9171
X10.4442Y-7.3861
X10.4452Y-1.7498
X10.4452Y-1.8358
X10.4452Y-4.7919
X10.4452Y-4.8779
X10.4452Y-7.8341
X10.4452Y-7.9201
X10.4792Y-0.9368
X10.4792Y-3.9789
X10.4792Y-7.0211
X10.5062Y-1.6058
X10.5062Y-4.6479
X10.5062Y-7.6901
X10.5252Y-1.7498
X10.5252Y-1.9478
X10.5252Y-4.7919
X10.5252Y-4.9899
X10.5252Y-7.8341
X10.5252Y-8.0321
X10.5442Y-1.5098
X10.5442Y-4.5519
X10.5442Y-7.5941
X10.5462Y-1.8348
X10.5462Y-4.8769
X10.5462Y-7.9191
X10.5512Y-1.0658
X10.5512Y-4.1079
X10.5512Y-7.1501
X10.6132Y-0.8538
X10.6132Y-3.8959
X10.6132Y-6.9381
X10.6142Y-0.7898
X10.6142Y-0.9138
X10.6142Y-3.8319
X10.6142Y-3.9559
X10.6142Y-6.8741
X10.6142Y-6.9981
X10.6152Y-1.4688
X10.6152Y-4.5109
X10.6152Y-7.5531
X10.6742Y-0.7498
X10.6742Y-3.7919
X10.6742Y-6.8341
X10.6822Y-1.6468
X10.6822Y-4.6889
X10.6822Y-7.7311
X10.6982Y-1.4678
X10.6982Y-4.5099
X10.6982Y-7.5521
X10.7052Y-0.7218
X10.7052Y-3.7639
X10.7052Y-6.8061
X10.7112Y-2.7848
X10.7112Y-2.8123
X10.7112Y-2.8399
X10.7112Y-5.8269
X10.7112Y-5.8545
X10.7112Y-5.882
X10.7112Y-8.8691
X10.7112Y-8.8966
X10.7112Y-8.9242
X10.7132Y-0.6898
X10.7132Y-0.7528
X10.7132Y-3.7319
X10.7132Y-3.7949
X10.7132Y-6.7741
X10.7132Y-6.8371
X10.7302Y-1.5888
X10.7302Y-4.6309
X10.7302Y-7.6731
X10.7362Y-0.7208
X10.7362Y-3.7629
X10.7362Y-6.8051
X10.7442Y-1.4218
X10.7442Y-4.4639
X10.7442Y-7.5061
X10.7648Y-0.7208
X10.7648Y-3.7629
X10.7648Y-6.8051
X10.7742Y-1.5448
X10.7742Y-4.5869
X10.7742Y-7.6291
X10.7862Y-0.6888
X10.7862Y-0.7518
X10.7862Y-3.7309
X10.7862Y-3.7939
X10.7862Y-6.7731
X10.7862Y-6.8361
X10.7912Y-1.5668
X10.7912Y-4.6089
X10.7912Y-7.6511
X10.7972Y-0.7208
X10.7972Y-3.7629
X10.7972Y-6.8051
X10.8302Y-1.7108
X10.8302Y-4.7529
X10.8302Y-7.7951
X10.8972Y-0.9846
X10.8972Y-1.0598
X10.8972Y-4.0267
X10.8972Y-4.1019
X10.8972Y-7.0689
X10.8972Y-7.1441
X10.9122Y-1.3458
X10.9122Y-4.3879
X10.9122Y-7.4301
X10.9152Y-1.4758
X10.9152Y-1.551
X10.9152Y-4.5179
X10.9152Y-4.5931
X10.9152Y-7.5601
X10.9152Y-7.6353
X10.9262Y-1.6278
X10.9262Y-4.6699
X10.9262Y-7.7121
X10.9282Y-1.5998
X10.9282Y-4.6419
X10.9282Y-7.6841
X10.9632Y-1.3948
X10.9632Y-4.4369
X10.9632Y-7.4791
X10.9724Y-0.9846
X10.9724Y-1.0598
X10.9724Y-4.0267
X10.9724Y-4.1019
X10.9724Y-7.0689
X10.9724Y-7.1441
X10.9859Y-2.7528
X10.9859Y-5.7949
X10.9859Y-8.8371
X10.9904Y-1.4758
X10.9904Y-1.551
X10.9904Y-4.5179
X10.9904Y-4.5931
X10.9904Y-7.5601
X10.9904Y-7.6353
X11.0002Y-2.7948
X11.0002Y-5.8369
X11.0002Y-8.8791
X11.0134Y-2.7528
X11.0134Y-5.7949
X11.0134Y-8.8371
X11.0476Y-0.9846
X11.0476Y-1.0598
X11.0476Y-4.0267
X11.0476Y-4.1019
X11.0476Y-7.0689
X11.0476Y-7.1441
X11.0552Y-1.2408
X11.0552Y-4.2829
X11.0552Y-7.3251
X11.0592Y-1.3218
X11.0592Y-4.3639
X11.0592Y-7.4061
X11.0656Y-1.4758
X11.0656Y-1.551
X11.0656Y-4.5179
X11.0656Y-4.5931
X11.0656Y-7.5601
X11.0656Y-7.6353
X11.0682Y-1.3968
X11.0682Y-4.4389
X11.0682Y-7.4811
X11.0852Y-1.3218
X11.0852Y-4.3639
X11.0852Y-7.4061
X11.1012Y-1.3958
X11.1012Y-4.4379
X11.1012Y-7.4801
X11.1182Y-1.6018
X11.1182Y-4.6439
X11.1182Y-7.6861
X11.1228Y-0.9846
X11.1228Y-1.0598
X11.1228Y-4.0267
X11.1228Y-4.1019
X11.1228Y-7.0689
X11.1228Y-7.1441
X11.1252Y-1.3798
X11.1252Y-4.4219
X11.1252Y-7.4641
X11.1572Y-1.2688
X11.1572Y-4.3109
X11.1572Y-7.3531
X11.1682Y-1.3458
X11.1682Y-4.3879
X11.1682Y-7.4301
X11.2012Y-1.6028
X11.2012Y-4.6449
X11.2012Y-7.6871
X11.2112Y-1.2188
X11.2112Y-4.2609
X11.2112Y-7.3031
X11.2652Y-1.1888
X11.2652Y-4.2309
X11.2652Y-7.2731
X11.2832Y-1.1668
X11.2832Y-4.2089
X11.2832Y-7.2511
X11.2872Y-1.5488
X11.2872Y-1.5788
X11.2872Y-4.5909
X11.2872Y-4.6209
X11.2872Y-7.6331
X11.2872Y-7.6631
X11.2952Y-2.5378
X11.2952Y-5.5799
X11.2952Y-8.6221
X11.3015Y-1.145
X11.3015Y-4.1872
X11.3015Y-7.2293
X11.3072Y-2.5108
X11.3072Y-2.5648
X11.3072Y-5.5529
X11.3072Y-5.6069
X11.3072Y-8.5951
X11.3072Y-8.6491
X11.3192Y-1.1238
X11.3192Y-4.1659
X11.3192Y-7.2081
X11.3382Y-1.1028
X11.3382Y-4.1449
X11.3382Y-7.1871
X11.3482Y-1.6218
X11.3482Y-4.6639
X11.3482Y-7.7061
X11.3782Y-2.5158
X11.3782Y-5.5579
X11.3782Y-8.6001
X11.3792Y-2.5538
X11.3792Y-5.5959
X11.3792Y-8.6381
X11.4262Y-1.6228
X11.4262Y-4.6649
X11.4262Y-7.7071
X11.4412Y-2.5098
X11.4412Y-5.5519
X11.4412Y-8.5941
X11.4492Y-2.5348
X11.4492Y-5.5769
X11.4492Y-8.6191
X11.4862Y-0.3898
X11.4862Y-0.4448
X11.4862Y-3.4319
X11.4862Y-3.4869
X11.4862Y-6.4741
X11.4862Y-6.5291
X11.4892Y-1.2508
X11.4892Y-1.326
X11.4892Y-1.4012
X11.4892Y-1.5178
X11.4892Y-1.593
X11.4892Y-4.2929
X11.4892Y-4.3681
X11.4892Y-4.4433
X11.4892Y-4.5599
X11.4892Y-4.6351
X11.4892Y-7.3351
X11.4892Y-7.4103
X11.4892Y-7.4855
X11.4892Y-7.6021
X11.4892Y-7.6773
X11.5202Y-1.0088
X11.5202Y-4.0509
X11.5202Y-7.0931
X11.5212Y-0.9798
X11.5212Y-4.0219
X11.5212Y-7.0641
X11.5402Y-0.9578
X11.5402Y-3.9999
X11.5402Y-7.0421
X11.5555Y-0.981
X11.5555Y-4.0232
X11.5555Y-7.0653
X11.5644Y-1.2508
X11.5644Y-1.326
X11.5644Y-1.4012
X11.5644Y-1.5178
X11.5644Y-1.593
X11.5644Y-4.2929
X11.5644Y-4.3681
X11.5644Y-4.4433
X11.5644Y-4.5599
X11.5644Y-4.6351
X11.5644Y-7.3351
X11.5644Y-7.4103
X11.5644Y-7.4855
X11.5644Y-7.6021
X11.5644Y-7.6773
X11.575Y-1.0005
X11.575Y-4.0427
X11.575Y-7.0848
X11.5782Y-1.8088
X11.5782Y-4.8509
X11.5782Y-7.8931
X11.6042Y-1.0098
X11.6042Y-4.0519
X11.6042Y-7.0941
X11.6282Y-1.8298
X11.6282Y-4.8719
X11.6282Y-7.9141
X11.6396Y-1.2508
X11.6396Y-1.326
X11.6396Y-1.4012
X11.6396Y-1.593
X11.6396Y-4.2929
X11.6396Y-4.3681
X11.6396Y-4.4433
X11.6396Y-4.6351
X11.6396Y-7.3351
X11.6396Y-7.4103
X11.6396Y-7.4855
X11.6396Y-7.6773
X11.7148Y-1.2508
X11.7148Y-1.326
X11.7148Y-1.4012
X11.7148Y-4.2929
X11.7148Y-4.3681
X11.7148Y-4.4433
X11.7148Y-7.3351
X11.7148Y-7.4103
X11.7148Y-7.4855
X11.7602Y-1.6898
X11.7602Y-4.7319
X11.7602Y-7.7741
X11.7672Y-1.6608
X11.7672Y-4.7029
X11.7672Y-7.7451
X11.7772Y-0.4878
X11.7772Y-0.5118
X11.7772Y-3.5299
X11.7772Y-3.5539
X11.7772Y-6.5721
X11.7772Y-6.5961
X11.7882Y-1.6928
X11.7882Y-4.7349
X11.7882Y-7.7771
X11.79Y-1.2508
X11.79Y-1.326
X11.79Y-1.4012
X11.79Y-4.2929
X11.79Y-4.3681
X11.79Y-4.4433
X11.79Y-7.3351
X11.79Y-7.4103
X11.79Y-7.4855
X11.8172Y-1.6928
X11.8172Y-4.7349
X11.8172Y-7.7771
X11.9256Y-0.4448
X11.9256Y-3.4869
X11.9256Y-6.5291
X12.0312Y-1.6972
X12.0312Y-4.7394
X12.0312Y-7.7815
X12.0782Y-1.6968
X12.0782Y-4.7389
X12.0782Y-7.7811
X12.1282Y-1.6968
X12.1282Y-4.7389
X12.1282Y-7.7811
X12.2022Y-0.8978
X12.2022Y-3.9399
X12.2022Y-6.9821
X12.2192Y-1.0108
X12.2192Y-4.0529
X12.2192Y-7.0951
X12.2502Y-0.9538
X12.2502Y-3.9959
X12.2502Y-7.0381
T2
X0.8022Y-0.8964
X0.8022Y-0.9358
X0.8022Y-0.9751
X0.8022Y-3.9385
X0.8022Y-3.9779
X0.8022Y-4.0173
X0.8022Y-6.9807
X0.8022Y-7.0201
X0.8022Y-7.0594
X0.8495Y-0.8964
X0.8495Y-0.9358
X0.8495Y-0.9751
X0.8495Y-3.9385
X0.8495Y-3.9779
X0.8495Y-4.0173
X0.8495Y-6.9807
X0.8495Y-7.0201
X0.8495Y-7.0594
X0.8967Y-0.8964
X0.8967Y-0.9358
X0.8967Y-0.9751
X0.8967Y-3.9385
X0.8967Y-3.9779
X0.8967Y-4.0173
X0.8967Y-6.9807
X0.8967Y-7.0201
X0.8967Y-7.0594
X0.944Y-0.8964
X0.944Y-0.9358
X0.944Y-0.9751
X0.944Y-3.9385
X0.944Y-3.9779
X0.944Y-4.0173
X0.944Y-6.9807
X0.944Y-7.0201
X0.944Y-7.0594
X3.9518Y-0.8964
X3.9518Y-0.9358
X3.9518Y-0.9751
X3.9518Y-3.9385
X3.9518Y-3.9779
X3.9518Y-4.0173
X3.9518Y-6.9807
X3.9518Y-7.0201
X3.9518Y-7.0594
X3.9991Y-0.8964
X3.9991Y-0.9358
X3.9991Y-0.9751
X3.9991Y-3.9385
X3.9991Y-3.9779
X3.9991Y-4.0173
X3.9991Y-6.9807
X3.9991Y-7.0201
X3.9991Y-7.0594
X4.0463Y-0.8964
X4.0463Y-0.9358
X4.0463Y-0.9751
X4.0463Y-3.9385
X4.0463Y-3.9779
X4.0463Y-4.0173
X4.0463Y-6.9807
X4.0463Y-7.0201
X4.0463Y-7.0594
X4.0936Y-0.8964
X4.0936Y-0.9358
X4.0936Y-0.9751
X4.0936Y-3.9385
X4.0936Y-3.9779
X4.0936Y-4.0173
X4.0936Y-6.9807
X4.0936Y-7.0201
X4.0936Y-7.0594
X7.1014Y-0.8964
X7.1014Y-0.9358
X7.1014Y-0.9751
X7.1014Y-3.9385
X7.1014Y-3.9779
X7.1014Y-4.0173
X7.1014Y-6.9807
X7.1014Y-7.0201
X7.1014Y-7.0594
X7.1487Y-0.8964
X7.1487Y-0.9358
X7.1487Y-0.9751
X7.1487Y-3.9385
X7.1487Y-3.9779
X7.1487Y-4.0173
X7.1487Y-6.9807
X7.1487Y-7.0201
X7.1487Y-7.0594
X7.1959Y-0.8964
X7.1959Y-0.9358
X7.1959Y-0.9751
X7.1959Y-3.9385
X7.1959Y-3.9779
X7.1959Y-4.0173
X7.1959Y-6.9807
X7.1959Y-7.0201
X7.1959Y-7.0594
X7.2432Y-0.8964
X7.2432Y-0.9358
X7.2432Y-0.9751
X7.2432Y-3.9385
X7.2432Y-3.9779
X7.2432Y-4.0173
X7.2432Y-6.9807
X7.2432Y-7.0201
X7.2432Y-7.0594
X10.2511Y-0.8964
X10.2511Y-0.9358
X10.2511Y-0.9751
X10.2511Y-3.9385
X10.2511Y-3.9779
X10.2511Y-4.0173
X10.2511Y-6.9807
X10.2511Y-7.0201
X10.2511Y-7.0594
X10.2983Y-0.8964
X10.2983Y-0.9358
X10.2983Y-0.9751
X10.2983Y-3.9385
X10.2983Y-3.9779
X10.2983Y-4.0173
X10.2983Y-6.9807
X10.2983Y-7.0201
X10.2983Y-7.0594
X10.3455Y-0.8964
X10.3455Y-0.9358
X10.3455Y-0.9751
X10.3455Y-3.9385
X10.3455Y-3.9779
X10.3455Y-4.0173
X10.3455Y-6.9807
X10.3455Y-7.0201
X10.3455Y-7.0594
X10.3928Y-0.8964
X10.3928Y-0.9358
X10.3928Y-0.9751
X10.3928Y-3.9385
X10.3928Y-3.9779
X10.3928Y-4.0173
X10.3928Y-6.9807
X10.3928Y-7.0201
X10.3928Y-7.0594
T3
X1.0384Y-1.8726
X1.0384Y-1.912
X1.0384Y-4.9148
X1.0384Y-4.9542
X1.0384Y-7.9569
X1.0384Y-7.9963
X2.455Y-1.3214
X2.455Y-1.3706
X2.455Y-4.3636
X2.455Y-4.4128
X2.455Y-7.4057
X2.455Y-7.4549
X2.4796Y-1.2968
X2.4796Y-1.346
X2.4796Y-1.3952
X2.4796Y-4.339
X2.4796Y-4.3882
X2.4796Y-4.4374
X2.4796Y-7.3811
X2.4796Y-7.4303
X2.4796Y-7.4795
X2.5042Y-1.3214
X2.5042Y-1.3706
X2.5042Y-4.3636
X2.5042Y-4.4128
X2.5042Y-7.4057
X2.5042Y-7.4549
X2.5288Y-1.2968
X2.5288Y-1.346
X2.5288Y-1.3952
X2.5288Y-4.339
X2.5288Y-4.3882
X2.5288Y-4.4374
X2.5288Y-7.3811
X2.5288Y-7.4303
X2.5288Y-7.4795
X2.5534Y-1.3214
X2.5534Y-1.3706
X2.5534Y-4.3636
X2.5534Y-4.4128
X2.5534Y-7.4057
X2.5534Y-7.4549
X4.188Y-1.8726
X4.188Y-1.912
X4.188Y-4.9148
X4.188Y-4.9542
X4.188Y-7.9569
X4.188Y-7.9963
X5.6046Y-1.3214
X5.6046Y-1.3706
X5.6046Y-4.3636
X5.6046Y-4.4128
X5.6046Y-7.4057
X5.6046Y-7.4549
X5.6292Y-1.2968
X5.6292Y-1.346
X5.6292Y-1.3952
X5.6292Y-4.339
X5.6292Y-4.3882
X5.6292Y-4.4374
X5.6292Y-7.3811
X5.6292Y-7.4303
X5.6292Y-7.4795
X5.6538Y-1.3214
X5.6538Y-1.3706
X5.6538Y-4.3636
X5.6538Y-4.4128
X5.6538Y-7.4057
X5.6538Y-7.4549
X5.6784Y-1.2968
X5.6784Y-1.346
X5.6784Y-1.3952
X5.6784Y-4.339
X5.6784Y-4.3882
X5.6784Y-4.4374
X5.6784Y-7.3811
X5.6784Y-7.4303
X5.6784Y-7.4795
X5.703Y-1.3214
X5.703Y-1.3706
X5.703Y-4.3636
X5.703Y-4.4128
X5.703Y-7.4057
X5.703Y-7.4549
X7.3376Y-1.8726
X7.3376Y-1.912
X7.3376Y-4.9148
X7.3376Y-4.9542
X7.3376Y-7.9569
X7.3376Y-7.9963
X8.7542Y-1.3214
X8.7542Y-1.3706
X8.7542Y-4.3636
X8.7542Y-4.4128
X8.7542Y-7.4057
X8.7542Y-7.4549
X8.7788Y-1.2968
X8.7788Y-1.346
X8.7788Y-1.3952
X8.7788Y-4.339
X8.7788Y-4.3882
X8.7788Y-4.4374
X8.7788Y-7.3811
X8.7788Y-7.4303
X8.7788Y-7.4795
X8.8034Y-1.3214
X8.8034Y-1.3706
X8.8034Y-4.3636
X8.8034Y-4.4128
X8.8034Y-7.4057
X8.8034Y-7.4549
X8.828Y-1.2968
X8.828Y-1.346
X8.828Y-1.3952
X8.828Y-4.339
X8.828Y-4.3882
X8.828Y-4.4374
X8.828Y-7.3811
X8.828Y-7.4303
X8.828Y-7.4795
X8.8526Y-1.3214
X8.8526Y-1.3706
X8.8526Y-4.3636
X8.8526Y-4.4128
X8.8526Y-7.4057
X8.8526Y-7.4549
X10.4872Y-1.8726
X10.4872Y-1.912
X10.4872Y-4.9148
X10.4872Y-4.9542
X10.4872Y-7.9569
X10.4872Y-7.9963
X11.9038Y-1.3214
X11.9038Y-1.3706
X11.9038Y-4.3636
X11.9038Y-4.4128
X11.9038Y-7.4057
X11.9038Y-7.4549
X11.9284Y-1.2968
X11.9284Y-1.346
X11.9284Y-1.3952
X11.9284Y-4.339
X11.9284Y-4.3882
X11.9284Y-4.4374
X11.9284Y-7.3811
X11.9284Y-7.4303
X11.9284Y-7.4795
X11.953Y-1.3214
X11.953Y-1.3706
X11.953Y-4.3636
X11.953Y-4.4128
X11.953Y-7.4057
X11.953Y-7.4549
X11.9776Y-1.2968
X11.9776Y-1.346
X11.9776Y-1.3952
X11.9776Y-4.339
X11.9776Y-4.3882
X11.9776Y-4.4374
X11.9776Y-7.3811
X11.9776Y-7.4303
X11.9776Y-7.4795
X12.0022Y-1.3214
X12.0022Y-1.3706
X12.0022Y-4.3636
X12.0022Y-4.4128
X12.0022Y-7.4057
X12.0022Y-7.4549
T4
X1.8884Y-2.5388
X1.8884Y-5.5809
X1.8884Y-8.6231
X1.9664Y-2.5368
X1.9664Y-5.5789
X1.9664Y-8.6211
X5.038Y-2.5388
X5.038Y-5.5809
X5.038Y-8.6231
X5.116Y-2.5368
X5.116Y-5.5789
X5.116Y-8.6211
X8.1876Y-2.5388
X8.1876Y-5.5809
X8.1876Y-8.6231
X8.2656Y-2.5368
X8.2656Y-5.5789
X8.2656Y-8.6211
X11.3372Y-2.5388
X11.3372Y-5.5809
X11.3372Y-8.6231
X11.4152Y-2.5368
X11.4152Y-5.5789
X11.4152Y-8.6211
T5
X0.7164Y-0.8288
X0.7164Y-3.8709
X0.7164Y-6.9131
X0.8244Y-0.7528
X0.8244Y-3.7949
X0.8244Y-6.8371
X0.9199Y-0.7533
X0.9199Y-3.7954
X0.9199Y-6.8376
X1.0304Y-0.8218
X1.0304Y-3.8639
X1.0304Y-6.9061
X1.1774Y-1.2452
X1.1774Y-1.3132
X1.1774Y-4.2874
X1.1774Y-4.3554
X1.1774Y-7.3295
X1.1774Y-7.3975
X1.2624Y-1.7923
X1.2624Y-4.8345
X1.2624Y-7.8766
X3.866Y-0.8288
X3.866Y-3.8709
X3.866Y-6.9131
X3.974Y-0.7528
X3.974Y-3.7949
X3.974Y-6.8371
X4.0695Y-0.7533
X4.0695Y-3.7954
X4.0695Y-6.8376
X4.18Y-0.8218
X4.18Y-3.8639
X4.18Y-6.9061
X4.327Y-1.2452
X4.327Y-1.3132
X4.327Y-4.2874
X4.327Y-4.3554
X4.327Y-7.3295
X4.327Y-7.3975
X4.412Y-1.7923
X4.412Y-4.8345
X4.412Y-7.8766
X7.0156Y-0.8288
X7.0156Y-3.8709
X7.0156Y-6.9131
X7.1236Y-0.7528
X7.1236Y-3.7949
X7.1236Y-6.8371
X7.2191Y-0.7533
X7.2191Y-3.7954
X7.2191Y-6.8376
X7.3296Y-0.8218
X7.3296Y-3.8639
X7.3296Y-6.9061
X7.4766Y-1.2452
X7.4766Y-1.3132
X7.4766Y-4.2874
X7.4766Y-4.3554
X7.4766Y-7.3295
X7.4766Y-7.3975
X7.5616Y-1.7923
X7.5616Y-4.8345
X7.5616Y-7.8766
X10.1652Y-0.8288
X10.1652Y-3.8709
X10.1652Y-6.9131
X10.2732Y-0.7528
X10.2732Y-3.7949
X10.2732Y-6.8371
X10.3687Y-0.7533
X10.3687Y-3.7954
X10.3687Y-6.8376
X10.4792Y-0.8218
X10.4792Y-3.8639
X10.4792Y-6.9061
X10.6262Y-1.2452
X10.6262Y-1.3132
X10.6262Y-4.2874
X10.6262Y-4.3554
X10.6262Y-7.3295
X10.6262Y-7.3975
X10.7112Y-1.7923
X10.7112Y-4.8345
X10.7112Y-7.8766
T7
X1.0674Y-2.4148
X1.0674Y-2.5148
X1.0674Y-5.4569
X1.0674Y-5.5569
X1.0674Y-8.4991
X1.0674Y-8.5991
X1.1674Y-2.4148
X1.1674Y-2.5148
X1.1674Y-5.4569
X1.1674Y-5.5569
X1.1674Y-8.4991
X1.1674Y-8.5991
X1.2674Y-2.4148
X1.2674Y-2.5148
X1.2674Y-5.4569
X1.2674Y-5.5569
X1.2674Y-8.4991
X1.2674Y-8.5991
X1.3674Y-2.4148
X1.3674Y-2.5148
X1.3674Y-5.4569
X1.3674Y-5.5569
X1.3674Y-8.4991
X1.3674Y-8.5991
X1.3852Y-0.3737
X1.3852Y-3.4159
X1.3852Y-6.458
X1.4674Y-2.4148
X1.4674Y-2.5148
X1.4674Y-5.4569
X1.4674Y-5.5569
X1.4674Y-8.4991
X1.4674Y-8.5991
X1.4852Y-0.3737
X1.4852Y-3.4159
X1.4852Y-6.458
X1.5674Y-2.4148
X1.5674Y-2.5148
X1.5674Y-5.4569
X1.5674Y-5.5569
X1.5674Y-8.4991
X1.5674Y-8.5991
X1.5852Y-0.3737
X1.5852Y-3.4159
X1.5852Y-6.458
X1.6674Y-2.4148
X1.6674Y-2.5148
X1.6674Y-5.4569
X1.6674Y-5.5569
X1.6674Y-8.4991
X1.6674Y-8.5991
X1.6852Y-0.3737
X1.6852Y-3.4159
X1.6852Y-6.458
X4.217Y-2.4148
X4.217Y-2.5148
X4.217Y-5.4569
X4.217Y-5.5569
X4.217Y-8.4991
X4.217Y-8.5991
X4.317Y-2.4148
X4.317Y-2.5148
X4.317Y-5.4569
X4.317Y-5.5569
X4.317Y-8.4991
X4.317Y-8.5991
X4.417Y-2.4148
X4.417Y-2.5148
X4.417Y-5.4569
X4.417Y-5.5569
X4.417Y-8.4991
X4.417Y-8.5991
X4.517Y-2.4148
X4.517Y-2.5148
X4.517Y-5.4569
X4.517Y-5.5569
X4.517Y-8.4991
X4.517Y-8.5991
X4.5348Y-0.3737
X4.5348Y-3.4159
X4.5348Y-6.458
X4.617Y-2.4148
X4.617Y-2.5148
X4.617Y-5.4569
X4.617Y-5.5569
X4.617Y-8.4991
X4.617Y-8.5991
X4.6348Y-0.3737
X4.6348Y-3.4159
X4.6348Y-6.458
X4.717Y-2.4148
X4.717Y-2.5148
X4.717Y-5.4569
X4.717Y-5.5569
X4.717Y-8.4991
X4.717Y-8.5991
X4.7348Y-0.3737
X4.7348Y-3.4159
X4.7348Y-6.458
X4.817Y-2.4148
X4.817Y-2.5148
X4.817Y-5.4569
X4.817Y-5.5569
X4.817Y-8.4991
X4.817Y-8.5991
X4.8348Y-0.3737
X4.8348Y-3.4159
X4.8348Y-6.458
X7.3666Y-2.4148
X7.3666Y-2.5148
X7.3666Y-5.4569
X7.3666Y-5.5569
X7.3666Y-8.4991
X7.3666Y-8.5991
X7.4666Y-2.4148
X7.4666Y-2.5148
X7.4666Y-5.4569
X7.4666Y-5.5569
X7.4666Y-8.4991
X7.4666Y-8.5991
X7.5666Y-2.4148
X7.5666Y-2.5148
X7.5666Y-5.4569
X7.5666Y-5.5569
X7.5666Y-8.4991
X7.5666Y-8.5991
X7.6666Y-2.4148
X7.6666Y-2.5148
X7.6666Y-5.4569
X7.6666Y-5.5569
X7.6666Y-8.4991
X7.6666Y-8.5991
X7.6844Y-0.3737
X7.6844Y-3.4159
X7.6844Y-6.458
X7.7666Y-2.4148
X7.7666Y-2.5148
X7.7666Y-5.4569
X7.7666Y-5.5569
X7.7666Y-8.4991
X7.7666Y-8.5991
X7.7844Y-0.3737
X7.7844Y-3.4159
X7.7844Y-6.458
X7.8666Y-2.4148
X7.8666Y-2.5148
X7.8666Y-5.4569
X7.8666Y-5.5569
X7.8666Y-8.4991
X7.8666Y-8.5991
X7.8844Y-0.3737
X7.8844Y-3.4159
X7.8844Y-6.458
X7.9666Y-2.4148
X7.9666Y-2.5148
X7.9666Y-5.4569
X7.9666Y-5.5569
X7.9666Y-8.4991
X7.9666Y-8.5991
X7.9844Y-0.3737
X7.9844Y-3.4159
X7.9844Y-6.458
X10.5162Y-2.4148
X10.5162Y-2.5148
X10.5162Y-5.4569
X10.5162Y-5.5569
X10.5162Y-8.4991
X10.5162Y-8.5991
X10.6162Y-2.4148
X10.6162Y-2.5148
X10.6162Y-5.4569
X10.6162Y-5.5569
X10.6162Y-8.4991
X10.6162Y-8.5991
X10.7162Y-2.4148
X10.7162Y-2.5148
X10.7162Y-5.4569
X10.7162Y-5.5569
X10.7162Y-8.4991
X10.7162Y-8.5991
X10.8162Y-2.4148
X10.8162Y-2.5148
X10.8162Y-5.4569
X10.8162Y-5.5569
X10.8162Y-8.4991
X10.8162Y-8.5991
X10.834Y-0.3737
X10.834Y-3.4159
X10.834Y-6.458
X10.9162Y-2.4148
X10.9162Y-2.5148
X10.9162Y-5.4569
X10.9162Y-5.5569
X10.9162Y-8.4991
X10.9162Y-8.5991
X10.934Y-0.3737
X10.934Y-3.4159
X10.934Y-6.458
X11.0162Y-2.4148
X11.0162Y-2.5148
X11.0162Y-5.4569
X11.0162Y-5.5569
X11.0162Y-8.4991
X11.0162Y-8.5991
X11.034Y-0.3737
X11.034Y-3.4159
X11.034Y-6.458
X11.1162Y-2.4148
X11.1162Y-2.5148
X11.1162Y-5.4569
X11.1162Y-5.5569
X11.1162Y-8.4991
X11.1162Y-8.5991
X11.134Y-0.3737
X11.134Y-3.4159
X11.134Y-6.458
T6
G00X1.3651Y-2.9171
M15
G01X1.3651Y-2.9605
M16
G05
G00X1.3651Y-3.0884
M15
G01X1.3651Y-3.1199
M16
G05
G00X1.3651Y-5.9593
M15
G01X1.3651Y-6.0026
M16
G05
G00X1.3651Y-6.1306
M15
G01X1.3651Y-6.1621
M16
G05
G00X1.3651Y-9.0014
M15
G01X1.3651Y-9.0448
M16
G05
G00X1.3651Y-9.1727
M15
G01X1.3651Y-9.2042
M16
G05
G00X1.7052Y-2.9171
M15
G01X1.7052Y-2.9605
M16
G05
G00X1.7052Y-3.0884
M15
G01X1.7052Y-3.1199
M16
G05
G00X1.7052Y-5.9593
M15
G01X1.7052Y-6.0026
M16
G05
G00X1.7052Y-6.1306
M15
G01X1.7052Y-6.1621
M16
G05
G00X1.7052Y-9.0014
M15
G01X1.7052Y-9.0448
M16
G05
G00X1.7052Y-9.1727
M15
G01X1.7052Y-9.2042
M16
G05
G00X4.5147Y-2.9171
M15
G01X4.5147Y-2.9605
M16
G05
G00X4.5147Y-3.0884
M15
G01X4.5147Y-3.1199
M16
G05
G00X4.5147Y-5.9593
M15
G01X4.5147Y-6.0026
M16
G05
G00X4.5147Y-6.1306
M15
G01X4.5147Y-6.1621
M16
G05
G00X4.5147Y-9.0014
M15
G01X4.5147Y-9.0448
M16
G05
G00X4.5147Y-9.1727
M15
G01X4.5147Y-9.2042
M16
G05
G00X4.8548Y-2.9171
M15
G01X4.8548Y-2.9605
M16
G05
G00X4.8548Y-3.0884
M15
G01X4.8548Y-3.1199
M16
G05
G00X4.8548Y-5.9593
M15
G01X4.8548Y-6.0026
M16
G05
G00X4.8548Y-6.1306
M15
G01X4.8548Y-6.1621
M16
G05
G00X4.8548Y-9.0014
M15
G01X4.8548Y-9.0448
M16
G05
G00X4.8548Y-9.1727
M15
G01X4.8548Y-9.2042
M16
G05
G00X7.6643Y-2.9171
M15
G01X7.6643Y-2.9605
M16
G05
G00X7.6643Y-3.0884
M15
G01X7.6643Y-3.1199
M16
G05
G00X7.6643Y-5.9593
M15
G01X7.6643Y-6.0026
M16
G05
G00X7.6643Y-6.1306
M15
G01X7.6643Y-6.1621
M16
G05
G00X7.6643Y-9.0014
M15
G01X7.6643Y-9.0448
M16
G05
G00X7.6643Y-9.1727
M15
G01X7.6643Y-9.2042
M16
G05
G00X8.0044Y-2.9171
M15
G01X8.0044Y-2.9605
M16
G05
G00X8.0044Y-3.0884
M15
G01X8.0044Y-3.1199
M16
G05
G00X8.0044Y-5.9593
M15
G01X8.0044Y-6.0026
M16
G05
G00X8.0044Y-6.1306
M15
G01X8.0044Y-6.1621
M16
G05
G00X8.0044Y-9.0014
M15
G01X8.0044Y-9.0448
M16
G05
G00X8.0044Y-9.1727
M15
G01X8.0044Y-9.2042
M16
G05
G00X10.8139Y-2.9171
M15
G01X10.8139Y-2.9605
M16
G05
G00X10.8139Y-3.0884
M15
G01X10.8139Y-3.1199
M16
G05
G00X10.8139Y-5.9593
M15
G01X10.8139Y-6.0026
M16
G05
G00X10.8139Y-6.1306
M15
G01X10.8139Y-6.1621
M16
G05
G00X10.8139Y-9.0014
M15
G01X10.8139Y-9.0448
M16
G05
G00X10.8139Y-9.1727
M15
G01X10.8139Y-9.2042
M16
G05
G00X11.1541Y-2.9171
M15
G01X11.1541Y-2.9605
M16
G05
G00X11.1541Y-3.0884
M15
G01X11.1541Y-3.1199
M16
G05
G00X11.1541Y-5.9593
M15
G01X11.1541Y-6.0026
M16
G05
G00X11.1541Y-6.1306
M15
G01X11.1541Y-6.1621
M16
G05
G00X11.1541Y-9.0014
M15
G01X11.1541Y-9.0448
M16
G05
G00X11.1541Y-9.1727
M15
G01X11.1541Y-9.2042
M16
G05
M30
