M48
; DRILL file KiCad 10.0.3 date 2026-06-22T09:25:22
; FORMAT={-:-/ absolute / inch / decimal}
; #@! TF.CreationDate,2026-06-22T09:25:22+02:00
; #@! TF.GenerationSoftware,Kicad,Pcbnew,10.0.3
; #@! TF.FileFunction,Plated,1,2,PTH
FMAT,2
INCH
; #@! TA.AperFunction,Plated,PTH,ViaDrill
T1C0.0079
; #@! TA.AperFunction,Plated,PTH,ComponentDrill
T2C0.0079
; #@! TA.AperFunction,Plated,PTH,ComponentDrill
T3C0.0098
; #@! TA.AperFunction,Plated,PTH,ViaDrill
T4C0.0118
; #@! TA.AperFunction,Plated,PTH,ViaDrill
T5C0.0157
; #@! TA.AperFunction,Plated,PTH,ComponentDrill
T6C0.0236
; #@! TA.AperFunction,Plated,PTH,ComponentDrill
T7C0.0394
%
G90
G05
T1
X0.0874Y-1.5778
X0.0874Y-4.6199
X0.1626Y-1.5778
X0.1626Y-4.6199
X0.2378Y-1.5778
X0.2378Y-1.631
X0.2378Y-4.6199
X0.2378Y-4.6731
X0.313Y-1.5778
X0.313Y-1.631
X0.313Y-4.6199
X0.313Y-4.6731
X0.3394Y-1.1948
X0.3394Y-4.2369
X0.3604Y-1.8918
X0.3604Y-4.9339
X0.3644Y-1.4628
X0.3644Y-4.5049
X0.3882Y-1.631
X0.3882Y-4.6731
X0.3926Y-1.2515
X0.3926Y-4.2937
X0.4184Y-0.8688
X0.4184Y-3.9109
X0.4194Y-1.0918
X0.4194Y-4.1339
X0.4634Y-1.631
X0.4634Y-4.6731
X0.4794Y-1.9378
X0.4794Y-4.9799
X0.5144Y-1.9808
X0.5144Y-5.0229
X0.5184Y-1.6318
X0.5184Y-4.6739
X0.5374Y-1.3588
X0.5374Y-4.4009
X0.5394Y-0.8688
X0.5394Y-3.9109
X0.5484Y-1.6768
X0.5484Y-4.7189
X0.5614Y-1.4078
X0.5614Y-4.4499
X0.5624Y-0.9958
X0.5624Y-1.0248
X0.5624Y-1.5018
X0.5624Y-4.0379
X0.5624Y-4.0669
X0.5624Y-4.5439
X0.6011Y-1.235
X0.6011Y-1.253
X0.6011Y-4.2772
X0.6011Y-4.2952
X0.6024Y-1.7068
X0.6024Y-4.7489
X0.6174Y-1.1132
X0.6174Y-1.1342
X0.6174Y-1.1562
X0.6174Y-4.1554
X0.6174Y-4.1764
X0.6174Y-4.1984
X0.6344Y-0.8688
X0.6344Y-3.9109
X0.6384Y-1.1232
X0.6384Y-1.1452
X0.6384Y-4.1654
X0.6384Y-4.1874
X0.6524Y-1.8978
X0.6524Y-1.9278
X0.6524Y-4.9399
X0.6524Y-4.9699
X0.6564Y-1.8308
X0.6564Y-4.8729
X0.6964Y-1.0398
X0.6964Y-4.0819
X0.7174Y-0.9348
X0.7174Y-3.9769
X0.7234Y-1.3588
X0.7234Y-4.4009
X0.7424Y-1.4338
X0.7424Y-4.4759
X0.7534Y-0.8328
X0.7534Y-3.8749
X0.7724Y-1.0938
X0.7724Y-4.1359
X0.7874Y-1.4398
X0.7874Y-1.5598
X0.7874Y-4.4819
X0.7874Y-4.6019
X0.8004Y-1.0948
X0.8004Y-4.1369
X0.8054Y-1.6468
X0.8054Y-4.6889
X0.8064Y-1.5838
X0.8064Y-4.6259
X0.8164Y-1.4388
X0.8164Y-4.4809
X0.8266Y-1.5608
X0.8266Y-4.6029
X0.8324Y-2.5788
X0.8324Y-2.6078
X0.8324Y-5.6209
X0.8324Y-5.6499
X0.8774Y-1.8062
X0.8774Y-4.8484
X0.8854Y-1.0898
X0.8854Y-1.4548
X0.8854Y-4.1319
X0.8854Y-4.4969
X0.9254Y-1.7688
X0.9254Y-4.8109
X0.9374Y-1.0908
X0.9374Y-4.1329
X0.9464Y-1.4508
X0.9464Y-4.4929
X0.9574Y-1.7088
X0.9574Y-4.7509
X0.9644Y-1.9218
X0.9644Y-4.9639
X0.9714Y-1.0908
X0.9714Y-4.1329
X0.9814Y-1.4968
X0.9814Y-4.5389
X0.9954Y-0.8328
X0.9954Y-1.3018
X0.9954Y-3.8749
X0.9954Y-4.3439
X0.9964Y-1.7498
X0.9964Y-1.8358
X0.9964Y-4.7919
X0.9964Y-4.8779
X1.0304Y-0.9368
X1.0304Y-3.9789
X1.0574Y-1.6058
X1.0574Y-4.6479
X1.0764Y-1.7498
X1.0764Y-1.9478
X1.0764Y-4.7919
X1.0764Y-4.9899
X1.0954Y-1.5098
X1.0954Y-4.5519
X1.0974Y-1.8348
X1.0974Y-4.8769
X1.1024Y-1.0658
X1.1024Y-4.1079
X1.1644Y-0.8538
X1.1644Y-3.8959
X1.1654Y-0.7898
X1.1654Y-0.9138
X1.1654Y-3.8319
X1.1654Y-3.9559
X1.1664Y-1.4688
X1.1664Y-4.5109
X1.2254Y-0.7498
X1.2254Y-3.7919
X1.2334Y-1.6468
X1.2334Y-4.6889
X1.2494Y-1.4678
X1.2494Y-4.5099
X1.2564Y-0.7218
X1.2564Y-3.7639
X1.2624Y-2.7848
X1.2624Y-2.8123
X1.2624Y-2.8399
X1.2624Y-5.8269
X1.2624Y-5.8545
X1.2624Y-5.882
X1.2644Y-0.6898
X1.2644Y-0.7528
X1.2644Y-3.7319
X1.2644Y-3.7949
X1.2814Y-1.5888
X1.2814Y-4.6309
X1.2874Y-0.7208
X1.2874Y-3.7629
X1.2954Y-1.4218
X1.2954Y-4.4639
X1.316Y-0.7208
X1.316Y-3.7629
X1.3254Y-1.5448
X1.3254Y-4.5869
X1.3374Y-0.6888
X1.3374Y-0.7518
X1.3374Y-3.7309
X1.3374Y-3.7939
X1.3424Y-1.5668
X1.3424Y-4.6089
X1.3484Y-0.7208
X1.3484Y-3.7629
X1.3814Y-1.7108
X1.3814Y-4.7529
X1.4484Y-0.9846
X1.4484Y-1.0598
X1.4484Y-4.0267
X1.4484Y-4.1019
X1.4634Y-1.3458
X1.4634Y-4.3879
X1.4664Y-1.4758
X1.4664Y-1.551
X1.4664Y-4.5179
X1.4664Y-4.5931
X1.4774Y-1.6278
X1.4774Y-4.6699
X1.4794Y-1.5998
X1.4794Y-4.6419
X1.5144Y-1.3948
X1.5144Y-4.4369
X1.5236Y-0.9846
X1.5236Y-1.0598
X1.5236Y-4.0267
X1.5236Y-4.1019
X1.5371Y-2.7528
X1.5371Y-5.7949
X1.5416Y-1.4758
X1.5416Y-1.551
X1.5416Y-4.5179
X1.5416Y-4.5931
X1.5514Y-2.7948
X1.5514Y-5.8369
X1.5646Y-2.7528
X1.5646Y-5.7949
X1.5988Y-0.9846
X1.5988Y-1.0598
X1.5988Y-4.0267
X1.5988Y-4.1019
X1.6064Y-1.2408
X1.6064Y-4.2829
X1.6104Y-1.3218
X1.6104Y-4.3639
X1.6168Y-1.4758
X1.6168Y-1.551
X1.6168Y-4.5179
X1.6168Y-4.5931
X1.6194Y-1.3968
X1.6194Y-4.4389
X1.6364Y-1.3218
X1.6364Y-4.3639
X1.6524Y-1.3958
X1.6524Y-4.4379
X1.6694Y-1.6018
X1.6694Y-4.6439
X1.674Y-0.9846
X1.674Y-1.0598
X1.674Y-4.0267
X1.674Y-4.1019
X1.6764Y-1.3798
X1.6764Y-4.4219
X1.7084Y-1.2688
X1.7084Y-4.3109
X1.7194Y-1.3458
X1.7194Y-4.3879
X1.7524Y-1.6028
X1.7524Y-4.6449
X1.7624Y-1.2188
X1.7624Y-4.2609
X1.8164Y-1.1888
X1.8164Y-4.2309
X1.8344Y-1.1668
X1.8344Y-4.2089
X1.8384Y-1.5488
X1.8384Y-1.5788
X1.8384Y-4.5909
X1.8384Y-4.6209
X1.8464Y-2.5378
X1.8464Y-5.5799
X1.8527Y-1.145
X1.8527Y-4.1872
X1.8584Y-2.5108
X1.8584Y-2.5648
X1.8584Y-5.5529
X1.8584Y-5.6069
X1.8704Y-1.1238
X1.8704Y-4.1659
X1.8894Y-1.1028
X1.8894Y-4.1449
X1.8994Y-1.6218
X1.8994Y-4.6639
X1.9294Y-2.5158
X1.9294Y-5.5579
X1.9304Y-2.5538
X1.9304Y-5.5959
X1.9774Y-1.6228
X1.9774Y-4.6649
X1.9924Y-2.5098
X1.9924Y-5.5519
X2.0004Y-2.5348
X2.0004Y-5.5769
X2.0374Y-0.3898
X2.0374Y-0.4448
X2.0374Y-3.4319
X2.0374Y-3.4869
X2.0404Y-1.2508
X2.0404Y-1.326
X2.0404Y-1.4012
X2.0404Y-1.5178
X2.0404Y-1.593
X2.0404Y-4.2929
X2.0404Y-4.3681
X2.0404Y-4.4433
X2.0404Y-4.5599
X2.0404Y-4.6351
X2.0714Y-1.0088
X2.0714Y-4.0509
X2.0724Y-0.9798
X2.0724Y-4.0219
X2.0914Y-0.9578
X2.0914Y-3.9999
X2.1067Y-0.981
X2.1067Y-4.0232
X2.1156Y-1.2508
X2.1156Y-1.326
X2.1156Y-1.4012
X2.1156Y-1.5178
X2.1156Y-1.593
X2.1156Y-4.2929
X2.1156Y-4.3681
X2.1156Y-4.4433
X2.1156Y-4.5599
X2.1156Y-4.6351
X2.1261Y-1.0005
X2.1261Y-4.0427
X2.1294Y-1.8088
X2.1294Y-4.8509
X2.1554Y-1.0098
X2.1554Y-4.0519
X2.1794Y-1.8298
X2.1794Y-4.8719
X2.1908Y-1.2508
X2.1908Y-1.326
X2.1908Y-1.4012
X2.1908Y-1.593
X2.1908Y-4.2929
X2.1908Y-4.3681
X2.1908Y-4.4433
X2.1908Y-4.6351
X2.266Y-1.2508
X2.266Y-1.326
X2.266Y-1.4012
X2.266Y-4.2929
X2.266Y-4.3681
X2.266Y-4.4433
X2.3114Y-1.6898
X2.3114Y-4.7319
X2.3184Y-1.6608
X2.3184Y-4.7029
X2.3284Y-0.4878
X2.3284Y-0.5118
X2.3284Y-3.5299
X2.3284Y-3.5539
X2.3394Y-1.6928
X2.3394Y-4.7349
X2.3412Y-1.2508
X2.3412Y-1.326
X2.3412Y-1.4012
X2.3412Y-4.2929
X2.3412Y-4.3681
X2.3412Y-4.4433
X2.3684Y-1.6928
X2.3684Y-4.7349
X2.4768Y-0.4448
X2.4768Y-3.4869
X2.5824Y-1.6972
X2.5824Y-4.7394
X2.6294Y-1.6968
X2.6294Y-4.7389
X2.6794Y-1.6968
X2.6794Y-4.7389
X2.7534Y-0.8978
X2.7534Y-3.9399
X2.7704Y-1.0108
X2.7704Y-4.0529
X2.8014Y-0.9538
X2.8014Y-3.9959
X3.185Y-1.5778
X3.185Y-4.6199
X3.2602Y-1.5778
X3.2602Y-4.6199
X3.3354Y-1.5778
X3.3354Y-1.631
X3.3354Y-4.6199
X3.3354Y-4.6731
X3.4106Y-1.5778
X3.4106Y-1.631
X3.4106Y-4.6199
X3.4106Y-4.6731
X3.437Y-1.1948
X3.437Y-4.2369
X3.458Y-1.8918
X3.458Y-4.9339
X3.462Y-1.4628
X3.462Y-4.5049
X3.4858Y-1.631
X3.4858Y-4.6731
X3.4901Y-1.2515
X3.4901Y-4.2937
X3.516Y-0.8688
X3.516Y-3.9109
X3.517Y-1.0918
X3.517Y-4.1339
X3.561Y-1.631
X3.561Y-4.6731
X3.577Y-1.9378
X3.577Y-4.9799
X3.612Y-1.9808
X3.612Y-5.0229
X3.616Y-1.6318
X3.616Y-4.6739
X3.635Y-1.3588
X3.635Y-4.4009
X3.637Y-0.8688
X3.637Y-3.9109
X3.646Y-1.6768
X3.646Y-4.7189
X3.659Y-1.4078
X3.659Y-4.4499
X3.66Y-0.9958
X3.66Y-1.0248
X3.66Y-1.5018
X3.66Y-4.0379
X3.66Y-4.0669
X3.66Y-4.5439
X3.6986Y-1.235
X3.6986Y-1.253
X3.6986Y-4.2772
X3.6986Y-4.2952
X3.7Y-1.7068
X3.7Y-4.7489
X3.7149Y-1.1132
X3.7149Y-1.1342
X3.7149Y-1.1562
X3.7149Y-4.1554
X3.7149Y-4.1764
X3.7149Y-4.1984
X3.732Y-0.8688
X3.732Y-3.9109
X3.7359Y-1.1232
X3.7359Y-1.1452
X3.7359Y-4.1654
X3.7359Y-4.1874
X3.75Y-1.8978
X3.75Y-1.9278
X3.75Y-4.9399
X3.75Y-4.9699
X3.754Y-1.8308
X3.754Y-4.8729
X3.794Y-1.0398
X3.794Y-4.0819
X3.815Y-0.9348
X3.815Y-3.9769
X3.821Y-1.3588
X3.821Y-4.4009
X3.84Y-1.4338
X3.84Y-4.4759
X3.851Y-0.8328
X3.851Y-3.8749
X3.87Y-1.0938
X3.87Y-4.1359
X3.885Y-1.4398
X3.885Y-1.5598
X3.885Y-4.4819
X3.885Y-4.6019
X3.898Y-1.0948
X3.898Y-4.1369
X3.903Y-1.6468
X3.903Y-4.6889
X3.904Y-1.5838
X3.904Y-4.6259
X3.914Y-1.4388
X3.914Y-4.4809
X3.9242Y-1.5608
X3.9242Y-4.6029
X3.93Y-2.5788
X3.93Y-2.6078
X3.93Y-5.6209
X3.93Y-5.6499
X3.9749Y-1.8062
X3.9749Y-4.8484
X3.983Y-1.0898
X3.983Y-1.4548
X3.983Y-4.1319
X3.983Y-4.4969
X4.023Y-1.7688
X4.023Y-4.8109
X4.035Y-1.0908
X4.035Y-4.1329
X4.044Y-1.4508
X4.044Y-4.4929
X4.055Y-1.7088
X4.055Y-4.7509
X4.062Y-1.9218
X4.062Y-4.9639
X4.069Y-1.0908
X4.069Y-4.1329
X4.079Y-1.4968
X4.079Y-4.5389
X4.093Y-0.8328
X4.093Y-1.3018
X4.093Y-3.8749
X4.093Y-4.3439
X4.094Y-1.7498
X4.094Y-1.8358
X4.094Y-4.7919
X4.094Y-4.8779
X4.128Y-0.9368
X4.128Y-3.9789
X4.155Y-1.6058
X4.155Y-4.6479
X4.174Y-1.7498
X4.174Y-1.9478
X4.174Y-4.7919
X4.174Y-4.9899
X4.193Y-1.5098
X4.193Y-4.5519
X4.195Y-1.8348
X4.195Y-4.8769
X4.2Y-1.0658
X4.2Y-4.1079
X4.262Y-0.8538
X4.262Y-3.8959
X4.263Y-0.7898
X4.263Y-0.9138
X4.263Y-3.8319
X4.263Y-3.9559
X4.264Y-1.4688
X4.264Y-4.5109
X4.323Y-0.7498
X4.323Y-3.7919
X4.331Y-1.6468
X4.331Y-4.6889
X4.347Y-1.4678
X4.347Y-4.5099
X4.354Y-0.7218
X4.354Y-3.7639
X4.36Y-2.7848
X4.36Y-2.8123
X4.36Y-2.8399
X4.36Y-5.8269
X4.36Y-5.8545
X4.36Y-5.882
X4.362Y-0.6898
X4.362Y-0.7528
X4.362Y-3.7319
X4.362Y-3.7949
X4.379Y-1.5888
X4.379Y-4.6309
X4.385Y-0.7208
X4.385Y-3.7629
X4.393Y-1.4218
X4.393Y-4.4639
X4.4136Y-0.7208
X4.4136Y-3.7629
X4.423Y-1.5448
X4.423Y-4.5869
X4.435Y-0.6888
X4.435Y-0.7518
X4.435Y-3.7309
X4.435Y-3.7939
X4.44Y-1.5668
X4.44Y-4.6089
X4.446Y-0.7208
X4.446Y-3.7629
X4.479Y-1.7108
X4.479Y-4.7529
X4.546Y-0.9846
X4.546Y-1.0598
X4.546Y-4.0267
X4.546Y-4.1019
X4.561Y-1.3458
X4.561Y-4.3879
X4.564Y-1.4758
X4.564Y-1.551
X4.564Y-4.5179
X4.564Y-4.5931
X4.575Y-1.6278
X4.575Y-4.6699
X4.577Y-1.5998
X4.577Y-4.6419
X4.612Y-1.3948
X4.612Y-4.4369
X4.6212Y-0.9846
X4.6212Y-1.0598
X4.6212Y-4.0267
X4.6212Y-4.1019
X4.6346Y-2.7528
X4.6346Y-5.7949
X4.6392Y-1.4758
X4.6392Y-1.551
X4.6392Y-4.5179
X4.6392Y-4.5931
X4.649Y-2.7948
X4.649Y-5.8369
X4.6622Y-2.7528
X4.6622Y-5.7949
X4.6964Y-0.9846
X4.6964Y-1.0598
X4.6964Y-4.0267
X4.6964Y-4.1019
X4.704Y-1.2408
X4.704Y-4.2829
X4.708Y-1.3218
X4.708Y-4.3639
X4.7144Y-1.4758
X4.7144Y-1.551
X4.7144Y-4.5179
X4.7144Y-4.5931
X4.717Y-1.3968
X4.717Y-4.4389
X4.734Y-1.3218
X4.734Y-4.3639
X4.75Y-1.3958
X4.75Y-4.4379
X4.767Y-1.6018
X4.767Y-4.6439
X4.7716Y-0.9846
X4.7716Y-1.0598
X4.7716Y-4.0267
X4.7716Y-4.1019
X4.774Y-1.3798
X4.774Y-4.4219
X4.806Y-1.2688
X4.806Y-4.3109
X4.817Y-1.3458
X4.817Y-4.3879
X4.85Y-1.6028
X4.85Y-4.6449
X4.86Y-1.2188
X4.86Y-4.2609
X4.914Y-1.1888
X4.914Y-4.2309
X4.932Y-1.1668
X4.932Y-4.2089
X4.936Y-1.5488
X4.936Y-1.5788
X4.936Y-4.5909
X4.936Y-4.6209
X4.944Y-2.5378
X4.944Y-5.5799
X4.9502Y-1.145
X4.9502Y-4.1872
X4.956Y-2.5108
X4.956Y-2.5648
X4.956Y-5.5529
X4.956Y-5.6069
X4.968Y-1.1238
X4.968Y-4.1659
X4.987Y-1.1028
X4.987Y-4.1449
X4.997Y-1.6218
X4.997Y-4.6639
X5.027Y-2.5158
X5.027Y-5.5579
X5.028Y-2.5538
X5.028Y-5.5959
X5.075Y-1.6228
X5.075Y-4.6649
X5.09Y-2.5098
X5.09Y-5.5519
X5.098Y-2.5348
X5.098Y-5.5769
X5.135Y-0.3898
X5.135Y-0.4448
X5.135Y-3.4319
X5.135Y-3.4869
X5.138Y-1.2508
X5.138Y-1.326
X5.138Y-1.4012
X5.138Y-1.5178
X5.138Y-1.593
X5.138Y-4.2929
X5.138Y-4.3681
X5.138Y-4.4433
X5.138Y-4.5599
X5.138Y-4.6351
X5.169Y-1.0088
X5.169Y-4.0509
X5.17Y-0.9798
X5.17Y-4.0219
X5.189Y-0.9578
X5.189Y-3.9999
X5.2042Y-0.981
X5.2042Y-4.0232
X5.2132Y-1.2508
X5.2132Y-1.326
X5.2132Y-1.4012
X5.2132Y-1.5178
X5.2132Y-1.593
X5.2132Y-4.2929
X5.2132Y-4.3681
X5.2132Y-4.4433
X5.2132Y-4.5599
X5.2132Y-4.6351
X5.2237Y-1.0005
X5.2237Y-4.0427
X5.227Y-1.8088
X5.227Y-4.8509
X5.253Y-1.0098
X5.253Y-4.0519
X5.277Y-1.8298
X5.277Y-4.8719
X5.2884Y-1.2508
X5.2884Y-1.326
X5.2884Y-1.4012
X5.2884Y-1.593
X5.2884Y-4.2929
X5.2884Y-4.3681
X5.2884Y-4.4433
X5.2884Y-4.6351
X5.3636Y-1.2508
X5.3636Y-1.326
X5.3636Y-1.4012
X5.3636Y-4.2929
X5.3636Y-4.3681
X5.3636Y-4.4433
X5.409Y-1.6898
X5.409Y-4.7319
X5.416Y-1.6608
X5.416Y-4.7029
X5.426Y-0.4878
X5.426Y-0.5118
X5.426Y-3.5299
X5.426Y-3.5539
X5.437Y-1.6928
X5.437Y-4.7349
X5.4388Y-1.2508
X5.4388Y-1.326
X5.4388Y-1.4012
X5.4388Y-4.2929
X5.4388Y-4.3681
X5.4388Y-4.4433
X5.466Y-1.6928
X5.466Y-4.7349
X5.5743Y-0.4448
X5.5743Y-3.4869
X5.6799Y-1.6972
X5.6799Y-4.7394
X5.727Y-1.6968
X5.727Y-4.7389
X5.777Y-1.6968
X5.777Y-4.7389
X5.851Y-0.8978
X5.851Y-3.9399
X5.868Y-1.0108
X5.868Y-4.0529
X5.899Y-0.9538
X5.899Y-3.9959
X6.2826Y-1.5778
X6.2826Y-4.6199
X6.3578Y-1.5778
X6.3578Y-4.6199
X6.433Y-1.5778
X6.433Y-1.631
X6.433Y-4.6199
X6.433Y-4.6731
X6.5082Y-1.5778
X6.5082Y-1.631
X6.5082Y-4.6199
X6.5082Y-4.6731
X6.5346Y-1.1948
X6.5346Y-4.2369
X6.5556Y-1.8918
X6.5556Y-4.9339
X6.5596Y-1.4628
X6.5596Y-4.5049
X6.5834Y-1.631
X6.5834Y-4.6731
X6.5877Y-1.2515
X6.5877Y-4.2937
X6.6136Y-0.8688
X6.6136Y-3.9109
X6.6146Y-1.0918
X6.6146Y-4.1339
X6.6586Y-1.631
X6.6586Y-4.6731
X6.6746Y-1.9378
X6.6746Y-4.9799
X6.7096Y-1.9808
X6.7096Y-5.0229
X6.7136Y-1.6318
X6.7136Y-4.6739
X6.7326Y-1.3588
X6.7326Y-4.4009
X6.7346Y-0.8688
X6.7346Y-3.9109
X6.7436Y-1.6768
X6.7436Y-4.7189
X6.7566Y-1.4078
X6.7566Y-4.4499
X6.7576Y-0.9958
X6.7576Y-1.0248
X6.7576Y-1.5018
X6.7576Y-4.0379
X6.7576Y-4.0669
X6.7576Y-4.5439
X6.7962Y-1.235
X6.7962Y-1.253
X6.7962Y-4.2772
X6.7962Y-4.2952
X6.7976Y-1.7068
X6.7976Y-4.7489
X6.8125Y-1.1132
X6.8125Y-1.1342
X6.8125Y-1.1562
X6.8125Y-4.1554
X6.8125Y-4.1764
X6.8125Y-4.1984
X6.8296Y-0.8688
X6.8296Y-3.9109
X6.8335Y-1.1232
X6.8335Y-1.1452
X6.8335Y-4.1654
X6.8335Y-4.1874
X6.8476Y-1.8978
X6.8476Y-1.9278
X6.8476Y-4.9399
X6.8476Y-4.9699
X6.8516Y-1.8308
X6.8516Y-4.8729
X6.8916Y-1.0398
X6.8916Y-4.0819
X6.9126Y-0.9348
X6.9126Y-3.9769
X6.9186Y-1.3588
X6.9186Y-4.4009
X6.9376Y-1.4338
X6.9376Y-4.4759
X6.9486Y-0.8328
X6.9486Y-3.8749
X6.9676Y-1.0938
X6.9676Y-4.1359
X6.9826Y-1.4398
X6.9826Y-1.5598
X6.9826Y-4.4819
X6.9826Y-4.6019
X6.9956Y-1.0948
X6.9956Y-4.1369
X7.0006Y-1.6468
X7.0006Y-4.6889
X7.0016Y-1.5838
X7.0016Y-4.6259
X7.0116Y-1.4388
X7.0116Y-4.4809
X7.0218Y-1.5608
X7.0218Y-4.6029
X7.0276Y-2.5788
X7.0276Y-2.6078
X7.0276Y-5.6209
X7.0276Y-5.6499
X7.0725Y-1.8062
X7.0725Y-4.8484
X7.0806Y-1.0898
X7.0806Y-1.4548
X7.0806Y-4.1319
X7.0806Y-4.4969
X7.1206Y-1.7688
X7.1206Y-4.8109
X7.1326Y-1.0908
X7.1326Y-4.1329
X7.1416Y-1.4508
X7.1416Y-4.4929
X7.1526Y-1.7088
X7.1526Y-4.7509
X7.1596Y-1.9218
X7.1596Y-4.9639
X7.1666Y-1.0908
X7.1666Y-4.1329
X7.1766Y-1.4968
X7.1766Y-4.5389
X7.1906Y-0.8328
X7.1906Y-1.3018
X7.1906Y-3.8749
X7.1906Y-4.3439
X7.1916Y-1.7498
X7.1916Y-1.8358
X7.1916Y-4.7919
X7.1916Y-4.8779
X7.2256Y-0.9368
X7.2256Y-3.9789
X7.2526Y-1.6058
X7.2526Y-4.6479
X7.2716Y-1.7498
X7.2716Y-1.9478
X7.2716Y-4.7919
X7.2716Y-4.9899
X7.2906Y-1.5098
X7.2906Y-4.5519
X7.2926Y-1.8348
X7.2926Y-4.8769
X7.2976Y-1.0658
X7.2976Y-4.1079
X7.3596Y-0.8538
X7.3596Y-3.8959
X7.3606Y-0.7898
X7.3606Y-0.9138
X7.3606Y-3.8319
X7.3606Y-3.9559
X7.3616Y-1.4688
X7.3616Y-4.5109
X7.4206Y-0.7498
X7.4206Y-3.7919
X7.4286Y-1.6468
X7.4286Y-4.6889
X7.4446Y-1.4678
X7.4446Y-4.5099
X7.4516Y-0.7218
X7.4516Y-3.7639
X7.4576Y-2.7848
X7.4576Y-2.8123
X7.4576Y-2.8399
X7.4576Y-5.8269
X7.4576Y-5.8545
X7.4576Y-5.882
X7.4596Y-0.6898
X7.4596Y-0.7528
X7.4596Y-3.7319
X7.4596Y-3.7949
X7.4766Y-1.5888
X7.4766Y-4.6309
X7.4826Y-0.7208
X7.4826Y-3.7629
X7.4906Y-1.4218
X7.4906Y-4.4639
X7.5112Y-0.7208
X7.5112Y-3.7629
X7.5206Y-1.5448
X7.5206Y-4.5869
X7.5326Y-0.6888
X7.5326Y-0.7518
X7.5326Y-3.7309
X7.5326Y-3.7939
X7.5376Y-1.5668
X7.5376Y-4.6089
X7.5436Y-0.7208
X7.5436Y-3.7629
X7.5766Y-1.7108
X7.5766Y-4.7529
X7.6436Y-0.9846
X7.6436Y-1.0598
X7.6436Y-4.0267
X7.6436Y-4.1019
X7.6586Y-1.3458
X7.6586Y-4.3879
X7.6616Y-1.4758
X7.6616Y-1.551
X7.6616Y-4.5179
X7.6616Y-4.5931
X7.6726Y-1.6278
X7.6726Y-4.6699
X7.6746Y-1.5998
X7.6746Y-4.6419
X7.7096Y-1.3948
X7.7096Y-4.4369
X7.7188Y-0.9846
X7.7188Y-1.0598
X7.7188Y-4.0267
X7.7188Y-4.1019
X7.7322Y-2.7528
X7.7322Y-5.7949
X7.7368Y-1.4758
X7.7368Y-1.551
X7.7368Y-4.5179
X7.7368Y-4.5931
X7.7466Y-2.7948
X7.7466Y-5.8369
X7.7598Y-2.7528
X7.7598Y-5.7949
X7.794Y-0.9846
X7.794Y-1.0598
X7.794Y-4.0267
X7.794Y-4.1019
X7.8016Y-1.2408
X7.8016Y-4.2829
X7.8056Y-1.3218
X7.8056Y-4.3639
X7.812Y-1.4758
X7.812Y-1.551
X7.812Y-4.5179
X7.812Y-4.5931
X7.8146Y-1.3968
X7.8146Y-4.4389
X7.8316Y-1.3218
X7.8316Y-4.3639
X7.8476Y-1.3958
X7.8476Y-4.4379
X7.8646Y-1.6018
X7.8646Y-4.6439
X7.8692Y-0.9846
X7.8692Y-1.0598
X7.8692Y-4.0267
X7.8692Y-4.1019
X7.8716Y-1.3798
X7.8716Y-4.4219
X7.9036Y-1.2688
X7.9036Y-4.3109
X7.9146Y-1.3458
X7.9146Y-4.3879
X7.9476Y-1.6028
X7.9476Y-4.6449
X7.9576Y-1.2188
X7.9576Y-4.2609
X8.0116Y-1.1888
X8.0116Y-4.2309
X8.0296Y-1.1668
X8.0296Y-4.2089
X8.0336Y-1.5488
X8.0336Y-1.5788
X8.0336Y-4.5909
X8.0336Y-4.6209
X8.0416Y-2.5378
X8.0416Y-5.5799
X8.0478Y-1.145
X8.0478Y-4.1872
X8.0536Y-2.5108
X8.0536Y-2.5648
X8.0536Y-5.5529
X8.0536Y-5.6069
X8.0656Y-1.1238
X8.0656Y-4.1659
X8.0846Y-1.1028
X8.0846Y-4.1449
X8.0946Y-1.6218
X8.0946Y-4.6639
X8.1246Y-2.5158
X8.1246Y-5.5579
X8.1256Y-2.5538
X8.1256Y-5.5959
X8.1726Y-1.6228
X8.1726Y-4.6649
X8.1876Y-2.5098
X8.1876Y-5.5519
X8.1956Y-2.5348
X8.1956Y-5.5769
X8.2326Y-0.3898
X8.2326Y-0.4448
X8.2326Y-3.4319
X8.2326Y-3.4869
X8.2356Y-1.2508
X8.2356Y-1.326
X8.2356Y-1.4012
X8.2356Y-1.5178
X8.2356Y-1.593
X8.2356Y-4.2929
X8.2356Y-4.3681
X8.2356Y-4.4433
X8.2356Y-4.5599
X8.2356Y-4.6351
X8.2666Y-1.0088
X8.2666Y-4.0509
X8.2676Y-0.9798
X8.2676Y-4.0219
X8.2866Y-0.9578
X8.2866Y-3.9999
X8.3018Y-0.981
X8.3018Y-4.0232
X8.3108Y-1.2508
X8.3108Y-1.326
X8.3108Y-1.4012
X8.3108Y-1.5178
X8.3108Y-1.593
X8.3108Y-4.2929
X8.3108Y-4.3681
X8.3108Y-4.4433
X8.3108Y-4.5599
X8.3108Y-4.6351
X8.3213Y-1.0005
X8.3213Y-4.0427
X8.3246Y-1.8088
X8.3246Y-4.8509
X8.3506Y-1.0098
X8.3506Y-4.0519
X8.3746Y-1.8298
X8.3746Y-4.8719
X8.386Y-1.2508
X8.386Y-1.326
X8.386Y-1.4012
X8.386Y-1.593
X8.386Y-4.2929
X8.386Y-4.3681
X8.386Y-4.4433
X8.386Y-4.6351
X8.4612Y-1.2508
X8.4612Y-1.326
X8.4612Y-1.4012
X8.4612Y-4.2929
X8.4612Y-4.3681
X8.4612Y-4.4433
X8.5066Y-1.6898
X8.5066Y-4.7319
X8.5136Y-1.6608
X8.5136Y-4.7029
X8.5236Y-0.4878
X8.5236Y-0.5118
X8.5236Y-3.5299
X8.5236Y-3.5539
X8.5346Y-1.6928
X8.5346Y-4.7349
X8.5364Y-1.2508
X8.5364Y-1.326
X8.5364Y-1.4012
X8.5364Y-4.2929
X8.5364Y-4.3681
X8.5364Y-4.4433
X8.5636Y-1.6928
X8.5636Y-4.7349
X8.6719Y-0.4448
X8.6719Y-3.4869
X8.7775Y-1.6972
X8.7775Y-4.7394
X8.8246Y-1.6968
X8.8246Y-4.7389
X8.8746Y-1.6968
X8.8746Y-4.7389
X8.9486Y-0.8978
X8.9486Y-3.9399
X8.9656Y-1.0108
X8.9656Y-4.0529
X8.9966Y-0.9538
X8.9966Y-3.9959
T2
X0.8022Y-0.8964
X0.8022Y-0.9358
X0.8022Y-0.9751
X0.8022Y-3.9385
X0.8022Y-3.9779
X0.8022Y-4.0173
X0.8495Y-0.8964
X0.8495Y-0.9358
X0.8495Y-0.9751
X0.8495Y-3.9385
X0.8495Y-3.9779
X0.8495Y-4.0173
X0.8967Y-0.8964
X0.8967Y-0.9358
X0.8967Y-0.9751
X0.8967Y-3.9385
X0.8967Y-3.9779
X0.8967Y-4.0173
X0.944Y-0.8964
X0.944Y-0.9358
X0.944Y-0.9751
X0.944Y-3.9385
X0.944Y-3.9779
X0.944Y-4.0173
X3.8998Y-0.8964
X3.8998Y-0.9358
X3.8998Y-0.9751
X3.8998Y-3.9385
X3.8998Y-3.9779
X3.8998Y-4.0173
X3.9471Y-0.8964
X3.9471Y-0.9358
X3.9471Y-0.9751
X3.9471Y-3.9385
X3.9471Y-3.9779
X3.9471Y-4.0173
X3.9943Y-0.8964
X3.9943Y-0.9358
X3.9943Y-0.9751
X3.9943Y-3.9385
X3.9943Y-3.9779
X3.9943Y-4.0173
X4.0415Y-0.8964
X4.0415Y-0.9358
X4.0415Y-0.9751
X4.0415Y-3.9385
X4.0415Y-3.9779
X4.0415Y-4.0173
X6.9974Y-0.8964
X6.9974Y-0.9358
X6.9974Y-0.9751
X6.9974Y-3.9385
X6.9974Y-3.9779
X6.9974Y-4.0173
X7.0446Y-0.8964
X7.0446Y-0.9358
X7.0446Y-0.9751
X7.0446Y-3.9385
X7.0446Y-3.9779
X7.0446Y-4.0173
X7.0919Y-0.8964
X7.0919Y-0.9358
X7.0919Y-0.9751
X7.0919Y-3.9385
X7.0919Y-3.9779
X7.0919Y-4.0173
X7.1391Y-0.8964
X7.1391Y-0.9358
X7.1391Y-0.9751
X7.1391Y-3.9385
X7.1391Y-3.9779
X7.1391Y-4.0173
T3
X1.0384Y-1.8726
X1.0384Y-1.912
X1.0384Y-4.9148
X1.0384Y-4.9542
X2.455Y-1.3214
X2.455Y-1.3706
X2.455Y-4.3636
X2.455Y-4.4128
X2.4796Y-1.2968
X2.4796Y-1.346
X2.4796Y-1.3952
X2.4796Y-4.339
X2.4796Y-4.3882
X2.4796Y-4.4374
X2.5042Y-1.3214
X2.5042Y-1.3706
X2.5042Y-4.3636
X2.5042Y-4.4128
X2.5288Y-1.2968
X2.5288Y-1.346
X2.5288Y-1.3952
X2.5288Y-4.339
X2.5288Y-4.3882
X2.5288Y-4.4374
X2.5534Y-1.3214
X2.5534Y-1.3706
X2.5534Y-4.3636
X2.5534Y-4.4128
X4.1359Y-1.8726
X4.1359Y-1.912
X4.1359Y-4.9148
X4.1359Y-4.9542
X5.5526Y-1.3214
X5.5526Y-1.3706
X5.5526Y-4.3636
X5.5526Y-4.4128
X5.5772Y-1.2968
X5.5772Y-1.346
X5.5772Y-1.3952
X5.5772Y-4.339
X5.5772Y-4.3882
X5.5772Y-4.4374
X5.6018Y-1.3214
X5.6018Y-1.3706
X5.6018Y-4.3636
X5.6018Y-4.4128
X5.6264Y-1.2968
X5.6264Y-1.346
X5.6264Y-1.3952
X5.6264Y-4.339
X5.6264Y-4.3882
X5.6264Y-4.4374
X5.651Y-1.3214
X5.651Y-1.3706
X5.651Y-4.3636
X5.651Y-4.4128
X7.2335Y-1.8726
X7.2335Y-1.912
X7.2335Y-4.9148
X7.2335Y-4.9542
X8.6502Y-1.3214
X8.6502Y-1.3706
X8.6502Y-4.3636
X8.6502Y-4.4128
X8.6748Y-1.2968
X8.6748Y-1.346
X8.6748Y-1.3952
X8.6748Y-4.339
X8.6748Y-4.3882
X8.6748Y-4.4374
X8.6994Y-1.3214
X8.6994Y-1.3706
X8.6994Y-4.3636
X8.6994Y-4.4128
X8.724Y-1.2968
X8.724Y-1.346
X8.724Y-1.3952
X8.724Y-4.339
X8.724Y-4.3882
X8.724Y-4.4374
X8.7486Y-1.3214
X8.7486Y-1.3706
X8.7486Y-4.3636
X8.7486Y-4.4128
T4
X1.8884Y-2.5388
X1.8884Y-5.5809
X1.9664Y-2.5368
X1.9664Y-5.5789
X4.986Y-2.5388
X4.986Y-5.5809
X5.064Y-2.5368
X5.064Y-5.5789
X8.0836Y-2.5388
X8.0836Y-5.5809
X8.1616Y-2.5368
X8.1616Y-5.5789
T5
X0.7164Y-0.8288
X0.7164Y-3.8709
X0.8244Y-0.7528
X0.8244Y-3.7949
X0.9199Y-0.7533
X0.9199Y-3.7954
X1.0304Y-0.8218
X1.0304Y-3.8639
X1.1774Y-1.2452
X1.1774Y-1.3132
X1.1774Y-4.2874
X1.1774Y-4.3554
X1.2624Y-1.7923
X1.2624Y-4.8345
X3.814Y-0.8288
X3.814Y-3.8709
X3.922Y-0.7528
X3.922Y-3.7949
X4.0175Y-0.7533
X4.0175Y-3.7954
X4.128Y-0.8218
X4.128Y-3.8639
X4.2749Y-1.2452
X4.2749Y-1.3132
X4.2749Y-4.2874
X4.2749Y-4.3554
X4.36Y-1.7923
X4.36Y-4.8345
X6.9116Y-0.8288
X6.9116Y-3.8709
X7.0196Y-0.7528
X7.0196Y-3.7949
X7.1151Y-0.7533
X7.1151Y-3.7954
X7.2256Y-0.8218
X7.2256Y-3.8639
X7.3725Y-1.2452
X7.3725Y-1.3132
X7.3725Y-4.2874
X7.3725Y-4.3554
X7.4576Y-1.7923
X7.4576Y-4.8345
T7
X1.0674Y-2.4148
X1.0674Y-2.5148
X1.0674Y-5.4569
X1.0674Y-5.5569
X1.1674Y-2.4148
X1.1674Y-2.5148
X1.1674Y-5.4569
X1.1674Y-5.5569
X1.2674Y-2.4148
X1.2674Y-2.5148
X1.2674Y-5.4569
X1.2674Y-5.5569
X1.3674Y-2.4148
X1.3674Y-2.5148
X1.3674Y-5.4569
X1.3674Y-5.5569
X1.3852Y-0.3737
X1.3852Y-3.4159
X1.4674Y-2.4148
X1.4674Y-2.5148
X1.4674Y-5.4569
X1.4674Y-5.5569
X1.4852Y-0.3737
X1.4852Y-3.4159
X1.5674Y-2.4148
X1.5674Y-2.5148
X1.5674Y-5.4569
X1.5674Y-5.5569
X1.5852Y-0.3737
X1.5852Y-3.4159
X1.6674Y-2.4148
X1.6674Y-2.5148
X1.6674Y-5.4569
X1.6674Y-5.5569
X1.6852Y-0.3737
X1.6852Y-3.4159
X4.165Y-2.4148
X4.165Y-2.5148
X4.165Y-5.4569
X4.165Y-5.5569
X4.265Y-2.4148
X4.265Y-2.5148
X4.265Y-5.4569
X4.265Y-5.5569
X4.365Y-2.4148
X4.365Y-2.5148
X4.365Y-5.4569
X4.365Y-5.5569
X4.465Y-2.4148
X4.465Y-2.5148
X4.465Y-5.4569
X4.465Y-5.5569
X4.4827Y-0.3737
X4.4827Y-3.4159
X4.565Y-2.4148
X4.565Y-2.5148
X4.565Y-5.4569
X4.565Y-5.5569
X4.5827Y-0.3737
X4.5827Y-3.4159
X4.665Y-2.4148
X4.665Y-2.5148
X4.665Y-5.4569
X4.665Y-5.5569
X4.6827Y-0.3737
X4.6827Y-3.4159
X4.765Y-2.4148
X4.765Y-2.5148
X4.765Y-5.4569
X4.765Y-5.5569
X4.7827Y-0.3737
X4.7827Y-3.4159
X7.2626Y-2.4148
X7.2626Y-2.5148
X7.2626Y-5.4569
X7.2626Y-5.5569
X7.3626Y-2.4148
X7.3626Y-2.5148
X7.3626Y-5.4569
X7.3626Y-5.5569
X7.4626Y-2.4148
X7.4626Y-2.5148
X7.4626Y-5.4569
X7.4626Y-5.5569
X7.5626Y-2.4148
X7.5626Y-2.5148
X7.5626Y-5.4569
X7.5626Y-5.5569
X7.5803Y-0.3737
X7.5803Y-3.4159
X7.6626Y-2.4148
X7.6626Y-2.5148
X7.6626Y-5.4569
X7.6626Y-5.5569
X7.6803Y-0.3737
X7.6803Y-3.4159
X7.7626Y-2.4148
X7.7626Y-2.5148
X7.7626Y-5.4569
X7.7626Y-5.5569
X7.7803Y-0.3737
X7.7803Y-3.4159
X7.8626Y-2.4148
X7.8626Y-2.5148
X7.8626Y-5.4569
X7.8626Y-5.5569
X7.8803Y-0.3737
X7.8803Y-3.4159
T6
G00X1.3651Y-2.9171
M15
G01X1.3651Y-2.9605
M16
G05
G00X1.3651Y-3.0884
M15
G01X1.3651Y-3.1199
M16
G05
G00X1.3651Y-5.9593
M15
G01X1.3651Y-6.0026
M16
G05
G00X1.3651Y-6.1306
M15
G01X1.3651Y-6.1621
M16
G05
G00X1.7052Y-2.9171
M15
G01X1.7052Y-2.9605
M16
G05
G00X1.7052Y-3.0884
M15
G01X1.7052Y-3.1199
M16
G05
G00X1.7052Y-5.9593
M15
G01X1.7052Y-6.0026
M16
G05
G00X1.7052Y-6.1306
M15
G01X1.7052Y-6.1621
M16
G05
G00X4.4627Y-2.9171
M15
G01X4.4627Y-2.9605
M16
G05
G00X4.4627Y-3.0884
M15
G01X4.4627Y-3.1199
M16
G05
G00X4.4627Y-5.9593
M15
G01X4.4627Y-6.0026
M16
G05
G00X4.4627Y-6.1306
M15
G01X4.4627Y-6.1621
M16
G05
G00X4.8028Y-2.9171
M15
G01X4.8028Y-2.9605
M16
G05
G00X4.8028Y-3.0884
M15
G01X4.8028Y-3.1199
M16
G05
G00X4.8028Y-5.9593
M15
G01X4.8028Y-6.0026
M16
G05
G00X4.8028Y-6.1306
M15
G01X4.8028Y-6.1621
M16
G05
G00X7.5602Y-2.9171
M15
G01X7.5602Y-2.9605
M16
G05
G00X7.5602Y-3.0884
M15
G01X7.5602Y-3.1199
M16
G05
G00X7.5602Y-5.9593
M15
G01X7.5602Y-6.0026
M16
G05
G00X7.5602Y-6.1306
M15
G01X7.5602Y-6.1621
M16
G05
G00X7.9004Y-2.9171
M15
G01X7.9004Y-2.9605
M16
G05
G00X7.9004Y-3.0884
M15
G01X7.9004Y-3.1199
M16
G05
G00X7.9004Y-5.9593
M15
G01X7.9004Y-6.0026
M16
G05
G00X7.9004Y-6.1306
M15
G01X7.9004Y-6.1621
M16
G05
M30
