M48
; DRILL file KiCad 10.0.3 date 2026-06-22T09:25:22
; FORMAT={-:-/ absolute / inch / decimal}
; #@! TF.CreationDate,2026-06-22T09:25:22+02:00
; #@! TF.GenerationSoftware,Kicad,Pcbnew,10.0.3
; #@! TF.FileFunction,NonPlated,1,2,NPTH
FMAT,2
INCH
; #@! TA.AperFunction,NonPlated,NPTH,ComponentDrill
T1C0.0197
; #@! TA.AperFunction,NonPlated,NPTH,ComponentDrill
T2C0.0256
; #@! TA.AperFunction,NonPlated,NPTH,ComponentDrill
T3C0.0866
; #@! TA.AperFunction,NonPlated,NPTH,ComponentDrill
T4C0.0984
%
G90
G05
T1
X1.4502Y-0.2854
X1.4502Y-3.3276
X1.4506Y-3.2271
X1.4506Y-6.2693
X1.4896Y-0.2854
X1.4896Y-3.3276
X1.4898Y-3.2285
X1.4898Y-6.2707
X1.529Y-3.2291
X1.529Y-6.2712
X1.529Y-0.2854
X1.529Y-3.3276
X1.5681Y-3.2288
X1.5681Y-6.2709
X1.5683Y-0.2854
X1.5683Y-3.3276
X2.7663Y-2.3045
X2.7663Y-5.3467
X2.7865Y-2.2756
X2.7865Y-5.3178
X2.8048Y-1.3224
X2.8048Y-4.3646
X2.8048Y-1.283
X2.8048Y-4.3252
X2.8048Y-1.2437
X2.8048Y-4.2858
X2.8048Y-1.2043
X2.8048Y-4.2465
X2.8068Y-2.2467
X2.8068Y-5.2889
X2.8255Y-2.2168
X2.8255Y-5.259
X2.8442Y-2.1869
X2.8442Y-5.229
X3.1098Y-1.323
X3.1098Y-4.3651
X3.112Y-1.2837
X3.112Y-4.3258
X3.116Y-1.2445
X3.116Y-4.2867
X3.1202Y-1.2054
X3.1202Y-4.2475
X3.3238Y-2.1869
X3.3238Y-5.2291
X3.3423Y-2.2169
X3.3423Y-5.259
X3.3612Y-2.2464
X3.3612Y-5.2886
X3.3811Y-2.2754
X3.3811Y-5.3176
X3.4013Y-2.3042
X3.4013Y-5.3464
X4.5478Y-0.2854
X4.5478Y-3.3276
X4.5482Y-3.2271
X4.5482Y-6.2693
X4.5872Y-0.2854
X4.5872Y-3.3276
X4.5874Y-3.2285
X4.5874Y-6.2707
X4.6265Y-3.2291
X4.6265Y-6.2712
X4.6265Y-0.2854
X4.6265Y-3.3276
X4.6657Y-3.2288
X4.6657Y-6.2709
X4.6659Y-0.2854
X4.6659Y-3.3276
X5.8638Y-2.3045
X5.8638Y-5.3467
X5.8841Y-2.2756
X5.8841Y-5.3178
X5.9024Y-1.3224
X5.9024Y-4.3646
X5.9024Y-1.283
X5.9024Y-4.3252
X5.9024Y-1.2437
X5.9024Y-4.2858
X5.9024Y-1.2043
X5.9024Y-4.2465
X5.9044Y-2.2467
X5.9044Y-5.2889
X5.9231Y-2.2168
X5.9231Y-5.259
X5.9418Y-2.1869
X5.9418Y-5.229
X6.2074Y-1.323
X6.2074Y-4.3651
X6.2096Y-1.2837
X6.2096Y-4.3258
X6.2136Y-1.2445
X6.2136Y-4.2867
X6.2178Y-1.2054
X6.2178Y-4.2475
X6.4214Y-2.1869
X6.4214Y-5.2291
X6.4398Y-2.2169
X6.4398Y-5.259
X6.4588Y-2.2464
X6.4588Y-5.2886
X6.4787Y-2.2754
X6.4787Y-5.3176
X6.4989Y-2.3042
X6.4989Y-5.3464
X7.6454Y-0.2854
X7.6454Y-3.3276
X7.6458Y-3.2271
X7.6458Y-6.2693
X7.6848Y-0.2854
X7.6848Y-3.3276
X7.685Y-3.2285
X7.685Y-6.2707
X7.7241Y-3.2291
X7.7241Y-6.2712
X7.7241Y-0.2854
X7.7241Y-3.3276
X7.7633Y-3.2288
X7.7633Y-6.2709
X7.7635Y-0.2854
X7.7635Y-3.3276
T2
X1.4214Y-2.9593
X1.4214Y-6.0014
X1.6489Y-2.9593
X1.6489Y-6.0014
X4.519Y-2.9593
X4.519Y-6.0014
X4.7465Y-2.9593
X4.7465Y-6.0014
X7.6165Y-2.9593
X7.6165Y-6.0014
X7.8441Y-2.9593
X7.8441Y-6.0014
T3
X0.1663Y-0.9057
X0.1663Y-1.9022
X0.1663Y-3.9479
X0.1663Y-4.9443
X2.904Y-0.9057
X2.904Y-1.9022
X2.904Y-3.9479
X2.904Y-4.9443
X3.2639Y-0.9057
X3.2639Y-1.9022
X3.2639Y-3.9479
X3.2639Y-4.9443
X6.0016Y-0.9057
X6.0016Y-1.9022
X6.0016Y-3.9479
X6.0016Y-4.9443
X6.3615Y-0.9057
X6.3615Y-1.9022
X6.3615Y-3.9479
X6.3615Y-4.9443
X9.0992Y-0.9057
X9.0992Y-1.9022
X9.0992Y-3.9479
X9.0992Y-4.9443
T4
X0.3945Y-2.1276
X0.3945Y-5.1698
X2.678Y-2.1276
X2.678Y-5.1698
X3.4921Y-2.1276
X3.4921Y-5.1698
X5.7756Y-2.1276
X5.7756Y-5.1698
X6.5897Y-2.1276
X6.5897Y-5.1698
X8.8732Y-2.1276
X8.8732Y-5.1698
M30
