G04 #@! TF.GenerationSoftware,KiCad,Pcbnew,10.0.3*
G04 #@! TF.CreationDate,2026-06-30T19:13:12+02:00*
G04 #@! TF.ProjectId,rover-circuit-panelized,726f7665-722d-4636-9972-637569742d70,rev?*
G04 #@! TF.SameCoordinates,Original*
G04 #@! TF.FileFunction,Paste,Top*
G04 #@! TF.FilePolarity,Positive*
%FSLAX46Y46*%
G04 Gerber Fmt 4.6, Leading zero omitted, Abs format (unit mm)*
G04 Created by KiCad (PCBNEW 10.0.3) date 2026-06-30 19:13:12*
%MOMM*%
%LPD*%
G01*
G04 APERTURE LIST*
G04 Aperture macros list*
%AMRoundRect*
0 Rectangle with rounded corners*
0 $1 Rounding radius*
0 $2 $3 $4 $5 $6 $7 $8 $9 X,Y pos of 4 corners*
0 Add a 4 corners polygon primitive as box body*
4,1,4,$2,$3,$4,$5,$6,$7,$8,$9,$2,$3,0*
0 Add four circle primitives for the rounded corners*
1,1,$1+$1,$2,$3*
1,1,$1+$1,$4,$5*
1,1,$1+$1,$6,$7*
1,1,$1+$1,$8,$9*
0 Add four rect primitives between the rounded corners*
20,1,$1+$1,$2,$3,$4,$5,0*
20,1,$1+$1,$4,$5,$6,$7,0*
20,1,$1+$1,$6,$7,$8,$9,0*
20,1,$1+$1,$8,$9,$2,$3,0*%
%AMFreePoly0*
4,1,11,0.760000,0.825000,0.380000,0.510000,0.380000,-0.510000,0.760000,-0.825000,0.760000,-1.525000,-0.125000,-1.525000,-0.380000,-1.270000,-0.380000,1.270000,-0.125000,1.525000,0.760000,1.525000,0.760000,0.825000,0.760000,0.825000,$1*%
G04 Aperture macros list end*
%ADD10R,1.700000X0.900000*%
%ADD11RoundRect,0.250000X0.475000X-0.250000X0.475000X0.250000X-0.475000X0.250000X-0.475000X-0.250000X0*%
%ADD12RoundRect,0.250000X0.250000X0.475000X-0.250000X0.475000X-0.250000X-0.475000X0.250000X-0.475000X0*%
%ADD13RoundRect,0.225000X0.250000X-0.225000X0.250000X0.225000X-0.250000X0.225000X-0.250000X-0.225000X0*%
%ADD14R,1.000000X3.000000*%
%ADD15RoundRect,0.250000X-0.325000X-0.650000X0.325000X-0.650000X0.325000X0.650000X-0.325000X0.650000X0*%
%ADD16RoundRect,0.250000X-0.295000X0.295000X-0.295000X-0.295000X0.295000X-0.295000X0.295000X0.295000X0*%
%ADD17RoundRect,0.062500X-0.062500X0.350000X-0.062500X-0.350000X0.062500X-0.350000X0.062500X0.350000X0*%
%ADD18RoundRect,0.062500X-0.350000X0.062500X-0.350000X-0.062500X0.350000X-0.062500X0.350000X0.062500X0*%
%ADD19RoundRect,0.200000X-0.200000X-0.275000X0.200000X-0.275000X0.200000X0.275000X-0.200000X0.275000X0*%
%ADD20RoundRect,0.250000X2.500000X-0.250000X2.500000X0.250000X-2.500000X0.250000X-2.500000X-0.250000X0*%
%ADD21RoundRect,0.250000X1.250000X-0.550000X1.250000X0.550000X-1.250000X0.550000X-1.250000X-0.550000X0*%
%ADD22RoundRect,0.250000X0.250000X1.500000X-0.250000X1.500000X-0.250000X-1.500000X0.250000X-1.500000X0*%
%ADD23RoundRect,0.250001X0.499999X1.449999X-0.499999X1.449999X-0.499999X-1.449999X0.499999X-1.449999X0*%
%ADD24RoundRect,0.250000X-1.000000X0.700000X-1.000000X-0.700000X1.000000X-0.700000X1.000000X0.700000X0*%
%ADD25RoundRect,0.250000X-0.250000X-1.500000X0.250000X-1.500000X0.250000X1.500000X-0.250000X1.500000X0*%
%ADD26RoundRect,0.250001X-0.499999X-1.449999X0.499999X-1.449999X0.499999X1.449999X-0.499999X1.449999X0*%
%ADD27RoundRect,0.200000X-0.310705X-0.138157X0.035705X-0.338157X0.310705X0.138157X-0.035705X0.338157X0*%
%ADD28RoundRect,0.225000X-0.225000X-0.250000X0.225000X-0.250000X0.225000X0.250000X-0.225000X0.250000X0*%
%ADD29RoundRect,0.200000X0.275000X-0.200000X0.275000X0.200000X-0.275000X0.200000X-0.275000X-0.200000X0*%
%ADD30RoundRect,0.225000X0.225000X0.250000X-0.225000X0.250000X-0.225000X-0.250000X0.225000X-0.250000X0*%
%ADD31RoundRect,0.250000X-0.650000X0.325000X-0.650000X-0.325000X0.650000X-0.325000X0.650000X0.325000X0*%
%ADD32RoundRect,0.225000X-0.250000X0.225000X-0.250000X-0.225000X0.250000X-0.225000X0.250000X0.225000X0*%
%ADD33R,0.450000X0.300000*%
%ADD34R,0.300000X0.450000*%
%ADD35RoundRect,0.218750X0.317568X0.112544X-0.061318X0.331294X-0.317568X-0.112544X0.061318X-0.331294X0*%
%ADD36RoundRect,0.250000X0.550000X1.850000X-0.550000X1.850000X-0.550000X-1.850000X0.550000X-1.850000X0*%
%ADD37RoundRect,0.250000X0.275000X0.700000X-0.275000X0.700000X-0.275000X-0.700000X0.275000X-0.700000X0*%
%ADD38R,0.900000X1.700000*%
%ADD39RoundRect,0.135000X0.185000X-0.135000X0.185000X0.135000X-0.185000X0.135000X-0.185000X-0.135000X0*%
%ADD40RoundRect,0.200000X0.200000X0.275000X-0.200000X0.275000X-0.200000X-0.275000X0.200000X-0.275000X0*%
%ADD41RoundRect,0.200000X-0.275000X0.200000X-0.275000X-0.200000X0.275000X-0.200000X0.275000X0.200000X0*%
%ADD42RoundRect,0.250000X-0.475000X0.250000X-0.475000X-0.250000X0.475000X-0.250000X0.475000X0.250000X0*%
%ADD43RoundRect,0.150000X0.150000X-0.512500X0.150000X0.512500X-0.150000X0.512500X-0.150000X-0.512500X0*%
%ADD44R,0.900000X1.500000*%
%ADD45R,0.800000X0.800000*%
%ADD46RoundRect,0.250000X-0.250000X-0.475000X0.250000X-0.475000X0.250000X0.475000X-0.250000X0.475000X0*%
%ADD47FreePoly0,90.000000*%
%ADD48FreePoly0,270.000000*%
%ADD49R,0.250000X0.700000*%
%ADD50RoundRect,0.250000X0.625000X-0.312500X0.625000X0.312500X-0.625000X0.312500X-0.625000X-0.312500X0*%
%ADD51RoundRect,0.150000X-0.150000X-0.470000X0.150000X-0.470000X0.150000X0.470000X-0.150000X0.470000X0*%
%ADD52RoundRect,0.075000X-0.075000X-0.545000X0.075000X-0.545000X0.075000X0.545000X-0.075000X0.545000X0*%
%ADD53RoundRect,0.150000X0.512500X0.150000X-0.512500X0.150000X-0.512500X-0.150000X0.512500X-0.150000X0*%
%ADD54RoundRect,0.150000X-0.150000X0.587500X-0.150000X-0.587500X0.150000X-0.587500X0.150000X0.587500X0*%
%ADD55RoundRect,0.247500X-0.682500X0.247500X-0.682500X-0.247500X0.682500X-0.247500X0.682500X0.247500X0*%
%ADD56RoundRect,0.100000X-0.100000X0.687500X-0.100000X-0.687500X0.100000X-0.687500X0.100000X0.687500X0*%
%ADD57RoundRect,0.250000X0.550000X-1.500000X0.550000X1.500000X-0.550000X1.500000X-0.550000X-1.500000X0*%
%ADD58RoundRect,0.218750X0.256250X-0.218750X0.256250X0.218750X-0.256250X0.218750X-0.256250X-0.218750X0*%
%ADD59RoundRect,0.075000X-0.075000X-0.075000X0.075000X-0.075000X0.075000X0.075000X-0.075000X0.075000X0*%
%ADD60RoundRect,0.218750X0.218750X0.256250X-0.218750X0.256250X-0.218750X-0.256250X0.218750X-0.256250X0*%
%ADD61RoundRect,0.250000X0.362500X1.425000X-0.362500X1.425000X-0.362500X-1.425000X0.362500X-1.425000X0*%
%ADD62RoundRect,0.250000X-0.700000X-1.000000X0.700000X-1.000000X0.700000X1.000000X-0.700000X1.000000X0*%
%ADD63R,2.450000X1.000000*%
%ADD64R,1.000000X2.450000*%
%ADD65R,0.675000X0.250000*%
%ADD66R,0.250000X0.675000*%
%ADD67R,0.750000X0.650000*%
%ADD68RoundRect,0.062500X-0.187500X-0.062500X0.187500X-0.062500X0.187500X0.062500X-0.187500X0.062500X0*%
G04 APERTURE END LIST*
D10*
G04 #@! TO.C,SW4*
X115493400Y-19778812D03*
X115493400Y-16378812D03*
G04 #@! TD*
D11*
G04 #@! TO.C,C18*
X23505133Y-125063839D03*
X23505133Y-123163839D03*
G04 #@! TD*
D12*
G04 #@! TO.C,C17*
X27197295Y-45471640D03*
X25297295Y-45471640D03*
G04 #@! TD*
D13*
G04 #@! TO.C,C8*
X104850800Y-28251812D03*
X104850800Y-26701812D03*
G04 #@! TD*
D14*
G04 #@! TO.C,J5*
X172258606Y-51690526D03*
X172258606Y-56730526D03*
X174798606Y-51690526D03*
X174798606Y-56730526D03*
X177338606Y-51690526D03*
X177338606Y-56730526D03*
X179878606Y-51690526D03*
X179878606Y-56730526D03*
X182418606Y-51690526D03*
X182418606Y-56730526D03*
X184958606Y-51690526D03*
X184958606Y-56730526D03*
X187498606Y-51690526D03*
X187498606Y-56730526D03*
X190038606Y-51690526D03*
X190038606Y-56730526D03*
X192578606Y-51690526D03*
X192578606Y-56730526D03*
X195118606Y-51690526D03*
X195118606Y-56730526D03*
X197658606Y-51690526D03*
X197658606Y-56730526D03*
X200198606Y-51690526D03*
X200198606Y-56730526D03*
X202738606Y-51690526D03*
X202738606Y-56730526D03*
X205278606Y-51690526D03*
X205278606Y-56730526D03*
X207818606Y-51690526D03*
X207818606Y-56730526D03*
X210358606Y-51690526D03*
X210358606Y-56730526D03*
X212898606Y-51690526D03*
X212898606Y-56730526D03*
X215438606Y-51690526D03*
X215438606Y-56730526D03*
X217978606Y-51690526D03*
X217978606Y-56730526D03*
X220518606Y-51690526D03*
X220518606Y-56730526D03*
G04 #@! TD*
D12*
G04 #@! TO.C,C28*
X27197295Y-120684839D03*
X25297295Y-120684839D03*
G04 #@! TD*
D15*
G04 #@! TO.C,C12*
X91082200Y-115432941D03*
X94032200Y-115432941D03*
G04 #@! TD*
D16*
G04 #@! TO.C,U2*
X170647513Y-29652842D03*
X169297513Y-29652842D03*
X170647513Y-31002842D03*
X169297513Y-31002842D03*
D17*
X171222513Y-28365342D03*
X170722513Y-28365342D03*
X170222513Y-28365342D03*
X169722513Y-28365342D03*
X169222513Y-28365342D03*
X168722513Y-28365342D03*
D18*
X168010013Y-29077842D03*
X168010013Y-29577842D03*
X168010013Y-30077842D03*
X168010013Y-30577842D03*
X168010013Y-31077842D03*
X168010013Y-31577842D03*
D17*
X168722513Y-32290342D03*
X169222513Y-32290342D03*
X169722513Y-32290342D03*
X170222513Y-32290342D03*
X170722513Y-32290342D03*
X171222513Y-32290342D03*
D18*
X171935013Y-31577842D03*
X171935013Y-31077842D03*
X171935013Y-30577842D03*
X171935013Y-30077842D03*
X171935013Y-29577842D03*
X171935013Y-29077842D03*
G04 #@! TD*
D11*
G04 #@! TO.C,C18*
X102183800Y-47793240D03*
X102183800Y-45893240D03*
G04 #@! TD*
D19*
G04 #@! TO.C,R15*
X29411033Y-43428012D03*
X31061033Y-43428012D03*
G04 #@! TD*
D20*
G04 #@! TO.C,J9*
X6106133Y-116434211D03*
X6106133Y-114434211D03*
X6106133Y-112434211D03*
X6106133Y-110434211D03*
D21*
X3856133Y-118834211D03*
X3856133Y-108034211D03*
G04 #@! TD*
D22*
G04 #@! TO.C,J8*
X106686200Y-92336411D03*
X104686200Y-92336411D03*
D23*
X109036200Y-86586411D03*
X102336200Y-86586411D03*
G04 #@! TD*
D24*
G04 #@! TO.C,L1*
X20778579Y-30691542D03*
X20778579Y-34791542D03*
G04 #@! TD*
D25*
G04 #@! TO.C,J4*
X126624421Y-61618340D03*
X128624421Y-61618338D03*
X130624421Y-61618339D03*
X132624422Y-61618338D03*
D26*
X124274421Y-67368338D03*
X134974421Y-67368339D03*
G04 #@! TD*
D27*
G04 #@! TO.C,R8*
X167548856Y-16434886D03*
X168977798Y-17259888D03*
G04 #@! TD*
D28*
G04 #@! TO.C,C16*
X16938933Y-104696611D03*
X18488933Y-104696611D03*
G04 #@! TD*
D29*
G04 #@! TO.C,R17*
X59014333Y-125295011D03*
X59014333Y-123645011D03*
G04 #@! TD*
D30*
G04 #@! TO.C,C9*
X179192961Y-28619812D03*
X177642961Y-28619812D03*
G04 #@! TD*
D31*
G04 #@! TO.C,C5*
X173877467Y-30597942D03*
X173877467Y-33547942D03*
G04 #@! TD*
D32*
G04 #@! TO.C,C30*
X195823067Y-109941411D03*
X195823067Y-111491411D03*
G04 #@! TD*
D19*
G04 #@! TO.C,R18*
X142515776Y-88567611D03*
X144165776Y-88567611D03*
G04 #@! TD*
D12*
G04 #@! TO.C,C17*
X184554629Y-122742239D03*
X182654629Y-122742239D03*
G04 #@! TD*
D19*
G04 #@! TO.C,R19*
X134226400Y-100226211D03*
X135876400Y-100226211D03*
G04 #@! TD*
D33*
G04 #@! TO.C,U1*
X202544067Y-115922011D03*
X202544067Y-116422011D03*
X202544067Y-116922011D03*
X202544067Y-117422011D03*
D34*
X203069067Y-117947011D03*
X203569067Y-117947011D03*
X204069067Y-117947011D03*
X204569067Y-117947011D03*
D33*
X205094067Y-117422011D03*
X205094067Y-116922011D03*
X205094067Y-116422011D03*
X205094067Y-115922011D03*
D34*
X204569067Y-115397011D03*
X204069067Y-115397011D03*
X203569067Y-115397011D03*
X203069067Y-115397011D03*
G04 #@! TD*
D22*
G04 #@! TO.C,J7*
X175817267Y-92357411D03*
X173817267Y-92357411D03*
D23*
X178167267Y-86607411D03*
X171467267Y-86607411D03*
G04 #@! TD*
D35*
G04 #@! TO.C,D1*
X165162814Y-17615272D03*
X163798824Y-16827772D03*
G04 #@! TD*
D36*
G04 #@! TO.C,L3*
X11842095Y-44266212D03*
X8242095Y-44266212D03*
G04 #@! TD*
D30*
G04 #@! TO.C,C4*
X171858467Y-111097411D03*
X170308467Y-111097411D03*
G04 #@! TD*
D37*
G04 #@! TO.C,FB1*
X36293095Y-71438412D03*
X33143095Y-71438412D03*
G04 #@! TD*
D15*
G04 #@! TO.C,C3*
X169760867Y-113051941D03*
X172710867Y-113051941D03*
G04 #@! TD*
D12*
G04 #@! TO.C,C22*
X173227267Y-118805239D03*
X171327267Y-118805239D03*
G04 #@! TD*
D38*
G04 #@! TO.C,SW2*
X206772267Y-124457811D03*
X210172267Y-124457811D03*
G04 #@! TD*
D39*
G04 #@! TO.C,R14*
X195077713Y-72347454D03*
X195077713Y-71327454D03*
G04 #@! TD*
D32*
G04 #@! TO.C,C32*
X95732200Y-112481411D03*
X95732200Y-114031411D03*
G04 #@! TD*
D40*
G04 #@! TO.C,R4*
X9013933Y-24682812D03*
X7363933Y-24682812D03*
G04 #@! TD*
D41*
G04 #@! TO.C,R11*
X22489133Y-115301611D03*
X22489133Y-116951611D03*
G04 #@! TD*
D42*
G04 #@! TO.C,C23*
X31709333Y-36117812D03*
X31709333Y-38017812D03*
G04 #@! TD*
D43*
G04 #@! TO.C,U5*
X25901533Y-116955111D03*
X26851533Y-116955111D03*
X27801533Y-116955111D03*
X27801533Y-114680111D03*
X26851533Y-114680111D03*
X25901533Y-114680111D03*
G04 #@! TD*
D44*
G04 #@! TO.C,U6*
X148005400Y-104214611D03*
X146735400Y-104214611D03*
X145465400Y-104214611D03*
X144195400Y-104214611D03*
X142925400Y-104214611D03*
X141655400Y-104214611D03*
X140385400Y-104214611D03*
X139115400Y-104214611D03*
X137845400Y-104214611D03*
X136575400Y-104214611D03*
X135305400Y-104214611D03*
X134035400Y-104214611D03*
X132765400Y-104214611D03*
X131495400Y-104214611D03*
X131495400Y-121714611D03*
X132765400Y-121714611D03*
X134035400Y-121714611D03*
X135305400Y-121714611D03*
X136575400Y-121714611D03*
X137845400Y-121714611D03*
X139115400Y-121714611D03*
X140385400Y-121714611D03*
X141655400Y-121714611D03*
X142925400Y-121714611D03*
X144195400Y-121714611D03*
X145465400Y-121714611D03*
X146735400Y-121714611D03*
X148005400Y-121714611D03*
D45*
X143535400Y-110209611D03*
X143535400Y-111459611D03*
X143535400Y-112709611D03*
X142285400Y-110209611D03*
X142285400Y-111459611D03*
X142285400Y-112709611D03*
X141035400Y-110209611D03*
X141035400Y-111459611D03*
X141035400Y-112709611D03*
G04 #@! TD*
D35*
G04 #@! TO.C,D2*
X8891648Y-15713734D03*
X7527658Y-14926234D03*
G04 #@! TD*
D42*
G04 #@! TO.C,C24*
X187009267Y-113398611D03*
X187009267Y-115298611D03*
G04 #@! TD*
D46*
G04 #@! TO.C,C1*
X146725200Y-24225612D03*
X148625200Y-24225612D03*
G04 #@! TD*
D13*
G04 #@! TO.C,C31*
X101294800Y-42882212D03*
X101294800Y-41332212D03*
G04 #@! TD*
D47*
G04 #@! TO.C,L2*
X108483000Y-125216017D03*
D48*
X108483000Y-122676017D03*
G04 #@! TD*
D49*
G04 #@! TO.C,U8*
X18495933Y-38995612D03*
X18995933Y-38995612D03*
X19495933Y-38995612D03*
X19995933Y-38995612D03*
X20495933Y-38995612D03*
X20995933Y-38995612D03*
X20995933Y-37395612D03*
X20495933Y-37395612D03*
X19995933Y-37395612D03*
X19495933Y-37395612D03*
X18995933Y-37395612D03*
X18495933Y-37395612D03*
G04 #@! TD*
D32*
G04 #@! TO.C,C15*
X122249800Y-116418411D03*
X122249800Y-117968411D03*
G04 #@! TD*
D50*
G04 #@! TO.C,R10*
X183529467Y-102349111D03*
X183529467Y-99424111D03*
G04 #@! TD*
D32*
G04 #@! TO.C,C7*
X88823400Y-110932011D03*
X88823400Y-112482011D03*
G04 #@! TD*
D40*
G04 #@! TO.C,R20*
X132777600Y-100226211D03*
X131127600Y-100226211D03*
G04 #@! TD*
D24*
G04 #@! TO.C,L1*
X178135913Y-30691542D03*
X178135913Y-34791542D03*
G04 #@! TD*
D51*
G04 #@! TO.C,J2*
X193150267Y-151316198D03*
X193950267Y-151316198D03*
D52*
X195100267Y-151316198D03*
X196100267Y-151316198D03*
X196600267Y-151316198D03*
X197600267Y-151316198D03*
D51*
X198750267Y-151316198D03*
X199550267Y-151316198D03*
X199550267Y-151316198D03*
X198750267Y-151316198D03*
D52*
X198100267Y-151316198D03*
X197100267Y-151316198D03*
X195600267Y-151316198D03*
X194600267Y-151316198D03*
D51*
X193950267Y-151316198D03*
X193150267Y-151316198D03*
G04 #@! TD*
D11*
G04 #@! TO.C,C27*
X203248843Y-94193111D03*
X203248843Y-92293111D03*
G04 #@! TD*
D32*
G04 #@! TO.C,C30*
X38465733Y-109941411D03*
X38465733Y-111491411D03*
G04 #@! TD*
D13*
G04 #@! TO.C,C26*
X174410867Y-39783412D03*
X174410867Y-38233412D03*
G04 #@! TD*
D27*
G04 #@! TO.C,R1*
X9092654Y-18358421D03*
X10521596Y-19183423D03*
G04 #@! TD*
D50*
G04 #@! TO.C,R10*
X26172133Y-102349111D03*
X26172133Y-99424111D03*
G04 #@! TD*
D41*
G04 #@! TO.C,R11*
X101167800Y-38031012D03*
X101167800Y-39681012D03*
G04 #@! TD*
D47*
G04 #@! TO.C,L2*
X29804333Y-47945418D03*
D48*
X29804333Y-45405418D03*
G04 #@! TD*
D20*
G04 #@! TO.C,J9*
X163463467Y-39163612D03*
X163463467Y-37163612D03*
X163463467Y-35163612D03*
X163463467Y-33163612D03*
D21*
X161213467Y-41563612D03*
X161213467Y-30763612D03*
G04 #@! TD*
D28*
G04 #@! TO.C,C16*
X95617600Y-104696611D03*
X97167600Y-104696611D03*
G04 #@! TD*
D15*
G04 #@! TO.C,C3*
X12403533Y-35781342D03*
X15353533Y-35781342D03*
G04 #@! TD*
D40*
G04 #@! TO.C,R2*
X166523667Y-100378611D03*
X164873667Y-100378611D03*
G04 #@! TD*
D39*
G04 #@! TO.C,R14*
X116399046Y-72347454D03*
X116399046Y-71327454D03*
G04 #@! TD*
D12*
G04 #@! TO.C,C17*
X105875962Y-122742239D03*
X103975962Y-122742239D03*
G04 #@! TD*
D27*
G04 #@! TO.C,R8*
X10191522Y-16434886D03*
X11620464Y-17259888D03*
G04 #@! TD*
D16*
G04 #@! TO.C,U2*
X13290179Y-29652842D03*
X11940179Y-29652842D03*
X13290179Y-31002842D03*
X11940179Y-31002842D03*
D17*
X13865179Y-28365342D03*
X13365179Y-28365342D03*
X12865179Y-28365342D03*
X12365179Y-28365342D03*
X11865179Y-28365342D03*
X11365179Y-28365342D03*
D18*
X10652679Y-29077842D03*
X10652679Y-29577842D03*
X10652679Y-30077842D03*
X10652679Y-30577842D03*
X10652679Y-31077842D03*
X10652679Y-31577842D03*
D17*
X11365179Y-32290342D03*
X11865179Y-32290342D03*
X12365179Y-32290342D03*
X12865179Y-32290342D03*
X13365179Y-32290342D03*
X13865179Y-32290342D03*
D18*
X14577679Y-31577842D03*
X14577679Y-31077842D03*
X14577679Y-30577842D03*
X14577679Y-30077842D03*
X14577679Y-29577842D03*
X14577679Y-29077842D03*
G04 #@! TD*
D22*
G04 #@! TO.C,J7*
X175817267Y-15086812D03*
X173817267Y-15086812D03*
D23*
X178167267Y-9336812D03*
X171467267Y-9336812D03*
G04 #@! TD*
D44*
G04 #@! TO.C,U6*
X69326733Y-104214611D03*
X68056733Y-104214611D03*
X66786733Y-104214611D03*
X65516733Y-104214611D03*
X64246733Y-104214611D03*
X62976733Y-104214611D03*
X61706733Y-104214611D03*
X60436733Y-104214611D03*
X59166733Y-104214611D03*
X57896733Y-104214611D03*
X56626733Y-104214611D03*
X55356733Y-104214611D03*
X54086733Y-104214611D03*
X52816733Y-104214611D03*
X52816733Y-121714611D03*
X54086733Y-121714611D03*
X55356733Y-121714611D03*
X56626733Y-121714611D03*
X57896733Y-121714611D03*
X59166733Y-121714611D03*
X60436733Y-121714611D03*
X61706733Y-121714611D03*
X62976733Y-121714611D03*
X64246733Y-121714611D03*
X65516733Y-121714611D03*
X66786733Y-121714611D03*
X68056733Y-121714611D03*
X69326733Y-121714611D03*
D45*
X64856733Y-110209611D03*
X64856733Y-111459611D03*
X64856733Y-112709611D03*
X63606733Y-110209611D03*
X63606733Y-111459611D03*
X63606733Y-112709611D03*
X62356733Y-110209611D03*
X62356733Y-111459611D03*
X62356733Y-112709611D03*
G04 #@! TD*
D30*
G04 #@! TO.C,C6*
X87871200Y-108608118D03*
X86321200Y-108608118D03*
G04 #@! TD*
D44*
G04 #@! TO.C,U6*
X226684067Y-104214611D03*
X225414067Y-104214611D03*
X224144067Y-104214611D03*
X222874067Y-104214611D03*
X221604067Y-104214611D03*
X220334067Y-104214611D03*
X219064067Y-104214611D03*
X217794067Y-104214611D03*
X216524067Y-104214611D03*
X215254067Y-104214611D03*
X213984067Y-104214611D03*
X212714067Y-104214611D03*
X211444067Y-104214611D03*
X210174067Y-104214611D03*
X210174067Y-121714611D03*
X211444067Y-121714611D03*
X212714067Y-121714611D03*
X213984067Y-121714611D03*
X215254067Y-121714611D03*
X216524067Y-121714611D03*
X217794067Y-121714611D03*
X219064067Y-121714611D03*
X220334067Y-121714611D03*
X221604067Y-121714611D03*
X222874067Y-121714611D03*
X224144067Y-121714611D03*
X225414067Y-121714611D03*
X226684067Y-121714611D03*
D45*
X222214067Y-110209611D03*
X222214067Y-111459611D03*
X222214067Y-112709611D03*
X220964067Y-110209611D03*
X220964067Y-111459611D03*
X220964067Y-112709611D03*
X219714067Y-110209611D03*
X219714067Y-111459611D03*
X219714067Y-112709611D03*
G04 #@! TD*
D53*
G04 #@! TO.C,U7*
X95344662Y-45227840D03*
X95344662Y-44277840D03*
X95344662Y-43327840D03*
X93069662Y-43327840D03*
X93069662Y-44277840D03*
X93069662Y-45227840D03*
G04 #@! TD*
D11*
G04 #@! TO.C,C27*
X124570176Y-16922512D03*
X124570176Y-15022512D03*
G04 #@! TD*
D41*
G04 #@! TO.C,R3*
X92379400Y-100112411D03*
X92379400Y-101762411D03*
G04 #@! TD*
D54*
G04 #@! TO.C,U12*
X21051533Y-118592711D03*
X19151533Y-118592711D03*
X20101533Y-120467711D03*
G04 #@! TD*
D33*
G04 #@! TO.C,U1*
X45186733Y-115922011D03*
X45186733Y-116422011D03*
X45186733Y-116922011D03*
X45186733Y-117422011D03*
D34*
X45711733Y-117947011D03*
X46211733Y-117947011D03*
X46711733Y-117947011D03*
X47211733Y-117947011D03*
D33*
X47736733Y-117422011D03*
X47736733Y-116922011D03*
X47736733Y-116422011D03*
X47736733Y-115922011D03*
D34*
X47211733Y-115397011D03*
X46711733Y-115397011D03*
X46211733Y-115397011D03*
X45711733Y-115397011D03*
G04 #@! TD*
D55*
G04 #@! TO.C,U3*
X100855294Y-23153412D03*
X100855294Y-24383412D03*
D56*
X103130294Y-20905912D03*
X102480294Y-20905912D03*
X101830294Y-20905912D03*
X101180294Y-20905912D03*
X100530294Y-20905912D03*
X99880294Y-20905912D03*
X99230294Y-20905912D03*
X98580294Y-20905912D03*
X98580294Y-26630912D03*
X99230294Y-26630912D03*
X99880294Y-26630912D03*
X100530294Y-26630912D03*
X101180294Y-26630912D03*
X101830294Y-26630912D03*
X102480294Y-26630912D03*
X103130294Y-26630912D03*
G04 #@! TD*
D41*
G04 #@! TO.C,R6*
X89306000Y-100133365D03*
X89306000Y-101783365D03*
G04 #@! TD*
D32*
G04 #@! TO.C,C14*
X206414867Y-116926411D03*
X206414867Y-118476411D03*
G04 #@! TD*
D41*
G04 #@! TO.C,R3*
X171058067Y-100112411D03*
X171058067Y-101762411D03*
G04 #@! TD*
G04 #@! TO.C,R21*
X16113733Y-100112411D03*
X16113733Y-101762411D03*
G04 #@! TD*
D29*
G04 #@! TO.C,R12*
X24038533Y-116951611D03*
X24038533Y-115301611D03*
G04 #@! TD*
D28*
G04 #@! TO.C,C2*
X174296267Y-106244741D03*
X175846267Y-106244741D03*
G04 #@! TD*
D42*
G04 #@! TO.C,C24*
X29651933Y-36128012D03*
X29651933Y-38028012D03*
G04 #@! TD*
D35*
G04 #@! TO.C,D1*
X7805480Y-17615272D03*
X6441490Y-16827772D03*
G04 #@! TD*
D57*
G04 #@! TO.C,C10*
X31125133Y-104575611D03*
X31125133Y-98975611D03*
G04 #@! TD*
D46*
G04 #@! TO.C,C21*
X167643229Y-48189440D03*
X169543229Y-48189440D03*
G04 #@! TD*
D58*
G04 #@! TO.C,D5*
X204591667Y-25349912D03*
X204591667Y-23774912D03*
G04 #@! TD*
D29*
G04 #@! TO.C,R12*
X102717200Y-116951611D03*
X102717200Y-115301611D03*
G04 #@! TD*
D27*
G04 #@! TO.C,R8*
X88870189Y-93705485D03*
X90299131Y-94530487D03*
G04 #@! TD*
D55*
G04 #@! TO.C,U3*
X22176627Y-100424011D03*
X22176627Y-101654011D03*
D56*
X24451627Y-98176511D03*
X23801627Y-98176511D03*
X23151627Y-98176511D03*
X22501627Y-98176511D03*
X21851627Y-98176511D03*
X21201627Y-98176511D03*
X20551627Y-98176511D03*
X19901627Y-98176511D03*
X19901627Y-103901511D03*
X20551627Y-103901511D03*
X21201627Y-103901511D03*
X21851627Y-103901511D03*
X22501627Y-103901511D03*
X23151627Y-103901511D03*
X23801627Y-103901511D03*
X24451627Y-103901511D03*
G04 #@! TD*
D39*
G04 #@! TO.C,R13*
X119447046Y-72347454D03*
X119447046Y-71327454D03*
G04 #@! TD*
D54*
G04 #@! TO.C,U12*
X178408867Y-118592711D03*
X176508867Y-118592711D03*
X177458867Y-120467711D03*
G04 #@! TD*
D46*
G04 #@! TO.C,C25*
X108117200Y-117650611D03*
X110017200Y-117650611D03*
G04 #@! TD*
D12*
G04 #@! TO.C,C22*
X173227267Y-41534640D03*
X171327267Y-41534640D03*
G04 #@! TD*
D32*
G04 #@! TO.C,C7*
X167502067Y-110932011D03*
X167502067Y-112482011D03*
G04 #@! TD*
D59*
G04 #@! TO.C,U4*
X117719846Y-72497854D03*
X118419846Y-72497854D03*
X118069846Y-71647854D03*
G04 #@! TD*
D46*
G04 #@! TO.C,C20*
X167643229Y-50221440D03*
X169543229Y-50221440D03*
G04 #@! TD*
D15*
G04 #@! TO.C,C12*
X169760867Y-115432941D03*
X172710867Y-115432941D03*
G04 #@! TD*
D49*
G04 #@! TO.C,U8*
X18495933Y-116266211D03*
X18995933Y-116266211D03*
X19495933Y-116266211D03*
X19995933Y-116266211D03*
X20495933Y-116266211D03*
X20995933Y-116266211D03*
X20995933Y-114666211D03*
X20495933Y-114666211D03*
X19995933Y-114666211D03*
X19495933Y-114666211D03*
X18995933Y-114666211D03*
X18495933Y-114666211D03*
G04 #@! TD*
D42*
G04 #@! TO.C,C11*
X182640467Y-29905012D03*
X182640467Y-31805012D03*
G04 #@! TD*
D13*
G04 #@! TO.C,C13*
X25892733Y-112888411D03*
X25892733Y-111338411D03*
G04 #@! TD*
D40*
G04 #@! TO.C,R20*
X211456267Y-100226211D03*
X209806267Y-100226211D03*
G04 #@! TD*
D19*
G04 #@! TO.C,R19*
X212905067Y-100226211D03*
X214555067Y-100226211D03*
G04 #@! TD*
D13*
G04 #@! TO.C,C31*
X22616133Y-42882212D03*
X22616133Y-41332212D03*
G04 #@! TD*
D32*
G04 #@! TO.C,C30*
X117144400Y-32670812D03*
X117144400Y-34220812D03*
G04 #@! TD*
D10*
G04 #@! TO.C,SW3*
X41945533Y-97024011D03*
X41945533Y-93624011D03*
G04 #@! TD*
D60*
G04 #@! TO.C,D3*
X34122333Y-120698611D03*
X32547333Y-120698611D03*
G04 #@! TD*
D33*
G04 #@! TO.C,U1*
X123865400Y-38651412D03*
X123865400Y-39151412D03*
X123865400Y-39651412D03*
X123865400Y-40151412D03*
D34*
X124390400Y-40676412D03*
X124890400Y-40676412D03*
X125390400Y-40676412D03*
X125890400Y-40676412D03*
D33*
X126415400Y-40151412D03*
X126415400Y-39651412D03*
X126415400Y-39151412D03*
X126415400Y-38651412D03*
D34*
X125890400Y-38126412D03*
X125390400Y-38126412D03*
X124890400Y-38126412D03*
X124390400Y-38126412D03*
G04 #@! TD*
D19*
G04 #@! TO.C,R15*
X108089700Y-43428012D03*
X109739700Y-43428012D03*
G04 #@! TD*
D25*
G04 #@! TO.C,J4*
X47945754Y-61618340D03*
X49945754Y-61618338D03*
X51945754Y-61618339D03*
X53945755Y-61618338D03*
D26*
X45595754Y-67368338D03*
X56295754Y-67368339D03*
G04 #@! TD*
D58*
G04 #@! TO.C,D6*
X124185800Y-102607311D03*
X124185800Y-101032311D03*
G04 #@! TD*
D41*
G04 #@! TO.C,R11*
X101167800Y-115301611D03*
X101167800Y-116951611D03*
G04 #@! TD*
D15*
G04 #@! TO.C,C12*
X12403533Y-38162342D03*
X15353533Y-38162342D03*
G04 #@! TD*
D29*
G04 #@! TO.C,R7*
X12151333Y-101774611D03*
X12151333Y-100124611D03*
G04 #@! TD*
D30*
G04 #@! TO.C,C9*
X179192961Y-105890411D03*
X177642961Y-105890411D03*
G04 #@! TD*
D49*
G04 #@! TO.C,U8*
X97174600Y-38995612D03*
X97674600Y-38995612D03*
X98174600Y-38995612D03*
X98674600Y-38995612D03*
X99174600Y-38995612D03*
X99674600Y-38995612D03*
X99674600Y-37395612D03*
X99174600Y-37395612D03*
X98674600Y-37395612D03*
X98174600Y-37395612D03*
X97674600Y-37395612D03*
X97174600Y-37395612D03*
G04 #@! TD*
D61*
G04 #@! TO.C,R5*
X8662233Y-104722011D03*
X2737233Y-104722011D03*
G04 #@! TD*
D32*
G04 #@! TO.C,C32*
X174410867Y-35210812D03*
X174410867Y-36760812D03*
G04 #@! TD*
D46*
G04 #@! TO.C,C25*
X29438533Y-117650611D03*
X31338533Y-117650611D03*
G04 #@! TD*
D41*
G04 #@! TO.C,R6*
X167984667Y-22862766D03*
X167984667Y-24512766D03*
G04 #@! TD*
D38*
G04 #@! TO.C,SW1*
X150111800Y-96111411D03*
X146711800Y-96111411D03*
G04 #@! TD*
D44*
G04 #@! TO.C,U6*
X226684067Y-26944012D03*
X225414067Y-26944012D03*
X224144067Y-26944012D03*
X222874067Y-26944012D03*
X221604067Y-26944012D03*
X220334067Y-26944012D03*
X219064067Y-26944012D03*
X217794067Y-26944012D03*
X216524067Y-26944012D03*
X215254067Y-26944012D03*
X213984067Y-26944012D03*
X212714067Y-26944012D03*
X211444067Y-26944012D03*
X210174067Y-26944012D03*
X210174067Y-44444012D03*
X211444067Y-44444012D03*
X212714067Y-44444012D03*
X213984067Y-44444012D03*
X215254067Y-44444012D03*
X216524067Y-44444012D03*
X217794067Y-44444012D03*
X219064067Y-44444012D03*
X220334067Y-44444012D03*
X221604067Y-44444012D03*
X222874067Y-44444012D03*
X224144067Y-44444012D03*
X225414067Y-44444012D03*
X226684067Y-44444012D03*
D45*
X222214067Y-32939012D03*
X222214067Y-34189012D03*
X222214067Y-35439012D03*
X220964067Y-32939012D03*
X220964067Y-34189012D03*
X220964067Y-35439012D03*
X219714067Y-32939012D03*
X219714067Y-34189012D03*
X219714067Y-35439012D03*
G04 #@! TD*
D60*
G04 #@! TO.C,D3*
X191479667Y-120698611D03*
X189904667Y-120698611D03*
G04 #@! TD*
D42*
G04 #@! TO.C,C11*
X25283133Y-29905012D03*
X25283133Y-31805012D03*
G04 #@! TD*
G04 #@! TO.C,C23*
X189066667Y-113388411D03*
X189066667Y-115288411D03*
G04 #@! TD*
D35*
G04 #@! TO.C,D1*
X7805480Y-94885871D03*
X6441490Y-94098371D03*
G04 #@! TD*
D22*
G04 #@! TO.C,J7*
X18459933Y-15086812D03*
X16459933Y-15086812D03*
D23*
X20809933Y-9336812D03*
X14109933Y-9336812D03*
G04 #@! TD*
D32*
G04 #@! TO.C,C15*
X43571133Y-116418411D03*
X43571133Y-117968411D03*
G04 #@! TD*
D62*
G04 #@! TO.C,L4*
X106585400Y-32277412D03*
X110685400Y-32277412D03*
G04 #@! TD*
D53*
G04 #@! TO.C,U7*
X174023329Y-122498439D03*
X174023329Y-121548439D03*
X174023329Y-120598439D03*
X171748329Y-120598439D03*
X171748329Y-121548439D03*
X171748329Y-122498439D03*
G04 #@! TD*
D50*
G04 #@! TO.C,R10*
X183529467Y-25078512D03*
X183529467Y-22153512D03*
G04 #@! TD*
D11*
G04 #@! TO.C,C18*
X102183800Y-125063839D03*
X102183800Y-123163839D03*
G04 #@! TD*
D59*
G04 #@! TO.C,U4*
X196398513Y-149768453D03*
X197098513Y-149768453D03*
X196748513Y-148918453D03*
G04 #@! TD*
D32*
G04 #@! TO.C,C15*
X200928467Y-39147812D03*
X200928467Y-40697812D03*
G04 #@! TD*
D11*
G04 #@! TO.C,C27*
X45891509Y-16922512D03*
X45891509Y-15022512D03*
G04 #@! TD*
D32*
G04 #@! TO.C,C30*
X195823067Y-32670812D03*
X195823067Y-34220812D03*
G04 #@! TD*
D14*
G04 #@! TO.C,J5*
X93579939Y-51690526D03*
X93579939Y-56730526D03*
X96119939Y-51690526D03*
X96119939Y-56730526D03*
X98659939Y-51690526D03*
X98659939Y-56730526D03*
X101199939Y-51690526D03*
X101199939Y-56730526D03*
X103739939Y-51690526D03*
X103739939Y-56730526D03*
X106279939Y-51690526D03*
X106279939Y-56730526D03*
X108819939Y-51690526D03*
X108819939Y-56730526D03*
X111359939Y-51690526D03*
X111359939Y-56730526D03*
X113899939Y-51690526D03*
X113899939Y-56730526D03*
X116439939Y-51690526D03*
X116439939Y-56730526D03*
X118979939Y-51690526D03*
X118979939Y-56730526D03*
X121519939Y-51690526D03*
X121519939Y-56730526D03*
X124059939Y-51690526D03*
X124059939Y-56730526D03*
X126599939Y-51690526D03*
X126599939Y-56730526D03*
X129139939Y-51690526D03*
X129139939Y-56730526D03*
X131679939Y-51690526D03*
X131679939Y-56730526D03*
X134219939Y-51690526D03*
X134219939Y-56730526D03*
X136759939Y-51690526D03*
X136759939Y-56730526D03*
X139299939Y-51690526D03*
X139299939Y-56730526D03*
X141839939Y-51690526D03*
X141839939Y-56730526D03*
G04 #@! TD*
D11*
G04 #@! TO.C,C27*
X124570176Y-94193111D03*
X124570176Y-92293111D03*
G04 #@! TD*
D30*
G04 #@! TO.C,C4*
X171858467Y-33826812D03*
X170308467Y-33826812D03*
G04 #@! TD*
D28*
G04 #@! TO.C,C16*
X174296267Y-27426012D03*
X175846267Y-27426012D03*
G04 #@! TD*
D13*
G04 #@! TO.C,C31*
X179973467Y-42882212D03*
X179973467Y-41332212D03*
G04 #@! TD*
D39*
G04 #@! TO.C,R13*
X40768379Y-72347454D03*
X40768379Y-71327454D03*
G04 #@! TD*
D25*
G04 #@! TO.C,J4*
X126624421Y-138888939D03*
X128624421Y-138888937D03*
X130624421Y-138888938D03*
X132624422Y-138888937D03*
D26*
X124274421Y-144638937D03*
X134974421Y-144638938D03*
G04 #@! TD*
D42*
G04 #@! TO.C,C24*
X29651933Y-113398611D03*
X29651933Y-115298611D03*
G04 #@! TD*
D63*
G04 #@! TO.C,DWM1*
X205854443Y-8496712D03*
X205854443Y-9896712D03*
X205854443Y-11296712D03*
X205854443Y-12696712D03*
X205854443Y-14096712D03*
X205854443Y-15496712D03*
X205854443Y-16896712D03*
X205854443Y-18296712D03*
D64*
X207254443Y-20591712D03*
X208654443Y-20591712D03*
X210054443Y-20591712D03*
X211454443Y-20591712D03*
X212854443Y-20591712D03*
X214254443Y-20591712D03*
X215654443Y-20591712D03*
X217054443Y-20591712D03*
D63*
X218454443Y-18295512D03*
X218454443Y-16895512D03*
X218454443Y-15496712D03*
X218454443Y-14096712D03*
X218454443Y-12696712D03*
X218454443Y-11296712D03*
X218454443Y-9896712D03*
X218454443Y-8496712D03*
G04 #@! TD*
D41*
G04 #@! TO.C,R21*
X173471067Y-22841812D03*
X173471067Y-24491812D03*
G04 #@! TD*
D29*
G04 #@! TO.C,R7*
X90830000Y-24504012D03*
X90830000Y-22854012D03*
G04 #@! TD*
D25*
G04 #@! TO.C,J4*
X47945754Y-138888939D03*
X49945754Y-138888937D03*
X51945754Y-138888938D03*
X53945755Y-138888937D03*
D26*
X45595754Y-144638937D03*
X56295754Y-144638938D03*
G04 #@! TD*
D12*
G04 #@! TO.C,C28*
X184554629Y-120684839D03*
X182654629Y-120684839D03*
G04 #@! TD*
D31*
G04 #@! TO.C,C5*
X173877467Y-107868541D03*
X173877467Y-110818541D03*
G04 #@! TD*
D50*
G04 #@! TO.C,R10*
X104850800Y-25078512D03*
X104850800Y-22153512D03*
G04 #@! TD*
D29*
G04 #@! TO.C,R7*
X169508667Y-24504012D03*
X169508667Y-22854012D03*
G04 #@! TD*
D27*
G04 #@! TO.C,R1*
X87771321Y-18358421D03*
X89200263Y-19183423D03*
G04 #@! TD*
D14*
G04 #@! TO.C,J5*
X172258606Y-128961125D03*
X172258606Y-134001125D03*
X174798606Y-128961125D03*
X174798606Y-134001125D03*
X177338606Y-128961125D03*
X177338606Y-134001125D03*
X179878606Y-128961125D03*
X179878606Y-134001125D03*
X182418606Y-128961125D03*
X182418606Y-134001125D03*
X184958606Y-128961125D03*
X184958606Y-134001125D03*
X187498606Y-128961125D03*
X187498606Y-134001125D03*
X190038606Y-128961125D03*
X190038606Y-134001125D03*
X192578606Y-128961125D03*
X192578606Y-134001125D03*
X195118606Y-128961125D03*
X195118606Y-134001125D03*
X197658606Y-128961125D03*
X197658606Y-134001125D03*
X200198606Y-128961125D03*
X200198606Y-134001125D03*
X202738606Y-128961125D03*
X202738606Y-134001125D03*
X205278606Y-128961125D03*
X205278606Y-134001125D03*
X207818606Y-128961125D03*
X207818606Y-134001125D03*
X210358606Y-128961125D03*
X210358606Y-134001125D03*
X212898606Y-128961125D03*
X212898606Y-134001125D03*
X215438606Y-128961125D03*
X215438606Y-134001125D03*
X217978606Y-128961125D03*
X217978606Y-134001125D03*
X220518606Y-128961125D03*
X220518606Y-134001125D03*
G04 #@! TD*
D40*
G04 #@! TO.C,R2*
X9166333Y-100378611D03*
X7516333Y-100378611D03*
G04 #@! TD*
G04 #@! TO.C,R20*
X132777600Y-22955612D03*
X131127600Y-22955612D03*
G04 #@! TD*
D15*
G04 #@! TO.C,C3*
X169760867Y-35781342D03*
X172710867Y-35781342D03*
G04 #@! TD*
D13*
G04 #@! TO.C,C8*
X183529467Y-105522411D03*
X183529467Y-103972411D03*
G04 #@! TD*
D32*
G04 #@! TO.C,C14*
X206414867Y-39655812D03*
X206414867Y-41205812D03*
G04 #@! TD*
D28*
G04 #@! TO.C,C19*
X13788295Y-124037639D03*
X15338295Y-124037639D03*
G04 #@! TD*
D37*
G04 #@! TO.C,FB1*
X114971762Y-148709011D03*
X111821762Y-148709011D03*
G04 #@! TD*
D57*
G04 #@! TO.C,C10*
X109803800Y-27305012D03*
X109803800Y-21705012D03*
G04 #@! TD*
D32*
G04 #@! TO.C,C7*
X10144733Y-110932011D03*
X10144733Y-112482011D03*
G04 #@! TD*
D51*
G04 #@! TO.C,J2*
X35792933Y-151316198D03*
X36592933Y-151316198D03*
D52*
X37742933Y-151316198D03*
X38742933Y-151316198D03*
X39242933Y-151316198D03*
X40242933Y-151316198D03*
D51*
X41392933Y-151316198D03*
X42192933Y-151316198D03*
X42192933Y-151316198D03*
X41392933Y-151316198D03*
D52*
X40742933Y-151316198D03*
X39742933Y-151316198D03*
X38242933Y-151316198D03*
X37242933Y-151316198D03*
D51*
X36592933Y-151316198D03*
X35792933Y-151316198D03*
G04 #@! TD*
D40*
G04 #@! TO.C,R20*
X54098933Y-22955612D03*
X52448933Y-22955612D03*
G04 #@! TD*
D30*
G04 #@! TO.C,C4*
X93179800Y-33826812D03*
X91629800Y-33826812D03*
G04 #@! TD*
D42*
G04 #@! TO.C,C11*
X103961800Y-29905012D03*
X103961800Y-31805012D03*
G04 #@! TD*
D65*
G04 #@! TO.C,U11*
X199939067Y-111449711D03*
X199939067Y-110949711D03*
X199939067Y-110449711D03*
X199939067Y-109949711D03*
D66*
X199176567Y-109687211D03*
X198676567Y-109687211D03*
X198176567Y-109687211D03*
D65*
X197414067Y-109949711D03*
X197414067Y-110449711D03*
X197414067Y-110949711D03*
X197414067Y-111449711D03*
D66*
X198176567Y-111712211D03*
X198676567Y-111712211D03*
X199176567Y-111712211D03*
G04 #@! TD*
D46*
G04 #@! TO.C,C1*
X225403867Y-101496211D03*
X227303867Y-101496211D03*
G04 #@! TD*
D12*
G04 #@! TO.C,C22*
X15869933Y-118805239D03*
X13969933Y-118805239D03*
G04 #@! TD*
D62*
G04 #@! TO.C,L4*
X27906733Y-109548011D03*
X32006733Y-109548011D03*
G04 #@! TD*
D46*
G04 #@! TO.C,C20*
X10285895Y-127492039D03*
X12185895Y-127492039D03*
G04 #@! TD*
D29*
G04 #@! TO.C,R7*
X90830000Y-101774611D03*
X90830000Y-100124611D03*
G04 #@! TD*
D61*
G04 #@! TO.C,R5*
X166019567Y-27451412D03*
X160094567Y-27451412D03*
G04 #@! TD*
D35*
G04 #@! TO.C,D1*
X86484147Y-17615272D03*
X85120157Y-16827772D03*
G04 #@! TD*
D60*
G04 #@! TO.C,D3*
X112801000Y-43428012D03*
X111226000Y-43428012D03*
G04 #@! TD*
D19*
G04 #@! TO.C,R15*
X186768367Y-120698611D03*
X188418367Y-120698611D03*
G04 #@! TD*
D27*
G04 #@! TO.C,R8*
X10191522Y-93705485D03*
X11620464Y-94530487D03*
G04 #@! TD*
D11*
G04 #@! TO.C,C27*
X203248843Y-16922512D03*
X203248843Y-15022512D03*
G04 #@! TD*
D10*
G04 #@! TO.C,SW4*
X115493400Y-97049411D03*
X115493400Y-93649411D03*
G04 #@! TD*
D30*
G04 #@! TO.C,C6*
X9192533Y-31337519D03*
X7642533Y-31337519D03*
G04 #@! TD*
D58*
G04 #@! TO.C,D6*
X124185800Y-25336712D03*
X124185800Y-23761712D03*
G04 #@! TD*
D22*
G04 #@! TO.C,J8*
X185364867Y-15065812D03*
X183364867Y-15065812D03*
D23*
X187714867Y-9315812D03*
X181014867Y-9315812D03*
G04 #@! TD*
D54*
G04 #@! TO.C,U12*
X178408867Y-41322112D03*
X176508867Y-41322112D03*
X177458867Y-43197112D03*
G04 #@! TD*
D13*
G04 #@! TO.C,C26*
X17053533Y-39783412D03*
X17053533Y-38233412D03*
G04 #@! TD*
D22*
G04 #@! TO.C,J8*
X28007533Y-15065812D03*
X26007533Y-15065812D03*
D23*
X30357533Y-9315812D03*
X23657533Y-9315812D03*
G04 #@! TD*
D22*
G04 #@! TO.C,J7*
X97138600Y-92357411D03*
X95138600Y-92357411D03*
D23*
X99488600Y-86607411D03*
X92788600Y-86607411D03*
G04 #@! TD*
D42*
G04 #@! TO.C,C23*
X110388000Y-113388411D03*
X110388000Y-115288411D03*
G04 #@! TD*
D30*
G04 #@! TO.C,C6*
X9192533Y-108608118D03*
X7642533Y-108608118D03*
G04 #@! TD*
D29*
G04 #@! TO.C,R12*
X181395867Y-39681012D03*
X181395867Y-38031012D03*
G04 #@! TD*
D36*
G04 #@! TO.C,L3*
X90520762Y-44266212D03*
X86920762Y-44266212D03*
G04 #@! TD*
D35*
G04 #@! TO.C,D2*
X166248982Y-92984333D03*
X164884992Y-92196833D03*
G04 #@! TD*
D47*
G04 #@! TO.C,L2*
X187161667Y-125216017D03*
D48*
X187161667Y-122676017D03*
G04 #@! TD*
D32*
G04 #@! TO.C,C15*
X43571133Y-39147812D03*
X43571133Y-40697812D03*
G04 #@! TD*
D54*
G04 #@! TO.C,U12*
X99730200Y-41322112D03*
X97830200Y-41322112D03*
X98780200Y-43197112D03*
G04 #@! TD*
D40*
G04 #@! TO.C,R4*
X166371267Y-101953411D03*
X164721267Y-101953411D03*
G04 #@! TD*
D60*
G04 #@! TO.C,D3*
X191479667Y-43428012D03*
X189904667Y-43428012D03*
G04 #@! TD*
D30*
G04 #@! TO.C,C6*
X87871200Y-31337519D03*
X86321200Y-31337519D03*
G04 #@! TD*
D57*
G04 #@! TO.C,C10*
X188482467Y-104575611D03*
X188482467Y-98975611D03*
G04 #@! TD*
D13*
G04 #@! TO.C,C26*
X17053533Y-117054011D03*
X17053533Y-115504011D03*
G04 #@! TD*
D32*
G04 #@! TO.C,C14*
X127736200Y-39655812D03*
X127736200Y-41205812D03*
G04 #@! TD*
D13*
G04 #@! TO.C,C13*
X104571400Y-35617812D03*
X104571400Y-34067812D03*
G04 #@! TD*
D29*
G04 #@! TO.C,R17*
X216371667Y-48024412D03*
X216371667Y-46374412D03*
G04 #@! TD*
D30*
G04 #@! TO.C,C9*
X100514294Y-28619812D03*
X98964294Y-28619812D03*
G04 #@! TD*
D62*
G04 #@! TO.C,L4*
X185264067Y-109548011D03*
X189364067Y-109548011D03*
G04 #@! TD*
D38*
G04 #@! TO.C,SW1*
X150111800Y-18840812D03*
X146711800Y-18840812D03*
G04 #@! TD*
D30*
G04 #@! TO.C,C4*
X14501133Y-33826812D03*
X12951133Y-33826812D03*
G04 #@! TD*
D11*
G04 #@! TO.C,C18*
X180862467Y-47793240D03*
X180862467Y-45893240D03*
G04 #@! TD*
D12*
G04 #@! TO.C,C28*
X184554629Y-43414240D03*
X182654629Y-43414240D03*
G04 #@! TD*
D39*
G04 #@! TO.C,R14*
X37720379Y-72347454D03*
X37720379Y-71327454D03*
G04 #@! TD*
D10*
G04 #@! TO.C,SW3*
X199302867Y-19753412D03*
X199302867Y-16353412D03*
G04 #@! TD*
D15*
G04 #@! TO.C,C12*
X12403533Y-115432941D03*
X15353533Y-115432941D03*
G04 #@! TD*
D32*
G04 #@! TO.C,C30*
X38465733Y-32670812D03*
X38465733Y-34220812D03*
G04 #@! TD*
D54*
G04 #@! TO.C,U12*
X99730200Y-118592711D03*
X97830200Y-118592711D03*
X98780200Y-120467711D03*
G04 #@! TD*
D62*
G04 #@! TO.C,L4*
X27906733Y-32277412D03*
X32006733Y-32277412D03*
G04 #@! TD*
D14*
G04 #@! TO.C,J5*
X93579939Y-128961125D03*
X93579939Y-134001125D03*
X96119939Y-128961125D03*
X96119939Y-134001125D03*
X98659939Y-128961125D03*
X98659939Y-134001125D03*
X101199939Y-128961125D03*
X101199939Y-134001125D03*
X103739939Y-128961125D03*
X103739939Y-134001125D03*
X106279939Y-128961125D03*
X106279939Y-134001125D03*
X108819939Y-128961125D03*
X108819939Y-134001125D03*
X111359939Y-128961125D03*
X111359939Y-134001125D03*
X113899939Y-128961125D03*
X113899939Y-134001125D03*
X116439939Y-128961125D03*
X116439939Y-134001125D03*
X118979939Y-128961125D03*
X118979939Y-134001125D03*
X121519939Y-128961125D03*
X121519939Y-134001125D03*
X124059939Y-128961125D03*
X124059939Y-134001125D03*
X126599939Y-128961125D03*
X126599939Y-134001125D03*
X129139939Y-128961125D03*
X129139939Y-134001125D03*
X131679939Y-128961125D03*
X131679939Y-134001125D03*
X134219939Y-128961125D03*
X134219939Y-134001125D03*
X136759939Y-128961125D03*
X136759939Y-134001125D03*
X139299939Y-128961125D03*
X139299939Y-134001125D03*
X141839939Y-128961125D03*
X141839939Y-134001125D03*
G04 #@! TD*
D63*
G04 #@! TO.C,DWM1*
X127175776Y-8496712D03*
X127175776Y-9896712D03*
X127175776Y-11296712D03*
X127175776Y-12696712D03*
X127175776Y-14096712D03*
X127175776Y-15496712D03*
X127175776Y-16896712D03*
X127175776Y-18296712D03*
D64*
X128575776Y-20591712D03*
X129975776Y-20591712D03*
X131375776Y-20591712D03*
X132775776Y-20591712D03*
X134175776Y-20591712D03*
X135575776Y-20591712D03*
X136975776Y-20591712D03*
X138375776Y-20591712D03*
D63*
X139775776Y-18295512D03*
X139775776Y-16895512D03*
X139775776Y-15496712D03*
X139775776Y-14096712D03*
X139775776Y-12696712D03*
X139775776Y-11296712D03*
X139775776Y-9896712D03*
X139775776Y-8496712D03*
G04 #@! TD*
D12*
G04 #@! TO.C,C22*
X94548600Y-41534640D03*
X92648600Y-41534640D03*
G04 #@! TD*
D13*
G04 #@! TO.C,C8*
X26172133Y-105522411D03*
X26172133Y-103972411D03*
G04 #@! TD*
D58*
G04 #@! TO.C,D5*
X47234333Y-102620511D03*
X47234333Y-101045511D03*
G04 #@! TD*
D29*
G04 #@! TO.C,R17*
X137693000Y-125295011D03*
X137693000Y-123645011D03*
G04 #@! TD*
D57*
G04 #@! TO.C,C10*
X188482467Y-27305012D03*
X188482467Y-21705012D03*
G04 #@! TD*
D50*
G04 #@! TO.C,R10*
X104850800Y-102349111D03*
X104850800Y-99424111D03*
G04 #@! TD*
D13*
G04 #@! TO.C,C31*
X22616133Y-120152811D03*
X22616133Y-118602811D03*
G04 #@! TD*
D67*
G04 #@! TO.C,U9*
X105052962Y-124935611D03*
X105052962Y-125735611D03*
D68*
X104102962Y-124585611D03*
X104102962Y-125085611D03*
X104102962Y-125585611D03*
X104102962Y-126085611D03*
X106002962Y-126085611D03*
X106002962Y-125585611D03*
X106002962Y-125085611D03*
X106002962Y-124585611D03*
G04 #@! TD*
D55*
G04 #@! TO.C,U3*
X100855294Y-100424011D03*
X100855294Y-101654011D03*
D56*
X103130294Y-98176511D03*
X102480294Y-98176511D03*
X101830294Y-98176511D03*
X101180294Y-98176511D03*
X100530294Y-98176511D03*
X99880294Y-98176511D03*
X99230294Y-98176511D03*
X98580294Y-98176511D03*
X98580294Y-103901511D03*
X99230294Y-103901511D03*
X99880294Y-103901511D03*
X100530294Y-103901511D03*
X101180294Y-103901511D03*
X101830294Y-103901511D03*
X102480294Y-103901511D03*
X103130294Y-103901511D03*
G04 #@! TD*
D24*
G04 #@! TO.C,L1*
X20778579Y-107962141D03*
X20778579Y-112062141D03*
G04 #@! TD*
D15*
G04 #@! TO.C,C12*
X169760867Y-38162342D03*
X172710867Y-38162342D03*
G04 #@! TD*
D22*
G04 #@! TO.C,J7*
X18459933Y-92357411D03*
X16459933Y-92357411D03*
D23*
X20809933Y-86607411D03*
X14109933Y-86607411D03*
G04 #@! TD*
D10*
G04 #@! TO.C,SW3*
X120624200Y-19753412D03*
X120624200Y-16353412D03*
G04 #@! TD*
D55*
G04 #@! TO.C,U3*
X22176627Y-23153412D03*
X22176627Y-24383412D03*
D56*
X24451627Y-20905912D03*
X23801627Y-20905912D03*
X23151627Y-20905912D03*
X22501627Y-20905912D03*
X21851627Y-20905912D03*
X21201627Y-20905912D03*
X20551627Y-20905912D03*
X19901627Y-20905912D03*
X19901627Y-26630912D03*
X20551627Y-26630912D03*
X21201627Y-26630912D03*
X21851627Y-26630912D03*
X22501627Y-26630912D03*
X23151627Y-26630912D03*
X23801627Y-26630912D03*
X24451627Y-26630912D03*
G04 #@! TD*
D32*
G04 #@! TO.C,C14*
X127736200Y-116926411D03*
X127736200Y-118476411D03*
G04 #@! TD*
D38*
G04 #@! TO.C,SW1*
X71433133Y-18840812D03*
X68033133Y-18840812D03*
G04 #@! TD*
D43*
G04 #@! TO.C,U5*
X183258867Y-39684512D03*
X184208867Y-39684512D03*
X185158867Y-39684512D03*
X185158867Y-37409512D03*
X184208867Y-37409512D03*
X183258867Y-37409512D03*
G04 #@! TD*
D36*
G04 #@! TO.C,L3*
X169199429Y-121536811D03*
X165599429Y-121536811D03*
G04 #@! TD*
D41*
G04 #@! TO.C,R21*
X16113733Y-22841812D03*
X16113733Y-24491812D03*
G04 #@! TD*
D53*
G04 #@! TO.C,U7*
X95344662Y-122498439D03*
X95344662Y-121548439D03*
X95344662Y-120598439D03*
X93069662Y-120598439D03*
X93069662Y-121548439D03*
X93069662Y-122498439D03*
G04 #@! TD*
D44*
G04 #@! TO.C,U6*
X148005400Y-26944012D03*
X146735400Y-26944012D03*
X145465400Y-26944012D03*
X144195400Y-26944012D03*
X142925400Y-26944012D03*
X141655400Y-26944012D03*
X140385400Y-26944012D03*
X139115400Y-26944012D03*
X137845400Y-26944012D03*
X136575400Y-26944012D03*
X135305400Y-26944012D03*
X134035400Y-26944012D03*
X132765400Y-26944012D03*
X131495400Y-26944012D03*
X131495400Y-44444012D03*
X132765400Y-44444012D03*
X134035400Y-44444012D03*
X135305400Y-44444012D03*
X136575400Y-44444012D03*
X137845400Y-44444012D03*
X139115400Y-44444012D03*
X140385400Y-44444012D03*
X141655400Y-44444012D03*
X142925400Y-44444012D03*
X144195400Y-44444012D03*
X145465400Y-44444012D03*
X146735400Y-44444012D03*
X148005400Y-44444012D03*
D45*
X143535400Y-32939012D03*
X143535400Y-34189012D03*
X143535400Y-35439012D03*
X142285400Y-32939012D03*
X142285400Y-34189012D03*
X142285400Y-35439012D03*
X141035400Y-32939012D03*
X141035400Y-34189012D03*
X141035400Y-35439012D03*
G04 #@! TD*
D40*
G04 #@! TO.C,R2*
X87845000Y-23108012D03*
X86195000Y-23108012D03*
G04 #@! TD*
D12*
G04 #@! TO.C,C22*
X15869933Y-41534640D03*
X13969933Y-41534640D03*
G04 #@! TD*
D65*
G04 #@! TO.C,U11*
X42581733Y-34179112D03*
X42581733Y-33679112D03*
X42581733Y-33179112D03*
X42581733Y-32679112D03*
D66*
X41819233Y-32416612D03*
X41319233Y-32416612D03*
X40819233Y-32416612D03*
D65*
X40056733Y-32679112D03*
X40056733Y-33179112D03*
X40056733Y-33679112D03*
X40056733Y-34179112D03*
D66*
X40819233Y-34441612D03*
X41319233Y-34441612D03*
X41819233Y-34441612D03*
G04 #@! TD*
D30*
G04 #@! TO.C,C4*
X93179800Y-111097411D03*
X91629800Y-111097411D03*
G04 #@! TD*
D12*
G04 #@! TO.C,C28*
X105875962Y-120684839D03*
X103975962Y-120684839D03*
G04 #@! TD*
D59*
G04 #@! TO.C,U4*
X196398513Y-72497854D03*
X197098513Y-72497854D03*
X196748513Y-71647854D03*
G04 #@! TD*
D39*
G04 #@! TO.C,R14*
X37720379Y-149618053D03*
X37720379Y-148598053D03*
G04 #@! TD*
D46*
G04 #@! TO.C,C25*
X108117200Y-40380012D03*
X110017200Y-40380012D03*
G04 #@! TD*
D35*
G04 #@! TO.C,D2*
X8891648Y-92984333D03*
X7527658Y-92196833D03*
G04 #@! TD*
D12*
G04 #@! TO.C,C28*
X105875962Y-43414240D03*
X103975962Y-43414240D03*
G04 #@! TD*
D41*
G04 #@! TO.C,R11*
X179846467Y-115301611D03*
X179846467Y-116951611D03*
G04 #@! TD*
D13*
G04 #@! TO.C,C26*
X95732200Y-39783412D03*
X95732200Y-38233412D03*
G04 #@! TD*
D28*
G04 #@! TO.C,C29*
X120509600Y-30982012D03*
X122059600Y-30982012D03*
G04 #@! TD*
D42*
G04 #@! TO.C,C23*
X110388000Y-36117812D03*
X110388000Y-38017812D03*
G04 #@! TD*
D19*
G04 #@! TO.C,R18*
X142515776Y-11297012D03*
X144165776Y-11297012D03*
G04 #@! TD*
D36*
G04 #@! TO.C,L3*
X90520762Y-121536811D03*
X86920762Y-121536811D03*
G04 #@! TD*
D28*
G04 #@! TO.C,C29*
X199188267Y-30982012D03*
X200738267Y-30982012D03*
G04 #@! TD*
D19*
G04 #@! TO.C,R15*
X29411033Y-120698611D03*
X31061033Y-120698611D03*
G04 #@! TD*
D58*
G04 #@! TO.C,D6*
X202864467Y-102607311D03*
X202864467Y-101032311D03*
G04 #@! TD*
D60*
G04 #@! TO.C,D3*
X112801000Y-120698611D03*
X111226000Y-120698611D03*
G04 #@! TD*
D51*
G04 #@! TO.C,J2*
X114471600Y-151316198D03*
X115271600Y-151316198D03*
D52*
X116421600Y-151316198D03*
X117421600Y-151316198D03*
X117921600Y-151316198D03*
X118921600Y-151316198D03*
D51*
X120071600Y-151316198D03*
X120871600Y-151316198D03*
X120871600Y-151316198D03*
X120071600Y-151316198D03*
D52*
X119421600Y-151316198D03*
X118421600Y-151316198D03*
X116921600Y-151316198D03*
X115921600Y-151316198D03*
D51*
X115271600Y-151316198D03*
X114471600Y-151316198D03*
G04 #@! TD*
D40*
G04 #@! TO.C,R2*
X87845000Y-100378611D03*
X86195000Y-100378611D03*
G04 #@! TD*
D42*
G04 #@! TO.C,C11*
X182640467Y-107175611D03*
X182640467Y-109075611D03*
G04 #@! TD*
D29*
G04 #@! TO.C,R16*
X60589133Y-125308211D03*
X60589133Y-123658211D03*
G04 #@! TD*
D41*
G04 #@! TO.C,R21*
X94792400Y-100112411D03*
X94792400Y-101762411D03*
G04 #@! TD*
G04 #@! TO.C,R11*
X179846467Y-38031012D03*
X179846467Y-39681012D03*
G04 #@! TD*
D13*
G04 #@! TO.C,C13*
X183250067Y-35617812D03*
X183250067Y-34067812D03*
G04 #@! TD*
D50*
G04 #@! TO.C,R9*
X18196533Y-25078512D03*
X18196533Y-22153512D03*
G04 #@! TD*
D16*
G04 #@! TO.C,U2*
X13290179Y-106923441D03*
X11940179Y-106923441D03*
X13290179Y-108273441D03*
X11940179Y-108273441D03*
D17*
X13865179Y-105635941D03*
X13365179Y-105635941D03*
X12865179Y-105635941D03*
X12365179Y-105635941D03*
X11865179Y-105635941D03*
X11365179Y-105635941D03*
D18*
X10652679Y-106348441D03*
X10652679Y-106848441D03*
X10652679Y-107348441D03*
X10652679Y-107848441D03*
X10652679Y-108348441D03*
X10652679Y-108848441D03*
D17*
X11365179Y-109560941D03*
X11865179Y-109560941D03*
X12365179Y-109560941D03*
X12865179Y-109560941D03*
X13365179Y-109560941D03*
X13865179Y-109560941D03*
D18*
X14577679Y-108848441D03*
X14577679Y-108348441D03*
X14577679Y-107848441D03*
X14577679Y-107348441D03*
X14577679Y-106848441D03*
X14577679Y-106348441D03*
G04 #@! TD*
D29*
G04 #@! TO.C,R7*
X12151333Y-24504012D03*
X12151333Y-22854012D03*
G04 #@! TD*
D61*
G04 #@! TO.C,R5*
X8662233Y-27451412D03*
X2737233Y-27451412D03*
G04 #@! TD*
D16*
G04 #@! TO.C,U2*
X91968846Y-29652842D03*
X90618846Y-29652842D03*
X91968846Y-31002842D03*
X90618846Y-31002842D03*
D17*
X92543846Y-28365342D03*
X92043846Y-28365342D03*
X91543846Y-28365342D03*
X91043846Y-28365342D03*
X90543846Y-28365342D03*
X90043846Y-28365342D03*
D18*
X89331346Y-29077842D03*
X89331346Y-29577842D03*
X89331346Y-30077842D03*
X89331346Y-30577842D03*
X89331346Y-31077842D03*
X89331346Y-31577842D03*
D17*
X90043846Y-32290342D03*
X90543846Y-32290342D03*
X91043846Y-32290342D03*
X91543846Y-32290342D03*
X92043846Y-32290342D03*
X92543846Y-32290342D03*
D18*
X93256346Y-31577842D03*
X93256346Y-31077842D03*
X93256346Y-30577842D03*
X93256346Y-30077842D03*
X93256346Y-29577842D03*
X93256346Y-29077842D03*
G04 #@! TD*
D30*
G04 #@! TO.C,C9*
X21835627Y-105890411D03*
X20285627Y-105890411D03*
G04 #@! TD*
D47*
G04 #@! TO.C,L2*
X29804333Y-125216017D03*
D48*
X29804333Y-122676017D03*
G04 #@! TD*
D37*
G04 #@! TO.C,FB1*
X193650429Y-71438412D03*
X190500429Y-71438412D03*
G04 #@! TD*
D50*
G04 #@! TO.C,R9*
X96875200Y-25078512D03*
X96875200Y-22153512D03*
G04 #@! TD*
D11*
G04 #@! TO.C,C18*
X180862467Y-125063839D03*
X180862467Y-123163839D03*
G04 #@! TD*
D58*
G04 #@! TO.C,D6*
X45507133Y-102607311D03*
X45507133Y-101032311D03*
G04 #@! TD*
D29*
G04 #@! TO.C,R16*
X139267800Y-125308211D03*
X139267800Y-123658211D03*
G04 #@! TD*
D40*
G04 #@! TO.C,R20*
X54098933Y-100226211D03*
X52448933Y-100226211D03*
G04 #@! TD*
D65*
G04 #@! TO.C,U11*
X121260400Y-111449711D03*
X121260400Y-110949711D03*
X121260400Y-110449711D03*
X121260400Y-109949711D03*
D66*
X120497900Y-109687211D03*
X119997900Y-109687211D03*
X119497900Y-109687211D03*
D65*
X118735400Y-109949711D03*
X118735400Y-110449711D03*
X118735400Y-110949711D03*
X118735400Y-111449711D03*
D66*
X119497900Y-111712211D03*
X119997900Y-111712211D03*
X120497900Y-111712211D03*
G04 #@! TD*
D61*
G04 #@! TO.C,R5*
X87340900Y-27451412D03*
X81415900Y-27451412D03*
G04 #@! TD*
D67*
G04 #@! TO.C,U9*
X183731629Y-124935611D03*
X183731629Y-125735611D03*
D68*
X182781629Y-124585611D03*
X182781629Y-125085611D03*
X182781629Y-125585611D03*
X182781629Y-126085611D03*
X184681629Y-126085611D03*
X184681629Y-125585611D03*
X184681629Y-125085611D03*
X184681629Y-124585611D03*
G04 #@! TD*
D40*
G04 #@! TO.C,R20*
X211456267Y-22955612D03*
X209806267Y-22955612D03*
G04 #@! TD*
D32*
G04 #@! TO.C,C7*
X167502067Y-33661412D03*
X167502067Y-35211412D03*
G04 #@! TD*
D14*
G04 #@! TO.C,J5*
X14901272Y-128961125D03*
X14901272Y-134001125D03*
X17441272Y-128961125D03*
X17441272Y-134001125D03*
X19981272Y-128961125D03*
X19981272Y-134001125D03*
X22521272Y-128961125D03*
X22521272Y-134001125D03*
X25061272Y-128961125D03*
X25061272Y-134001125D03*
X27601272Y-128961125D03*
X27601272Y-134001125D03*
X30141272Y-128961125D03*
X30141272Y-134001125D03*
X32681272Y-128961125D03*
X32681272Y-134001125D03*
X35221272Y-128961125D03*
X35221272Y-134001125D03*
X37761272Y-128961125D03*
X37761272Y-134001125D03*
X40301272Y-128961125D03*
X40301272Y-134001125D03*
X42841272Y-128961125D03*
X42841272Y-134001125D03*
X45381272Y-128961125D03*
X45381272Y-134001125D03*
X47921272Y-128961125D03*
X47921272Y-134001125D03*
X50461272Y-128961125D03*
X50461272Y-134001125D03*
X53001272Y-128961125D03*
X53001272Y-134001125D03*
X55541272Y-128961125D03*
X55541272Y-134001125D03*
X58081272Y-128961125D03*
X58081272Y-134001125D03*
X60621272Y-128961125D03*
X60621272Y-134001125D03*
X63161272Y-128961125D03*
X63161272Y-134001125D03*
G04 #@! TD*
D32*
G04 #@! TO.C,C32*
X17053533Y-35210812D03*
X17053533Y-36760812D03*
G04 #@! TD*
D29*
G04 #@! TO.C,R12*
X24038533Y-39681012D03*
X24038533Y-38031012D03*
G04 #@! TD*
D38*
G04 #@! TO.C,SW2*
X49414933Y-47187212D03*
X52814933Y-47187212D03*
G04 #@! TD*
D63*
G04 #@! TO.C,DWM1*
X48497109Y-8496712D03*
X48497109Y-9896712D03*
X48497109Y-11296712D03*
X48497109Y-12696712D03*
X48497109Y-14096712D03*
X48497109Y-15496712D03*
X48497109Y-16896712D03*
X48497109Y-18296712D03*
D64*
X49897109Y-20591712D03*
X51297109Y-20591712D03*
X52697109Y-20591712D03*
X54097109Y-20591712D03*
X55497109Y-20591712D03*
X56897109Y-20591712D03*
X58297109Y-20591712D03*
X59697109Y-20591712D03*
D63*
X61097109Y-18295512D03*
X61097109Y-16895512D03*
X61097109Y-15496712D03*
X61097109Y-14096712D03*
X61097109Y-12696712D03*
X61097109Y-11296712D03*
X61097109Y-9896712D03*
X61097109Y-8496712D03*
G04 #@! TD*
D65*
G04 #@! TO.C,U11*
X121260400Y-34179112D03*
X121260400Y-33679112D03*
X121260400Y-33179112D03*
X121260400Y-32679112D03*
D66*
X120497900Y-32416612D03*
X119997900Y-32416612D03*
X119497900Y-32416612D03*
D65*
X118735400Y-32679112D03*
X118735400Y-33179112D03*
X118735400Y-33679112D03*
X118735400Y-34179112D03*
D66*
X119497900Y-34441612D03*
X119997900Y-34441612D03*
X120497900Y-34441612D03*
G04 #@! TD*
D43*
G04 #@! TO.C,U5*
X104580200Y-116955111D03*
X105530200Y-116955111D03*
X106480200Y-116955111D03*
X106480200Y-114680111D03*
X105530200Y-114680111D03*
X104580200Y-114680111D03*
G04 #@! TD*
D10*
G04 #@! TO.C,SW4*
X36814733Y-19778812D03*
X36814733Y-16378812D03*
G04 #@! TD*
D32*
G04 #@! TO.C,C7*
X88823400Y-33661412D03*
X88823400Y-35211412D03*
G04 #@! TD*
D62*
G04 #@! TO.C,L4*
X185264067Y-32277412D03*
X189364067Y-32277412D03*
G04 #@! TD*
D59*
G04 #@! TO.C,U4*
X39041179Y-72497854D03*
X39741179Y-72497854D03*
X39391179Y-71647854D03*
G04 #@! TD*
D19*
G04 #@! TO.C,R18*
X63837109Y-11297012D03*
X65487109Y-11297012D03*
G04 #@! TD*
D58*
G04 #@! TO.C,D5*
X47234333Y-25349912D03*
X47234333Y-23774912D03*
G04 #@! TD*
D13*
G04 #@! TO.C,C31*
X101294800Y-120152811D03*
X101294800Y-118602811D03*
G04 #@! TD*
D40*
G04 #@! TO.C,R4*
X9013933Y-101953411D03*
X7363933Y-101953411D03*
G04 #@! TD*
G04 #@! TO.C,R4*
X87692600Y-101953411D03*
X86042600Y-101953411D03*
G04 #@! TD*
D29*
G04 #@! TO.C,R16*
X139267800Y-48037612D03*
X139267800Y-46387612D03*
G04 #@! TD*
D38*
G04 #@! TO.C,SW2*
X49414933Y-124457811D03*
X52814933Y-124457811D03*
G04 #@! TD*
D15*
G04 #@! TO.C,C3*
X91082200Y-113051941D03*
X94032200Y-113051941D03*
G04 #@! TD*
D28*
G04 #@! TO.C,C16*
X174296267Y-104696611D03*
X175846267Y-104696611D03*
G04 #@! TD*
D32*
G04 #@! TO.C,C14*
X49057533Y-116926411D03*
X49057533Y-118476411D03*
G04 #@! TD*
D41*
G04 #@! TO.C,R6*
X167984667Y-100133365D03*
X167984667Y-101783365D03*
G04 #@! TD*
D31*
G04 #@! TO.C,C5*
X16520133Y-107868541D03*
X16520133Y-110818541D03*
G04 #@! TD*
D16*
G04 #@! TO.C,U2*
X91968846Y-106923441D03*
X90618846Y-106923441D03*
X91968846Y-108273441D03*
X90618846Y-108273441D03*
D17*
X92543846Y-105635941D03*
X92043846Y-105635941D03*
X91543846Y-105635941D03*
X91043846Y-105635941D03*
X90543846Y-105635941D03*
X90043846Y-105635941D03*
D18*
X89331346Y-106348441D03*
X89331346Y-106848441D03*
X89331346Y-107348441D03*
X89331346Y-107848441D03*
X89331346Y-108348441D03*
X89331346Y-108848441D03*
D17*
X90043846Y-109560941D03*
X90543846Y-109560941D03*
X91043846Y-109560941D03*
X91543846Y-109560941D03*
X92043846Y-109560941D03*
X92543846Y-109560941D03*
D18*
X93256346Y-108848441D03*
X93256346Y-108348441D03*
X93256346Y-107848441D03*
X93256346Y-107348441D03*
X93256346Y-106848441D03*
X93256346Y-106348441D03*
G04 #@! TD*
D50*
G04 #@! TO.C,R9*
X175553867Y-102349111D03*
X175553867Y-99424111D03*
G04 #@! TD*
D28*
G04 #@! TO.C,C19*
X171145629Y-46767040D03*
X172695629Y-46767040D03*
G04 #@! TD*
D41*
G04 #@! TO.C,R3*
X13700733Y-100112411D03*
X13700733Y-101762411D03*
G04 #@! TD*
D46*
G04 #@! TO.C,C21*
X88964562Y-125460039D03*
X90864562Y-125460039D03*
G04 #@! TD*
D35*
G04 #@! TO.C,D1*
X86484147Y-94885871D03*
X85120157Y-94098371D03*
G04 #@! TD*
D14*
G04 #@! TO.C,J5*
X14901272Y-51690526D03*
X14901272Y-56730526D03*
X17441272Y-51690526D03*
X17441272Y-56730526D03*
X19981272Y-51690526D03*
X19981272Y-56730526D03*
X22521272Y-51690526D03*
X22521272Y-56730526D03*
X25061272Y-51690526D03*
X25061272Y-56730526D03*
X27601272Y-51690526D03*
X27601272Y-56730526D03*
X30141272Y-51690526D03*
X30141272Y-56730526D03*
X32681272Y-51690526D03*
X32681272Y-56730526D03*
X35221272Y-51690526D03*
X35221272Y-56730526D03*
X37761272Y-51690526D03*
X37761272Y-56730526D03*
X40301272Y-51690526D03*
X40301272Y-56730526D03*
X42841272Y-51690526D03*
X42841272Y-56730526D03*
X45381272Y-51690526D03*
X45381272Y-56730526D03*
X47921272Y-51690526D03*
X47921272Y-56730526D03*
X50461272Y-51690526D03*
X50461272Y-56730526D03*
X53001272Y-51690526D03*
X53001272Y-56730526D03*
X55541272Y-51690526D03*
X55541272Y-56730526D03*
X58081272Y-51690526D03*
X58081272Y-56730526D03*
X60621272Y-51690526D03*
X60621272Y-56730526D03*
X63161272Y-51690526D03*
X63161272Y-56730526D03*
G04 #@! TD*
D53*
G04 #@! TO.C,U7*
X16665995Y-122498439D03*
X16665995Y-121548439D03*
X16665995Y-120598439D03*
X14390995Y-120598439D03*
X14390995Y-121548439D03*
X14390995Y-122498439D03*
G04 #@! TD*
D33*
G04 #@! TO.C,U1*
X202544067Y-38651412D03*
X202544067Y-39151412D03*
X202544067Y-39651412D03*
X202544067Y-40151412D03*
D34*
X203069067Y-40676412D03*
X203569067Y-40676412D03*
X204069067Y-40676412D03*
X204569067Y-40676412D03*
D33*
X205094067Y-40151412D03*
X205094067Y-39651412D03*
X205094067Y-39151412D03*
X205094067Y-38651412D03*
D34*
X204569067Y-38126412D03*
X204069067Y-38126412D03*
X203569067Y-38126412D03*
X203069067Y-38126412D03*
G04 #@! TD*
D37*
G04 #@! TO.C,FB1*
X193650429Y-148709011D03*
X190500429Y-148709011D03*
G04 #@! TD*
D30*
G04 #@! TO.C,C6*
X166549867Y-31337519D03*
X164999867Y-31337519D03*
G04 #@! TD*
D35*
G04 #@! TO.C,D1*
X165162814Y-94885871D03*
X163798824Y-94098371D03*
G04 #@! TD*
D32*
G04 #@! TO.C,C30*
X117144400Y-109941411D03*
X117144400Y-111491411D03*
G04 #@! TD*
D46*
G04 #@! TO.C,C20*
X88964562Y-50221440D03*
X90864562Y-50221440D03*
G04 #@! TD*
D38*
G04 #@! TO.C,SW1*
X228790467Y-96111411D03*
X225390467Y-96111411D03*
G04 #@! TD*
D28*
G04 #@! TO.C,C29*
X41830933Y-108252611D03*
X43380933Y-108252611D03*
G04 #@! TD*
D32*
G04 #@! TO.C,C15*
X122249800Y-39147812D03*
X122249800Y-40697812D03*
G04 #@! TD*
D24*
G04 #@! TO.C,L1*
X99457246Y-107962141D03*
X99457246Y-112062141D03*
G04 #@! TD*
D58*
G04 #@! TO.C,D5*
X125913000Y-102620511D03*
X125913000Y-101045511D03*
G04 #@! TD*
D27*
G04 #@! TO.C,R1*
X9092654Y-95629020D03*
X10521596Y-96454022D03*
G04 #@! TD*
D53*
G04 #@! TO.C,U7*
X16665995Y-45227840D03*
X16665995Y-44277840D03*
X16665995Y-43327840D03*
X14390995Y-43327840D03*
X14390995Y-44277840D03*
X14390995Y-45227840D03*
G04 #@! TD*
D13*
G04 #@! TO.C,C31*
X179973467Y-120152811D03*
X179973467Y-118602811D03*
G04 #@! TD*
D19*
G04 #@! TO.C,R18*
X221194443Y-88567611D03*
X222844443Y-88567611D03*
G04 #@! TD*
D51*
G04 #@! TO.C,J2*
X35792933Y-74045599D03*
X36592933Y-74045599D03*
D52*
X37742933Y-74045599D03*
X38742933Y-74045599D03*
X39242933Y-74045599D03*
X40242933Y-74045599D03*
D51*
X41392933Y-74045599D03*
X42192933Y-74045599D03*
X42192933Y-74045599D03*
X41392933Y-74045599D03*
D52*
X40742933Y-74045599D03*
X39742933Y-74045599D03*
X38242933Y-74045599D03*
X37242933Y-74045599D03*
D51*
X36592933Y-74045599D03*
X35792933Y-74045599D03*
G04 #@! TD*
D46*
G04 #@! TO.C,C21*
X10285895Y-125460039D03*
X12185895Y-125460039D03*
G04 #@! TD*
D37*
G04 #@! TO.C,FB1*
X114971762Y-71438412D03*
X111821762Y-71438412D03*
G04 #@! TD*
D41*
G04 #@! TO.C,R3*
X171058067Y-22841812D03*
X171058067Y-24491812D03*
G04 #@! TD*
D29*
G04 #@! TO.C,R16*
X60589133Y-48037612D03*
X60589133Y-46387612D03*
G04 #@! TD*
D59*
G04 #@! TO.C,U4*
X117719846Y-149768453D03*
X118419846Y-149768453D03*
X118069846Y-148918453D03*
G04 #@! TD*
D12*
G04 #@! TO.C,C22*
X94548600Y-118805239D03*
X92648600Y-118805239D03*
G04 #@! TD*
D29*
G04 #@! TO.C,R12*
X102717200Y-39681012D03*
X102717200Y-38031012D03*
G04 #@! TD*
D50*
G04 #@! TO.C,R9*
X175553867Y-25078512D03*
X175553867Y-22153512D03*
G04 #@! TD*
D13*
G04 #@! TO.C,C26*
X174410867Y-117054011D03*
X174410867Y-115504011D03*
G04 #@! TD*
D43*
G04 #@! TO.C,U5*
X25901533Y-39684512D03*
X26851533Y-39684512D03*
X27801533Y-39684512D03*
X27801533Y-37409512D03*
X26851533Y-37409512D03*
X25901533Y-37409512D03*
G04 #@! TD*
D46*
G04 #@! TO.C,C1*
X225403867Y-24225612D03*
X227303867Y-24225612D03*
G04 #@! TD*
D27*
G04 #@! TO.C,R8*
X88870189Y-16434886D03*
X90299131Y-17259888D03*
G04 #@! TD*
D19*
G04 #@! TO.C,R19*
X212905067Y-22955612D03*
X214555067Y-22955612D03*
G04 #@! TD*
D25*
G04 #@! TO.C,J4*
X205303088Y-138888939D03*
X207303088Y-138888937D03*
X209303088Y-138888938D03*
X211303089Y-138888937D03*
D26*
X202953088Y-144638937D03*
X213653088Y-144638938D03*
G04 #@! TD*
D58*
G04 #@! TO.C,D5*
X125913000Y-25349912D03*
X125913000Y-23774912D03*
G04 #@! TD*
D28*
G04 #@! TO.C,C16*
X16938933Y-27426012D03*
X18488933Y-27426012D03*
G04 #@! TD*
D65*
G04 #@! TO.C,U11*
X42581733Y-111449711D03*
X42581733Y-110949711D03*
X42581733Y-110449711D03*
X42581733Y-109949711D03*
D66*
X41819233Y-109687211D03*
X41319233Y-109687211D03*
X40819233Y-109687211D03*
D65*
X40056733Y-109949711D03*
X40056733Y-110449711D03*
X40056733Y-110949711D03*
X40056733Y-111449711D03*
D66*
X40819233Y-111712211D03*
X41319233Y-111712211D03*
X41819233Y-111712211D03*
G04 #@! TD*
D49*
G04 #@! TO.C,U8*
X175853267Y-38995612D03*
X176353267Y-38995612D03*
X176853267Y-38995612D03*
X177353267Y-38995612D03*
X177853267Y-38995612D03*
X178353267Y-38995612D03*
X178353267Y-37395612D03*
X177853267Y-37395612D03*
X177353267Y-37395612D03*
X176853267Y-37395612D03*
X176353267Y-37395612D03*
X175853267Y-37395612D03*
G04 #@! TD*
D39*
G04 #@! TO.C,R13*
X198125713Y-149618053D03*
X198125713Y-148598053D03*
G04 #@! TD*
D57*
G04 #@! TO.C,C10*
X31125133Y-27305012D03*
X31125133Y-21705012D03*
G04 #@! TD*
D10*
G04 #@! TO.C,SW4*
X194172067Y-97049411D03*
X194172067Y-93649411D03*
G04 #@! TD*
G04 #@! TO.C,SW3*
X199302867Y-97024011D03*
X199302867Y-93624011D03*
G04 #@! TD*
D46*
G04 #@! TO.C,C21*
X167643229Y-125460039D03*
X169543229Y-125460039D03*
G04 #@! TD*
D67*
G04 #@! TO.C,U9*
X105052962Y-47665012D03*
X105052962Y-48465012D03*
D68*
X104102962Y-47315012D03*
X104102962Y-47815012D03*
X104102962Y-48315012D03*
X104102962Y-48815012D03*
X106002962Y-48815012D03*
X106002962Y-48315012D03*
X106002962Y-47815012D03*
X106002962Y-47315012D03*
G04 #@! TD*
D32*
G04 #@! TO.C,C32*
X174410867Y-112481411D03*
X174410867Y-114031411D03*
G04 #@! TD*
D39*
G04 #@! TO.C,R13*
X119447046Y-149618053D03*
X119447046Y-148598053D03*
G04 #@! TD*
D30*
G04 #@! TO.C,C9*
X21835627Y-28619812D03*
X20285627Y-28619812D03*
G04 #@! TD*
D40*
G04 #@! TO.C,R2*
X9166333Y-23108012D03*
X7516333Y-23108012D03*
G04 #@! TD*
D41*
G04 #@! TO.C,R6*
X89306000Y-22862766D03*
X89306000Y-24512766D03*
G04 #@! TD*
D38*
G04 #@! TO.C,SW1*
X71433133Y-96111411D03*
X68033133Y-96111411D03*
G04 #@! TD*
D22*
G04 #@! TO.C,J7*
X97138600Y-15086812D03*
X95138600Y-15086812D03*
D23*
X99488600Y-9336812D03*
X92788600Y-9336812D03*
G04 #@! TD*
D43*
G04 #@! TO.C,U5*
X183258867Y-116955111D03*
X184208867Y-116955111D03*
X185158867Y-116955111D03*
X185158867Y-114680111D03*
X184208867Y-114680111D03*
X183258867Y-114680111D03*
G04 #@! TD*
D41*
G04 #@! TO.C,R6*
X10627333Y-100133365D03*
X10627333Y-101783365D03*
G04 #@! TD*
D49*
G04 #@! TO.C,U8*
X175853267Y-116266211D03*
X176353267Y-116266211D03*
X176853267Y-116266211D03*
X177353267Y-116266211D03*
X177853267Y-116266211D03*
X178353267Y-116266211D03*
X178353267Y-114666211D03*
X177853267Y-114666211D03*
X177353267Y-114666211D03*
X176853267Y-114666211D03*
X176353267Y-114666211D03*
X175853267Y-114666211D03*
G04 #@! TD*
D40*
G04 #@! TO.C,R2*
X166523667Y-23108012D03*
X164873667Y-23108012D03*
G04 #@! TD*
D24*
G04 #@! TO.C,L1*
X178135913Y-107962141D03*
X178135913Y-112062141D03*
G04 #@! TD*
D27*
G04 #@! TO.C,R8*
X167548856Y-93705485D03*
X168977798Y-94530487D03*
G04 #@! TD*
D44*
G04 #@! TO.C,U6*
X69326733Y-26944012D03*
X68056733Y-26944012D03*
X66786733Y-26944012D03*
X65516733Y-26944012D03*
X64246733Y-26944012D03*
X62976733Y-26944012D03*
X61706733Y-26944012D03*
X60436733Y-26944012D03*
X59166733Y-26944012D03*
X57896733Y-26944012D03*
X56626733Y-26944012D03*
X55356733Y-26944012D03*
X54086733Y-26944012D03*
X52816733Y-26944012D03*
X52816733Y-44444012D03*
X54086733Y-44444012D03*
X55356733Y-44444012D03*
X56626733Y-44444012D03*
X57896733Y-44444012D03*
X59166733Y-44444012D03*
X60436733Y-44444012D03*
X61706733Y-44444012D03*
X62976733Y-44444012D03*
X64246733Y-44444012D03*
X65516733Y-44444012D03*
X66786733Y-44444012D03*
X68056733Y-44444012D03*
X69326733Y-44444012D03*
D45*
X64856733Y-32939012D03*
X64856733Y-34189012D03*
X64856733Y-35439012D03*
X63606733Y-32939012D03*
X63606733Y-34189012D03*
X63606733Y-35439012D03*
X62356733Y-32939012D03*
X62356733Y-34189012D03*
X62356733Y-35439012D03*
G04 #@! TD*
D62*
G04 #@! TO.C,L4*
X106585400Y-109548011D03*
X110685400Y-109548011D03*
G04 #@! TD*
D57*
G04 #@! TO.C,C10*
X109803800Y-104575611D03*
X109803800Y-98975611D03*
G04 #@! TD*
D41*
G04 #@! TO.C,R11*
X22489133Y-38031012D03*
X22489133Y-39681012D03*
G04 #@! TD*
D28*
G04 #@! TO.C,C29*
X41830933Y-30982012D03*
X43380933Y-30982012D03*
G04 #@! TD*
D50*
G04 #@! TO.C,R10*
X26172133Y-25078512D03*
X26172133Y-22153512D03*
G04 #@! TD*
D19*
G04 #@! TO.C,R19*
X55547733Y-100226211D03*
X57197733Y-100226211D03*
G04 #@! TD*
D58*
G04 #@! TO.C,D5*
X204591667Y-102620511D03*
X204591667Y-101045511D03*
G04 #@! TD*
D63*
G04 #@! TO.C,DWM1*
X205854443Y-85767311D03*
X205854443Y-87167311D03*
X205854443Y-88567311D03*
X205854443Y-89967311D03*
X205854443Y-91367311D03*
X205854443Y-92767311D03*
X205854443Y-94167311D03*
X205854443Y-95567311D03*
D64*
X207254443Y-97862311D03*
X208654443Y-97862311D03*
X210054443Y-97862311D03*
X211454443Y-97862311D03*
X212854443Y-97862311D03*
X214254443Y-97862311D03*
X215654443Y-97862311D03*
X217054443Y-97862311D03*
D63*
X218454443Y-95566111D03*
X218454443Y-94166111D03*
X218454443Y-92767311D03*
X218454443Y-91367311D03*
X218454443Y-89967311D03*
X218454443Y-88567311D03*
X218454443Y-87167311D03*
X218454443Y-85767311D03*
G04 #@! TD*
D28*
G04 #@! TO.C,C2*
X16938933Y-28974142D03*
X18488933Y-28974142D03*
G04 #@! TD*
D61*
G04 #@! TO.C,R5*
X87340900Y-104722011D03*
X81415900Y-104722011D03*
G04 #@! TD*
D28*
G04 #@! TO.C,C16*
X95617600Y-27426012D03*
X97167600Y-27426012D03*
G04 #@! TD*
D27*
G04 #@! TO.C,R1*
X166449988Y-18358421D03*
X167878930Y-19183423D03*
G04 #@! TD*
D39*
G04 #@! TO.C,R13*
X40768379Y-149618053D03*
X40768379Y-148598053D03*
G04 #@! TD*
D67*
G04 #@! TO.C,U9*
X26374295Y-124935611D03*
X26374295Y-125735611D03*
D68*
X25424295Y-124585611D03*
X25424295Y-125085611D03*
X25424295Y-125585611D03*
X25424295Y-126085611D03*
X27324295Y-126085611D03*
X27324295Y-125585611D03*
X27324295Y-125085611D03*
X27324295Y-124585611D03*
G04 #@! TD*
D19*
G04 #@! TO.C,R19*
X134226400Y-22955612D03*
X135876400Y-22955612D03*
G04 #@! TD*
D28*
G04 #@! TO.C,C2*
X174296267Y-28974142D03*
X175846267Y-28974142D03*
G04 #@! TD*
D46*
G04 #@! TO.C,C25*
X29438533Y-40380012D03*
X31338533Y-40380012D03*
G04 #@! TD*
D63*
G04 #@! TO.C,DWM1*
X127175776Y-85767311D03*
X127175776Y-87167311D03*
X127175776Y-88567311D03*
X127175776Y-89967311D03*
X127175776Y-91367311D03*
X127175776Y-92767311D03*
X127175776Y-94167311D03*
X127175776Y-95567311D03*
D64*
X128575776Y-97862311D03*
X129975776Y-97862311D03*
X131375776Y-97862311D03*
X132775776Y-97862311D03*
X134175776Y-97862311D03*
X135575776Y-97862311D03*
X136975776Y-97862311D03*
X138375776Y-97862311D03*
D63*
X139775776Y-95566111D03*
X139775776Y-94166111D03*
X139775776Y-92767311D03*
X139775776Y-91367311D03*
X139775776Y-89967311D03*
X139775776Y-88567311D03*
X139775776Y-87167311D03*
X139775776Y-85767311D03*
G04 #@! TD*
D38*
G04 #@! TO.C,SW1*
X228790467Y-18840812D03*
X225390467Y-18840812D03*
G04 #@! TD*
D16*
G04 #@! TO.C,U2*
X170647513Y-106923441D03*
X169297513Y-106923441D03*
X170647513Y-108273441D03*
X169297513Y-108273441D03*
D17*
X171222513Y-105635941D03*
X170722513Y-105635941D03*
X170222513Y-105635941D03*
X169722513Y-105635941D03*
X169222513Y-105635941D03*
X168722513Y-105635941D03*
D18*
X168010013Y-106348441D03*
X168010013Y-106848441D03*
X168010013Y-107348441D03*
X168010013Y-107848441D03*
X168010013Y-108348441D03*
X168010013Y-108848441D03*
D17*
X168722513Y-109560941D03*
X169222513Y-109560941D03*
X169722513Y-109560941D03*
X170222513Y-109560941D03*
X170722513Y-109560941D03*
X171222513Y-109560941D03*
D18*
X171935013Y-108848441D03*
X171935013Y-108348441D03*
X171935013Y-107848441D03*
X171935013Y-107348441D03*
X171935013Y-106848441D03*
X171935013Y-106348441D03*
G04 #@! TD*
D13*
G04 #@! TO.C,C13*
X104571400Y-112888411D03*
X104571400Y-111338411D03*
G04 #@! TD*
D30*
G04 #@! TO.C,C4*
X14501133Y-111097411D03*
X12951133Y-111097411D03*
G04 #@! TD*
D28*
G04 #@! TO.C,C29*
X120509600Y-108252611D03*
X122059600Y-108252611D03*
G04 #@! TD*
D46*
G04 #@! TO.C,C20*
X10285895Y-50221440D03*
X12185895Y-50221440D03*
G04 #@! TD*
D42*
G04 #@! TO.C,C11*
X25283133Y-107175611D03*
X25283133Y-109075611D03*
G04 #@! TD*
D24*
G04 #@! TO.C,L1*
X99457246Y-30691542D03*
X99457246Y-34791542D03*
G04 #@! TD*
D32*
G04 #@! TO.C,C32*
X95732200Y-35210812D03*
X95732200Y-36760812D03*
G04 #@! TD*
D46*
G04 #@! TO.C,C1*
X68046533Y-101496211D03*
X69946533Y-101496211D03*
G04 #@! TD*
D13*
G04 #@! TO.C,C8*
X26172133Y-28251812D03*
X26172133Y-26701812D03*
G04 #@! TD*
D41*
G04 #@! TO.C,R6*
X10627333Y-22862766D03*
X10627333Y-24512766D03*
G04 #@! TD*
D55*
G04 #@! TO.C,U3*
X179533961Y-100424011D03*
X179533961Y-101654011D03*
D56*
X181808961Y-98176511D03*
X181158961Y-98176511D03*
X180508961Y-98176511D03*
X179858961Y-98176511D03*
X179208961Y-98176511D03*
X178558961Y-98176511D03*
X177908961Y-98176511D03*
X177258961Y-98176511D03*
X177258961Y-103901511D03*
X177908961Y-103901511D03*
X178558961Y-103901511D03*
X179208961Y-103901511D03*
X179858961Y-103901511D03*
X180508961Y-103901511D03*
X181158961Y-103901511D03*
X181808961Y-103901511D03*
G04 #@! TD*
D50*
G04 #@! TO.C,R9*
X18196533Y-102349111D03*
X18196533Y-99424111D03*
G04 #@! TD*
D20*
G04 #@! TO.C,J9*
X84784800Y-39163612D03*
X84784800Y-37163612D03*
X84784800Y-35163612D03*
X84784800Y-33163612D03*
D21*
X82534800Y-41563612D03*
X82534800Y-30763612D03*
G04 #@! TD*
D61*
G04 #@! TO.C,R5*
X166019567Y-104722011D03*
X160094567Y-104722011D03*
G04 #@! TD*
D37*
G04 #@! TO.C,FB1*
X36293095Y-148709011D03*
X33143095Y-148709011D03*
G04 #@! TD*
D42*
G04 #@! TO.C,C24*
X108330600Y-36128012D03*
X108330600Y-38028012D03*
G04 #@! TD*
D25*
G04 #@! TO.C,J4*
X205303088Y-61618340D03*
X207303088Y-61618338D03*
X209303088Y-61618339D03*
X211303089Y-61618338D03*
D26*
X202953088Y-67368338D03*
X213653088Y-67368339D03*
G04 #@! TD*
D15*
G04 #@! TO.C,C3*
X91082200Y-35781342D03*
X94032200Y-35781342D03*
G04 #@! TD*
D67*
G04 #@! TO.C,U9*
X183731629Y-47665012D03*
X183731629Y-48465012D03*
D68*
X182781629Y-47315012D03*
X182781629Y-47815012D03*
X182781629Y-48315012D03*
X182781629Y-48815012D03*
X184681629Y-48815012D03*
X184681629Y-48315012D03*
X184681629Y-47815012D03*
X184681629Y-47315012D03*
G04 #@! TD*
D31*
G04 #@! TO.C,C5*
X95198800Y-107868541D03*
X95198800Y-110818541D03*
G04 #@! TD*
D38*
G04 #@! TO.C,SW2*
X206772267Y-47187212D03*
X210172267Y-47187212D03*
G04 #@! TD*
D42*
G04 #@! TO.C,C24*
X187009267Y-36128012D03*
X187009267Y-38028012D03*
G04 #@! TD*
D28*
G04 #@! TO.C,C2*
X16938933Y-106244741D03*
X18488933Y-106244741D03*
G04 #@! TD*
D58*
G04 #@! TO.C,D6*
X45507133Y-25336712D03*
X45507133Y-23761712D03*
G04 #@! TD*
D13*
G04 #@! TO.C,C13*
X25892733Y-35617812D03*
X25892733Y-34067812D03*
G04 #@! TD*
G04 #@! TO.C,C8*
X183529467Y-28251812D03*
X183529467Y-26701812D03*
G04 #@! TD*
D28*
G04 #@! TO.C,C19*
X171145629Y-124037639D03*
X172695629Y-124037639D03*
G04 #@! TD*
D27*
G04 #@! TO.C,R1*
X166449988Y-95629020D03*
X167878930Y-96454022D03*
G04 #@! TD*
D46*
G04 #@! TO.C,C21*
X88964562Y-48189440D03*
X90864562Y-48189440D03*
G04 #@! TD*
D47*
G04 #@! TO.C,L2*
X108483000Y-47945418D03*
D48*
X108483000Y-45405418D03*
G04 #@! TD*
D28*
G04 #@! TO.C,C19*
X13788295Y-46767040D03*
X15338295Y-46767040D03*
G04 #@! TD*
D51*
G04 #@! TO.C,J2*
X193150267Y-74045599D03*
X193950267Y-74045599D03*
D52*
X195100267Y-74045599D03*
X196100267Y-74045599D03*
X196600267Y-74045599D03*
X197600267Y-74045599D03*
D51*
X198750267Y-74045599D03*
X199550267Y-74045599D03*
X199550267Y-74045599D03*
X198750267Y-74045599D03*
D52*
X198100267Y-74045599D03*
X197100267Y-74045599D03*
X195600267Y-74045599D03*
X194600267Y-74045599D03*
D51*
X193950267Y-74045599D03*
X193150267Y-74045599D03*
G04 #@! TD*
D28*
G04 #@! TO.C,C2*
X95617600Y-28974142D03*
X97167600Y-28974142D03*
G04 #@! TD*
D60*
G04 #@! TO.C,D3*
X34122333Y-43428012D03*
X32547333Y-43428012D03*
G04 #@! TD*
D35*
G04 #@! TO.C,D2*
X166248982Y-15713734D03*
X164884992Y-14926234D03*
G04 #@! TD*
D20*
G04 #@! TO.C,J9*
X84784800Y-116434211D03*
X84784800Y-114434211D03*
X84784800Y-112434211D03*
X84784800Y-110434211D03*
D21*
X82534800Y-118834211D03*
X82534800Y-108034211D03*
G04 #@! TD*
D13*
G04 #@! TO.C,C8*
X104850800Y-105522411D03*
X104850800Y-103972411D03*
G04 #@! TD*
D55*
G04 #@! TO.C,U3*
X179533961Y-23153412D03*
X179533961Y-24383412D03*
D56*
X181808961Y-20905912D03*
X181158961Y-20905912D03*
X180508961Y-20905912D03*
X179858961Y-20905912D03*
X179208961Y-20905912D03*
X178558961Y-20905912D03*
X177908961Y-20905912D03*
X177258961Y-20905912D03*
X177258961Y-26630912D03*
X177908961Y-26630912D03*
X178558961Y-26630912D03*
X179208961Y-26630912D03*
X179858961Y-26630912D03*
X180508961Y-26630912D03*
X181158961Y-26630912D03*
X181808961Y-26630912D03*
G04 #@! TD*
D51*
G04 #@! TO.C,J2*
X114471600Y-74045599D03*
X115271600Y-74045599D03*
D52*
X116421600Y-74045599D03*
X117421600Y-74045599D03*
X117921600Y-74045599D03*
X118921600Y-74045599D03*
D51*
X120071600Y-74045599D03*
X120871600Y-74045599D03*
X120871600Y-74045599D03*
X120071600Y-74045599D03*
D52*
X119421600Y-74045599D03*
X118421600Y-74045599D03*
X116921600Y-74045599D03*
X115921600Y-74045599D03*
D51*
X115271600Y-74045599D03*
X114471600Y-74045599D03*
G04 #@! TD*
D10*
G04 #@! TO.C,SW3*
X41945533Y-19753412D03*
X41945533Y-16353412D03*
G04 #@! TD*
D40*
G04 #@! TO.C,R4*
X87692600Y-24682812D03*
X86042600Y-24682812D03*
G04 #@! TD*
D39*
G04 #@! TO.C,R14*
X195077713Y-149618053D03*
X195077713Y-148598053D03*
G04 #@! TD*
D46*
G04 #@! TO.C,C25*
X186795867Y-117650611D03*
X188695867Y-117650611D03*
G04 #@! TD*
D30*
G04 #@! TO.C,C6*
X166549867Y-108608118D03*
X164999867Y-108608118D03*
G04 #@! TD*
D29*
G04 #@! TO.C,R17*
X59014333Y-48024412D03*
X59014333Y-46374412D03*
G04 #@! TD*
D31*
G04 #@! TO.C,C5*
X95198800Y-30597942D03*
X95198800Y-33547942D03*
G04 #@! TD*
D47*
G04 #@! TO.C,L2*
X187161667Y-47945418D03*
D48*
X187161667Y-45405418D03*
G04 #@! TD*
D19*
G04 #@! TO.C,R19*
X55547733Y-22955612D03*
X57197733Y-22955612D03*
G04 #@! TD*
D32*
G04 #@! TO.C,C15*
X200928467Y-116418411D03*
X200928467Y-117968411D03*
G04 #@! TD*
D12*
G04 #@! TO.C,C17*
X184554629Y-45471640D03*
X182654629Y-45471640D03*
G04 #@! TD*
D40*
G04 #@! TO.C,R4*
X166371267Y-24682812D03*
X164721267Y-24682812D03*
G04 #@! TD*
D22*
G04 #@! TO.C,J8*
X106686200Y-15065812D03*
X104686200Y-15065812D03*
D23*
X109036200Y-9315812D03*
X102336200Y-9315812D03*
G04 #@! TD*
D28*
G04 #@! TO.C,C19*
X92466962Y-124037639D03*
X94016962Y-124037639D03*
G04 #@! TD*
D32*
G04 #@! TO.C,C32*
X17053533Y-112481411D03*
X17053533Y-114031411D03*
G04 #@! TD*
D29*
G04 #@! TO.C,R16*
X217946467Y-48037612D03*
X217946467Y-46387612D03*
G04 #@! TD*
D22*
G04 #@! TO.C,J8*
X28007533Y-92336411D03*
X26007533Y-92336411D03*
D23*
X30357533Y-86586411D03*
X23657533Y-86586411D03*
G04 #@! TD*
D13*
G04 #@! TO.C,C26*
X95732200Y-117054011D03*
X95732200Y-115504011D03*
G04 #@! TD*
D46*
G04 #@! TO.C,C20*
X88964562Y-127492039D03*
X90864562Y-127492039D03*
G04 #@! TD*
G04 #@! TO.C,C1*
X146725200Y-101496211D03*
X148625200Y-101496211D03*
G04 #@! TD*
D38*
G04 #@! TO.C,SW2*
X128093600Y-124457811D03*
X131493600Y-124457811D03*
G04 #@! TD*
D36*
G04 #@! TO.C,L3*
X11842095Y-121536811D03*
X8242095Y-121536811D03*
G04 #@! TD*
D33*
G04 #@! TO.C,U1*
X45186733Y-38651412D03*
X45186733Y-39151412D03*
X45186733Y-39651412D03*
X45186733Y-40151412D03*
D34*
X45711733Y-40676412D03*
X46211733Y-40676412D03*
X46711733Y-40676412D03*
X47211733Y-40676412D03*
D33*
X47736733Y-40151412D03*
X47736733Y-39651412D03*
X47736733Y-39151412D03*
X47736733Y-38651412D03*
D34*
X47211733Y-38126412D03*
X46711733Y-38126412D03*
X46211733Y-38126412D03*
X45711733Y-38126412D03*
G04 #@! TD*
D29*
G04 #@! TO.C,R16*
X217946467Y-125308211D03*
X217946467Y-123658211D03*
G04 #@! TD*
D27*
G04 #@! TO.C,R1*
X87771321Y-95629020D03*
X89200263Y-96454022D03*
G04 #@! TD*
D41*
G04 #@! TO.C,R3*
X92379400Y-22841812D03*
X92379400Y-24491812D03*
G04 #@! TD*
D12*
G04 #@! TO.C,C17*
X105875962Y-45471640D03*
X103975962Y-45471640D03*
G04 #@! TD*
D15*
G04 #@! TO.C,C12*
X91082200Y-38162342D03*
X94032200Y-38162342D03*
G04 #@! TD*
D29*
G04 #@! TO.C,R17*
X216371667Y-125295011D03*
X216371667Y-123645011D03*
G04 #@! TD*
G04 #@! TO.C,R7*
X169508667Y-101774611D03*
X169508667Y-100124611D03*
G04 #@! TD*
D42*
G04 #@! TO.C,C23*
X189066667Y-36117812D03*
X189066667Y-38017812D03*
G04 #@! TD*
D67*
G04 #@! TO.C,U9*
X26374295Y-47665012D03*
X26374295Y-48465012D03*
D68*
X25424295Y-47315012D03*
X25424295Y-47815012D03*
X25424295Y-48315012D03*
X25424295Y-48815012D03*
X27324295Y-48815012D03*
X27324295Y-48315012D03*
X27324295Y-47815012D03*
X27324295Y-47315012D03*
G04 #@! TD*
D29*
G04 #@! TO.C,R17*
X137693000Y-48024412D03*
X137693000Y-46374412D03*
G04 #@! TD*
D46*
G04 #@! TO.C,C25*
X186795867Y-40380012D03*
X188695867Y-40380012D03*
G04 #@! TD*
D50*
G04 #@! TO.C,R9*
X96875200Y-102349111D03*
X96875200Y-99424111D03*
G04 #@! TD*
D41*
G04 #@! TO.C,R21*
X173471067Y-100112411D03*
X173471067Y-101762411D03*
G04 #@! TD*
D28*
G04 #@! TO.C,C19*
X92466962Y-46767040D03*
X94016962Y-46767040D03*
G04 #@! TD*
D10*
G04 #@! TO.C,SW4*
X194172067Y-19778812D03*
X194172067Y-16378812D03*
G04 #@! TD*
D32*
G04 #@! TO.C,C7*
X10144733Y-33661412D03*
X10144733Y-35211412D03*
G04 #@! TD*
D39*
G04 #@! TO.C,R14*
X116399046Y-149618053D03*
X116399046Y-148598053D03*
G04 #@! TD*
D49*
G04 #@! TO.C,U8*
X97174600Y-116266211D03*
X97674600Y-116266211D03*
X98174600Y-116266211D03*
X98674600Y-116266211D03*
X99174600Y-116266211D03*
X99674600Y-116266211D03*
X99674600Y-114666211D03*
X99174600Y-114666211D03*
X98674600Y-114666211D03*
X98174600Y-114666211D03*
X97674600Y-114666211D03*
X97174600Y-114666211D03*
G04 #@! TD*
D31*
G04 #@! TO.C,C5*
X16520133Y-30597942D03*
X16520133Y-33547942D03*
G04 #@! TD*
D65*
G04 #@! TO.C,U11*
X199939067Y-34179112D03*
X199939067Y-33679112D03*
X199939067Y-33179112D03*
X199939067Y-32679112D03*
D66*
X199176567Y-32416612D03*
X198676567Y-32416612D03*
X198176567Y-32416612D03*
D65*
X197414067Y-32679112D03*
X197414067Y-33179112D03*
X197414067Y-33679112D03*
X197414067Y-34179112D03*
D66*
X198176567Y-34441612D03*
X198676567Y-34441612D03*
X199176567Y-34441612D03*
G04 #@! TD*
D12*
G04 #@! TO.C,C28*
X27197295Y-43414240D03*
X25297295Y-43414240D03*
G04 #@! TD*
D42*
G04 #@! TO.C,C24*
X108330600Y-113398611D03*
X108330600Y-115298611D03*
G04 #@! TD*
D20*
G04 #@! TO.C,J9*
X6106133Y-39163612D03*
X6106133Y-37163612D03*
X6106133Y-35163612D03*
X6106133Y-33163612D03*
D21*
X3856133Y-41563612D03*
X3856133Y-30763612D03*
G04 #@! TD*
D46*
G04 #@! TO.C,C1*
X68046533Y-24225612D03*
X69946533Y-24225612D03*
G04 #@! TD*
D38*
G04 #@! TO.C,SW2*
X128093600Y-47187212D03*
X131493600Y-47187212D03*
G04 #@! TD*
D20*
G04 #@! TO.C,J9*
X163463467Y-116434211D03*
X163463467Y-114434211D03*
X163463467Y-112434211D03*
X163463467Y-110434211D03*
D21*
X161213467Y-118834211D03*
X161213467Y-108034211D03*
G04 #@! TD*
D10*
G04 #@! TO.C,SW3*
X120624200Y-97024011D03*
X120624200Y-93624011D03*
G04 #@! TD*
D54*
G04 #@! TO.C,U12*
X21051533Y-41322112D03*
X19151533Y-41322112D03*
X20101533Y-43197112D03*
G04 #@! TD*
D58*
G04 #@! TO.C,D6*
X202864467Y-25336712D03*
X202864467Y-23761712D03*
G04 #@! TD*
D32*
G04 #@! TO.C,C14*
X49057533Y-39655812D03*
X49057533Y-41205812D03*
G04 #@! TD*
D53*
G04 #@! TO.C,U7*
X174023329Y-45227840D03*
X174023329Y-44277840D03*
X174023329Y-43327840D03*
X171748329Y-43327840D03*
X171748329Y-44277840D03*
X171748329Y-45227840D03*
G04 #@! TD*
D33*
G04 #@! TO.C,U1*
X123865400Y-115922011D03*
X123865400Y-116422011D03*
X123865400Y-116922011D03*
X123865400Y-117422011D03*
D34*
X124390400Y-117947011D03*
X124890400Y-117947011D03*
X125390400Y-117947011D03*
X125890400Y-117947011D03*
D33*
X126415400Y-117422011D03*
X126415400Y-116922011D03*
X126415400Y-116422011D03*
X126415400Y-115922011D03*
D34*
X125890400Y-115397011D03*
X125390400Y-115397011D03*
X124890400Y-115397011D03*
X124390400Y-115397011D03*
G04 #@! TD*
D10*
G04 #@! TO.C,SW4*
X36814733Y-97049411D03*
X36814733Y-93649411D03*
G04 #@! TD*
D12*
G04 #@! TO.C,C17*
X27197295Y-122742239D03*
X25297295Y-122742239D03*
G04 #@! TD*
D63*
G04 #@! TO.C,DWM1*
X48497109Y-85767311D03*
X48497109Y-87167311D03*
X48497109Y-88567311D03*
X48497109Y-89967311D03*
X48497109Y-91367311D03*
X48497109Y-92767311D03*
X48497109Y-94167311D03*
X48497109Y-95567311D03*
D64*
X49897109Y-97862311D03*
X51297109Y-97862311D03*
X52697109Y-97862311D03*
X54097109Y-97862311D03*
X55497109Y-97862311D03*
X56897109Y-97862311D03*
X58297109Y-97862311D03*
X59697109Y-97862311D03*
D63*
X61097109Y-95566111D03*
X61097109Y-94166111D03*
X61097109Y-92767311D03*
X61097109Y-91367311D03*
X61097109Y-89967311D03*
X61097109Y-88567311D03*
X61097109Y-87167311D03*
X61097109Y-85767311D03*
G04 #@! TD*
D41*
G04 #@! TO.C,R21*
X94792400Y-22841812D03*
X94792400Y-24491812D03*
G04 #@! TD*
D29*
G04 #@! TO.C,R12*
X181395867Y-116951611D03*
X181395867Y-115301611D03*
G04 #@! TD*
D30*
G04 #@! TO.C,C9*
X100514294Y-105890411D03*
X98964294Y-105890411D03*
G04 #@! TD*
D43*
G04 #@! TO.C,U5*
X104580200Y-39684512D03*
X105530200Y-39684512D03*
X106480200Y-39684512D03*
X106480200Y-37409512D03*
X105530200Y-37409512D03*
X104580200Y-37409512D03*
G04 #@! TD*
D22*
G04 #@! TO.C,J8*
X185364867Y-92336411D03*
X183364867Y-92336411D03*
D23*
X187714867Y-86586411D03*
X181014867Y-86586411D03*
G04 #@! TD*
D36*
G04 #@! TO.C,L3*
X169199429Y-44266212D03*
X165599429Y-44266212D03*
G04 #@! TD*
D41*
G04 #@! TO.C,R3*
X13700733Y-22841812D03*
X13700733Y-24491812D03*
G04 #@! TD*
D46*
G04 #@! TO.C,C21*
X10285895Y-48189440D03*
X12185895Y-48189440D03*
G04 #@! TD*
D35*
G04 #@! TO.C,D2*
X87570315Y-92984333D03*
X86206325Y-92196833D03*
G04 #@! TD*
G04 #@! TO.C,D2*
X87570315Y-15713734D03*
X86206325Y-14926234D03*
G04 #@! TD*
D59*
G04 #@! TO.C,U4*
X39041179Y-149768453D03*
X39741179Y-149768453D03*
X39391179Y-148918453D03*
G04 #@! TD*
D19*
G04 #@! TO.C,R18*
X221194443Y-11297012D03*
X222844443Y-11297012D03*
G04 #@! TD*
G04 #@! TO.C,R15*
X186768367Y-43428012D03*
X188418367Y-43428012D03*
G04 #@! TD*
D28*
G04 #@! TO.C,C29*
X199188267Y-108252611D03*
X200738267Y-108252611D03*
G04 #@! TD*
D11*
G04 #@! TO.C,C27*
X45891509Y-94193111D03*
X45891509Y-92293111D03*
G04 #@! TD*
D46*
G04 #@! TO.C,C20*
X167643229Y-127492039D03*
X169543229Y-127492039D03*
G04 #@! TD*
D39*
G04 #@! TO.C,R13*
X198125713Y-72347454D03*
X198125713Y-71327454D03*
G04 #@! TD*
D42*
G04 #@! TO.C,C23*
X31709333Y-113388411D03*
X31709333Y-115288411D03*
G04 #@! TD*
D15*
G04 #@! TO.C,C3*
X12403533Y-113051941D03*
X15353533Y-113051941D03*
G04 #@! TD*
D13*
G04 #@! TO.C,C13*
X183250067Y-112888411D03*
X183250067Y-111338411D03*
G04 #@! TD*
D11*
G04 #@! TO.C,C18*
X23505133Y-47793240D03*
X23505133Y-45893240D03*
G04 #@! TD*
D19*
G04 #@! TO.C,R18*
X63837109Y-88567611D03*
X65487109Y-88567611D03*
G04 #@! TD*
D28*
G04 #@! TO.C,C2*
X95617600Y-106244741D03*
X97167600Y-106244741D03*
G04 #@! TD*
D42*
G04 #@! TO.C,C11*
X103961800Y-107175611D03*
X103961800Y-109075611D03*
G04 #@! TD*
D19*
G04 #@! TO.C,R15*
X108089700Y-120698611D03*
X109739700Y-120698611D03*
G04 #@! TD*
M02*
