%TF.GenerationSoftware,KiCad,Pcbnew,10.0.3*%
%TF.CreationDate,2026-05-30T17:55:04+02:00*%
%TF.ProjectId,rover-circuit-panelized,726f7665-722d-4636-9972-637569742d70,rev?*%
%TF.SameCoordinates,Original*%
%TF.FileFunction,Soldermask,Bot*%
%TF.FilePolarity,Negative*%
%FSLAX46Y46*%
G04 Gerber Fmt 4.6, Leading zero omitted, Abs format (unit mm)*
G04 Created by KiCad (PCBNEW 10.0.3) date 2026-05-30 17:55:04*
%MOMM*%
%LPD*%
G01*
G04 APERTURE LIST*
%ADD10C,0.500000*%
%ADD11C,2.500000*%
%ADD12R,1.700000X1.700000*%
%ADD13C,1.700000*%
%ADD14C,2.200000*%
%ADD15C,0.650000*%
%ADD16O,1.000000X2.100000*%
%ADD17O,1.000000X1.800000*%
G04 APERTURE END LIST*
D10*
%TO.C,KiKit_MB_17_5*%
X37792355Y-159524110D03*
%TD*%
%TO.C,KiKit_MB_34_3*%
X118592413Y-161541198D03*
%TD*%
%TO.C,KiKit_MB_13_2*%
X277792507Y-7000000D03*
%TD*%
%TO.C,KiKit_MB_32_1*%
X81878784Y-202153297D03*
%TD*%
%TO.C,KiKit_MB_40_3*%
X241375049Y-200471729D03*
%TD*%
D11*
%TO.C,H7*%
X228021427Y-208583095D03*
%TD*%
D10*
%TO.C,KiKit_MB_22_3*%
X161375002Y-123201130D03*
%TD*%
%TO.C,KiKit_MB_20_2*%
X117792413Y-84270599D03*
%TD*%
%TO.C,KiKit_MB_38_6*%
X200992460Y-161541198D03*
%TD*%
%TO.C,KiKit_MB_24_5*%
X200192460Y-84270599D03*
%TD*%
%TO.C,KiKit_MB_6_5*%
X120192413Y-7000000D03*
%TD*%
%TO.C,KiKit_MB_15_1*%
X77519363Y-118911166D03*
%TD*%
%TO.C,KiKit_MB_33_2*%
X157378947Y-197047860D03*
%TD*%
%TO.C,KiKit_MB_37_8*%
X236104112Y-202150533D03*
%TD*%
%TO.C,KiKit_MB_2_2*%
X37792367Y-7000000D03*
%TD*%
D12*
%TO.C,J3*%
X275183074Y-86763094D03*
D13*
X277723074Y-86763094D03*
X280263074Y-86763094D03*
X282803074Y-86763094D03*
%TD*%
D12*
%TO.C,J6*%
X187112027Y-218416210D03*
D13*
X187112027Y-215876210D03*
X189652027Y-218416210D03*
X189652027Y-215876210D03*
X192192027Y-218416210D03*
X192192027Y-215876210D03*
X194732027Y-218416210D03*
X194732027Y-215876210D03*
X197272027Y-218416210D03*
X197272027Y-215876210D03*
X199812027Y-218416210D03*
X199812027Y-215876210D03*
X202352027Y-218416210D03*
X202352027Y-215876210D03*
%TD*%
D10*
%TO.C,KiKit_MB_18_7*%
X80603261Y-119776762D03*
%TD*%
%TO.C,KiKit_MB_6_1*%
X116992413Y-7000000D03*
%TD*%
%TO.C,KiKit_MB_8_7*%
X160603308Y-42506164D03*
%TD*%
%TO.C,KiKit_MB_4_3*%
X81374955Y-45930531D03*
%TD*%
D12*
%TO.C,J3*%
X195183027Y-164033693D03*
D13*
X197723027Y-164033693D03*
X200263027Y-164033693D03*
X202803027Y-164033693D03*
%TD*%
D14*
%TO.C,H2*%
X4224306Y-202856197D03*
%TD*%
%TO.C,H1*%
X313761701Y-125585598D03*
%TD*%
D10*
%TO.C,KiKit_MB_5_3*%
X157214033Y-43368140D03*
%TD*%
D12*
%TO.C,J3*%
X275183074Y-9492495D03*
D13*
X277723074Y-9492495D03*
X280263074Y-9492495D03*
X282803074Y-9492495D03*
%TD*%
D10*
%TO.C,KiKit_MB_21_5*%
X117792401Y-159524110D03*
%TD*%
%TO.C,KiKit_MB_36_8*%
X160465412Y-196180623D03*
%TD*%
%TO.C,KiKit_MB_31_2*%
X40192376Y-236794732D03*
%TD*%
%TO.C,KiKit_MB_2_1*%
X36992367Y-7000000D03*
%TD*%
%TO.C,KiKit_MB_31_5*%
X37792355Y-236794709D03*
%TD*%
%TO.C,KiKit_MB_7_1*%
X120992008Y-82225511D03*
%TD*%
%TO.C,KiKit_MB_27_6*%
X280992507Y-84270599D03*
%TD*%
%TO.C,KiKit_MB_19_3*%
X157214033Y-120638738D03*
%TD*%
D14*
%TO.C,H2*%
X84224353Y-48314999D03*
%TD*%
D10*
%TO.C,KiKit_MB_32_3*%
X81374955Y-200471729D03*
%TD*%
%TO.C,KiKit_MB_28_4*%
X278592453Y-159538837D03*
%TD*%
%TO.C,KiKit_MB_27_4*%
X279392507Y-84270599D03*
%TD*%
%TO.C,KiKit_MB_8_6*%
X160774702Y-43367112D03*
%TD*%
%TO.C,KiKit_MB_15_6*%
X76603641Y-123198352D03*
%TD*%
%TO.C,KiKit_MB_10_4*%
X199392460Y-7000000D03*
%TD*%
%TO.C,KiKit_MB_23_5*%
X236833006Y-122351425D03*
%TD*%
%TO.C,KiKit_MB_6_3*%
X118592413Y-7000000D03*
%TD*%
%TO.C,KiKit_MB_25_2*%
X200192470Y-159524133D03*
%TD*%
%TO.C,KiKit_MB_41_1*%
X276992507Y-161541198D03*
%TD*%
%TO.C,KiKit_MB_4_4*%
X81160160Y-45079372D03*
%TD*%
%TO.C,KiKit_MB_42_3*%
X279392559Y-236809436D03*
%TD*%
D12*
%TO.C,J3*%
X275183074Y-164033693D03*
D13*
X277723074Y-164033693D03*
X280263074Y-164033693D03*
X282803074Y-164033693D03*
%TD*%
D10*
%TO.C,KiKit_MB_18_2*%
X81621140Y-124043515D03*
%TD*%
%TO.C,KiKit_MB_42_6*%
X276992912Y-236766664D03*
%TD*%
D12*
%TO.C,J3*%
X35182933Y-9492495D03*
D13*
X37722933Y-9492495D03*
X40262933Y-9492495D03*
X42802933Y-9492495D03*
%TD*%
D10*
%TO.C,KiKit_MB_39_2*%
X200192470Y-236794732D03*
%TD*%
%TO.C,KiKit_MB_3_4*%
X38592313Y-82268238D03*
%TD*%
D14*
%TO.C,H4*%
X164224400Y-100276108D03*
%TD*%
D10*
%TO.C,KiKit_MB_32_5*%
X80946049Y-198769258D03*
%TD*%
D12*
%TO.C,J6*%
X187112027Y-63875012D03*
D13*
X187112027Y-61335012D03*
X189652027Y-63875012D03*
X189652027Y-61335012D03*
X192192027Y-63875012D03*
X192192027Y-61335012D03*
X194732027Y-63875012D03*
X194732027Y-61335012D03*
X197272027Y-63875012D03*
X197272027Y-61335012D03*
X199812027Y-63875012D03*
X199812027Y-61335012D03*
X202352027Y-63875012D03*
X202352027Y-61335012D03*
%TD*%
D10*
%TO.C,KiKit_MB_29_2*%
X77378900Y-197047860D03*
%TD*%
D15*
%TO.C,J2*%
X276103074Y-75165599D03*
X281883074Y-75165599D03*
D16*
X274673074Y-74645599D03*
D17*
X274673074Y-78845599D03*
D16*
X283313074Y-74645599D03*
D17*
X283313074Y-78845599D03*
%TD*%
D10*
%TO.C,KiKit_MB_28_3*%
X279392559Y-159538837D03*
%TD*%
%TO.C,KiKit_MB_13_4*%
X279392507Y-7000000D03*
%TD*%
D12*
%TO.C,J6*%
X27111933Y-218416210D03*
D13*
X27111933Y-215876210D03*
X29651933Y-218416210D03*
X29651933Y-215876210D03*
X32191933Y-218416210D03*
X32191933Y-215876210D03*
X34731933Y-218416210D03*
X34731933Y-215876210D03*
X37271933Y-218416210D03*
X37271933Y-215876210D03*
X39811933Y-218416210D03*
X39811933Y-215876210D03*
X42351933Y-218416210D03*
X42351933Y-215876210D03*
%TD*%
D10*
%TO.C,KiKit_MB_22_6*%
X160774702Y-120637710D03*
%TD*%
%TO.C,KiKit_MB_14_1*%
X280992102Y-82225511D03*
%TD*%
D14*
%TO.C,H4*%
X4224306Y-23005509D03*
%TD*%
D10*
%TO.C,KiKit_MB_30_5*%
X40192366Y-161541198D03*
%TD*%
D14*
%TO.C,H1*%
X73761560Y-48314999D03*
%TD*%
D10*
%TO.C,KiKit_MB_26_7*%
X240603355Y-119776762D03*
%TD*%
%TO.C,KiKit_MB_16_3*%
X38592367Y-84270599D03*
%TD*%
%TO.C,KiKit_MB_1_4*%
X77028870Y-44225801D03*
%TD*%
%TO.C,KiKit_MB_41_5*%
X280192507Y-161541198D03*
%TD*%
D11*
%TO.C,H8*%
X90021380Y-54041897D03*
%TD*%
D12*
%TO.C,J6*%
X27111933Y-141145611D03*
D13*
X27111933Y-138605611D03*
X29651933Y-141145611D03*
X29651933Y-138605611D03*
X32191933Y-141145611D03*
X32191933Y-138605611D03*
X34731933Y-141145611D03*
X34731933Y-138605611D03*
X37271933Y-141145611D03*
X37271933Y-138605611D03*
X39811933Y-141145611D03*
X39811933Y-138605611D03*
X42351933Y-141145611D03*
X42351933Y-138605611D03*
%TD*%
D11*
%TO.C,H8*%
X170021427Y-208583095D03*
%TD*%
%TO.C,H7*%
X148021380Y-54041897D03*
%TD*%
D10*
%TO.C,KiKit_MB_18_6*%
X80774655Y-120637710D03*
%TD*%
D12*
%TO.C,J3*%
X35182933Y-164033693D03*
D13*
X37722933Y-164033693D03*
X40262933Y-164033693D03*
X42802933Y-164033693D03*
%TD*%
D10*
%TO.C,KiKit_MB_42_2*%
X280192517Y-236794732D03*
%TD*%
%TO.C,KiKit_MB_41_3*%
X278592507Y-161541198D03*
%TD*%
%TO.C,KiKit_MB_9_1*%
X237519457Y-41640568D03*
%TD*%
%TO.C,KiKit_MB_27_3*%
X278592507Y-84270599D03*
%TD*%
%TO.C,KiKit_MB_33_1*%
X157519410Y-196181765D03*
%TD*%
D14*
%TO.C,H4*%
X244224447Y-100276108D03*
%TD*%
D12*
%TO.C,J3*%
X115182980Y-9492495D03*
D13*
X117722980Y-9492495D03*
X120262980Y-9492495D03*
X122802980Y-9492495D03*
%TD*%
D10*
%TO.C,KiKit_MB_31_6*%
X36992772Y-236766664D03*
%TD*%
%TO.C,KiKit_MB_7_5*%
X117792401Y-82253511D03*
%TD*%
%TO.C,KiKit_MB_9_4*%
X237028964Y-44225801D03*
%TD*%
D12*
%TO.C,J6*%
X267112074Y-141145611D03*
D13*
X267112074Y-138605611D03*
X269652074Y-141145611D03*
X269652074Y-138605611D03*
X272192074Y-141145611D03*
X272192074Y-138605611D03*
X274732074Y-141145611D03*
X274732074Y-138605611D03*
X277272074Y-141145611D03*
X277272074Y-138605611D03*
X279812074Y-141145611D03*
X279812074Y-138605611D03*
X282352074Y-141145611D03*
X282352074Y-138605611D03*
%TD*%
D14*
%TO.C,H4*%
X4224306Y-100276108D03*
%TD*%
D10*
%TO.C,KiKit_MB_13_1*%
X276992507Y-7000000D03*
%TD*%
D14*
%TO.C,H3*%
X233761654Y-23005509D03*
%TD*%
D10*
%TO.C,KiKit_MB_27_5*%
X280192507Y-84270599D03*
%TD*%
%TO.C,KiKit_MB_11_3*%
X199392512Y-82268238D03*
%TD*%
%TO.C,KiKit_MB_41_2*%
X277792507Y-161541198D03*
%TD*%
%TO.C,KiKit_MB_26_4*%
X241160254Y-122349971D03*
%TD*%
D15*
%TO.C,J2*%
X36102933Y-229706797D03*
X41882933Y-229706797D03*
D16*
X34672933Y-229186797D03*
D17*
X34672933Y-233386797D03*
D16*
X43312933Y-229186797D03*
D17*
X43312933Y-233386797D03*
%TD*%
D10*
%TO.C,KiKit_MB_25_6*%
X196992865Y-159496065D03*
%TD*%
%TO.C,KiKit_MB_23_3*%
X237214080Y-120638738D03*
%TD*%
%TO.C,KiKit_MB_2_5*%
X40192366Y-7000000D03*
%TD*%
%TO.C,KiKit_MB_37_5*%
X236833006Y-199622024D03*
%TD*%
%TO.C,KiKit_MB_3_6*%
X36992772Y-82225466D03*
%TD*%
%TO.C,KiKit_MB_15_4*%
X77028870Y-121496399D03*
%TD*%
D14*
%TO.C,H3*%
X313761701Y-177546707D03*
%TD*%
D10*
%TO.C,KiKit_MB_18_1*%
X81878784Y-124882698D03*
%TD*%
%TO.C,KiKit_MB_12_1*%
X241878878Y-47612099D03*
%TD*%
D15*
%TO.C,J2*%
X116102980Y-75165599D03*
X121882980Y-75165599D03*
D16*
X114672980Y-74645599D03*
D17*
X114672980Y-78845599D03*
D16*
X123312980Y-74645599D03*
D17*
X123312980Y-78845599D03*
%TD*%
D10*
%TO.C,KiKit_MB_3_1*%
X40991961Y-82225511D03*
%TD*%
%TO.C,KiKit_MB_12_3*%
X241375049Y-45930531D03*
%TD*%
D11*
%TO.C,H8*%
X10021333Y-208583095D03*
%TD*%
D12*
%TO.C,J3*%
X115182980Y-86763094D03*
D13*
X117722980Y-86763094D03*
X120262980Y-86763094D03*
X122802980Y-86763094D03*
%TD*%
D11*
%TO.C,H8*%
X170021427Y-131312496D03*
%TD*%
D10*
%TO.C,KiKit_MB_5_5*%
X156832959Y-45080826D03*
%TD*%
%TO.C,KiKit_MB_33_7*%
X156374418Y-201315878D03*
%TD*%
%TO.C,KiKit_MB_29_5*%
X76832912Y-199622024D03*
%TD*%
%TO.C,KiKit_MB_28_2*%
X280192517Y-159524133D03*
%TD*%
D14*
%TO.C,H1*%
X233761654Y-125585598D03*
%TD*%
D10*
%TO.C,KiKit_MB_2_6*%
X40992366Y-7000000D03*
%TD*%
%TO.C,KiKit_MB_35_4*%
X118592359Y-236809436D03*
%TD*%
%TO.C,KiKit_MB_26_3*%
X241375049Y-123201130D03*
%TD*%
%TO.C,KiKit_MB_19_5*%
X156832959Y-122351425D03*
%TD*%
%TO.C,KiKit_MB_24_1*%
X196992460Y-84270599D03*
%TD*%
%TO.C,KiKit_MB_16_1*%
X36992367Y-84270599D03*
%TD*%
%TO.C,KiKit_MB_22_5*%
X160946096Y-121498659D03*
%TD*%
%TO.C,KiKit_MB_17_3*%
X39392418Y-159538837D03*
%TD*%
%TO.C,KiKit_MB_32_8*%
X80465365Y-196180623D03*
%TD*%
%TO.C,KiKit_MB_5_2*%
X157378947Y-42506663D03*
%TD*%
%TO.C,KiKit_MB_5_8*%
X156104065Y-47609335D03*
%TD*%
%TO.C,KiKit_MB_16_5*%
X40192366Y-84270599D03*
%TD*%
%TO.C,KiKit_MB_36_2*%
X161621187Y-201314114D03*
%TD*%
%TO.C,KiKit_MB_14_2*%
X280192517Y-82253534D03*
%TD*%
D11*
%TO.C,H7*%
X68021333Y-208583095D03*
%TD*%
D10*
%TO.C,KiKit_MB_34_5*%
X120192413Y-161541198D03*
%TD*%
%TO.C,KiKit_MB_26_1*%
X241878878Y-124882698D03*
%TD*%
D11*
%TO.C,H7*%
X148021380Y-131312496D03*
%TD*%
%TO.C,H7*%
X228021427Y-131312496D03*
%TD*%
D10*
%TO.C,KiKit_MB_15_5*%
X76832912Y-122351425D03*
%TD*%
%TO.C,KiKit_MB_15_8*%
X76104018Y-124879934D03*
%TD*%
%TO.C,KiKit_MB_24_4*%
X199392460Y-84270599D03*
%TD*%
%TO.C,KiKit_MB_4_8*%
X80465365Y-41639426D03*
%TD*%
%TO.C,KiKit_MB_1_6*%
X76603641Y-45927753D03*
%TD*%
%TO.C,KiKit_MB_15_2*%
X77378900Y-119777261D03*
%TD*%
%TO.C,KiKit_MB_17_2*%
X40192376Y-159524133D03*
%TD*%
%TO.C,KiKit_MB_1_5*%
X76832912Y-45080826D03*
%TD*%
%TO.C,KiKit_MB_21_6*%
X116992818Y-159496065D03*
%TD*%
D14*
%TO.C,H3*%
X73761560Y-177546707D03*
%TD*%
%TO.C,H2*%
X4224306Y-48314999D03*
%TD*%
D10*
%TO.C,KiKit_MB_11_2*%
X200192470Y-82253534D03*
%TD*%
D14*
%TO.C,H2*%
X244224447Y-202856197D03*
%TD*%
D10*
%TO.C,KiKit_MB_37_2*%
X237378994Y-197047860D03*
%TD*%
D14*
%TO.C,H4*%
X84224353Y-100276108D03*
%TD*%
D11*
%TO.C,H7*%
X308021474Y-208583095D03*
%TD*%
D10*
%TO.C,KiKit_MB_38_2*%
X197792460Y-161541198D03*
%TD*%
D15*
%TO.C,J2*%
X196103027Y-152436198D03*
X201883027Y-152436198D03*
D16*
X194673027Y-151916198D03*
D17*
X194673027Y-156116198D03*
D16*
X203313027Y-151916198D03*
D17*
X203313027Y-156116198D03*
%TD*%
D14*
%TO.C,H1*%
X73761560Y-202856197D03*
%TD*%
D10*
%TO.C,KiKit_MB_1_7*%
X76374371Y-46774680D03*
%TD*%
%TO.C,KiKit_MB_30_3*%
X38592367Y-161541198D03*
%TD*%
%TO.C,KiKit_MB_21_3*%
X119392465Y-159538837D03*
%TD*%
%TO.C,KiKit_MB_30_6*%
X40992366Y-161541198D03*
%TD*%
%TO.C,KiKit_MB_26_8*%
X240465459Y-118910024D03*
%TD*%
%TO.C,KiKit_MB_2_4*%
X39392366Y-7000000D03*
%TD*%
%TO.C,KiKit_MB_34_6*%
X120992413Y-161541198D03*
%TD*%
%TO.C,KiKit_MB_10_1*%
X196992460Y-7000000D03*
%TD*%
%TO.C,KiKit_MB_9_7*%
X236374465Y-46774680D03*
%TD*%
%TO.C,KiKit_MB_41_4*%
X279392507Y-161541198D03*
%TD*%
D11*
%TO.C,H8*%
X250021474Y-131312496D03*
%TD*%
D14*
%TO.C,H3*%
X313761701Y-23005509D03*
%TD*%
D12*
%TO.C,J3*%
X115182980Y-164033693D03*
D13*
X117722980Y-164033693D03*
X120262980Y-164033693D03*
X122802980Y-164033693D03*
%TD*%
D14*
%TO.C,H3*%
X153761607Y-100276108D03*
%TD*%
%TO.C,H4*%
X4224306Y-177546707D03*
%TD*%
D10*
%TO.C,KiKit_MB_28_1*%
X280992102Y-159496110D03*
%TD*%
%TO.C,KiKit_MB_42_4*%
X278592453Y-236809436D03*
%TD*%
D14*
%TO.C,H2*%
X4224306Y-125585598D03*
%TD*%
D10*
%TO.C,KiKit_MB_35_6*%
X116992818Y-236766664D03*
%TD*%
D14*
%TO.C,H4*%
X84224353Y-23005509D03*
%TD*%
D10*
%TO.C,KiKit_MB_8_3*%
X161375002Y-45930531D03*
%TD*%
%TO.C,KiKit_MB_24_6*%
X200992460Y-84270599D03*
%TD*%
D15*
%TO.C,J2*%
X196103027Y-229706797D03*
X201883027Y-229706797D03*
D16*
X194673027Y-229186797D03*
D17*
X194673027Y-233386797D03*
D16*
X203313027Y-229186797D03*
D17*
X203313027Y-233386797D03*
%TD*%
D10*
%TO.C,KiKit_MB_11_4*%
X198592406Y-82268238D03*
%TD*%
%TO.C,KiKit_MB_14_3*%
X279392559Y-82268238D03*
%TD*%
%TO.C,KiKit_MB_21_2*%
X120192423Y-159524133D03*
%TD*%
%TO.C,KiKit_MB_30_1*%
X36992367Y-161541198D03*
%TD*%
%TO.C,KiKit_MB_35_1*%
X120992008Y-236766709D03*
%TD*%
%TO.C,KiKit_MB_16_4*%
X39392366Y-84270599D03*
%TD*%
%TO.C,KiKit_MB_2_3*%
X38592367Y-7000000D03*
%TD*%
%TO.C,KiKit_MB_23_4*%
X237028964Y-121496399D03*
%TD*%
D14*
%TO.C,H1*%
X313761701Y-202856197D03*
%TD*%
D10*
%TO.C,KiKit_MB_25_5*%
X197792448Y-159524110D03*
%TD*%
%TO.C,KiKit_MB_38_4*%
X199392460Y-161541198D03*
%TD*%
D11*
%TO.C,H7*%
X68021333Y-131312496D03*
%TD*%
D10*
%TO.C,KiKit_MB_26_5*%
X240946143Y-121498659D03*
%TD*%
%TO.C,KiKit_MB_12_6*%
X240774749Y-43367112D03*
%TD*%
D11*
%TO.C,H8*%
X250021474Y-208583095D03*
%TD*%
D10*
%TO.C,KiKit_MB_26_6*%
X240774749Y-120637710D03*
%TD*%
D14*
%TO.C,H2*%
X244224447Y-125585598D03*
%TD*%
D11*
%TO.C,H7*%
X148021380Y-208583095D03*
%TD*%
D10*
%TO.C,KiKit_MB_6_4*%
X119392413Y-7000000D03*
%TD*%
%TO.C,KiKit_MB_9_8*%
X236104112Y-47609335D03*
%TD*%
%TO.C,KiKit_MB_39_3*%
X199392512Y-236809436D03*
%TD*%
%TO.C,KiKit_MB_10_3*%
X198592460Y-7000000D03*
%TD*%
%TO.C,KiKit_MB_26_2*%
X241621234Y-124043515D03*
%TD*%
D15*
%TO.C,J2*%
X36102933Y-152436198D03*
X41882933Y-152436198D03*
D16*
X34672933Y-151916198D03*
D17*
X34672933Y-156116198D03*
D16*
X43312933Y-151916198D03*
D17*
X43312933Y-156116198D03*
%TD*%
D10*
%TO.C,KiKit_MB_15_7*%
X76374371Y-124045279D03*
%TD*%
%TO.C,KiKit_MB_27_1*%
X276992507Y-84270599D03*
%TD*%
%TO.C,KiKit_MB_24_3*%
X198592460Y-84270599D03*
%TD*%
%TO.C,KiKit_MB_32_7*%
X80603261Y-197047361D03*
%TD*%
D11*
%TO.C,H8*%
X90021380Y-208583095D03*
%TD*%
D10*
%TO.C,KiKit_MB_39_6*%
X196992865Y-236766664D03*
%TD*%
D15*
%TO.C,J2*%
X276103074Y-229706797D03*
X281883074Y-229706797D03*
D16*
X274673074Y-229186797D03*
D17*
X274673074Y-233386797D03*
D16*
X283313074Y-229186797D03*
D17*
X283313074Y-233386797D03*
%TD*%
D10*
%TO.C,KiKit_MB_29_4*%
X77028870Y-198766998D03*
%TD*%
%TO.C,KiKit_MB_8_1*%
X161878831Y-47612099D03*
%TD*%
%TO.C,KiKit_MB_37_1*%
X237519457Y-196181765D03*
%TD*%
%TO.C,KiKit_MB_4_6*%
X80774655Y-43367112D03*
%TD*%
D14*
%TO.C,H1*%
X233761654Y-202856197D03*
%TD*%
D10*
%TO.C,KiKit_MB_14_5*%
X277792495Y-82253511D03*
%TD*%
%TO.C,KiKit_MB_19_2*%
X157378947Y-119777261D03*
%TD*%
%TO.C,KiKit_MB_29_1*%
X77519363Y-196181765D03*
%TD*%
%TO.C,KiKit_MB_17_4*%
X38592313Y-159538837D03*
%TD*%
%TO.C,KiKit_MB_20_1*%
X116992413Y-84270599D03*
%TD*%
%TO.C,KiKit_MB_4_2*%
X81621140Y-46772916D03*
%TD*%
%TO.C,KiKit_MB_20_4*%
X119392413Y-84270599D03*
%TD*%
%TO.C,KiKit_MB_1_1*%
X77519363Y-41640568D03*
%TD*%
%TO.C,KiKit_MB_35_3*%
X119392465Y-236809436D03*
%TD*%
D11*
%TO.C,H7*%
X308021474Y-131312496D03*
%TD*%
D12*
%TO.C,J6*%
X107111980Y-218416210D03*
D13*
X107111980Y-215876210D03*
X109651980Y-218416210D03*
X109651980Y-215876210D03*
X112191980Y-218416210D03*
X112191980Y-215876210D03*
X114731980Y-218416210D03*
X114731980Y-215876210D03*
X117271980Y-218416210D03*
X117271980Y-215876210D03*
X119811980Y-218416210D03*
X119811980Y-215876210D03*
X122351980Y-218416210D03*
X122351980Y-215876210D03*
%TD*%
D10*
%TO.C,KiKit_MB_21_1*%
X120992008Y-159496110D03*
%TD*%
%TO.C,KiKit_MB_18_4*%
X81160160Y-122349971D03*
%TD*%
%TO.C,KiKit_MB_29_6*%
X76603641Y-200468951D03*
%TD*%
%TO.C,KiKit_MB_8_8*%
X160465412Y-41639426D03*
%TD*%
%TO.C,KiKit_MB_40_1*%
X241878878Y-202153297D03*
%TD*%
D14*
%TO.C,H3*%
X153761607Y-23005509D03*
%TD*%
D10*
%TO.C,KiKit_MB_9_2*%
X237378994Y-42506663D03*
%TD*%
D15*
%TO.C,J2*%
X36102933Y-75165599D03*
X41882933Y-75165599D03*
D16*
X34672933Y-74645599D03*
D17*
X34672933Y-78845599D03*
D16*
X43312933Y-74645599D03*
D17*
X43312933Y-78845599D03*
%TD*%
D10*
%TO.C,KiKit_MB_19_4*%
X157028917Y-121496399D03*
%TD*%
%TO.C,KiKit_MB_21_4*%
X118592359Y-159538837D03*
%TD*%
%TO.C,KiKit_MB_1_3*%
X77213986Y-43368140D03*
%TD*%
%TO.C,KiKit_MB_40_7*%
X240603355Y-197047361D03*
%TD*%
D14*
%TO.C,H2*%
X244224447Y-48314999D03*
%TD*%
D10*
%TO.C,KiKit_MB_13_3*%
X278592507Y-7000000D03*
%TD*%
D12*
%TO.C,J6*%
X27111933Y-63875012D03*
D13*
X27111933Y-61335012D03*
X29651933Y-63875012D03*
X29651933Y-61335012D03*
X32191933Y-63875012D03*
X32191933Y-61335012D03*
X34731933Y-63875012D03*
X34731933Y-61335012D03*
X37271933Y-63875012D03*
X37271933Y-61335012D03*
X39811933Y-63875012D03*
X39811933Y-61335012D03*
X42351933Y-63875012D03*
X42351933Y-61335012D03*
%TD*%
D10*
%TO.C,KiKit_MB_12_5*%
X240946143Y-44228061D03*
%TD*%
%TO.C,KiKit_MB_38_3*%
X198592460Y-161541198D03*
%TD*%
%TO.C,KiKit_MB_37_3*%
X237214080Y-197909337D03*
%TD*%
%TO.C,KiKit_MB_1_2*%
X77378900Y-42506663D03*
%TD*%
%TO.C,KiKit_MB_12_2*%
X241621234Y-46772916D03*
%TD*%
D14*
%TO.C,H3*%
X73761560Y-100276108D03*
%TD*%
D15*
%TO.C,J2*%
X196103027Y-75165599D03*
X201883027Y-75165599D03*
D16*
X194673027Y-74645599D03*
D17*
X194673027Y-78845599D03*
D16*
X203313027Y-74645599D03*
D17*
X203313027Y-78845599D03*
%TD*%
D10*
%TO.C,KiKit_MB_1_8*%
X76104018Y-47609335D03*
%TD*%
%TO.C,KiKit_MB_29_3*%
X77213986Y-197909337D03*
%TD*%
%TO.C,KiKit_MB_17_6*%
X36992772Y-159496065D03*
%TD*%
%TO.C,KiKit_MB_10_6*%
X200992460Y-7000000D03*
%TD*%
%TO.C,KiKit_MB_22_2*%
X161621187Y-124043515D03*
%TD*%
%TO.C,KiKit_MB_22_1*%
X161878831Y-124882698D03*
%TD*%
%TO.C,KiKit_MB_34_2*%
X117792413Y-161541198D03*
%TD*%
%TO.C,KiKit_MB_33_8*%
X156104065Y-202150533D03*
%TD*%
%TO.C,KiKit_MB_23_1*%
X237519457Y-118911166D03*
%TD*%
%TO.C,KiKit_MB_9_6*%
X236603735Y-45927753D03*
%TD*%
%TO.C,KiKit_MB_36_7*%
X160603308Y-197047361D03*
%TD*%
%TO.C,KiKit_MB_36_4*%
X161160207Y-199620570D03*
%TD*%
%TO.C,KiKit_MB_35_5*%
X117792401Y-236794709D03*
%TD*%
%TO.C,KiKit_MB_19_7*%
X156374418Y-124045279D03*
%TD*%
%TO.C,KiKit_MB_7_6*%
X116992818Y-82225466D03*
%TD*%
%TO.C,KiKit_MB_37_7*%
X236374465Y-201315878D03*
%TD*%
D12*
%TO.C,J6*%
X267112074Y-218416210D03*
D13*
X267112074Y-215876210D03*
X269652074Y-218416210D03*
X269652074Y-215876210D03*
X272192074Y-218416210D03*
X272192074Y-215876210D03*
X274732074Y-218416210D03*
X274732074Y-215876210D03*
X277272074Y-218416210D03*
X277272074Y-215876210D03*
X279812074Y-218416210D03*
X279812074Y-215876210D03*
X282352074Y-218416210D03*
X282352074Y-215876210D03*
%TD*%
D10*
%TO.C,KiKit_MB_4_7*%
X80603261Y-42506164D03*
%TD*%
D14*
%TO.C,H2*%
X164224400Y-202856197D03*
%TD*%
D10*
%TO.C,KiKit_MB_10_5*%
X200192460Y-7000000D03*
%TD*%
%TO.C,KiKit_MB_30_2*%
X37792367Y-161541198D03*
%TD*%
D14*
%TO.C,H3*%
X153761607Y-177546707D03*
%TD*%
D10*
%TO.C,KiKit_MB_12_4*%
X241160254Y-45079372D03*
%TD*%
%TO.C,KiKit_MB_4_5*%
X80946049Y-44228061D03*
%TD*%
%TO.C,KiKit_MB_31_1*%
X40991961Y-236766709D03*
%TD*%
%TO.C,KiKit_MB_34_1*%
X116992413Y-161541198D03*
%TD*%
D12*
%TO.C,J6*%
X107111980Y-141145611D03*
D13*
X107111980Y-138605611D03*
X109651980Y-141145611D03*
X109651980Y-138605611D03*
X112191980Y-141145611D03*
X112191980Y-138605611D03*
X114731980Y-141145611D03*
X114731980Y-138605611D03*
X117271980Y-141145611D03*
X117271980Y-138605611D03*
X119811980Y-141145611D03*
X119811980Y-138605611D03*
X122351980Y-141145611D03*
X122351980Y-138605611D03*
%TD*%
D10*
%TO.C,KiKit_MB_9_5*%
X236833006Y-45080826D03*
%TD*%
D11*
%TO.C,H7*%
X68021333Y-54041897D03*
%TD*%
D14*
%TO.C,H4*%
X84224353Y-177546707D03*
%TD*%
D10*
%TO.C,KiKit_MB_3_3*%
X39392418Y-82268238D03*
%TD*%
D14*
%TO.C,H4*%
X244224447Y-23005509D03*
%TD*%
D10*
%TO.C,KiKit_MB_5_6*%
X156603688Y-45927753D03*
%TD*%
%TO.C,KiKit_MB_32_4*%
X81160160Y-199620570D03*
%TD*%
%TO.C,KiKit_MB_33_5*%
X156832959Y-199622024D03*
%TD*%
%TO.C,KiKit_MB_40_6*%
X240774749Y-197908309D03*
%TD*%
%TO.C,KiKit_MB_19_1*%
X157519410Y-118911166D03*
%TD*%
%TO.C,KiKit_MB_16_6*%
X40992366Y-84270599D03*
%TD*%
%TO.C,KiKit_MB_38_1*%
X196992460Y-161541198D03*
%TD*%
%TO.C,KiKit_MB_8_5*%
X160946096Y-44228061D03*
%TD*%
%TO.C,KiKit_MB_36_1*%
X161878831Y-202153297D03*
%TD*%
%TO.C,KiKit_MB_42_1*%
X280992102Y-236766709D03*
%TD*%
%TO.C,KiKit_MB_7_4*%
X118592359Y-82268238D03*
%TD*%
%TO.C,KiKit_MB_12_7*%
X240603355Y-42506164D03*
%TD*%
%TO.C,KiKit_MB_9_3*%
X237214080Y-43368140D03*
%TD*%
D14*
%TO.C,H3*%
X73761560Y-23005509D03*
%TD*%
D11*
%TO.C,H8*%
X250021474Y-54041897D03*
%TD*%
D10*
%TO.C,KiKit_MB_20_5*%
X120192413Y-84270599D03*
%TD*%
%TO.C,KiKit_MB_14_4*%
X278592453Y-82268238D03*
%TD*%
%TO.C,KiKit_MB_32_6*%
X80774655Y-197908309D03*
%TD*%
%TO.C,KiKit_MB_35_2*%
X120192423Y-236794732D03*
%TD*%
%TO.C,KiKit_MB_27_2*%
X277792507Y-84270599D03*
%TD*%
%TO.C,KiKit_MB_25_3*%
X199392512Y-159538837D03*
%TD*%
%TO.C,KiKit_MB_5_7*%
X156374418Y-46774680D03*
%TD*%
D14*
%TO.C,H2*%
X84224353Y-125585598D03*
%TD*%
D10*
%TO.C,KiKit_MB_11_1*%
X200992055Y-82225511D03*
%TD*%
%TO.C,KiKit_MB_22_8*%
X160465412Y-118910024D03*
%TD*%
D11*
%TO.C,H8*%
X10021333Y-131312496D03*
%TD*%
D10*
%TO.C,KiKit_MB_24_2*%
X197792460Y-84270599D03*
%TD*%
%TO.C,KiKit_MB_34_4*%
X119392413Y-161541198D03*
%TD*%
%TO.C,KiKit_MB_36_3*%
X161375002Y-200471729D03*
%TD*%
D12*
%TO.C,J6*%
X267112074Y-63875012D03*
D13*
X267112074Y-61335012D03*
X269652074Y-63875012D03*
X269652074Y-61335012D03*
X272192074Y-63875012D03*
X272192074Y-61335012D03*
X274732074Y-63875012D03*
X274732074Y-61335012D03*
X277272074Y-63875012D03*
X277272074Y-61335012D03*
X279812074Y-63875012D03*
X279812074Y-61335012D03*
X282352074Y-63875012D03*
X282352074Y-61335012D03*
%TD*%
D11*
%TO.C,H8*%
X90021380Y-131312496D03*
%TD*%
D10*
%TO.C,KiKit_MB_18_8*%
X80465365Y-118910024D03*
%TD*%
D14*
%TO.C,H2*%
X164224400Y-125585598D03*
%TD*%
D10*
%TO.C,KiKit_MB_32_2*%
X81621140Y-201314114D03*
%TD*%
D14*
%TO.C,H3*%
X233761654Y-100276108D03*
%TD*%
D10*
%TO.C,KiKit_MB_6_6*%
X120992413Y-7000000D03*
%TD*%
D15*
%TO.C,J2*%
X276103074Y-152436198D03*
X281883074Y-152436198D03*
D16*
X274673074Y-151916198D03*
D17*
X274673074Y-156116198D03*
D16*
X283313074Y-151916198D03*
D17*
X283313074Y-156116198D03*
%TD*%
D10*
%TO.C,KiKit_MB_33_3*%
X157214033Y-197909337D03*
%TD*%
%TO.C,KiKit_MB_10_2*%
X197792460Y-7000000D03*
%TD*%
%TO.C,KiKit_MB_28_5*%
X277792495Y-159524110D03*
%TD*%
%TO.C,KiKit_MB_11_5*%
X197792448Y-82253511D03*
%TD*%
%TO.C,KiKit_MB_29_7*%
X76374371Y-201315878D03*
%TD*%
D12*
%TO.C,J3*%
X195183027Y-9492495D03*
D13*
X197723027Y-9492495D03*
X200263027Y-9492495D03*
X202803027Y-9492495D03*
%TD*%
D10*
%TO.C,KiKit_MB_20_3*%
X118592413Y-84270599D03*
%TD*%
D14*
%TO.C,H1*%
X153761607Y-202856197D03*
%TD*%
D10*
%TO.C,KiKit_MB_42_5*%
X277792495Y-236794709D03*
%TD*%
%TO.C,KiKit_MB_23_7*%
X236374465Y-124045279D03*
%TD*%
D14*
%TO.C,H3*%
X313761701Y-100276108D03*
%TD*%
D10*
%TO.C,KiKit_MB_41_6*%
X280992507Y-161541198D03*
%TD*%
%TO.C,KiKit_MB_7_3*%
X119392465Y-82268238D03*
%TD*%
D14*
%TO.C,H2*%
X84224353Y-202856197D03*
%TD*%
D10*
%TO.C,KiKit_MB_36_5*%
X160946096Y-198769258D03*
%TD*%
%TO.C,KiKit_MB_13_5*%
X280192507Y-7000000D03*
%TD*%
D12*
%TO.C,J6*%
X107111980Y-63875012D03*
D13*
X107111980Y-61335012D03*
X109651980Y-63875012D03*
X109651980Y-61335012D03*
X112191980Y-63875012D03*
X112191980Y-61335012D03*
X114731980Y-63875012D03*
X114731980Y-61335012D03*
X117271980Y-63875012D03*
X117271980Y-61335012D03*
X119811980Y-63875012D03*
X119811980Y-61335012D03*
X122351980Y-63875012D03*
X122351980Y-61335012D03*
%TD*%
D10*
%TO.C,KiKit_MB_22_7*%
X160603308Y-119776762D03*
%TD*%
D15*
%TO.C,J2*%
X116102980Y-152436198D03*
X121882980Y-152436198D03*
D16*
X114672980Y-151916198D03*
D17*
X114672980Y-156116198D03*
D16*
X123312980Y-151916198D03*
D17*
X123312980Y-156116198D03*
%TD*%
D10*
%TO.C,KiKit_MB_39_4*%
X198592406Y-236809436D03*
%TD*%
D11*
%TO.C,H8*%
X170021427Y-54041897D03*
%TD*%
D10*
%TO.C,KiKit_MB_19_6*%
X156603688Y-123198352D03*
%TD*%
%TO.C,KiKit_MB_5_4*%
X157028917Y-44225801D03*
%TD*%
%TO.C,KiKit_MB_17_1*%
X40991961Y-159496110D03*
%TD*%
%TO.C,KiKit_MB_5_1*%
X157519410Y-41640568D03*
%TD*%
%TO.C,KiKit_MB_28_6*%
X276992912Y-159496065D03*
%TD*%
%TO.C,KiKit_MB_33_4*%
X157028917Y-198766998D03*
%TD*%
D14*
%TO.C,H1*%
X313761701Y-48314999D03*
%TD*%
D10*
%TO.C,KiKit_MB_4_1*%
X81878784Y-47612099D03*
%TD*%
%TO.C,KiKit_MB_38_5*%
X200192460Y-161541198D03*
%TD*%
%TO.C,KiKit_MB_16_2*%
X37792367Y-84270599D03*
%TD*%
D14*
%TO.C,H1*%
X233761654Y-48314999D03*
%TD*%
D10*
%TO.C,KiKit_MB_23_2*%
X237378994Y-119777261D03*
%TD*%
%TO.C,KiKit_MB_39_5*%
X197792448Y-236794709D03*
%TD*%
%TO.C,KiKit_MB_40_2*%
X241621234Y-201314114D03*
%TD*%
%TO.C,KiKit_MB_23_6*%
X236603735Y-123198352D03*
%TD*%
%TO.C,KiKit_MB_40_5*%
X240946143Y-198769258D03*
%TD*%
D12*
%TO.C,J6*%
X187112027Y-141145611D03*
D13*
X187112027Y-138605611D03*
X189652027Y-141145611D03*
X189652027Y-138605611D03*
X192192027Y-141145611D03*
X192192027Y-138605611D03*
X194732027Y-141145611D03*
X194732027Y-138605611D03*
X197272027Y-141145611D03*
X197272027Y-138605611D03*
X199812027Y-141145611D03*
X199812027Y-138605611D03*
X202352027Y-141145611D03*
X202352027Y-138605611D03*
%TD*%
D10*
%TO.C,KiKit_MB_30_4*%
X39392366Y-161541198D03*
%TD*%
D14*
%TO.C,H3*%
X233761654Y-177546707D03*
%TD*%
D10*
%TO.C,KiKit_MB_3_5*%
X37792355Y-82253511D03*
%TD*%
%TO.C,KiKit_MB_33_6*%
X156603688Y-200468951D03*
%TD*%
%TO.C,KiKit_MB_25_4*%
X198592406Y-159538837D03*
%TD*%
%TO.C,KiKit_MB_23_8*%
X236104112Y-124879934D03*
%TD*%
%TO.C,KiKit_MB_6_2*%
X117792413Y-7000000D03*
%TD*%
%TO.C,KiKit_MB_39_1*%
X200992055Y-236766709D03*
%TD*%
%TO.C,KiKit_MB_18_5*%
X80946049Y-121498659D03*
%TD*%
D14*
%TO.C,H1*%
X73761560Y-125585598D03*
%TD*%
D10*
%TO.C,KiKit_MB_12_8*%
X240465459Y-41639426D03*
%TD*%
%TO.C,KiKit_MB_18_3*%
X81374955Y-123201130D03*
%TD*%
%TO.C,KiKit_MB_8_2*%
X161621187Y-46772916D03*
%TD*%
%TO.C,KiKit_MB_37_4*%
X237028964Y-198766998D03*
%TD*%
D14*
%TO.C,H4*%
X244224447Y-177546707D03*
%TD*%
D10*
%TO.C,KiKit_MB_19_8*%
X156104065Y-124879934D03*
%TD*%
%TO.C,KiKit_MB_31_3*%
X39392418Y-236809436D03*
%TD*%
%TO.C,KiKit_MB_14_6*%
X276992912Y-82225466D03*
%TD*%
%TO.C,KiKit_MB_25_1*%
X200992055Y-159496110D03*
%TD*%
D11*
%TO.C,H7*%
X228021427Y-54041897D03*
%TD*%
D10*
%TO.C,KiKit_MB_11_6*%
X196992865Y-82225466D03*
%TD*%
D12*
%TO.C,J3*%
X35182933Y-86763094D03*
D13*
X37722933Y-86763094D03*
X40262933Y-86763094D03*
X42802933Y-86763094D03*
%TD*%
D14*
%TO.C,H1*%
X153761607Y-125585598D03*
%TD*%
%TO.C,H1*%
X153761607Y-48314999D03*
%TD*%
D10*
%TO.C,KiKit_MB_29_8*%
X76104018Y-202150533D03*
%TD*%
%TO.C,KiKit_MB_20_6*%
X120992413Y-84270599D03*
%TD*%
D11*
%TO.C,H7*%
X308021474Y-54041897D03*
%TD*%
D10*
%TO.C,KiKit_MB_15_3*%
X77213986Y-120638738D03*
%TD*%
D12*
%TO.C,J3*%
X195183027Y-86763094D03*
D13*
X197723027Y-86763094D03*
X200263027Y-86763094D03*
X202803027Y-86763094D03*
%TD*%
D10*
%TO.C,KiKit_MB_40_4*%
X241160254Y-199620570D03*
%TD*%
D11*
%TO.C,H8*%
X10021333Y-54041897D03*
%TD*%
D10*
%TO.C,KiKit_MB_36_6*%
X160774702Y-197908309D03*
%TD*%
%TO.C,KiKit_MB_22_4*%
X161160207Y-122349971D03*
%TD*%
%TO.C,KiKit_MB_8_4*%
X161160207Y-45079372D03*
%TD*%
D14*
%TO.C,H4*%
X164224400Y-177546707D03*
%TD*%
%TO.C,H4*%
X164224400Y-23005509D03*
%TD*%
D10*
%TO.C,KiKit_MB_7_2*%
X120192423Y-82253534D03*
%TD*%
%TO.C,KiKit_MB_40_8*%
X240465459Y-196180623D03*
%TD*%
%TO.C,KiKit_MB_13_6*%
X280992507Y-7000000D03*
%TD*%
D14*
%TO.C,H2*%
X164224400Y-48314999D03*
%TD*%
D10*
%TO.C,KiKit_MB_3_2*%
X40192376Y-82253534D03*
%TD*%
%TO.C,KiKit_MB_31_4*%
X38592313Y-236809436D03*
%TD*%
%TO.C,KiKit_MB_37_6*%
X236603735Y-200468951D03*
%TD*%
D15*
%TO.C,J2*%
X116102980Y-229706797D03*
X121882980Y-229706797D03*
D16*
X114672980Y-229186797D03*
D17*
X114672980Y-233386797D03*
D16*
X123312980Y-229186797D03*
D17*
X123312980Y-233386797D03*
%TD*%
M02*
