M48
; DRILL file KiCad 10.0.3 date 2026-06-30T19:13:12
; FORMAT={-:-/ absolute / metric / decimal}
; #@! TF.CreationDate,2026-06-30T19:13:12+02:00
; #@! TF.GenerationSoftware,Kicad,Pcbnew,10.0.3
; #@! TF.FileFunction,Plated,1,2,PTH
FMAT,2
METRIC
; #@! TA.AperFunction,Plated,PTH,ViaDrill
T1C0.200
; #@! TA.AperFunction,Plated,PTH,ComponentDrill
T2C0.200
; #@! TA.AperFunction,Plated,PTH,ComponentDrill
T3C0.250
; #@! TA.AperFunction,Plated,PTH,ViaDrill
T4C0.300
; #@! TA.AperFunction,Plated,PTH,ViaDrill
T5C0.400
; #@! TA.AperFunction,Plated,PTH,ComponentDrill
T6C0.600
; #@! TA.AperFunction,Plated,PTH,ComponentDrill
T7C1.000
%
G90
G05
T1
X2.22Y-40.278
X2.22Y-117.549
X4.13Y-40.278
X4.13Y-117.549
X6.04Y-40.278
X6.04Y-41.426
X6.04Y-117.549
X6.04Y-118.697
X7.95Y-40.278
X7.95Y-41.426
X7.95Y-117.549
X7.95Y-118.697
X8.621Y-30.347
X8.621Y-107.618
X9.154Y-48.178
X9.154Y-125.448
X9.256Y-37.154
X9.256Y-114.425
X9.662Y-39.161
X9.662Y-116.431
X9.86Y-41.426
X9.86Y-118.697
X10.018Y-31.922
X10.018Y-109.192
X10.627Y-22.067
X10.627Y-99.337
X10.653Y-27.731
X10.653Y-105.001
X11.77Y-41.426
X11.77Y-118.697
X12.177Y-47.06
X12.177Y-49.219
X12.177Y-124.331
X12.177Y-126.49
X13.015Y-41.548
X13.015Y-118.819
X13.066Y-50.311
X13.066Y-127.582
X13.244Y-43.326
X13.244Y-120.597
X13.65Y-34.513
X13.65Y-111.783
X13.701Y-22.067
X13.701Y-99.337
X13.98Y-42.691
X13.98Y-119.962
X14.26Y-35.757
X14.26Y-113.028
X14.285Y-25.292
X14.285Y-26.029
X14.285Y-38.145
X14.285Y-102.563
X14.285Y-103.3
X14.285Y-115.415
X15.267Y-31.37
X15.267Y-31.827
X15.267Y-108.641
X15.267Y-109.098
X15.453Y-43.352
X15.453Y-120.622
X15.681Y-28.276
X15.681Y-28.809
X15.681Y-29.368
X15.681Y-105.546
X15.681Y-106.08
X15.681Y-106.639
X16.114Y-22.067
X16.114Y-99.337
X16.214Y-28.53
X16.214Y-29.089
X16.214Y-105.8
X16.214Y-106.359
X16.571Y-48.203
X16.571Y-48.965
X16.571Y-125.474
X16.571Y-126.236
X16.673Y-46.501
X16.673Y-123.772
X17.689Y-26.41
X17.689Y-103.681
X18.222Y-23.743
X18.222Y-101.014
X18.374Y-34.513
X18.374Y-111.783
X18.857Y-36.418
X18.857Y-113.688
X19.136Y-21.152
X19.136Y-98.423
X19.815Y-27.818
X19.815Y-105.088
X20.0Y-36.57
X20.0Y-39.618
X20.0Y-113.841
X20.0Y-116.889
X20.483Y-40.228
X20.483Y-117.498
X20.552Y-27.586
X20.552Y-104.856
X20.737Y-36.545
X20.737Y-113.815
X20.996Y-39.643
X20.996Y-116.914
X21.143Y-65.501
X21.143Y-66.237
X21.143Y-142.771
X21.143Y-143.508
X21.702Y-41.32
X21.702Y-118.59
X22.285Y-45.878
X22.285Y-123.149
X22.489Y-27.68
X22.489Y-36.951
X22.489Y-104.951
X22.489Y-114.222
X23.505Y-44.927
X23.505Y-122.197
X23.81Y-27.705
X23.81Y-104.976
X24.039Y-36.849
X24.039Y-114.12
X24.318Y-43.403
X24.318Y-120.673
X24.496Y-48.813
X24.496Y-126.083
X24.674Y-27.705
X24.674Y-104.976
X24.928Y-38.018
X24.928Y-115.288
X25.283Y-21.152
X25.283Y-33.065
X25.283Y-98.423
X25.283Y-110.335
X25.309Y-44.444
X25.309Y-46.628
X25.309Y-121.715
X25.309Y-123.899
X26.172Y-23.794
X26.172Y-101.064
X26.858Y-40.786
X26.858Y-118.057
X27.324Y-49.457
X27.324Y-126.728
X27.823Y-38.348
X27.823Y-115.619
X27.874Y-46.603
X27.874Y-123.874
X28.001Y-27.07
X28.001Y-104.341
X28.331Y-44.444
X28.331Y-121.715
X29.576Y-21.686
X29.576Y-98.956
X29.601Y-20.06
X29.601Y-23.21
X29.601Y-97.331
X29.601Y-100.48
X29.627Y-37.307
X29.627Y-114.577
X31.125Y-19.044
X31.125Y-96.315
X31.328Y-41.828
X31.328Y-119.098
X31.913Y-18.333
X31.913Y-95.603
X32.065Y-70.733
X32.065Y-71.433
X32.065Y-72.133
X32.065Y-148.004
X32.065Y-148.704
X32.065Y-149.404
X32.116Y-17.52
X32.116Y-19.12
X32.116Y-94.791
X32.116Y-96.391
X32.548Y-40.355
X32.548Y-117.625
X32.7Y-18.307
X32.7Y-95.578
X32.903Y-36.113
X32.903Y-113.383
X33.427Y-18.307
X33.427Y-95.578
X33.665Y-39.237
X33.665Y-116.508
X33.97Y-17.495
X33.97Y-19.095
X33.97Y-94.765
X33.97Y-96.365
X34.097Y-39.796
X34.097Y-117.066
X34.249Y-18.307
X34.249Y-95.578
X35.088Y-43.453
X35.088Y-120.724
X35.24Y-73.248
X35.24Y-150.518
X36.789Y-25.008
X36.789Y-26.918
X36.789Y-102.279
X36.789Y-104.189
X37.17Y-34.182
X37.17Y-111.453
X37.247Y-37.484
X37.247Y-39.394
X37.247Y-114.755
X37.247Y-116.665
X37.526Y-41.345
X37.526Y-118.616
X37.577Y-40.634
X37.577Y-117.905
X38.466Y-35.427
X38.466Y-112.698
X38.699Y-25.008
X38.699Y-26.918
X38.699Y-102.279
X38.699Y-104.189
X39.041Y-69.92
X39.041Y-147.191
X39.157Y-37.484
X39.157Y-39.394
X39.157Y-114.755
X39.157Y-116.665
X39.406Y-70.987
X39.406Y-148.258
X39.741Y-69.92
X39.741Y-147.191
X40.609Y-25.008
X40.609Y-26.918
X40.609Y-102.279
X40.609Y-104.189
X40.803Y-31.515
X40.803Y-108.786
X40.904Y-33.573
X40.904Y-110.843
X41.067Y-37.484
X41.067Y-39.394
X41.067Y-114.755
X41.067Y-116.665
X41.133Y-35.478
X41.133Y-112.748
X41.565Y-33.573
X41.565Y-110.843
X41.971Y-35.452
X41.971Y-112.723
X42.2Y-73.146
X42.2Y-150.417
X42.403Y-40.685
X42.403Y-117.955
X42.519Y-25.008
X42.519Y-26.918
X42.519Y-102.279
X42.519Y-104.189
X42.581Y-35.046
X42.581Y-112.317
X43.393Y-32.227
X43.393Y-109.497
X43.673Y-34.182
X43.673Y-111.453
X44.511Y-40.71
X44.511Y-117.981
X44.765Y-30.957
X44.765Y-108.227
X46.137Y-30.195
X46.137Y-107.465
X46.594Y-29.636
X46.594Y-106.906
X46.695Y-39.339
X46.695Y-40.024
X46.695Y-116.609
X46.695Y-117.295
X46.899Y-64.459
X46.899Y-141.73
X47.057Y-29.083
X47.057Y-106.354
X47.203Y-63.773
X47.203Y-65.145
X47.203Y-141.044
X47.203Y-142.416
X47.508Y-28.544
X47.508Y-105.814
X47.991Y-28.01
X47.991Y-105.281
X48.245Y-41.193
X48.245Y-118.463
X49.007Y-63.9
X49.007Y-141.171
X49.032Y-64.866
X49.032Y-142.136
X50.226Y-41.218
X50.226Y-118.489
X50.607Y-63.748
X50.607Y-141.019
X50.81Y-64.383
X50.81Y-141.654
X51.75Y-9.9
X51.75Y-11.297
X51.75Y-87.171
X51.75Y-88.568
X51.826Y-31.769
X51.826Y-33.679
X51.826Y-35.589
X51.826Y-38.551
X51.826Y-40.461
X51.826Y-109.04
X51.826Y-110.95
X51.826Y-112.86
X51.826Y-115.822
X51.826Y-117.732
X52.614Y-25.623
X52.614Y-102.893
X52.639Y-24.886
X52.639Y-102.157
X53.122Y-24.327
X53.122Y-101.598
X53.509Y-24.918
X53.509Y-102.189
X53.736Y-31.769
X53.736Y-33.679
X53.736Y-35.589
X53.736Y-38.551
X53.736Y-40.461
X53.736Y-109.04
X53.736Y-110.95
X53.736Y-112.86
X53.736Y-115.822
X53.736Y-117.732
X54.004Y-25.413
X54.004Y-102.683
X54.087Y-45.943
X54.087Y-123.213
X54.747Y-25.648
X54.747Y-102.919
X55.357Y-46.476
X55.357Y-123.747
X55.646Y-31.769
X55.646Y-33.679
X55.646Y-35.589
X55.646Y-40.461
X55.646Y-109.04
X55.646Y-110.95
X55.646Y-112.86
X55.646Y-117.732
X57.556Y-31.769
X57.556Y-33.679
X57.556Y-35.589
X57.556Y-109.04
X57.556Y-110.95
X57.556Y-112.86
X58.71Y-42.92
X58.71Y-120.191
X58.887Y-42.183
X58.887Y-119.454
X59.141Y-12.389
X59.141Y-12.999
X59.141Y-89.66
X59.141Y-90.269
X59.421Y-42.996
X59.421Y-120.267
X59.466Y-31.769
X59.466Y-33.679
X59.466Y-35.589
X59.466Y-109.04
X59.466Y-110.95
X59.466Y-112.86
X60.157Y-42.996
X60.157Y-120.267
X62.91Y-11.297
X62.91Y-88.568
X65.592Y-43.109
X65.592Y-120.38
X66.787Y-43.098
X66.787Y-120.368
X68.057Y-43.098
X68.057Y-120.368
X69.936Y-22.803
X69.936Y-100.074
X70.368Y-25.673
X70.368Y-102.944
X71.156Y-24.226
X71.156Y-101.496
X80.899Y-40.278
X80.899Y-117.549
X82.809Y-40.278
X82.809Y-117.549
X84.719Y-40.278
X84.719Y-41.426
X84.719Y-117.549
X84.719Y-118.697
X86.629Y-40.278
X86.629Y-41.426
X86.629Y-117.549
X86.629Y-118.697
X87.299Y-30.347
X87.299Y-107.618
X87.833Y-48.178
X87.833Y-125.448
X87.934Y-37.154
X87.934Y-114.425
X88.341Y-39.161
X88.341Y-116.431
X88.539Y-41.426
X88.539Y-118.697
X88.696Y-31.922
X88.696Y-109.192
X89.306Y-22.067
X89.306Y-99.337
X89.331Y-27.731
X89.331Y-105.001
X90.449Y-41.426
X90.449Y-118.697
X90.855Y-47.06
X90.855Y-49.219
X90.855Y-124.331
X90.855Y-126.49
X91.694Y-41.548
X91.694Y-118.819
X91.744Y-50.311
X91.744Y-127.582
X91.922Y-43.326
X91.922Y-120.597
X92.329Y-34.513
X92.329Y-111.783
X92.379Y-22.067
X92.379Y-99.337
X92.659Y-42.691
X92.659Y-119.962
X92.938Y-35.757
X92.938Y-113.028
X92.964Y-25.292
X92.964Y-26.029
X92.964Y-38.145
X92.964Y-102.563
X92.964Y-103.3
X92.964Y-115.415
X93.945Y-31.37
X93.945Y-31.827
X93.945Y-108.641
X93.945Y-109.098
X94.132Y-43.352
X94.132Y-120.622
X94.36Y-28.276
X94.36Y-28.809
X94.36Y-29.368
X94.36Y-105.546
X94.36Y-106.08
X94.36Y-106.639
X94.792Y-22.067
X94.792Y-99.337
X94.893Y-28.53
X94.893Y-29.089
X94.893Y-105.8
X94.893Y-106.359
X95.25Y-48.203
X95.25Y-48.965
X95.25Y-125.474
X95.25Y-126.236
X95.351Y-46.501
X95.351Y-123.772
X96.367Y-26.41
X96.367Y-103.681
X96.901Y-23.743
X96.901Y-101.014
X97.053Y-34.513
X97.053Y-111.783
X97.536Y-36.418
X97.536Y-113.688
X97.815Y-21.152
X97.815Y-98.423
X98.494Y-27.818
X98.494Y-105.088
X98.679Y-36.57
X98.679Y-39.618
X98.679Y-113.841
X98.679Y-116.889
X99.161Y-40.228
X99.161Y-117.498
X99.23Y-27.586
X99.23Y-104.856
X99.415Y-36.545
X99.415Y-113.815
X99.675Y-39.643
X99.675Y-116.914
X99.822Y-65.501
X99.822Y-66.237
X99.822Y-142.771
X99.822Y-143.508
X100.38Y-41.32
X100.38Y-118.59
X100.964Y-45.878
X100.964Y-123.149
X101.168Y-27.68
X101.168Y-36.951
X101.168Y-104.951
X101.168Y-114.222
X102.184Y-44.927
X102.184Y-122.197
X102.489Y-27.705
X102.489Y-104.976
X102.717Y-36.849
X102.717Y-114.12
X102.997Y-43.403
X102.997Y-120.673
X103.174Y-48.813
X103.174Y-126.083
X103.352Y-27.705
X103.352Y-104.976
X103.606Y-38.018
X103.606Y-115.288
X103.962Y-21.152
X103.962Y-33.065
X103.962Y-98.423
X103.962Y-110.335
X103.987Y-44.444
X103.987Y-46.628
X103.987Y-121.715
X103.987Y-123.899
X104.851Y-23.794
X104.851Y-101.064
X105.537Y-40.786
X105.537Y-118.057
X106.003Y-49.457
X106.003Y-126.728
X106.502Y-38.348
X106.502Y-115.619
X106.553Y-46.603
X106.553Y-123.874
X106.68Y-27.07
X106.68Y-104.341
X107.01Y-44.444
X107.01Y-121.715
X108.254Y-21.686
X108.254Y-98.956
X108.28Y-20.06
X108.28Y-23.21
X108.28Y-97.331
X108.28Y-100.48
X108.305Y-37.307
X108.305Y-114.577
X109.804Y-19.044
X109.804Y-96.315
X110.007Y-41.828
X110.007Y-119.098
X110.591Y-18.333
X110.591Y-95.603
X110.744Y-70.733
X110.744Y-71.433
X110.744Y-72.133
X110.744Y-148.004
X110.744Y-148.704
X110.744Y-149.404
X110.794Y-17.52
X110.794Y-19.12
X110.794Y-94.791
X110.794Y-96.391
X111.226Y-40.355
X111.226Y-117.625
X111.379Y-18.307
X111.379Y-95.578
X111.582Y-36.113
X111.582Y-113.383
X112.106Y-18.307
X112.106Y-95.578
X112.344Y-39.237
X112.344Y-116.508
X112.649Y-17.495
X112.649Y-19.095
X112.649Y-94.765
X112.649Y-96.365
X112.776Y-39.796
X112.776Y-117.066
X112.928Y-18.307
X112.928Y-95.578
X113.766Y-43.453
X113.766Y-120.724
X113.919Y-73.248
X113.919Y-150.518
X115.468Y-25.008
X115.468Y-26.918
X115.468Y-102.279
X115.468Y-104.189
X115.849Y-34.182
X115.849Y-111.453
X115.925Y-37.484
X115.925Y-39.394
X115.925Y-114.755
X115.925Y-116.665
X116.205Y-41.345
X116.205Y-118.616
X116.255Y-40.634
X116.255Y-117.905
X117.144Y-35.427
X117.144Y-112.698
X117.378Y-25.008
X117.378Y-26.918
X117.378Y-102.279
X117.378Y-104.189
X117.72Y-69.92
X117.72Y-147.191
X117.835Y-37.484
X117.835Y-39.394
X117.835Y-114.755
X117.835Y-116.665
X118.084Y-70.987
X118.084Y-148.258
X118.42Y-69.92
X118.42Y-147.191
X119.288Y-25.008
X119.288Y-26.918
X119.288Y-102.279
X119.288Y-104.189
X119.481Y-31.515
X119.481Y-108.786
X119.583Y-33.573
X119.583Y-110.843
X119.745Y-37.484
X119.745Y-39.394
X119.745Y-114.755
X119.745Y-116.665
X119.811Y-35.478
X119.811Y-112.748
X120.243Y-33.573
X120.243Y-110.843
X120.65Y-35.452
X120.65Y-112.723
X120.878Y-73.146
X120.878Y-150.417
X121.081Y-40.685
X121.081Y-117.955
X121.198Y-25.008
X121.198Y-26.918
X121.198Y-102.279
X121.198Y-104.189
X121.259Y-35.046
X121.259Y-112.317
X122.072Y-32.227
X122.072Y-109.497
X122.351Y-34.182
X122.351Y-111.453
X123.19Y-40.71
X123.19Y-117.981
X123.444Y-30.957
X123.444Y-108.227
X124.815Y-30.195
X124.815Y-107.465
X125.272Y-29.636
X125.272Y-106.906
X125.374Y-39.339
X125.374Y-40.024
X125.374Y-116.609
X125.374Y-117.295
X125.577Y-64.459
X125.577Y-141.73
X125.736Y-29.083
X125.736Y-106.354
X125.882Y-63.773
X125.882Y-65.145
X125.882Y-141.044
X125.882Y-142.416
X126.187Y-28.544
X126.187Y-105.814
X126.669Y-28.01
X126.669Y-105.281
X126.923Y-41.193
X126.923Y-118.463
X127.685Y-63.9
X127.685Y-141.171
X127.711Y-64.866
X127.711Y-142.136
X128.905Y-41.218
X128.905Y-118.489
X129.286Y-63.748
X129.286Y-141.019
X129.489Y-64.383
X129.489Y-141.654
X130.429Y-9.9
X130.429Y-11.297
X130.429Y-87.171
X130.429Y-88.568
X130.505Y-31.769
X130.505Y-33.679
X130.505Y-35.589
X130.505Y-38.551
X130.505Y-40.461
X130.505Y-109.04
X130.505Y-110.95
X130.505Y-112.86
X130.505Y-115.822
X130.505Y-117.732
X131.292Y-25.623
X131.292Y-102.893
X131.318Y-24.886
X131.318Y-102.157
X131.8Y-24.327
X131.8Y-101.598
X132.188Y-24.918
X132.188Y-102.189
X132.415Y-31.769
X132.415Y-33.679
X132.415Y-35.589
X132.415Y-38.551
X132.415Y-40.461
X132.415Y-109.04
X132.415Y-110.95
X132.415Y-112.86
X132.415Y-115.822
X132.415Y-117.732
X132.683Y-25.413
X132.683Y-102.683
X132.765Y-45.943
X132.765Y-123.213
X133.426Y-25.648
X133.426Y-102.919
X134.035Y-46.476
X134.035Y-123.747
X134.325Y-31.769
X134.325Y-33.679
X134.325Y-35.589
X134.325Y-40.461
X134.325Y-109.04
X134.325Y-110.95
X134.325Y-112.86
X134.325Y-117.732
X136.235Y-31.769
X136.235Y-33.679
X136.235Y-35.589
X136.235Y-109.04
X136.235Y-110.95
X136.235Y-112.86
X137.388Y-42.92
X137.388Y-120.191
X137.566Y-42.183
X137.566Y-119.454
X137.82Y-12.389
X137.82Y-12.999
X137.82Y-89.66
X137.82Y-90.269
X138.099Y-42.996
X138.099Y-120.267
X138.145Y-31.769
X138.145Y-33.679
X138.145Y-35.589
X138.145Y-109.04
X138.145Y-110.95
X138.145Y-112.86
X138.836Y-42.996
X138.836Y-120.267
X141.588Y-11.297
X141.588Y-88.568
X144.271Y-43.109
X144.271Y-120.38
X145.465Y-43.098
X145.465Y-120.368
X146.735Y-43.098
X146.735Y-120.368
X148.615Y-22.803
X148.615Y-100.074
X149.047Y-25.673
X149.047Y-102.944
X149.834Y-24.226
X149.834Y-101.496
X159.577Y-40.278
X159.577Y-117.549
X161.487Y-40.278
X161.487Y-117.549
X163.397Y-40.278
X163.397Y-41.426
X163.397Y-117.549
X163.397Y-118.697
X165.307Y-40.278
X165.307Y-41.426
X165.307Y-117.549
X165.307Y-118.697
X165.978Y-30.347
X165.978Y-107.618
X166.511Y-48.178
X166.511Y-125.448
X166.613Y-37.154
X166.613Y-114.425
X167.019Y-39.161
X167.019Y-116.431
X167.217Y-41.426
X167.217Y-118.697
X167.375Y-31.922
X167.375Y-109.192
X167.985Y-22.067
X167.985Y-99.337
X168.01Y-27.731
X168.01Y-105.001
X169.127Y-41.426
X169.127Y-118.697
X169.534Y-47.06
X169.534Y-49.219
X169.534Y-124.331
X169.534Y-126.49
X170.372Y-41.548
X170.372Y-118.819
X170.423Y-50.311
X170.423Y-127.582
X170.601Y-43.326
X170.601Y-120.597
X171.007Y-34.513
X171.007Y-111.783
X171.058Y-22.067
X171.058Y-99.337
X171.337Y-42.691
X171.337Y-119.962
X171.617Y-35.757
X171.617Y-113.028
X171.642Y-25.292
X171.642Y-26.029
X171.642Y-38.145
X171.642Y-102.563
X171.642Y-103.3
X171.642Y-115.415
X172.624Y-31.37
X172.624Y-31.827
X172.624Y-108.641
X172.624Y-109.098
X172.811Y-43.352
X172.811Y-120.622
X173.038Y-28.276
X173.038Y-28.809
X173.038Y-29.368
X173.038Y-105.546
X173.038Y-106.08
X173.038Y-106.639
X173.471Y-22.067
X173.471Y-99.337
X173.572Y-28.53
X173.572Y-29.089
X173.572Y-105.8
X173.572Y-106.359
X173.928Y-48.203
X173.928Y-48.965
X173.928Y-125.474
X173.928Y-126.236
X174.03Y-46.501
X174.03Y-123.772
X175.046Y-26.41
X175.046Y-103.681
X175.579Y-23.743
X175.579Y-101.014
X175.732Y-34.513
X175.732Y-111.783
X176.214Y-36.418
X176.214Y-113.688
X176.494Y-21.152
X176.494Y-98.423
X177.173Y-27.818
X177.173Y-105.088
X177.357Y-36.57
X177.357Y-39.618
X177.357Y-113.841
X177.357Y-116.889
X177.84Y-40.228
X177.84Y-117.498
X177.909Y-27.586
X177.909Y-104.856
X178.094Y-36.545
X178.094Y-113.815
X178.353Y-39.643
X178.353Y-116.914
X178.5Y-65.501
X178.5Y-66.237
X178.5Y-142.771
X178.5Y-143.508
X179.059Y-41.32
X179.059Y-118.59
X179.642Y-45.878
X179.642Y-123.149
X179.846Y-27.68
X179.846Y-36.951
X179.846Y-104.951
X179.846Y-114.222
X180.862Y-44.927
X180.862Y-122.197
X181.167Y-27.705
X181.167Y-104.976
X181.396Y-36.849
X181.396Y-114.12
X181.675Y-43.403
X181.675Y-120.673
X181.853Y-48.813
X181.853Y-126.083
X182.031Y-27.705
X182.031Y-104.976
X182.285Y-38.018
X182.285Y-115.288
X182.64Y-21.152
X182.64Y-33.065
X182.64Y-98.423
X182.64Y-110.335
X182.666Y-44.444
X182.666Y-46.628
X182.666Y-121.715
X182.666Y-123.899
X183.529Y-23.794
X183.529Y-101.064
X184.215Y-40.786
X184.215Y-118.057
X184.682Y-49.457
X184.682Y-126.728
X185.18Y-38.348
X185.18Y-115.619
X185.231Y-46.603
X185.231Y-123.874
X185.358Y-27.07
X185.358Y-104.341
X185.688Y-44.444
X185.688Y-121.715
X186.933Y-21.686
X186.933Y-98.956
X186.958Y-20.06
X186.958Y-23.21
X186.958Y-97.331
X186.958Y-100.48
X186.984Y-37.307
X186.984Y-114.577
X188.482Y-19.044
X188.482Y-96.315
X188.686Y-41.828
X188.686Y-119.098
X189.27Y-18.333
X189.27Y-95.603
X189.422Y-70.733
X189.422Y-71.433
X189.422Y-72.133
X189.422Y-148.004
X189.422Y-148.704
X189.422Y-149.404
X189.473Y-17.52
X189.473Y-19.12
X189.473Y-94.791
X189.473Y-96.391
X189.905Y-40.355
X189.905Y-117.625
X190.057Y-18.307
X190.057Y-95.578
X190.26Y-36.113
X190.26Y-113.383
X190.784Y-18.307
X190.784Y-95.578
X191.022Y-39.237
X191.022Y-116.508
X191.327Y-17.495
X191.327Y-19.095
X191.327Y-94.765
X191.327Y-96.365
X191.454Y-39.796
X191.454Y-117.066
X191.607Y-18.307
X191.607Y-95.578
X192.445Y-43.453
X192.445Y-120.724
X192.597Y-73.248
X192.597Y-150.518
X194.147Y-25.008
X194.147Y-26.918
X194.147Y-102.279
X194.147Y-104.189
X194.528Y-34.182
X194.528Y-111.453
X194.604Y-37.484
X194.604Y-39.394
X194.604Y-114.755
X194.604Y-116.665
X194.883Y-41.345
X194.883Y-118.616
X194.934Y-40.634
X194.934Y-117.905
X195.823Y-35.427
X195.823Y-112.698
X196.057Y-25.008
X196.057Y-26.918
X196.057Y-102.279
X196.057Y-104.189
X196.399Y-69.92
X196.399Y-147.191
X196.514Y-37.484
X196.514Y-39.394
X196.514Y-114.755
X196.514Y-116.665
X196.763Y-70.987
X196.763Y-148.258
X197.099Y-69.92
X197.099Y-147.191
X197.967Y-25.008
X197.967Y-26.918
X197.967Y-102.279
X197.967Y-104.189
X198.16Y-31.515
X198.16Y-108.786
X198.261Y-33.573
X198.261Y-110.843
X198.424Y-37.484
X198.424Y-39.394
X198.424Y-114.755
X198.424Y-116.665
X198.49Y-35.478
X198.49Y-112.748
X198.922Y-33.573
X198.922Y-110.843
X199.328Y-35.452
X199.328Y-112.723
X199.557Y-73.146
X199.557Y-150.417
X199.76Y-40.685
X199.76Y-117.955
X199.877Y-25.008
X199.877Y-26.918
X199.877Y-102.279
X199.877Y-104.189
X199.938Y-35.046
X199.938Y-112.317
X200.751Y-32.227
X200.751Y-109.497
X201.03Y-34.182
X201.03Y-111.453
X201.868Y-40.71
X201.868Y-117.981
X202.122Y-30.957
X202.122Y-108.227
X203.494Y-30.195
X203.494Y-107.465
X203.951Y-29.636
X203.951Y-106.906
X204.053Y-39.339
X204.053Y-40.024
X204.053Y-116.609
X204.053Y-117.295
X204.256Y-64.459
X204.256Y-141.73
X204.415Y-29.083
X204.415Y-106.354
X204.561Y-63.773
X204.561Y-65.145
X204.561Y-141.044
X204.561Y-142.416
X204.865Y-28.544
X204.865Y-105.814
X205.348Y-28.01
X205.348Y-105.281
X205.602Y-41.193
X205.602Y-118.463
X206.364Y-63.9
X206.364Y-141.171
X206.389Y-64.866
X206.389Y-142.136
X207.583Y-41.218
X207.583Y-118.489
X207.964Y-63.748
X207.964Y-141.019
X208.167Y-64.383
X208.167Y-141.654
X209.107Y-9.9
X209.107Y-11.297
X209.107Y-87.171
X209.107Y-88.568
X209.183Y-31.769
X209.183Y-33.679
X209.183Y-35.589
X209.183Y-38.551
X209.183Y-40.461
X209.183Y-109.04
X209.183Y-110.95
X209.183Y-112.86
X209.183Y-115.822
X209.183Y-117.732
X209.971Y-25.623
X209.971Y-102.893
X209.996Y-24.886
X209.996Y-102.157
X210.479Y-24.327
X210.479Y-101.598
X210.866Y-24.918
X210.866Y-102.189
X211.093Y-31.769
X211.093Y-33.679
X211.093Y-35.589
X211.093Y-38.551
X211.093Y-40.461
X211.093Y-109.04
X211.093Y-110.95
X211.093Y-112.86
X211.093Y-115.822
X211.093Y-117.732
X211.361Y-25.413
X211.361Y-102.683
X211.444Y-45.943
X211.444Y-123.213
X212.104Y-25.648
X212.104Y-102.919
X212.714Y-46.476
X212.714Y-123.747
X213.003Y-31.769
X213.003Y-33.679
X213.003Y-35.589
X213.003Y-40.461
X213.003Y-109.04
X213.003Y-110.95
X213.003Y-112.86
X213.003Y-117.732
X214.913Y-31.769
X214.913Y-33.679
X214.913Y-35.589
X214.913Y-109.04
X214.913Y-110.95
X214.913Y-112.86
X216.067Y-42.92
X216.067Y-120.191
X216.245Y-42.183
X216.245Y-119.454
X216.499Y-12.389
X216.499Y-12.999
X216.499Y-89.66
X216.499Y-90.269
X216.778Y-42.996
X216.778Y-120.267
X216.823Y-31.769
X216.823Y-33.679
X216.823Y-35.589
X216.823Y-109.04
X216.823Y-110.95
X216.823Y-112.86
X217.515Y-42.996
X217.515Y-120.267
X220.267Y-11.297
X220.267Y-88.568
X222.949Y-43.109
X222.949Y-120.38
X224.144Y-43.098
X224.144Y-120.368
X225.414Y-43.098
X225.414Y-120.368
X227.294Y-22.803
X227.294Y-100.074
X227.725Y-25.673
X227.725Y-102.944
X228.513Y-24.226
X228.513Y-101.496
T2
X62.357Y-33.564
X62.357Y-34.814
X62.357Y-110.835
X62.357Y-112.085
X62.982Y-32.939
X62.982Y-34.189
X62.982Y-35.439
X62.982Y-110.21
X62.982Y-111.46
X62.982Y-112.71
X63.607Y-33.564
X63.607Y-34.814
X63.607Y-110.835
X63.607Y-112.085
X64.232Y-32.939
X64.232Y-34.189
X64.232Y-35.439
X64.232Y-110.21
X64.232Y-111.46
X64.232Y-112.71
X64.857Y-33.564
X64.857Y-34.814
X64.857Y-110.835
X64.857Y-112.085
X141.035Y-33.564
X141.035Y-34.814
X141.035Y-110.835
X141.035Y-112.085
X141.66Y-32.939
X141.66Y-34.189
X141.66Y-35.439
X141.66Y-110.21
X141.66Y-111.46
X141.66Y-112.71
X142.285Y-33.564
X142.285Y-34.814
X142.285Y-110.835
X142.285Y-112.085
X142.91Y-32.939
X142.91Y-34.189
X142.91Y-35.439
X142.91Y-110.21
X142.91Y-111.46
X142.91Y-112.71
X143.535Y-33.564
X143.535Y-34.814
X143.535Y-110.835
X143.535Y-112.085
X219.714Y-33.564
X219.714Y-34.814
X219.714Y-110.835
X219.714Y-112.085
X220.339Y-32.939
X220.339Y-34.189
X220.339Y-35.439
X220.339Y-110.21
X220.339Y-111.46
X220.339Y-112.71
X220.964Y-33.564
X220.964Y-34.814
X220.964Y-110.835
X220.964Y-112.085
X221.589Y-32.939
X221.589Y-34.189
X221.589Y-35.439
X221.589Y-110.21
X221.589Y-111.46
X221.589Y-112.71
X222.214Y-33.564
X222.214Y-34.814
X222.214Y-110.835
X222.214Y-112.085
T3
X20.377Y-22.768
X20.377Y-23.768
X20.377Y-24.768
X20.377Y-100.039
X20.377Y-101.039
X20.377Y-102.039
X21.577Y-22.768
X21.577Y-23.768
X21.577Y-24.768
X21.577Y-100.039
X21.577Y-101.039
X21.577Y-102.039
X22.777Y-22.768
X22.777Y-23.768
X22.777Y-24.768
X22.777Y-100.039
X22.777Y-101.039
X22.777Y-102.039
X23.977Y-22.768
X23.977Y-23.768
X23.977Y-24.768
X23.977Y-100.039
X23.977Y-101.039
X23.977Y-102.039
X26.374Y-47.565
X26.374Y-48.565
X26.374Y-124.836
X26.374Y-125.836
X99.055Y-22.768
X99.055Y-23.768
X99.055Y-24.768
X99.055Y-100.039
X99.055Y-101.039
X99.055Y-102.039
X100.255Y-22.768
X100.255Y-23.768
X100.255Y-24.768
X100.255Y-100.039
X100.255Y-101.039
X100.255Y-102.039
X101.455Y-22.768
X101.455Y-23.768
X101.455Y-24.768
X101.455Y-100.039
X101.455Y-101.039
X101.455Y-102.039
X102.655Y-22.768
X102.655Y-23.768
X102.655Y-24.768
X102.655Y-100.039
X102.655Y-101.039
X102.655Y-102.039
X105.053Y-47.565
X105.053Y-48.565
X105.053Y-124.836
X105.053Y-125.836
X177.734Y-22.768
X177.734Y-23.768
X177.734Y-24.768
X177.734Y-100.039
X177.734Y-101.039
X177.734Y-102.039
X178.934Y-22.768
X178.934Y-23.768
X178.934Y-24.768
X178.934Y-100.039
X178.934Y-101.039
X178.934Y-102.039
X180.134Y-22.768
X180.134Y-23.768
X180.134Y-24.768
X180.134Y-100.039
X180.134Y-101.039
X180.134Y-102.039
X181.334Y-22.768
X181.334Y-23.768
X181.334Y-24.768
X181.334Y-100.039
X181.334Y-101.039
X181.334Y-102.039
X183.732Y-47.565
X183.732Y-48.565
X183.732Y-124.836
X183.732Y-125.836
T4
X47.965Y-64.485
X47.965Y-141.755
X49.947Y-64.434
X49.947Y-141.704
X126.644Y-64.485
X126.644Y-141.755
X128.625Y-64.434
X128.625Y-141.704
X205.323Y-64.485
X205.323Y-141.755
X207.304Y-64.434
X207.304Y-141.704
T5
X18.197Y-21.051
X18.197Y-98.321
X20.94Y-19.12
X20.94Y-96.391
X23.365Y-19.133
X23.365Y-96.404
X26.172Y-20.873
X26.172Y-98.143
X29.905Y-31.629
X29.905Y-33.356
X29.905Y-108.899
X29.905Y-110.626
X32.065Y-45.525
X32.065Y-122.796
X96.875Y-21.051
X96.875Y-98.321
X99.618Y-19.12
X99.618Y-96.391
X102.044Y-19.133
X102.044Y-96.404
X104.851Y-20.873
X104.851Y-98.143
X108.584Y-31.629
X108.584Y-33.356
X108.584Y-108.899
X108.584Y-110.626
X110.744Y-45.525
X110.744Y-122.796
X175.554Y-21.051
X175.554Y-98.321
X178.297Y-19.12
X178.297Y-96.391
X180.723Y-19.133
X180.723Y-96.404
X183.529Y-20.873
X183.529Y-98.143
X187.262Y-31.629
X187.262Y-33.356
X187.262Y-108.899
X187.262Y-110.626
X189.422Y-45.525
X189.422Y-122.796
T7
X27.112Y-61.335
X27.112Y-63.875
X27.112Y-138.606
X27.112Y-141.146
X29.652Y-61.335
X29.652Y-63.875
X29.652Y-138.606
X29.652Y-141.146
X32.192Y-61.335
X32.192Y-63.875
X32.192Y-138.606
X32.192Y-141.146
X34.732Y-61.335
X34.732Y-63.875
X34.732Y-138.606
X34.732Y-141.146
X35.183Y-9.492
X35.183Y-86.763
X37.272Y-61.335
X37.272Y-63.875
X37.272Y-138.606
X37.272Y-141.146
X37.723Y-9.492
X37.723Y-86.763
X39.812Y-61.335
X39.812Y-63.875
X39.812Y-138.606
X39.812Y-141.146
X40.263Y-9.492
X40.263Y-86.763
X42.352Y-61.335
X42.352Y-63.875
X42.352Y-138.606
X42.352Y-141.146
X42.803Y-9.492
X42.803Y-86.763
X105.791Y-61.335
X105.791Y-63.875
X105.791Y-138.606
X105.791Y-141.146
X108.331Y-61.335
X108.331Y-63.875
X108.331Y-138.606
X108.331Y-141.146
X110.871Y-61.335
X110.871Y-63.875
X110.871Y-138.606
X110.871Y-141.146
X113.411Y-61.335
X113.411Y-63.875
X113.411Y-138.606
X113.411Y-141.146
X113.862Y-9.492
X113.862Y-86.763
X115.951Y-61.335
X115.951Y-63.875
X115.951Y-138.606
X115.951Y-141.146
X116.402Y-9.492
X116.402Y-86.763
X118.491Y-61.335
X118.491Y-63.875
X118.491Y-138.606
X118.491Y-141.146
X118.942Y-9.492
X118.942Y-86.763
X121.031Y-61.335
X121.031Y-63.875
X121.031Y-138.606
X121.031Y-141.146
X121.482Y-9.492
X121.482Y-86.763
X184.469Y-61.335
X184.469Y-63.875
X184.469Y-138.606
X184.469Y-141.146
X187.009Y-61.335
X187.009Y-63.875
X187.009Y-138.606
X187.009Y-141.146
X189.549Y-61.335
X189.549Y-63.875
X189.549Y-138.606
X189.549Y-141.146
X192.089Y-61.335
X192.089Y-63.875
X192.089Y-138.606
X192.089Y-141.146
X192.54Y-9.492
X192.54Y-86.763
X194.629Y-61.335
X194.629Y-63.875
X194.629Y-138.606
X194.629Y-141.146
X195.08Y-9.492
X195.08Y-86.763
X197.169Y-61.335
X197.169Y-63.875
X197.169Y-138.606
X197.169Y-141.146
X197.62Y-9.492
X197.62Y-86.763
X199.709Y-61.335
X199.709Y-63.875
X199.709Y-138.606
X199.709Y-141.146
X200.16Y-9.492
X200.16Y-86.763
T6
X34.673Y-74.096G85X34.673Y-75.196
G05
X34.673Y-78.446G85X34.673Y-79.246
G05
X34.673Y-151.366G85X34.673Y-152.466
G05
X34.673Y-155.716G85X34.673Y-156.516
G05
X43.313Y-74.096G85X43.313Y-75.196
G05
X43.313Y-78.446G85X43.313Y-79.246
G05
X43.313Y-151.366G85X43.313Y-152.466
G05
X43.313Y-155.716G85X43.313Y-156.516
G05
X113.352Y-74.096G85X113.352Y-75.196
G05
X113.352Y-78.446G85X113.352Y-79.246
G05
X113.352Y-151.366G85X113.352Y-152.466
G05
X113.352Y-155.716G85X113.352Y-156.516
G05
X121.992Y-74.096G85X121.992Y-75.196
G05
X121.992Y-78.446G85X121.992Y-79.246
G05
X121.992Y-151.366G85X121.992Y-152.466
G05
X121.992Y-155.716G85X121.992Y-156.516
G05
X192.03Y-74.096G85X192.03Y-75.196
G05
X192.03Y-78.446G85X192.03Y-79.246
G05
X192.03Y-151.366G85X192.03Y-152.466
G05
X192.03Y-155.716G85X192.03Y-156.516
G05
X200.67Y-74.096G85X200.67Y-75.196
G05
X200.67Y-78.446G85X200.67Y-79.246
G05
X200.67Y-151.366G85X200.67Y-152.466
G05
X200.67Y-155.716G85X200.67Y-156.516
G05
M30
