%TF.GenerationSoftware,KiCad,Pcbnew,10.0.3*%
%TF.CreationDate,2026-05-30T17:55:04+02:00*%
%TF.ProjectId,rover-circuit-panelized,726f7665-722d-4636-9972-637569742d70,rev?*%
%TF.SameCoordinates,Original*%
%TF.FileFunction,Profile,NP*%
%FSLAX46Y46*%
G04 Gerber Fmt 4.6, Leading zero omitted, Abs format (unit mm)*
G04 Created by KiCad (PCBNEW 10.0.3) date 2026-05-30 17:55:04*
%MOMM*%
%LPD*%
G01*
G04 APERTURE LIST*
%TA.AperFunction,Profile*%
%ADD10C,0.100000*%
%TD*%
G04 APERTURE END LIST*
D10*
X0Y-6136D02*
X1000Y-4999869D01*
X0Y-238815572D02*
X507Y-243809101D01*
X39Y-36398754D02*
X87538Y-38373424D01*
X39Y-190939927D02*
X88420Y-192927234D01*
X280Y-113681969D02*
X88420Y-115656635D01*
X507Y-243809101D02*
X317984539Y-243808928D01*
X1000Y-4999869D02*
X36993353Y-5000000D01*
X1000Y-238809566D02*
X0Y-238815572D01*
X1098Y-123D02*
X0Y-6136D01*
X12702Y-34422187D02*
X39Y-36398754D01*
X12702Y-111692786D02*
X280Y-113681969D01*
X12702Y-188963385D02*
X39Y-190939927D01*
X87538Y-38373424D02*
X274972Y-40341124D01*
X88420Y-115656635D02*
X274972Y-117611723D01*
X88420Y-192927234D02*
X276489Y-194894848D01*
X124457Y-187002574D02*
X12702Y-188963385D01*
X125494Y-32448801D02*
X12702Y-34422187D01*
X125496Y-109719375D02*
X12702Y-111692786D01*
X274972Y-40341124D02*
X561862Y-42296800D01*
X274972Y-117611723D02*
X561858Y-119567374D01*
X276489Y-194894848D02*
X564012Y-196850432D01*
X336452Y-185037368D02*
X124457Y-187002574D01*
X338125Y-30483664D02*
X125494Y-32448801D01*
X338125Y-107754263D02*
X125496Y-109719375D01*
X561858Y-119567374D02*
X947470Y-121506028D01*
X561862Y-42296800D02*
X947465Y-44235404D01*
X564012Y-196850432D02*
X947470Y-198776627D01*
X647740Y-105814854D02*
X338125Y-107754263D01*
X647740Y-183085453D02*
X336452Y-185037368D01*
X650053Y-28531799D02*
X338125Y-30483664D01*
X947465Y-44235404D02*
X1430806Y-46152031D01*
X947470Y-121506028D02*
X1430806Y-123422630D01*
X947470Y-198776627D02*
X1430800Y-200693204D01*
X1057534Y-103881167D02*
X647740Y-105814854D01*
X1060464Y-26598295D02*
X650053Y-28531799D01*
X1060470Y-181139468D02*
X647740Y-183085453D01*
X1430800Y-200693204D02*
X2014644Y-202594869D01*
X1430806Y-46152031D02*
X2010620Y-48041658D01*
X1430806Y-123422630D02*
X2014636Y-125324246D01*
X1564761Y-24700176D02*
X1060464Y-26598295D01*
X1564768Y-101970751D02*
X1057534Y-103881167D01*
X1568316Y-179229241D02*
X1060470Y-181139468D01*
X2010620Y-48041658D02*
X2690065Y-49911299D01*
X2014636Y-125324246D02*
X2690065Y-127181898D01*
X2014644Y-202594869D02*
X2690055Y-204452474D01*
X2168137Y-22817913D02*
X1564761Y-24700176D01*
X2168145Y-100088488D02*
X1564768Y-101970751D01*
X2172302Y-177347174D02*
X1568316Y-179229241D01*
X2690055Y-204452474D02*
X3453528Y-206261998D01*
X2690065Y-49911299D02*
X3458726Y-51732298D01*
X2690065Y-127181898D02*
X3453528Y-128991399D01*
X2866113Y-20968615D02*
X2168137Y-22817913D01*
X2870868Y-98227526D02*
X2168145Y-100088488D01*
X2870878Y-175498102D02*
X2172302Y-177347174D01*
X3453528Y-128991399D02*
X4312889Y-130771392D01*
X3453528Y-206261998D02*
X4312900Y-208042014D01*
X3458726Y-51732298D02*
X4318674Y-53512035D01*
X3656881Y-19157079D02*
X2866113Y-20968615D01*
X3662222Y-96416246D02*
X2870868Y-98227526D01*
X3662222Y-173686845D02*
X2870878Y-175498102D01*
X4312889Y-130771392D02*
X5261355Y-132505603D01*
X4312900Y-208042014D02*
X5261342Y-209776180D01*
X4318674Y-53512035D02*
X5267690Y-55245917D01*
X4538415Y-17387937D02*
X3656881Y-19157079D01*
X4538415Y-171929135D02*
X3662222Y-173686845D01*
X4544332Y-94647385D02*
X3662222Y-96416246D01*
X5261342Y-209776180D02*
X6303350Y-211470707D01*
X5261355Y-132505603D02*
X6303336Y-134200087D01*
X5267690Y-55245917D02*
X6303350Y-56929509D01*
X5510954Y-15661392D02*
X4538415Y-17387937D01*
X5510954Y-92931991D02*
X4544332Y-94647385D01*
X5512249Y-170200320D02*
X4538415Y-171929135D01*
X6303336Y-134200087D02*
X7422967Y-135829044D01*
X6303350Y-56929509D02*
X7422952Y-58558425D01*
X6303350Y-211470707D02*
X7422952Y-213099623D01*
X7422952Y-58558425D02*
X8623662Y-60128543D01*
X7422952Y-213099623D02*
X8615747Y-214659915D01*
X7422967Y-135829044D02*
X8623678Y-137399162D01*
X8615747Y-214659915D02*
X9893979Y-216167594D01*
X8623662Y-60128543D02*
X9902382Y-61635810D01*
X8623678Y-137399162D02*
X9893979Y-138896995D01*
X9893979Y-138896995D02*
X11246939Y-140337958D01*
X9893979Y-216167594D02*
X11246957Y-217608575D01*
X9902382Y-61635810D02*
X11255825Y-63076352D01*
X10511519Y-84271057D02*
X5510954Y-92931991D01*
X10511629Y-161541555D02*
X5512249Y-170200320D01*
X10511710Y-7000299D02*
X5510954Y-15661392D01*
X11246939Y-140337958D02*
X12680538Y-141717087D01*
X11246957Y-217608575D02*
X12671207Y-218979154D01*
X11255825Y-63076352D02*
X12680519Y-64446471D01*
X12671207Y-218979154D02*
X14163050Y-220275796D01*
X12680519Y-64446471D02*
X14172801Y-65742646D01*
X12680538Y-141717087D02*
X14172801Y-143013245D01*
X14163050Y-220275796D02*
X15718712Y-221495218D01*
X14172801Y-65742646D02*
X15728838Y-66961548D01*
X14172801Y-143013245D02*
X15718712Y-144224619D01*
X15718712Y-144224619D02*
X17334140Y-145363640D01*
X15718712Y-221495218D02*
X17334119Y-222634225D01*
X15728838Y-66961548D02*
X17344656Y-68100060D01*
X17334119Y-222634225D02*
X19016061Y-223696427D01*
X17334140Y-145363640D02*
X19005182Y-146419337D01*
X17344656Y-68100060D02*
X19016039Y-69155217D01*
X19005182Y-146419337D02*
X20738781Y-147394958D01*
X19016039Y-69155217D02*
X20738758Y-70124348D01*
X19016061Y-223696427D02*
X20738758Y-224665546D01*
X20738758Y-70124348D02*
X22508367Y-71004950D01*
X20738758Y-224665546D02*
X22508367Y-225546148D01*
X20738781Y-147394958D02*
X22508367Y-148275549D01*
X22508367Y-71004950D02*
X24320343Y-71794772D01*
X22508367Y-148275549D02*
X24308606Y-149060603D01*
X22508367Y-225546148D02*
X24320319Y-226335961D01*
X24308606Y-149060603D02*
X26169985Y-149762363D01*
X24320319Y-226335961D02*
X26158046Y-227028804D01*
X24320343Y-71794772D02*
X26169961Y-72491756D01*
X26158046Y-227028804D02*
X28040431Y-227631797D01*
X26169961Y-72491756D02*
X28052566Y-73094147D01*
X26169985Y-149762363D02*
X28052542Y-150364739D01*
X28040431Y-227631797D02*
X29950950Y-228138642D01*
X28052542Y-150364739D02*
X29950950Y-150868043D01*
X28052566Y-73094147D02*
X29963225Y-73600367D01*
X29950950Y-150868043D02*
X31884696Y-151277439D01*
X29950950Y-228138642D02*
X31884696Y-228548038D01*
X29963225Y-73600367D02*
X31884696Y-74006840D01*
X31884696Y-74006840D02*
X33446248Y-74256212D01*
X31884696Y-151277439D02*
X33446248Y-151526811D01*
X31884696Y-228548038D02*
X33446248Y-228797410D01*
X33446248Y-74256212D02*
X33493281Y-74268484D01*
X33446248Y-151526811D02*
X33493281Y-151539083D01*
X33446248Y-228797410D02*
X33493281Y-228809682D01*
X33493281Y-74268484D02*
X33538897Y-74285274D01*
X33493281Y-151539083D02*
X33538897Y-151555873D01*
X33493281Y-228809682D02*
X33516294Y-228817521D01*
X33516294Y-228817521D02*
X33561038Y-228836513D01*
X33538897Y-74285274D02*
X33561038Y-74295315D01*
X33538897Y-151555873D02*
X33561038Y-151565914D01*
X33561038Y-74295315D02*
X33603722Y-74318570D01*
X33561038Y-151565914D02*
X33603722Y-151589169D01*
X33561038Y-228836513D02*
X33603722Y-228859768D01*
X33603722Y-74318570D02*
X33643941Y-74345868D01*
X33603722Y-151589169D02*
X33643941Y-151616467D01*
X33603722Y-228859768D02*
X33624164Y-228872927D01*
X33624164Y-228872927D02*
X33663006Y-228902151D01*
X33643941Y-74345868D02*
X33663006Y-74360953D01*
X33643941Y-151616467D02*
X33681314Y-151647548D01*
X33663006Y-74360953D02*
X33698820Y-74393818D01*
X33663006Y-228902151D02*
X33698820Y-228935016D01*
X33681314Y-151647548D02*
X33698820Y-151664417D01*
X33698820Y-74393818D02*
X33731267Y-74430011D01*
X33698820Y-151664417D02*
X33731267Y-151700610D01*
X33698820Y-228935016D02*
X33731267Y-228971209D01*
X33731267Y-74430011D02*
X33746130Y-74449249D01*
X33731267Y-151700610D02*
X33760038Y-151739788D01*
X33731267Y-228971209D02*
X33746130Y-228990447D01*
X33746130Y-74449249D02*
X33772959Y-74489783D01*
X33746130Y-228990447D02*
X33772959Y-229030981D01*
X33760038Y-151739788D02*
X33784861Y-151781580D01*
X33772959Y-74489783D02*
X33795717Y-74532734D01*
X33772959Y-229030981D02*
X33795717Y-229073932D01*
X33784861Y-151781580D02*
X33805500Y-151825589D01*
X33795717Y-74532734D02*
X33814188Y-74577695D01*
X33795717Y-229073932D02*
X33814188Y-229118893D01*
X33805500Y-151825589D02*
X33821760Y-151871397D01*
X33814188Y-74577695D02*
X33821760Y-74600798D01*
X33814188Y-229118893D02*
X33828197Y-229165439D01*
X33821760Y-74600798D02*
X33833485Y-74647970D01*
X33821760Y-151871397D02*
X33833485Y-151918569D01*
X33828197Y-229165439D02*
X33833485Y-229189168D01*
X33833485Y-74647970D02*
X33840565Y-74696060D01*
X33833485Y-151918569D02*
X33837611Y-151942528D01*
X33833485Y-229189168D02*
X33840565Y-229237258D01*
X33837611Y-151942528D02*
X33842340Y-151990905D01*
X33840565Y-74696060D02*
X33842933Y-74744622D01*
X33840565Y-229237258D02*
X33842933Y-229285820D01*
X33842340Y-151990905D02*
X33843124Y-159255153D01*
X33842933Y-74744622D02*
X33843143Y-81984599D01*
X33842933Y-229285820D02*
X33843124Y-236525752D01*
X33843124Y-159255153D02*
X34773954Y-159349837D01*
X33843124Y-236525752D02*
X34773954Y-236620436D01*
X33843143Y-81984599D02*
X34773954Y-82079238D01*
X34773954Y-82079238D02*
X35709163Y-82154756D01*
X34773954Y-159349837D02*
X35709163Y-159425355D01*
X34773954Y-236620436D02*
X35709163Y-236695954D01*
X35709163Y-82154756D02*
X36645722Y-82211435D01*
X35709163Y-159425355D02*
X36645722Y-159482034D01*
X35709163Y-236695954D02*
X36645722Y-236752633D01*
X36645722Y-82211435D02*
X37013438Y-82226298D01*
X36645722Y-159482034D02*
X37038033Y-159498497D01*
X36645722Y-236752633D02*
X37038033Y-236769096D01*
X36993353Y-5000000D02*
X37017850Y-5000601D01*
X36993353Y-161541198D02*
X10511629Y-161541555D01*
X36993353Y-238809436D02*
X1000Y-238809566D01*
X37013438Y-82226298D02*
X37038033Y-82227898D01*
X37017850Y-5000601D02*
X37066584Y-5005401D01*
X37017850Y-6999398D02*
X10511710Y-7000299D01*
X37017850Y-84269997D02*
X10511519Y-84271057D01*
X37038033Y-82227898D02*
X37086811Y-82234722D01*
X37038033Y-159498497D02*
X37086811Y-159505321D01*
X37038033Y-236769096D02*
X37062506Y-236771906D01*
X37042276Y-161538794D02*
X36993353Y-161541198D01*
X37042276Y-238807032D02*
X36993353Y-238809436D01*
X37062506Y-236771906D02*
X37110888Y-236781129D01*
X37066584Y-5005401D02*
X37114613Y-5014954D01*
X37066584Y-6994598D02*
X37017850Y-6999398D01*
X37066584Y-84265197D02*
X37017850Y-84269997D01*
X37086811Y-82234722D02*
X37110888Y-82239931D01*
X37086811Y-159505321D02*
X37134679Y-159516921D01*
X37090716Y-161531609D02*
X37042276Y-161538794D01*
X37090716Y-238799847D02*
X37042276Y-238807032D01*
X37110888Y-82239931D02*
X37158125Y-82253879D01*
X37110888Y-236781129D02*
X37158125Y-236795077D01*
X37114613Y-5014954D02*
X37161474Y-5029169D01*
X37114613Y-6985045D02*
X37066584Y-6994598D01*
X37114613Y-84255644D02*
X37066584Y-84265197D01*
X37134679Y-159516921D02*
X37158125Y-159524478D01*
X37138218Y-84249111D02*
X37114613Y-84255644D01*
X37138218Y-161519710D02*
X37090716Y-161531609D01*
X37138218Y-238787948D02*
X37090716Y-238799847D01*
X37158125Y-82253879D02*
X37203757Y-82272416D01*
X37158125Y-159524478D02*
X37203757Y-159543015D01*
X37158125Y-236795077D02*
X37203757Y-236813614D01*
X37161474Y-5029169D02*
X37184325Y-5037984D01*
X37161474Y-6970830D02*
X37114613Y-6985045D01*
X37184325Y-5037984D02*
X37228593Y-5058921D01*
X37184325Y-6962015D02*
X37161474Y-6970830D01*
X37184325Y-84232614D02*
X37138218Y-84249111D01*
X37184325Y-161503213D02*
X37138218Y-161519710D01*
X37184325Y-238771451D02*
X37138218Y-238787948D01*
X37203757Y-82272416D02*
X37247339Y-82295362D01*
X37203757Y-159543015D02*
X37247339Y-159565961D01*
X37203757Y-236813614D02*
X37247339Y-236836560D01*
X37228593Y-5058921D02*
X37270595Y-5084096D01*
X37228593Y-6941078D02*
X37184325Y-6962015D01*
X37228593Y-84211677D02*
X37184325Y-84232614D01*
X37228593Y-161482276D02*
X37184325Y-161503213D01*
X37228593Y-238750514D02*
X37184325Y-238771451D01*
X37247339Y-82295362D02*
X37288447Y-82322492D01*
X37247339Y-159565961D02*
X37288447Y-159593091D01*
X37247339Y-236836560D02*
X37268228Y-236849617D01*
X37249903Y-6929006D02*
X37228593Y-6941078D01*
X37249903Y-84199605D02*
X37228593Y-84211677D01*
X37268228Y-236849617D02*
X37307947Y-236878743D01*
X37270595Y-5084096D02*
X37309928Y-5113268D01*
X37270595Y-6915903D02*
X37249903Y-6929006D01*
X37270595Y-161457101D02*
X37228593Y-161482276D01*
X37270595Y-238725339D02*
X37228593Y-238750514D01*
X37288447Y-82322492D02*
X37307947Y-82337545D01*
X37288447Y-159593091D02*
X37307947Y-159608144D01*
X37290620Y-84172399D02*
X37249903Y-84199605D01*
X37307947Y-82337545D02*
X37344601Y-82370444D01*
X37307947Y-159608144D02*
X37326680Y-159624141D01*
X37307947Y-236878743D02*
X37344601Y-236911642D01*
X37309928Y-5113268D02*
X37346212Y-5146153D01*
X37309928Y-6886731D02*
X37270595Y-6915903D01*
X37309928Y-84157330D02*
X37290620Y-84172399D01*
X37309928Y-161427929D02*
X37270595Y-161457101D01*
X37309928Y-238696168D02*
X37270595Y-238725339D01*
X37326680Y-159624141D02*
X37361666Y-159658809D01*
X37328473Y-6870734D02*
X37309928Y-6886731D01*
X37328473Y-84141333D02*
X37309928Y-84157330D01*
X37344601Y-82370444D02*
X37377833Y-82406797D01*
X37344601Y-236911642D02*
X37361666Y-236929408D01*
X37346212Y-5146153D02*
X37379098Y-5182437D01*
X37346212Y-161395044D02*
X37309928Y-161427929D01*
X37346212Y-238663282D02*
X37309928Y-238696168D01*
X37361666Y-159658809D02*
X37393063Y-159696758D01*
X37361666Y-236929408D02*
X37393063Y-236967357D01*
X37363100Y-6836107D02*
X37328473Y-6870734D01*
X37363100Y-84106706D02*
X37328473Y-84141333D01*
X37377833Y-82406797D02*
X37393063Y-82426159D01*
X37379098Y-5182437D02*
X37408269Y-5221770D01*
X37379098Y-6817562D02*
X37363100Y-6836107D01*
X37379098Y-84088161D02*
X37363100Y-84106706D01*
X37379098Y-161358760D02*
X37346212Y-161395044D01*
X37379098Y-238626998D02*
X37346212Y-238663282D01*
X37393063Y-82426159D02*
X37420566Y-82467018D01*
X37393063Y-159696758D02*
X37420566Y-159737617D01*
X37393063Y-236967357D02*
X37420566Y-237008216D01*
X37408269Y-5221770D02*
X37421372Y-5242462D01*
X37408269Y-6778229D02*
X37379098Y-6817562D01*
X37408269Y-84048828D02*
X37379098Y-84088161D01*
X37408269Y-161319427D02*
X37379098Y-161358760D01*
X37408269Y-238587665D02*
X37379098Y-238626998D01*
X37420566Y-82467018D02*
X37443908Y-82510389D01*
X37420566Y-159737617D02*
X37443908Y-159780988D01*
X37420566Y-237008216D02*
X37443908Y-237051587D01*
X37421372Y-5242462D02*
X37444456Y-5285650D01*
X37421372Y-6757537D02*
X37408269Y-6778229D01*
X37421372Y-84028136D02*
X37408269Y-84048828D01*
X37433444Y-161277424D02*
X37408269Y-161319427D01*
X37433444Y-238545662D02*
X37408269Y-238587665D01*
X37443908Y-82510389D02*
X37462860Y-82555850D01*
X37443908Y-159780988D02*
X37453945Y-159803485D01*
X37443908Y-237051587D02*
X37462860Y-237097048D01*
X37444456Y-5285650D02*
X37463196Y-5330892D01*
X37444456Y-6714349D02*
X37421372Y-6757537D01*
X37444456Y-83984948D02*
X37421372Y-84028136D01*
X37453945Y-159803485D02*
X37470631Y-159849826D01*
X37454381Y-6691958D02*
X37444456Y-6714349D01*
X37454381Y-83962557D02*
X37444456Y-83984948D01*
X37454381Y-161233156D02*
X37433444Y-161277424D01*
X37454381Y-238501394D02*
X37433444Y-238545662D01*
X37462860Y-82555850D02*
X37477238Y-82602958D01*
X37462860Y-237097048D02*
X37477238Y-237144156D01*
X37463196Y-5330892D02*
X37477411Y-5377752D01*
X37470631Y-159849826D02*
X37482666Y-159897586D01*
X37470879Y-6645851D02*
X37454381Y-6691958D01*
X37470879Y-83916450D02*
X37454381Y-83962557D01*
X37470879Y-161187049D02*
X37454381Y-161233156D01*
X37470879Y-238455288D02*
X37454381Y-238501394D01*
X37477238Y-82602958D02*
X37486902Y-82651254D01*
X37477238Y-237144156D02*
X37482666Y-237168185D01*
X37477411Y-5377752D02*
X37486965Y-5425781D01*
X37482666Y-159897586D02*
X37489935Y-159946300D01*
X37482666Y-237168185D02*
X37489935Y-237216899D01*
X37482777Y-6598350D02*
X37470879Y-6645851D01*
X37482777Y-83868949D02*
X37470879Y-83916450D01*
X37482777Y-161139548D02*
X37470879Y-161187049D01*
X37482777Y-238407786D02*
X37470879Y-238455288D01*
X37486902Y-82651254D02*
X37491757Y-82700268D01*
X37486965Y-5425781D02*
X37491764Y-5474515D01*
X37486965Y-6574218D02*
X37482777Y-6598350D01*
X37486965Y-83844817D02*
X37482777Y-83868949D01*
X37489935Y-159946300D02*
X37492366Y-159995506D01*
X37489935Y-237216899D02*
X37492366Y-237266105D01*
X37489963Y-161091108D02*
X37482777Y-161139548D01*
X37489963Y-238359346D02*
X37482777Y-238407786D01*
X37491757Y-82700268D02*
X37492366Y-82724907D01*
X37491764Y-5474515D02*
X37492366Y-5499012D01*
X37491764Y-6525484D02*
X37486965Y-6574218D01*
X37491764Y-83796083D02*
X37486965Y-83844817D01*
X37492366Y-5499012D02*
X37492366Y-6500987D01*
X37492366Y-6500987D02*
X37491764Y-6525484D01*
X37492366Y-82724907D02*
X37492366Y-83771586D01*
X37492366Y-83771586D02*
X37491764Y-83796083D01*
X37492366Y-159995506D02*
X37492366Y-161042185D01*
X37492366Y-161042185D02*
X37489963Y-161091108D01*
X37492366Y-237266105D02*
X37492366Y-238310423D01*
X37492366Y-238310423D02*
X37489963Y-238359346D01*
X40492366Y-6500987D02*
X40492967Y-5474515D01*
X40492366Y-82724952D02*
X40494797Y-82675747D01*
X40492366Y-159995551D02*
X40494797Y-159946346D01*
X40492366Y-237266150D02*
X40494797Y-237216945D01*
X40492366Y-238310423D02*
X40492366Y-237266150D01*
X40492967Y-5474515D02*
X40497767Y-5425781D01*
X40492967Y-6525484D02*
X40492366Y-6500987D01*
X40492967Y-83796083D02*
X40492366Y-82724952D01*
X40492967Y-161066682D02*
X40492366Y-159995551D01*
X40494769Y-83820509D02*
X40492967Y-83796083D01*
X40494769Y-161091108D02*
X40492967Y-161066682D01*
X40494769Y-238359346D02*
X40492366Y-238310423D01*
X40494797Y-82675747D02*
X40502065Y-82627033D01*
X40494797Y-159946346D02*
X40502065Y-159897632D01*
X40494797Y-237216945D02*
X40502065Y-237168231D01*
X40497767Y-5425781D02*
X40507320Y-5377752D01*
X40497767Y-6574218D02*
X40492967Y-6525484D01*
X40501954Y-6598350D02*
X40497767Y-6574218D01*
X40501954Y-83868949D02*
X40494769Y-83820509D01*
X40501954Y-161139548D02*
X40494769Y-161091108D01*
X40501954Y-238407786D02*
X40494769Y-238359346D01*
X40502065Y-82627033D02*
X40514101Y-82579272D01*
X40502065Y-159897632D02*
X40514101Y-159849871D01*
X40502065Y-237168231D02*
X40507494Y-237144202D01*
X40507320Y-5377752D02*
X40521536Y-5330892D01*
X40507320Y-238431683D02*
X40501954Y-238407786D01*
X40507494Y-237144202D02*
X40521872Y-237097094D01*
X40513853Y-6645851D02*
X40501954Y-6598350D01*
X40513853Y-83916450D02*
X40501954Y-83868949D01*
X40513853Y-161187049D02*
X40501954Y-161139548D01*
X40514101Y-82579272D02*
X40530786Y-82532931D01*
X40514101Y-159849871D02*
X40521872Y-159826495D01*
X40521536Y-5330892D02*
X40540275Y-5285650D01*
X40521536Y-238478543D02*
X40507320Y-238431683D01*
X40521872Y-159826495D02*
X40540824Y-159781034D01*
X40521872Y-237097094D02*
X40540824Y-237051633D01*
X40530350Y-6691958D02*
X40513853Y-6645851D01*
X40530350Y-83962557D02*
X40513853Y-83916450D01*
X40530350Y-161233156D02*
X40513853Y-161187049D01*
X40530350Y-238501394D02*
X40521536Y-238478543D01*
X40530786Y-82532931D02*
X40540824Y-82510435D01*
X40540275Y-5285650D02*
X40563359Y-5242462D01*
X40540275Y-6714349D02*
X40530350Y-6691958D01*
X40540824Y-82510435D02*
X40564165Y-82467064D01*
X40540824Y-159781034D02*
X40551959Y-159759060D01*
X40540824Y-237051633D02*
X40564165Y-237008262D01*
X40551287Y-84006825D02*
X40530350Y-83962557D01*
X40551287Y-161277424D02*
X40530350Y-161233156D01*
X40551287Y-238545662D02*
X40530350Y-238501394D01*
X40551959Y-159759060D02*
X40577412Y-159716894D01*
X40563359Y-5242462D02*
X40590565Y-5201746D01*
X40563359Y-6757537D02*
X40540275Y-6714349D01*
X40563359Y-84028136D02*
X40551287Y-84006825D01*
X40563359Y-161298735D02*
X40551287Y-161277424D01*
X40563359Y-238566973D02*
X40551287Y-238545662D01*
X40564165Y-82467064D02*
X40577412Y-82446295D01*
X40564165Y-237008262D02*
X40591668Y-236967403D01*
X40576463Y-6778229D02*
X40563359Y-6757537D01*
X40576463Y-238587665D02*
X40563359Y-238566973D01*
X40577412Y-82446295D02*
X40606899Y-82406843D01*
X40577412Y-159716894D02*
X40606899Y-159677442D01*
X40590565Y-5201746D02*
X40621631Y-5163892D01*
X40590565Y-84068852D02*
X40563359Y-84028136D01*
X40590565Y-161339451D02*
X40563359Y-161298735D01*
X40591668Y-236967403D02*
X40623066Y-236929454D01*
X40605634Y-6817562D02*
X40576463Y-6778229D01*
X40605634Y-84088161D02*
X40590565Y-84068852D01*
X40605634Y-161358760D02*
X40590565Y-161339451D01*
X40605634Y-238626998D02*
X40576463Y-238587665D01*
X40606899Y-82406843D02*
X40640131Y-82370490D01*
X40606899Y-159677442D02*
X40640131Y-159641089D01*
X40621631Y-5163892D02*
X40656258Y-5129265D01*
X40621631Y-6836107D02*
X40605634Y-6817562D01*
X40621631Y-238645543D02*
X40605634Y-238626998D01*
X40623066Y-236929454D02*
X40658052Y-236894786D01*
X40638520Y-84124445D02*
X40605634Y-84088161D01*
X40638520Y-161395044D02*
X40605634Y-161358760D01*
X40640131Y-82370490D02*
X40676785Y-82337591D01*
X40640131Y-159641089D02*
X40658052Y-159624187D01*
X40656258Y-5129265D02*
X40694112Y-5098199D01*
X40656258Y-6870734D02*
X40621631Y-6836107D01*
X40656258Y-161411932D02*
X40638520Y-161395044D01*
X40656258Y-238680170D02*
X40621631Y-238645543D01*
X40658052Y-159624187D02*
X40696285Y-159593136D01*
X40658052Y-236894786D02*
X40696285Y-236863735D01*
X40674804Y-6886731D02*
X40656258Y-6870734D01*
X40674804Y-84157330D02*
X40638520Y-84124445D01*
X40674804Y-238696168D02*
X40656258Y-238680170D01*
X40676785Y-82337591D02*
X40716504Y-82308465D01*
X40694112Y-5098199D02*
X40734829Y-5070993D01*
X40694112Y-84172399D02*
X40674804Y-84157330D01*
X40694112Y-161442998D02*
X40656258Y-161411932D01*
X40696285Y-159593136D02*
X40737392Y-159566006D01*
X40696285Y-236863735D02*
X40737392Y-236836605D01*
X40714136Y-6915903D02*
X40674804Y-6886731D01*
X40714136Y-161457101D02*
X40694112Y-161442998D01*
X40714136Y-238725339D02*
X40674804Y-238696168D01*
X40716504Y-82308465D02*
X40737392Y-82295407D01*
X40734829Y-5070993D02*
X40778016Y-5047909D01*
X40734829Y-6929006D02*
X40714136Y-6915903D01*
X40734829Y-84199605D02*
X40694112Y-84172399D01*
X40737392Y-82295407D02*
X40780975Y-82272462D01*
X40737392Y-159566006D02*
X40758900Y-159553996D01*
X40737392Y-236836605D02*
X40758900Y-236824595D01*
X40756139Y-6941078D02*
X40734829Y-6929006D01*
X40756139Y-84211677D02*
X40734829Y-84199605D01*
X40756139Y-161482276D02*
X40714136Y-161457101D01*
X40756139Y-238750514D02*
X40714136Y-238725339D01*
X40758900Y-159553996D02*
X40803562Y-159533229D01*
X40758900Y-236824595D02*
X40780975Y-236813660D01*
X40778016Y-5047909D02*
X40823258Y-5029169D01*
X40778016Y-238761526D02*
X40756139Y-238750514D01*
X40780975Y-82272462D02*
X40803562Y-82262630D01*
X40780975Y-236813660D02*
X40826606Y-236795123D01*
X40800407Y-6962015D02*
X40756139Y-6941078D01*
X40800407Y-84232614D02*
X40756139Y-84211677D01*
X40800407Y-161503213D02*
X40756139Y-161482276D01*
X40803562Y-82262630D02*
X40850053Y-82246368D01*
X40803562Y-159533229D02*
X40850053Y-159516967D01*
X40823258Y-5029169D02*
X40870119Y-5014954D01*
X40823258Y-6970830D02*
X40800407Y-6962015D01*
X40823258Y-161512028D02*
X40800407Y-161503213D01*
X40823258Y-238780266D02*
X40778016Y-238761526D01*
X40826606Y-236795123D02*
X40873844Y-236781175D01*
X40846514Y-84249111D02*
X40800407Y-84232614D01*
X40846514Y-238787948D02*
X40823258Y-238780266D01*
X40850053Y-82246368D02*
X40897921Y-82234768D01*
X40850053Y-159516967D02*
X40897921Y-159505367D01*
X40870119Y-5014954D02*
X40918147Y-5005401D01*
X40870119Y-6985045D02*
X40823258Y-6970830D01*
X40870119Y-84255644D02*
X40846514Y-84249111D01*
X40870119Y-161526243D02*
X40823258Y-161512028D01*
X40873844Y-236781175D02*
X40922226Y-236771951D01*
X40894016Y-161531609D02*
X40870119Y-161526243D01*
X40894016Y-238799847D02*
X40846514Y-238787948D01*
X40897921Y-82234768D02*
X40946699Y-82227943D01*
X40897921Y-159505367D02*
X40946699Y-159498542D01*
X40918147Y-5005401D02*
X40966881Y-5000601D01*
X40918147Y-6994598D02*
X40870119Y-6985045D01*
X40918147Y-84265197D02*
X40870119Y-84255644D01*
X40922226Y-236771951D02*
X40971293Y-236767542D01*
X40942455Y-84268195D02*
X40918147Y-84265197D01*
X40942455Y-161538794D02*
X40894016Y-161531609D01*
X40942455Y-238807032D02*
X40894016Y-238799847D01*
X40946699Y-82227943D02*
X41340143Y-82211435D01*
X40946699Y-159498542D02*
X41340143Y-159482034D01*
X40966881Y-5000601D02*
X40991378Y-5000000D01*
X40966881Y-6999398D02*
X40918147Y-6994598D01*
X40971293Y-236767542D02*
X41340143Y-236752633D01*
X40991378Y-5000000D02*
X116993400Y-5000000D01*
X40991378Y-84270599D02*
X40942455Y-84268195D01*
X40991378Y-161541198D02*
X40942455Y-161538794D01*
X40991378Y-238809436D02*
X40942455Y-238807032D01*
X41340143Y-82211435D02*
X42276702Y-82154756D01*
X41340143Y-159482034D02*
X42276702Y-159425355D01*
X41340143Y-236752633D02*
X42271692Y-236696307D01*
X42271692Y-236696307D02*
X43206909Y-236620890D01*
X42276702Y-82154756D02*
X43211911Y-82079238D01*
X42276702Y-159425355D02*
X43211911Y-159349837D01*
X43206909Y-236620890D02*
X44142783Y-236525611D01*
X43211911Y-82079238D02*
X44141932Y-81985186D01*
X43211911Y-159349837D02*
X44141932Y-159255785D01*
X44141932Y-81985186D02*
X44142932Y-70317739D01*
X44141932Y-159255785D02*
X44142932Y-147588338D01*
X44142783Y-236525611D02*
X44142932Y-224858937D01*
X44142932Y-70317739D02*
X44145336Y-70268816D01*
X44142932Y-147588338D02*
X44145336Y-147539415D01*
X44142932Y-224858937D02*
X44145336Y-224810014D01*
X44145336Y-70268816D02*
X44152521Y-70220376D01*
X44145336Y-147539415D02*
X44152521Y-147490975D01*
X44145336Y-224810014D02*
X44152521Y-224761574D01*
X44152521Y-70220376D02*
X44164420Y-70172875D01*
X44152521Y-147490975D02*
X44164420Y-147443474D01*
X44152521Y-224761574D02*
X44164420Y-224714073D01*
X44164420Y-70172875D02*
X44180917Y-70126768D01*
X44164420Y-147443474D02*
X44180917Y-147397367D01*
X44164420Y-224714073D02*
X44180917Y-224667966D01*
X44180917Y-70126768D02*
X44201854Y-70082500D01*
X44180917Y-147397367D02*
X44201854Y-147353099D01*
X44180917Y-224667966D02*
X44201854Y-224623698D01*
X44201854Y-70082500D02*
X44227029Y-70040497D01*
X44201854Y-147353099D02*
X44227029Y-147311096D01*
X44201854Y-224623698D02*
X44213926Y-224602387D01*
X44213926Y-224602387D02*
X44241132Y-224561671D01*
X44227029Y-70040497D02*
X44241132Y-70020473D01*
X44227029Y-147311096D02*
X44256201Y-147271763D01*
X44241132Y-70020473D02*
X44272198Y-69982619D01*
X44241132Y-224561671D02*
X44272198Y-224523817D01*
X44256201Y-147271763D02*
X44289086Y-147235479D01*
X44272198Y-69982619D02*
X44306825Y-69947992D01*
X44272198Y-224523817D02*
X44306825Y-224489190D01*
X44289086Y-147235479D02*
X44306825Y-147218591D01*
X44306825Y-69947992D02*
X44344679Y-69916926D01*
X44306825Y-147218591D02*
X44344679Y-147187525D01*
X44306825Y-224489190D02*
X44344679Y-224458124D01*
X44344679Y-69916926D02*
X44385395Y-69889720D01*
X44344679Y-147187525D02*
X44385395Y-147160319D01*
X44344679Y-224458124D02*
X44385395Y-224430918D01*
X44385395Y-69889720D02*
X44428583Y-69866636D01*
X44385395Y-147160319D02*
X44428583Y-147137235D01*
X44385395Y-224430918D02*
X44428583Y-224407834D01*
X44428583Y-69866636D02*
X44473825Y-69847896D01*
X44428583Y-147137235D02*
X44473825Y-147118495D01*
X44428583Y-224407834D02*
X44473825Y-224389094D01*
X44473825Y-69847896D02*
X44520685Y-69833681D01*
X44473825Y-147118495D02*
X44520685Y-147104280D01*
X44473825Y-224389094D02*
X44520685Y-224374879D01*
X44520685Y-69833681D02*
X44568714Y-69824128D01*
X44520685Y-147104280D02*
X44568714Y-147094727D01*
X44520685Y-224374879D02*
X44568714Y-224365326D01*
X44568714Y-69824128D02*
X44617448Y-69819328D01*
X44568714Y-147094727D02*
X44617448Y-147089927D01*
X44568714Y-224365326D02*
X44617448Y-224360526D01*
X44617448Y-69819328D02*
X44641945Y-69818727D01*
X44617448Y-147089927D02*
X44641945Y-147089326D01*
X44617448Y-224360526D02*
X44641945Y-224359925D01*
X44641945Y-69818727D02*
X57812865Y-69818586D01*
X44641945Y-147089326D02*
X57812865Y-147089185D01*
X44641945Y-224359925D02*
X57812865Y-224359784D01*
X57812865Y-69818586D02*
X59550779Y-68801798D01*
X57812865Y-147089185D02*
X59550779Y-146072397D01*
X57812865Y-224359784D02*
X59550779Y-223342996D01*
X59550779Y-68801798D02*
X61239043Y-67693011D01*
X59550779Y-146072397D02*
X61239043Y-144963610D01*
X59550779Y-223342996D02*
X61239043Y-222234209D01*
X61239043Y-67693011D02*
X62867618Y-66498321D01*
X61239043Y-144963610D02*
X62867618Y-143768920D01*
X61239043Y-222234209D02*
X62867618Y-221039519D01*
X62867618Y-66498321D02*
X64441987Y-65212455D01*
X62867618Y-143768920D02*
X64441987Y-142483054D01*
X62867618Y-221039519D02*
X64441987Y-219753653D01*
X64441987Y-65212455D02*
X65937842Y-63855269D01*
X64441987Y-142483054D02*
X65937842Y-141125868D01*
X64441987Y-219753653D02*
X65937842Y-218396467D01*
X65937842Y-63855269D02*
X67361444Y-62422439D01*
X65937842Y-141125868D02*
X67361444Y-139693038D01*
X65937842Y-218396467D02*
X67361444Y-216963637D01*
X67361444Y-62422439D02*
X68708955Y-60917827D01*
X67361444Y-139693038D02*
X68708955Y-138188426D01*
X67361444Y-216963637D02*
X68708955Y-215459025D01*
X67474346Y-84271057D02*
X40991378Y-84270599D01*
X67474346Y-161541656D02*
X40991378Y-161541198D01*
X67474466Y-7000617D02*
X40966881Y-6999398D01*
X68708955Y-60917827D02*
X69968928Y-59355710D01*
X68708955Y-138188426D02*
X69968928Y-136626309D01*
X68708955Y-215459025D02*
X69968928Y-213896908D01*
X69968928Y-59355710D02*
X71154169Y-57720214D01*
X69968928Y-136626309D02*
X71154169Y-134990813D01*
X69968928Y-213896908D02*
X71154169Y-212261412D01*
X71154169Y-57720214D02*
X72253132Y-56025570D01*
X71154169Y-134990813D02*
X72253132Y-133296169D01*
X71154169Y-212261412D02*
X72253132Y-210566768D01*
X72253132Y-56025570D02*
X73269075Y-54264903D01*
X72253132Y-133296169D02*
X73269075Y-131535502D01*
X72253132Y-210566768D02*
X73269075Y-208806101D01*
X72473581Y-15659059D02*
X67474466Y-7000617D01*
X72473581Y-92929658D02*
X67474346Y-84271057D01*
X72473581Y-170200257D02*
X67474346Y-161541656D01*
X73269075Y-54264903D02*
X74186313Y-52465400D01*
X73269075Y-131535502D02*
X74186313Y-129735999D01*
X73269075Y-208806101D02*
X74186313Y-207006598D01*
X73467694Y-17426279D02*
X72473581Y-15659059D01*
X73467706Y-94696901D02*
X72473581Y-92929658D01*
X73467706Y-171967500D02*
X72473581Y-170200257D01*
X74186313Y-52465400D02*
X75004218Y-50632704D01*
X74186313Y-129735999D02*
X75004218Y-127903303D01*
X74186313Y-207006598D02*
X75004218Y-205173902D01*
X74360053Y-19223899D02*
X73467694Y-17426279D01*
X74365485Y-96506191D02*
X73467706Y-94696901D01*
X74365485Y-173776790D02*
X73467706Y-171967500D01*
X75004218Y-50632704D02*
X75731091Y-48748215D01*
X75004218Y-127903303D02*
X75731091Y-126018814D01*
X75004218Y-205173902D02*
X75731091Y-203289413D01*
X75163570Y-21076977D02*
X74360053Y-19223899D01*
X75168399Y-98359559D02*
X74365485Y-96506191D01*
X75168399Y-175630158D02*
X74365485Y-173776790D01*
X75731091Y-48748215D02*
X76155031Y-47455270D01*
X75731091Y-126018814D02*
X76155031Y-124725869D01*
X75731091Y-203289413D02*
X76155031Y-201996468D01*
X75870089Y-22969219D02*
X75163570Y-21076977D01*
X75870089Y-177510417D02*
X75168399Y-175630158D01*
X75874282Y-100252011D02*
X75168399Y-98359559D01*
X76155031Y-47455270D02*
X76174338Y-47411171D01*
X76155031Y-124725869D02*
X76174338Y-124681770D01*
X76155031Y-201996468D02*
X76174338Y-201952369D01*
X76174338Y-47411171D02*
X76197804Y-47369139D01*
X76174338Y-124681770D02*
X76197804Y-124639738D01*
X76174338Y-201952369D02*
X76185564Y-201931070D01*
X76185564Y-201931070D02*
X76211031Y-201890218D01*
X76197804Y-47369139D02*
X76225212Y-47329563D01*
X76197804Y-124639738D02*
X76225212Y-124600162D01*
X76211031Y-201890218D02*
X76240316Y-201852010D01*
X76225212Y-47329563D02*
X76256306Y-47292812D01*
X76225212Y-124600162D02*
X76240316Y-124581411D01*
X76240316Y-124581411D02*
X76273146Y-124546203D01*
X76240316Y-201852010D02*
X76273146Y-201816802D01*
X76256306Y-47292812D02*
X76273146Y-47275604D01*
X76273146Y-47275604D02*
X76309216Y-47243723D01*
X76273146Y-124546203D02*
X76309216Y-124514322D01*
X76273146Y-201816802D02*
X76309216Y-201784921D01*
X76309216Y-47243723D02*
X76348190Y-47215467D01*
X76309216Y-124514322D02*
X76328362Y-124499724D01*
X76309216Y-201784921D02*
X76348190Y-201756665D01*
X76328362Y-124499724D02*
X76368654Y-124473380D01*
X76348190Y-47215467D02*
X76389706Y-47191097D01*
X76348190Y-201756665D02*
X76389706Y-201732295D01*
X76368654Y-124473380D02*
X76411297Y-124451041D01*
X76389706Y-47191097D02*
X76433376Y-47170841D01*
X76389706Y-201732295D02*
X76433376Y-201712039D01*
X76411297Y-124451041D02*
X76455894Y-124432916D01*
X76433376Y-47170841D02*
X76455894Y-47162317D01*
X76433376Y-201712039D02*
X76478796Y-201696086D01*
X76455894Y-47162317D02*
X76502030Y-47148573D01*
X76455894Y-124432916D02*
X76502030Y-124419172D01*
X76477684Y-102166076D02*
X75874282Y-100252011D01*
X76477684Y-179436675D02*
X75870089Y-177510417D01*
X76478796Y-201696086D02*
X76525541Y-201684584D01*
X76481241Y-24907871D02*
X75870089Y-22969219D01*
X76502030Y-47148573D02*
X76549275Y-47139338D01*
X76502030Y-124419172D02*
X76549275Y-124409937D01*
X76525541Y-201684584D02*
X76573177Y-201677639D01*
X76549275Y-47139338D02*
X76597191Y-47134700D01*
X76549275Y-124409937D02*
X76597191Y-124405299D01*
X76573177Y-201677639D02*
X76597191Y-201675898D01*
X76597191Y-47134700D02*
X81363237Y-47134119D01*
X76597191Y-124405299D02*
X81363237Y-124404718D01*
X76597191Y-201675898D02*
X81363237Y-201675317D01*
X76984736Y-104121208D02*
X76477684Y-102166076D01*
X76984736Y-181391807D02*
X76477684Y-179436675D01*
X76987652Y-26863195D02*
X76481241Y-24907871D01*
X77389886Y-106099970D02*
X76984736Y-104121208D01*
X77389886Y-183370569D02*
X76984736Y-181391807D01*
X77392146Y-28842091D02*
X76987652Y-26863195D01*
X77526805Y-41628951D02*
X77529855Y-41579691D01*
X77527111Y-41653634D02*
X77526805Y-41628951D01*
X77527111Y-118924233D02*
X77527721Y-118874883D01*
X77527111Y-196194832D02*
X77527721Y-196145482D01*
X77527721Y-118874883D02*
X77533204Y-118825821D01*
X77527721Y-196145482D02*
X77533204Y-196096420D01*
X77529855Y-41579691D02*
X77639408Y-40898281D01*
X77531379Y-41702804D02*
X77527111Y-41653634D01*
X77531379Y-118973403D02*
X77527111Y-118924233D01*
X77531379Y-196244002D02*
X77527111Y-196194832D01*
X77533204Y-118825821D02*
X77639408Y-118168880D01*
X77533204Y-196096420D02*
X77639408Y-195439479D01*
X77540483Y-41751311D02*
X77531379Y-41702804D01*
X77540483Y-119021910D02*
X77531379Y-118973403D01*
X77540483Y-196292509D02*
X77531379Y-196244002D01*
X77546823Y-41775168D02*
X77540483Y-41751311D01*
X77554335Y-119069281D02*
X77540483Y-119021910D01*
X77554335Y-196339880D02*
X77540483Y-196292509D01*
X77563001Y-41821796D02*
X77546823Y-41775168D01*
X77572799Y-41844453D02*
X77563001Y-41821796D01*
X77572799Y-119115052D02*
X77554335Y-119069281D01*
X77572799Y-196385651D02*
X77554335Y-196339880D01*
X77595694Y-41888176D02*
X77572799Y-41844453D01*
X77595694Y-119158775D02*
X77572799Y-119115052D01*
X77595694Y-196429374D02*
X77572799Y-196385651D01*
X77622796Y-41929423D02*
X77595694Y-41888176D01*
X77622796Y-119200022D02*
X77595694Y-119158775D01*
X77622796Y-196470621D02*
X77595694Y-196429374D01*
X77637843Y-41948991D02*
X77622796Y-41929423D01*
X77639408Y-40898281D02*
X77857694Y-38903290D01*
X77639408Y-118168880D02*
X77857694Y-116173889D01*
X77639408Y-195439479D02*
X77857694Y-193444488D01*
X77653840Y-119238390D02*
X77622796Y-119200022D01*
X77653840Y-196508989D02*
X77622796Y-196470621D01*
X77670747Y-41985777D02*
X77637843Y-41948991D01*
X77688523Y-42002905D02*
X77670747Y-41985777D01*
X77688523Y-119273504D02*
X77653840Y-119238390D01*
X77688523Y-196544103D02*
X77653840Y-196508989D01*
X77692046Y-108097053D02*
X77389886Y-106099970D01*
X77692046Y-185367652D02*
X77389886Y-183370569D01*
X77693642Y-30839249D02*
X77392146Y-28842091D01*
X77707124Y-42019133D02*
X77688523Y-42002905D01*
X77726504Y-119305020D02*
X77688523Y-119273504D01*
X77726504Y-196575619D02*
X77688523Y-196544103D01*
X77746617Y-42048732D02*
X77707124Y-42019133D01*
X77767414Y-119332630D02*
X77726504Y-119305020D01*
X77767414Y-196603229D02*
X77726504Y-196575619D01*
X77788842Y-42074285D02*
X77746617Y-42048732D01*
X77810850Y-42085465D02*
X77788842Y-42074285D01*
X77810850Y-119356064D02*
X77767414Y-119332630D01*
X77810850Y-196626663D02*
X77767414Y-196603229D01*
X77833384Y-42095542D02*
X77810850Y-42085465D01*
X77856389Y-119375092D02*
X77810850Y-119356064D01*
X77856389Y-196645691D02*
X77810850Y-196626663D01*
X77857694Y-38903290D02*
X77973473Y-36886799D01*
X77857694Y-116173889D02*
X77973473Y-114157398D01*
X77857694Y-193444488D02*
X77973473Y-191427997D01*
X77879809Y-42112294D02*
X77833384Y-42095542D01*
X77890404Y-32836478D02*
X77693642Y-30839249D01*
X77890404Y-110107077D02*
X77692046Y-108097053D01*
X77890404Y-187377676D02*
X77692046Y-185367652D01*
X77903585Y-119389528D02*
X77856389Y-119375092D01*
X77903585Y-196660127D02*
X77856389Y-196645691D01*
X77927661Y-42124379D02*
X77879809Y-42112294D01*
X77951976Y-42128632D02*
X77927661Y-42124379D01*
X77951976Y-119399231D02*
X77903585Y-119389528D01*
X77951976Y-196669830D02*
X77903585Y-196660127D01*
X77973473Y-36886799D02*
X77984433Y-34854126D01*
X77973473Y-114157398D02*
X77984433Y-112124725D01*
X77973473Y-191427997D02*
X77984433Y-189395324D01*
X77984433Y-34854126D02*
X77890404Y-32836478D01*
X77984433Y-112124725D02*
X77890404Y-110107077D01*
X77984433Y-189395324D02*
X77890404Y-187377676D01*
X78001089Y-42133508D02*
X77951976Y-42128632D01*
X78001089Y-119404107D02*
X77951976Y-119399231D01*
X78001089Y-196674706D02*
X77951976Y-196669830D01*
X78025779Y-42134119D02*
X78001089Y-42133508D01*
X78025779Y-119404718D02*
X78001089Y-119404107D01*
X78025779Y-196675317D02*
X78001089Y-196674706D01*
X79960368Y-119404718D02*
X78025779Y-119404718D01*
X79960368Y-196675317D02*
X78025779Y-196675317D01*
X79984844Y-42133518D02*
X78025779Y-42134119D01*
X79984844Y-119404117D02*
X79960368Y-119404718D01*
X79984844Y-196674716D02*
X79960368Y-196675317D01*
X80000327Y-36411395D02*
X80088466Y-38386036D01*
X80000327Y-113681994D02*
X80088466Y-115656635D01*
X80000327Y-190952593D02*
X80088466Y-192927234D01*
X80012350Y-34434799D02*
X80000327Y-36411395D01*
X80012350Y-111705398D02*
X80000327Y-113681994D01*
X80012350Y-188975997D02*
X80000327Y-190952593D01*
X80033538Y-42128726D02*
X79984844Y-42133518D01*
X80033538Y-119399325D02*
X79984844Y-119404117D01*
X80033538Y-196669924D02*
X79984844Y-196674716D01*
X80081527Y-42119189D02*
X80033538Y-42128726D01*
X80081527Y-119389788D02*
X80033538Y-119399325D01*
X80081527Y-196660387D02*
X80033538Y-196669924D01*
X80088466Y-38386036D02*
X80275018Y-40341124D01*
X80088466Y-115656635D02*
X80275016Y-117611698D01*
X80088466Y-192927234D02*
X80275016Y-194882297D01*
X80105114Y-119383266D02*
X80081527Y-119389788D01*
X80105114Y-196653865D02*
X80081527Y-196660387D01*
X80125540Y-32448801D02*
X80012350Y-34434799D01*
X80125540Y-109719400D02*
X80012350Y-111705398D01*
X80125540Y-186989999D02*
X80012350Y-188975997D01*
X80128352Y-42104997D02*
X80081527Y-42119189D01*
X80128352Y-196646195D02*
X80105114Y-196653865D01*
X80151187Y-119366796D02*
X80105114Y-119383266D01*
X80173563Y-42086288D02*
X80128352Y-42104997D01*
X80173563Y-119356887D02*
X80151187Y-119366796D01*
X80173563Y-196627486D02*
X80128352Y-196646195D01*
X80195425Y-42075294D02*
X80173563Y-42086288D01*
X80216723Y-119333840D02*
X80173563Y-119356887D01*
X80216723Y-196604439D02*
X80173563Y-196627486D01*
X80237404Y-42050159D02*
X80195425Y-42075294D01*
X80237404Y-196591357D02*
X80216723Y-196604439D01*
X80257419Y-119306677D02*
X80216723Y-119333840D01*
X80257419Y-196577276D02*
X80237404Y-196591357D01*
X80275018Y-40341124D02*
X80454083Y-41562600D01*
X80275016Y-117611698D02*
X80454083Y-118833199D01*
X80275016Y-194882297D02*
X80454083Y-196103798D01*
X80276719Y-42021033D02*
X80237404Y-42050159D01*
X80295259Y-119275659D02*
X80257419Y-119306677D01*
X80295259Y-196546258D02*
X80257419Y-196577276D01*
X80312993Y-41988197D02*
X80276719Y-42021033D01*
X80312993Y-119258796D02*
X80295259Y-119275659D01*
X80312993Y-196529395D02*
X80295259Y-196546258D01*
X80338171Y-30483664D02*
X80125540Y-32448801D01*
X80338174Y-107754238D02*
X80125540Y-109719400D01*
X80338174Y-185024837D02*
X80125540Y-186989999D01*
X80345877Y-41951967D02*
X80312993Y-41988197D01*
X80345877Y-119222566D02*
X80312993Y-119258796D01*
X80345877Y-196493165D02*
X80312993Y-196529395D01*
X80360947Y-119203285D02*
X80345877Y-119222566D01*
X80375054Y-41912690D02*
X80345877Y-41951967D01*
X80375054Y-196453888D02*
X80345877Y-196493165D01*
X80388164Y-119162625D02*
X80360947Y-119203285D01*
X80400245Y-41870744D02*
X80375054Y-41912690D01*
X80400245Y-119141343D02*
X80388164Y-119162625D01*
X80400245Y-196411942D02*
X80375054Y-196453888D01*
X80411268Y-196390094D02*
X80400245Y-196411942D01*
X80421206Y-41826534D02*
X80400245Y-41870744D01*
X80421206Y-119097133D02*
X80400245Y-119141343D01*
X80430037Y-119074310D02*
X80421206Y-119097133D01*
X80430037Y-196344909D02*
X80411268Y-196390094D01*
X80437737Y-41780482D02*
X80421206Y-41826534D01*
X80444290Y-119027503D02*
X80430037Y-119074310D01*
X80444290Y-196298102D02*
X80430037Y-196344909D01*
X80449679Y-41733034D02*
X80437737Y-41780482D01*
X80449679Y-119003633D02*
X80444290Y-119027503D01*
X80449679Y-196274232D02*
X80444290Y-196298102D01*
X80454083Y-41562600D02*
X80457045Y-41586904D01*
X80454083Y-118833199D02*
X80457045Y-118857503D01*
X80454083Y-196103798D02*
X80457045Y-196128102D01*
X80456916Y-41684643D02*
X80449679Y-41733034D01*
X80456916Y-118955242D02*
X80449679Y-119003633D01*
X80456916Y-196225841D02*
X80449679Y-196274232D01*
X80457045Y-41586904D02*
X80459379Y-41635777D01*
X80457045Y-118857503D02*
X80459379Y-118906376D01*
X80457045Y-196128102D02*
X80459379Y-196176975D01*
X80459379Y-41635777D02*
X80456916Y-41684643D01*
X80459379Y-118906376D02*
X80456916Y-118955242D01*
X80459379Y-196176975D02*
X80456916Y-196225841D01*
X80647790Y-105814829D02*
X80338174Y-107754238D01*
X80650094Y-28531824D02*
X80338171Y-30483664D01*
X80650094Y-183073022D02*
X80338174Y-185024837D01*
X81057574Y-103881191D02*
X80647790Y-105814829D01*
X81057574Y-181151790D02*
X80650094Y-183073022D01*
X81060510Y-26598295D02*
X80650094Y-28531824D01*
X81363237Y-47134119D02*
X81412031Y-47136509D01*
X81363237Y-124404718D02*
X81412031Y-124407108D01*
X81363237Y-201675317D02*
X81412031Y-201677707D01*
X81412031Y-47136509D02*
X81436276Y-47139491D01*
X81412031Y-124407108D02*
X81460346Y-124414256D01*
X81412031Y-201677707D02*
X81460346Y-201684855D01*
X81436276Y-47139491D02*
X81484183Y-47148995D01*
X81460346Y-124414256D02*
X81484183Y-124419594D01*
X81460346Y-201684855D02*
X81484183Y-201690193D01*
X81484183Y-47148995D02*
X81507731Y-47155493D01*
X81484183Y-124419594D02*
X81507731Y-124426092D01*
X81484183Y-201690193D02*
X81530932Y-201704335D01*
X81507731Y-47155493D02*
X81553731Y-47171906D01*
X81507731Y-124426092D02*
X81553731Y-124442505D01*
X81530932Y-201704335D02*
X81553731Y-201713104D01*
X81553731Y-47171906D02*
X81576074Y-47181780D01*
X81553731Y-124442505D02*
X81597907Y-124463336D01*
X81553731Y-201713104D02*
X81597907Y-201733935D01*
X81564814Y-101970751D02*
X81057574Y-103881191D01*
X81564814Y-179241350D02*
X81057574Y-181151790D01*
X81568362Y-24688043D02*
X81060510Y-26598295D01*
X81576074Y-47181780D02*
X81619178Y-47204748D01*
X81597907Y-124463336D02*
X81619178Y-124475347D01*
X81597907Y-201733935D02*
X81619178Y-201745946D01*
X81619178Y-47204748D02*
X81639835Y-47217786D01*
X81619178Y-124475347D02*
X81659829Y-124502419D01*
X81619178Y-201745946D02*
X81639835Y-201758984D01*
X81639835Y-47217786D02*
X81679113Y-47246815D01*
X81639835Y-201758984D02*
X81679113Y-201788013D01*
X81659829Y-124502419D02*
X81679113Y-124517414D01*
X81679113Y-47246815D02*
X81697640Y-47262736D01*
X81679113Y-124517414D02*
X81697640Y-124533335D01*
X81679113Y-201788013D02*
X81715365Y-201820742D01*
X81697640Y-47262736D02*
X81732247Y-47297200D01*
X81697640Y-124533335D02*
X81732247Y-124567799D01*
X81715365Y-201820742D02*
X81732247Y-201838398D01*
X81732247Y-47297200D02*
X81748244Y-47315661D01*
X81732247Y-124567799D02*
X81748244Y-124586260D01*
X81732247Y-201838398D02*
X81763319Y-201876080D01*
X81748244Y-47315661D02*
X81777435Y-47354818D01*
X81748244Y-124586260D02*
X81777435Y-124625417D01*
X81763319Y-201876080D02*
X81777435Y-201896016D01*
X81777435Y-47354818D02*
X81790558Y-47375421D01*
X81777435Y-124625417D02*
X81790558Y-124646020D01*
X81777435Y-201896016D02*
X81790558Y-201916619D01*
X81790558Y-47375421D02*
X81813704Y-47418430D01*
X81790558Y-124646020D02*
X81813704Y-124689029D01*
X81790558Y-201916619D02*
X81813704Y-201959628D01*
X81813704Y-47418430D02*
X81832534Y-47463494D01*
X81813704Y-124689029D02*
X81832534Y-124734093D01*
X81813704Y-201959628D02*
X81832534Y-202004692D01*
X81832534Y-47463494D02*
X81840277Y-47486675D01*
X81832534Y-124734093D02*
X81840277Y-124757274D01*
X81832534Y-202004692D02*
X81840277Y-202027873D01*
X81840277Y-47486675D02*
X82014690Y-48053671D01*
X81840277Y-124757274D02*
X82014690Y-125324270D01*
X81840277Y-202027873D02*
X82014690Y-202594869D01*
X82014690Y-48053671D02*
X82685492Y-49899530D01*
X82014690Y-125324270D02*
X82685492Y-127170129D01*
X82014690Y-202594869D02*
X82685492Y-204440728D01*
X82168191Y-22817889D02*
X81568362Y-24688043D01*
X82172348Y-100076575D02*
X81564814Y-101970751D01*
X82172348Y-177347174D02*
X81564814Y-179241350D01*
X82685492Y-49899530D02*
X83458783Y-51732321D01*
X82685492Y-127170129D02*
X83458783Y-129002920D01*
X82685492Y-204440728D02*
X83458783Y-206273519D01*
X82866159Y-20968615D02*
X82168191Y-22817889D01*
X82870924Y-98227503D02*
X82172348Y-100076575D01*
X82870924Y-175498102D02*
X82172348Y-177347174D01*
X83458783Y-51732321D02*
X84318732Y-53512057D01*
X83458783Y-129002920D02*
X84318720Y-130782634D01*
X83458783Y-206273519D02*
X84312946Y-208042014D01*
X83656927Y-19157079D02*
X82866159Y-20968615D01*
X83662268Y-96416246D02*
X82870924Y-98227503D01*
X83662268Y-173686845D02*
X82870924Y-175498102D01*
X84312946Y-208042014D02*
X85261388Y-209776180D01*
X84318720Y-130782634D02*
X85261388Y-132505581D01*
X84318732Y-53512057D02*
X85261401Y-55235004D01*
X84538450Y-17387960D02*
X83656927Y-19157079D01*
X84538461Y-94658536D02*
X83662268Y-96416246D01*
X84538461Y-171929135D02*
X83662268Y-173686845D01*
X85261388Y-132505581D02*
X86296489Y-134189488D01*
X85261388Y-209776180D02*
X86296489Y-211460087D01*
X85261401Y-55235004D02*
X86296489Y-56918889D01*
X85512295Y-15659122D02*
X84538450Y-17387960D01*
X85512295Y-92929721D02*
X84538461Y-94658536D01*
X85512295Y-170200320D02*
X84538461Y-171929135D01*
X86296489Y-56918889D02*
X87415591Y-58548210D01*
X86296489Y-134189488D02*
X87415591Y-135818809D01*
X86296489Y-211460087D02*
X87415591Y-213089408D01*
X87415591Y-58548210D02*
X88615793Y-60118717D01*
X87415591Y-135818809D02*
X88615793Y-137389316D01*
X87415591Y-213089408D02*
X88615793Y-214659915D01*
X88615793Y-60118717D02*
X89894025Y-61626396D01*
X88615793Y-137389316D02*
X89894025Y-138896995D01*
X88615793Y-214659915D02*
X89894025Y-216167594D01*
X89894025Y-61626396D02*
X91247004Y-63067377D01*
X89894025Y-138896995D02*
X91247004Y-140337976D01*
X89894025Y-216167594D02*
X91247004Y-217608575D01*
X90511601Y-7000423D02*
X85512295Y-15659122D01*
X90511637Y-84270988D02*
X85512295Y-92929721D01*
X90511637Y-161541587D02*
X85512295Y-170200320D01*
X91247004Y-63067377D02*
X92680585Y-64446488D01*
X91247004Y-140337976D02*
X92671254Y-141708555D01*
X91247004Y-217608575D02*
X92671254Y-218979154D01*
X92671254Y-141708555D02*
X94163097Y-143005197D01*
X92671254Y-218979154D02*
X94163097Y-220275796D01*
X92680585Y-64446488D02*
X94172848Y-65742646D01*
X94163097Y-143005197D02*
X95728885Y-144232147D01*
X94163097Y-220275796D02*
X95728885Y-221502746D01*
X94172848Y-65742646D02*
X95728885Y-66961548D01*
X95728885Y-66961548D02*
X97334187Y-68093041D01*
X95728885Y-144232147D02*
X97334187Y-145363640D01*
X95728885Y-221502746D02*
X97334187Y-222634239D01*
X97334187Y-68093041D02*
X99005229Y-69148738D01*
X97334187Y-145363640D02*
X99005229Y-146419337D01*
X97334187Y-222634239D02*
X99005229Y-223689936D01*
X99005229Y-69148738D02*
X100738828Y-70124359D01*
X99005229Y-146419337D02*
X100738828Y-147394958D01*
X99005229Y-223689936D02*
X100738828Y-224665557D01*
X100738828Y-70124359D02*
X102496979Y-70999615D01*
X100738828Y-147394958D02*
X102496979Y-148270214D01*
X100738828Y-224665557D02*
X102496979Y-225540813D01*
X102496979Y-70999615D02*
X104308653Y-71790004D01*
X102496979Y-148270214D02*
X104308653Y-149060603D01*
X102496979Y-225540813D02*
X104308653Y-226331202D01*
X104308653Y-71790004D02*
X106170032Y-72491764D01*
X104308653Y-149060603D02*
X106170032Y-149762363D01*
X104308653Y-226331202D02*
X106170032Y-227032962D01*
X106170032Y-72491764D02*
X108052589Y-73094140D01*
X106170032Y-149762363D02*
X108052589Y-150364739D01*
X106170032Y-227032962D02*
X108052589Y-227635338D01*
X108052589Y-73094140D02*
X109950997Y-73597444D01*
X108052589Y-150364739D02*
X109950997Y-150868043D01*
X108052589Y-227635338D02*
X109950997Y-228138642D01*
X109950997Y-73597444D02*
X111884743Y-74006840D01*
X109950997Y-150868043D02*
X111884743Y-151277439D01*
X109950997Y-228138642D02*
X111884743Y-228548038D01*
X111884743Y-74006840D02*
X113446295Y-74256212D01*
X111884743Y-151277439D02*
X113446295Y-151526811D01*
X111884743Y-228548038D02*
X113446295Y-228797410D01*
X113446295Y-74256212D02*
X113493328Y-74268484D01*
X113446295Y-151526811D02*
X113493328Y-151539083D01*
X113446295Y-228797410D02*
X113493328Y-228809682D01*
X113493328Y-74268484D02*
X113516341Y-74276323D01*
X113493328Y-151539083D02*
X113538944Y-151555873D01*
X113493328Y-228809682D02*
X113538944Y-228826472D01*
X113516341Y-74276323D02*
X113561085Y-74295315D01*
X113538944Y-151555873D02*
X113561085Y-151565914D01*
X113538944Y-228826472D02*
X113582711Y-228847621D01*
X113561085Y-74295315D02*
X113603769Y-74318570D01*
X113561085Y-151565914D02*
X113603769Y-151589169D01*
X113582711Y-228847621D02*
X113603769Y-228859768D01*
X113603769Y-74318570D02*
X113643988Y-74345868D01*
X113603769Y-151589169D02*
X113643988Y-151616467D01*
X113603769Y-228859768D02*
X113643988Y-228887066D01*
X113643988Y-74345868D02*
X113663053Y-74360953D01*
X113643988Y-151616467D02*
X113681361Y-151647548D01*
X113643988Y-228887066D02*
X113663053Y-228902151D01*
X113663053Y-74360953D02*
X113698867Y-74393818D01*
X113663053Y-228902151D02*
X113698867Y-228935016D01*
X113681361Y-151647548D02*
X113715532Y-151682118D01*
X113698867Y-74393818D02*
X113731314Y-74430011D01*
X113698867Y-228935016D02*
X113731314Y-228971209D01*
X113715532Y-151682118D02*
X113731314Y-151700610D01*
X113731314Y-74430011D02*
X113760085Y-74469189D01*
X113731314Y-151700610D02*
X113760085Y-151739788D01*
X113731314Y-228971209D02*
X113760085Y-229010387D01*
X113760085Y-74469189D02*
X113784908Y-74510981D01*
X113760085Y-151739788D02*
X113784908Y-151781580D01*
X113760085Y-229010387D02*
X113784908Y-229052179D01*
X113784908Y-74510981D02*
X113805547Y-74554990D01*
X113784908Y-151781580D02*
X113805547Y-151825589D01*
X113784908Y-229052179D02*
X113805547Y-229096188D01*
X113805547Y-74554990D02*
X113821807Y-74600798D01*
X113805547Y-151825589D02*
X113821807Y-151871397D01*
X113805547Y-229096188D02*
X113814235Y-229118893D01*
X113814235Y-229118893D02*
X113828244Y-229165439D01*
X113821807Y-74600798D02*
X113833532Y-74647970D01*
X113821807Y-151871397D02*
X113833532Y-151918569D01*
X113828244Y-229165439D02*
X113837658Y-229213127D01*
X113833532Y-74647970D02*
X113837658Y-74671929D01*
X113833532Y-151918569D02*
X113837658Y-151942528D01*
X113837658Y-74671929D02*
X113842387Y-74720306D01*
X113837658Y-151942528D02*
X113842387Y-151990905D01*
X113837658Y-229213127D02*
X113842387Y-229261504D01*
X113842387Y-74720306D02*
X113843171Y-81984554D01*
X113842387Y-151990905D02*
X113843171Y-159255153D01*
X113842387Y-229261504D02*
X113843171Y-236525752D01*
X113843171Y-81984554D02*
X114774001Y-82079238D01*
X113843171Y-159255153D02*
X114774001Y-159349837D01*
X113843171Y-236525752D02*
X114774001Y-236620436D01*
X114774001Y-82079238D02*
X115709210Y-82154756D01*
X114774001Y-159349837D02*
X115709210Y-159425355D01*
X114774001Y-236620436D02*
X115709210Y-236695954D01*
X115709210Y-82154756D02*
X116645769Y-82211435D01*
X115709210Y-159425355D02*
X116645769Y-159482034D01*
X115709210Y-236695954D02*
X116645769Y-236752633D01*
X116645769Y-82211435D02*
X117038080Y-82227898D01*
X116645769Y-159482034D02*
X117038080Y-159498497D01*
X116645769Y-236752633D02*
X117038080Y-236769096D01*
X116993400Y-5000000D02*
X117017897Y-5000601D01*
X116993400Y-84270599D02*
X90511637Y-84270988D01*
X116993400Y-161541198D02*
X90511637Y-161541587D01*
X116993400Y-238809436D02*
X40991378Y-238809436D01*
X117017897Y-5000601D02*
X117066631Y-5005401D01*
X117017897Y-6999398D02*
X90511601Y-7000423D01*
X117038080Y-82227898D02*
X117086858Y-82234722D01*
X117038080Y-159498497D02*
X117086858Y-159505321D01*
X117038080Y-236769096D02*
X117062553Y-236771906D01*
X117042323Y-84268195D02*
X116993400Y-84270599D01*
X117042323Y-161538794D02*
X116993400Y-161541198D01*
X117042323Y-238807032D02*
X116993400Y-238809436D01*
X117062553Y-236771906D02*
X117110935Y-236781129D01*
X117066631Y-5005401D02*
X117114660Y-5014954D01*
X117066631Y-6994598D02*
X117017897Y-6999398D01*
X117086858Y-82234722D02*
X117134726Y-82246322D01*
X117086858Y-159505321D02*
X117134726Y-159516921D01*
X117090763Y-6990411D02*
X117066631Y-6994598D01*
X117090763Y-84261010D02*
X117042323Y-84268195D01*
X117090763Y-161531609D02*
X117042323Y-161538794D01*
X117090763Y-238799847D02*
X117042323Y-238807032D01*
X117110935Y-236781129D02*
X117158172Y-236795077D01*
X117114660Y-5014954D02*
X117161521Y-5029169D01*
X117114660Y-6985045D02*
X117090763Y-6990411D01*
X117134726Y-82246322D02*
X117158172Y-82253879D01*
X117134726Y-159516921D02*
X117181217Y-159533183D01*
X117138265Y-84249111D02*
X117090763Y-84261010D01*
X117138265Y-161519710D02*
X117090763Y-161531609D01*
X117138265Y-238787948D02*
X117090763Y-238799847D01*
X117158172Y-82253879D02*
X117203804Y-82272416D01*
X117158172Y-236795077D02*
X117203804Y-236813614D01*
X117161521Y-5029169D02*
X117206763Y-5047909D01*
X117161521Y-6970830D02*
X117114660Y-6985045D01*
X117181217Y-159533183D02*
X117203804Y-159543015D01*
X117184372Y-6962015D02*
X117161521Y-6970830D01*
X117184372Y-84232614D02*
X117138265Y-84249111D01*
X117184372Y-161503213D02*
X117138265Y-161519710D01*
X117184372Y-238771451D02*
X117138265Y-238787948D01*
X117203804Y-82272416D02*
X117225878Y-82283351D01*
X117203804Y-159543015D02*
X117225878Y-159553950D01*
X117203804Y-236813614D02*
X117247386Y-236836560D01*
X117206763Y-5047909D02*
X117249950Y-5070993D01*
X117225878Y-82283351D02*
X117268275Y-82308419D01*
X117225878Y-159553950D02*
X117268275Y-159579018D01*
X117228640Y-6941078D02*
X117184372Y-6962015D01*
X117228640Y-84211677D02*
X117184372Y-84232614D01*
X117228640Y-161482276D02*
X117184372Y-161503213D01*
X117228640Y-238750514D02*
X117184372Y-238771451D01*
X117247386Y-236836560D02*
X117268275Y-236849617D01*
X117249950Y-5070993D02*
X117290667Y-5098199D01*
X117249950Y-6929006D02*
X117228640Y-6941078D01*
X117268275Y-82308419D02*
X117307994Y-82337545D01*
X117268275Y-159579018D02*
X117307994Y-159608144D01*
X117268275Y-236849617D02*
X117307994Y-236878743D01*
X117270642Y-84186502D02*
X117228640Y-84211677D01*
X117270642Y-161457101D02*
X117228640Y-161482276D01*
X117270642Y-238725339D02*
X117228640Y-238750514D01*
X117290667Y-5098199D02*
X117328520Y-5129265D01*
X117290667Y-6901800D02*
X117249950Y-6929006D01*
X117307994Y-82337545D02*
X117326727Y-82353542D01*
X117307994Y-159608144D02*
X117344648Y-159641043D01*
X117307994Y-236878743D02*
X117344648Y-236911642D01*
X117309975Y-6886731D02*
X117290667Y-6901800D01*
X117309975Y-84157330D02*
X117270642Y-84186502D01*
X117309975Y-161427929D02*
X117270642Y-161457101D01*
X117309975Y-238696168D02*
X117270642Y-238725339D01*
X117326727Y-82353542D02*
X117361713Y-82388210D01*
X117328520Y-5129265D02*
X117363147Y-5163892D01*
X117344648Y-159641043D02*
X117377880Y-159677396D01*
X117344648Y-236911642D02*
X117377880Y-236947995D01*
X117346259Y-6853846D02*
X117309975Y-6886731D01*
X117346259Y-84124445D02*
X117309975Y-84157330D01*
X117346259Y-161395044D02*
X117309975Y-161427929D01*
X117346259Y-238663282D02*
X117309975Y-238696168D01*
X117361713Y-82388210D02*
X117393110Y-82426159D01*
X117363147Y-5163892D02*
X117394213Y-5201746D01*
X117363147Y-6836107D02*
X117346259Y-6853846D01*
X117377880Y-159677396D02*
X117393110Y-159696758D01*
X117377880Y-236947995D02*
X117407366Y-236987447D01*
X117379145Y-84088161D02*
X117346259Y-84124445D01*
X117379145Y-161358760D02*
X117346259Y-161395044D01*
X117379145Y-238626998D02*
X117346259Y-238663282D01*
X117393110Y-82426159D02*
X117420613Y-82467018D01*
X117393110Y-159696758D02*
X117420613Y-159737617D01*
X117394213Y-5201746D02*
X117421419Y-5242462D01*
X117394213Y-6798253D02*
X117363147Y-6836107D01*
X117407366Y-236987447D02*
X117420613Y-237008216D01*
X117408316Y-84048828D02*
X117379145Y-84088161D01*
X117408316Y-161319427D02*
X117379145Y-161358760D01*
X117408316Y-238587665D02*
X117379145Y-238626998D01*
X117420613Y-82467018D02*
X117432820Y-82488415D01*
X117420613Y-159737617D02*
X117443955Y-159780988D01*
X117420613Y-237008216D02*
X117443955Y-237051587D01*
X117421419Y-5242462D02*
X117444503Y-5285650D01*
X117421419Y-6757537D02*
X117394213Y-6798253D01*
X117432820Y-82488415D02*
X117453992Y-82532886D01*
X117433491Y-84006825D02*
X117408316Y-84048828D01*
X117433491Y-161277424D02*
X117408316Y-161319427D01*
X117433491Y-238545662D02*
X117408316Y-238587665D01*
X117443955Y-159780988D02*
X117453992Y-159803485D01*
X117443955Y-237051587D02*
X117453992Y-237074084D01*
X117444503Y-5285650D02*
X117463243Y-5330892D01*
X117444503Y-6714349D02*
X117421419Y-6757537D01*
X117453992Y-82532886D02*
X117470678Y-82579227D01*
X117453992Y-159803485D02*
X117470678Y-159849826D01*
X117453992Y-237074084D02*
X117470678Y-237120425D01*
X117454428Y-6691958D02*
X117444503Y-6714349D01*
X117454428Y-83962557D02*
X117433491Y-84006825D01*
X117454428Y-161233156D02*
X117433491Y-161277424D01*
X117454428Y-238501394D02*
X117433491Y-238545662D01*
X117463243Y-5330892D02*
X117477458Y-5377752D01*
X117470678Y-82579227D02*
X117482713Y-82626987D01*
X117470678Y-159849826D02*
X117482713Y-159897586D01*
X117470678Y-237120425D02*
X117482713Y-237168185D01*
X117470926Y-6645851D02*
X117454428Y-6691958D01*
X117470926Y-83916450D02*
X117454428Y-83962557D01*
X117470926Y-161187049D02*
X117454428Y-161233156D01*
X117470926Y-238455288D02*
X117454428Y-238501394D01*
X117477458Y-5377752D02*
X117487012Y-5425781D01*
X117477458Y-6622247D02*
X117470926Y-6645851D01*
X117482713Y-82626987D02*
X117489982Y-82675701D01*
X117482713Y-159897586D02*
X117489982Y-159946300D01*
X117482713Y-237168185D02*
X117489982Y-237216899D01*
X117482824Y-83868949D02*
X117470926Y-83916450D01*
X117482824Y-161139548D02*
X117470926Y-161187049D01*
X117482824Y-238407786D02*
X117470926Y-238455288D01*
X117487012Y-5425781D02*
X117491811Y-5474515D01*
X117487012Y-6574218D02*
X117477458Y-6622247D01*
X117489982Y-82675701D02*
X117492413Y-82724907D01*
X117489982Y-159946300D02*
X117492413Y-159995506D01*
X117489982Y-237216899D02*
X117492413Y-237266105D01*
X117490010Y-83820509D02*
X117482824Y-83868949D01*
X117490010Y-161091108D02*
X117482824Y-161139548D01*
X117490010Y-238359346D02*
X117482824Y-238407786D01*
X117491811Y-5474515D02*
X117492413Y-6500987D01*
X117491811Y-6525484D02*
X117487012Y-6574218D01*
X117492413Y-6500987D02*
X117491811Y-6525484D01*
X117492413Y-82724907D02*
X117492413Y-83771586D01*
X117492413Y-83771586D02*
X117490010Y-83820509D01*
X117492413Y-159995506D02*
X117492413Y-161042185D01*
X117492413Y-161042185D02*
X117490010Y-161091108D01*
X117492413Y-237266105D02*
X117492413Y-238310423D01*
X117492413Y-238310423D02*
X117490010Y-238359346D01*
X120492413Y-6500987D02*
X120493014Y-5474515D01*
X120492413Y-82724952D02*
X120494844Y-82675747D01*
X120492413Y-161042185D02*
X120493021Y-159970912D01*
X120492413Y-237266150D02*
X120494844Y-237216945D01*
X120492413Y-238310423D02*
X120492413Y-237266150D01*
X120493014Y-5474515D02*
X120497814Y-5425781D01*
X120493014Y-6525484D02*
X120492413Y-6500987D01*
X120493014Y-83796083D02*
X120492413Y-82724952D01*
X120493014Y-161066682D02*
X120492413Y-161042185D01*
X120493021Y-159970912D02*
X120497877Y-159921899D01*
X120494816Y-238359346D02*
X120492413Y-238310423D01*
X120494844Y-82675747D02*
X120502112Y-82627033D01*
X120494844Y-237216945D02*
X120502112Y-237168231D01*
X120497814Y-5425781D02*
X120507367Y-5377752D01*
X120497814Y-6574218D02*
X120493014Y-6525484D01*
X120497814Y-83844817D02*
X120493014Y-83796083D01*
X120497814Y-161115416D02*
X120493014Y-161066682D01*
X120497814Y-238383654D02*
X120494816Y-238359346D01*
X120497877Y-159921899D02*
X120507541Y-159873603D01*
X120502001Y-161139548D02*
X120497814Y-161115416D01*
X120502112Y-82627033D02*
X120514148Y-82579272D01*
X120502112Y-237168231D02*
X120514148Y-237120470D01*
X120507367Y-5377752D02*
X120521583Y-5330892D01*
X120507367Y-6622247D02*
X120497814Y-6574218D01*
X120507367Y-83892846D02*
X120497814Y-83844817D01*
X120507367Y-238431683D02*
X120497814Y-238383654D01*
X120507541Y-159873603D02*
X120521919Y-159826495D01*
X120513900Y-6645851D02*
X120507367Y-6622247D01*
X120513900Y-83916450D02*
X120507367Y-83892846D01*
X120513900Y-161187049D02*
X120502001Y-161139548D01*
X120514148Y-82579272D02*
X120521919Y-82555896D01*
X120514148Y-237120470D02*
X120530833Y-237074129D01*
X120521583Y-5330892D02*
X120540322Y-5285650D01*
X120521583Y-238478543D02*
X120507367Y-238431683D01*
X120521919Y-82555896D02*
X120540871Y-82510435D01*
X120521919Y-159826495D02*
X120540871Y-159781034D01*
X120530397Y-6691958D02*
X120513900Y-6645851D01*
X120530397Y-83962557D02*
X120513900Y-83916450D01*
X120530397Y-161233156D02*
X120513900Y-161187049D01*
X120530397Y-238501394D02*
X120521583Y-238478543D01*
X120530833Y-237074129D02*
X120552006Y-237029659D01*
X120540322Y-5285650D02*
X120563406Y-5242462D01*
X120540322Y-6714349D02*
X120530397Y-6691958D01*
X120540322Y-83984948D02*
X120530397Y-83962557D01*
X120540871Y-82510435D02*
X120564212Y-82467064D01*
X120540871Y-159781034D02*
X120564212Y-159737663D01*
X120551334Y-161277424D02*
X120530397Y-161233156D01*
X120551334Y-238545662D02*
X120530397Y-238501394D01*
X120552006Y-237029659D02*
X120564212Y-237008262D01*
X120563406Y-5242462D02*
X120590612Y-5201746D01*
X120563406Y-6757537D02*
X120540322Y-6714349D01*
X120563406Y-84028136D02*
X120540322Y-83984948D01*
X120563406Y-161298735D02*
X120551334Y-161277424D01*
X120563406Y-238566973D02*
X120551334Y-238545662D01*
X120564212Y-82467064D02*
X120591715Y-82426205D01*
X120564212Y-159737663D02*
X120591715Y-159696804D01*
X120564212Y-237008262D02*
X120591715Y-236967403D01*
X120590612Y-5201746D02*
X120621678Y-5163892D01*
X120590612Y-6798253D02*
X120563406Y-6757537D01*
X120590612Y-84068852D02*
X120563406Y-84028136D01*
X120590612Y-161339451D02*
X120563406Y-161298735D01*
X120590612Y-238607689D02*
X120563406Y-238566973D01*
X120591715Y-82426205D02*
X120606946Y-82406843D01*
X120591715Y-159696804D02*
X120606946Y-159677442D01*
X120591715Y-236967403D02*
X120623113Y-236929454D01*
X120605681Y-161358760D02*
X120590612Y-161339451D01*
X120606946Y-82406843D02*
X120640178Y-82370490D01*
X120606946Y-159677442D02*
X120623113Y-159658855D01*
X120621678Y-5163892D02*
X120656305Y-5129265D01*
X120621678Y-6836107D02*
X120590612Y-6798253D01*
X120621678Y-84106706D02*
X120590612Y-84068852D01*
X120621678Y-238645543D02*
X120590612Y-238607689D01*
X120623113Y-159658855D02*
X120658099Y-159624187D01*
X120623113Y-236929454D02*
X120658099Y-236894786D01*
X120638567Y-6853846D02*
X120621678Y-6836107D01*
X120638567Y-84124445D02*
X120621678Y-84106706D01*
X120638567Y-161395044D02*
X120605681Y-161358760D01*
X120638567Y-238663282D02*
X120621678Y-238645543D01*
X120640178Y-82370490D02*
X120676832Y-82337591D01*
X120656305Y-5129265D02*
X120694159Y-5098199D01*
X120658099Y-159624187D02*
X120696332Y-159593136D01*
X120658099Y-236894786D02*
X120696332Y-236863735D01*
X120674851Y-6886731D02*
X120638567Y-6853846D01*
X120674851Y-84157330D02*
X120638567Y-84124445D01*
X120674851Y-161427929D02*
X120638567Y-161395044D01*
X120674851Y-238696168D02*
X120638567Y-238663282D01*
X120676832Y-82337591D02*
X120716551Y-82308465D01*
X120694159Y-5098199D02*
X120734876Y-5070993D01*
X120694159Y-6901800D02*
X120674851Y-6886731D01*
X120694159Y-84172399D02*
X120674851Y-84157330D01*
X120694159Y-161442998D02*
X120674851Y-161427929D01*
X120694159Y-238711236D02*
X120674851Y-238696168D01*
X120696332Y-159593136D02*
X120737439Y-159566006D01*
X120696332Y-236863735D02*
X120737439Y-236836605D01*
X120714183Y-84186502D02*
X120694159Y-84172399D01*
X120714183Y-238725339D02*
X120694159Y-238711236D01*
X120716551Y-82308465D02*
X120737439Y-82295407D01*
X120734876Y-5070993D02*
X120778063Y-5047909D01*
X120734876Y-6929006D02*
X120694159Y-6901800D01*
X120734876Y-161470204D02*
X120694159Y-161442998D01*
X120737439Y-82295407D02*
X120781022Y-82272462D01*
X120737439Y-159566006D02*
X120781022Y-159543061D01*
X120737439Y-236836605D02*
X120758947Y-236824595D01*
X120756186Y-6941078D02*
X120734876Y-6929006D01*
X120756186Y-84211677D02*
X120714183Y-84186502D01*
X120756186Y-161482276D02*
X120734876Y-161470204D01*
X120756186Y-238750514D02*
X120714183Y-238725339D01*
X120758947Y-236824595D02*
X120781022Y-236813660D01*
X120778063Y-5047909D02*
X120823305Y-5029169D01*
X120781022Y-82272462D02*
X120826653Y-82253925D01*
X120781022Y-159543061D02*
X120826653Y-159524524D01*
X120781022Y-236813660D02*
X120826653Y-236795123D01*
X120800454Y-6962015D02*
X120756186Y-6941078D01*
X120800454Y-84232614D02*
X120756186Y-84211677D01*
X120800454Y-161503213D02*
X120756186Y-161482276D01*
X120800454Y-238771451D02*
X120756186Y-238750514D01*
X120823305Y-5029169D02*
X120870166Y-5014954D01*
X120823305Y-6970830D02*
X120800454Y-6962015D01*
X120823305Y-84241429D02*
X120800454Y-84232614D01*
X120823305Y-161512028D02*
X120800454Y-161503213D01*
X120823305Y-238780266D02*
X120800454Y-238771451D01*
X120826653Y-82253925D02*
X120873891Y-82239977D01*
X120826653Y-159524524D02*
X120873891Y-159510576D01*
X120826653Y-236795123D02*
X120873891Y-236781175D01*
X120846561Y-161519710D02*
X120823305Y-161512028D01*
X120870166Y-5014954D02*
X120918194Y-5005401D01*
X120870166Y-6985045D02*
X120823305Y-6970830D01*
X120870166Y-84255644D02*
X120823305Y-84241429D01*
X120870166Y-238794481D02*
X120823305Y-238780266D01*
X120873891Y-82239977D02*
X120897968Y-82234768D01*
X120873891Y-159510576D02*
X120897968Y-159505367D01*
X120873891Y-236781175D02*
X120922273Y-236771951D01*
X120894063Y-6990411D02*
X120870166Y-6985045D01*
X120894063Y-161531609D02*
X120846561Y-161519710D01*
X120894063Y-238799847D02*
X120870166Y-238794481D01*
X120897968Y-82234768D02*
X120946746Y-82227943D01*
X120897968Y-159505367D02*
X120946746Y-159498542D01*
X120918194Y-5005401D02*
X120966928Y-5000601D01*
X120918194Y-6994598D02*
X120894063Y-6990411D01*
X120918194Y-84265197D02*
X120870166Y-84255644D01*
X120922273Y-236771951D02*
X120971340Y-236767542D01*
X120942502Y-84268195D02*
X120918194Y-84265197D01*
X120942502Y-161538794D02*
X120894063Y-161531609D01*
X120942502Y-238807032D02*
X120894063Y-238799847D01*
X120946746Y-82227943D02*
X121340190Y-82211435D01*
X120946746Y-159498542D02*
X120971340Y-159496943D01*
X120966928Y-5000601D02*
X120991425Y-5000000D01*
X120966928Y-6999398D02*
X120918194Y-6994598D01*
X120966928Y-161540596D02*
X120942502Y-161538794D01*
X120971340Y-159496943D02*
X121340190Y-159482034D01*
X120971340Y-236767542D02*
X121340190Y-236752633D01*
X120991425Y-5000000D02*
X196993447Y-5000000D01*
X120991425Y-84270599D02*
X120942502Y-84268195D01*
X120991425Y-238809436D02*
X120942502Y-238807032D01*
X121340190Y-82211435D02*
X122276749Y-82154756D01*
X121340190Y-159482034D02*
X122276749Y-159425355D01*
X121340190Y-236752633D02*
X122271739Y-236696307D01*
X122271739Y-236696307D02*
X123206956Y-236620890D01*
X122276749Y-82154756D02*
X123211958Y-82079238D01*
X122276749Y-159425355D02*
X123211958Y-159349837D01*
X123206956Y-236620890D02*
X124142830Y-236525611D01*
X123211958Y-82079238D02*
X124141979Y-81985186D01*
X123211958Y-159349837D02*
X124142818Y-159255059D01*
X124141979Y-81985186D02*
X124142979Y-70317739D01*
X124142818Y-159255059D02*
X124142979Y-147588338D01*
X124142830Y-236525611D02*
X124142979Y-224858937D01*
X124142979Y-70317739D02*
X124145383Y-70268816D01*
X124142979Y-147588338D02*
X124145383Y-147539415D01*
X124142979Y-224858937D02*
X124145383Y-224810014D01*
X124145383Y-70268816D02*
X124152568Y-70220376D01*
X124145383Y-147539415D02*
X124152568Y-147490975D01*
X124145383Y-224810014D02*
X124152568Y-224761574D01*
X124152568Y-70220376D02*
X124164467Y-70172875D01*
X124152568Y-147490975D02*
X124164467Y-147443474D01*
X124152568Y-224761574D02*
X124164467Y-224714073D01*
X124164467Y-70172875D02*
X124180964Y-70126768D01*
X124164467Y-147443474D02*
X124180964Y-147397367D01*
X124164467Y-224714073D02*
X124180964Y-224667966D01*
X124180964Y-70126768D02*
X124201901Y-70082500D01*
X124180964Y-147397367D02*
X124201901Y-147353099D01*
X124180964Y-224667966D02*
X124201901Y-224623698D01*
X124201901Y-70082500D02*
X124227076Y-70040497D01*
X124201901Y-147353099D02*
X124213973Y-147331788D01*
X124201901Y-224623698D02*
X124227076Y-224581695D01*
X124213973Y-147331788D02*
X124241179Y-147291072D01*
X124227076Y-70040497D02*
X124241179Y-70020473D01*
X124227076Y-224581695D02*
X124256248Y-224542362D01*
X124241179Y-70020473D02*
X124272245Y-69982619D01*
X124241179Y-147291072D02*
X124272245Y-147253218D01*
X124256248Y-224542362D02*
X124289133Y-224506078D01*
X124272245Y-69982619D02*
X124306872Y-69947992D01*
X124272245Y-147253218D02*
X124306872Y-147218591D01*
X124289133Y-224506078D02*
X124306872Y-224489190D01*
X124306872Y-69947992D02*
X124344726Y-69916926D01*
X124306872Y-147218591D02*
X124344726Y-147187525D01*
X124306872Y-224489190D02*
X124344726Y-224458124D01*
X124344726Y-69916926D02*
X124385442Y-69889720D01*
X124344726Y-147187525D02*
X124385442Y-147160319D01*
X124344726Y-224458124D02*
X124385442Y-224430918D01*
X124385442Y-69889720D02*
X124428630Y-69866636D01*
X124385442Y-147160319D02*
X124428630Y-147137235D01*
X124385442Y-224430918D02*
X124428630Y-224407834D01*
X124428630Y-69866636D02*
X124473872Y-69847896D01*
X124428630Y-147137235D02*
X124473872Y-147118495D01*
X124428630Y-224407834D02*
X124473872Y-224389094D01*
X124473872Y-69847896D02*
X124520732Y-69833681D01*
X124473872Y-147118495D02*
X124520732Y-147104280D01*
X124473872Y-224389094D02*
X124520732Y-224374879D01*
X124520732Y-69833681D02*
X124568761Y-69824128D01*
X124520732Y-147104280D02*
X124568761Y-147094727D01*
X124520732Y-224374879D02*
X124568761Y-224365326D01*
X124568761Y-69824128D02*
X124617495Y-69819328D01*
X124568761Y-147094727D02*
X124617495Y-147089927D01*
X124568761Y-224365326D02*
X124617495Y-224360526D01*
X124617495Y-69819328D02*
X124641992Y-69818727D01*
X124617495Y-147089927D02*
X124641992Y-147089326D01*
X124617495Y-224360526D02*
X124641992Y-224359925D01*
X124641992Y-69818727D02*
X137812912Y-69818586D01*
X124641992Y-147089326D02*
X137812912Y-147089185D01*
X124641992Y-224359925D02*
X137812912Y-224359784D01*
X137812912Y-69818586D02*
X139550826Y-68801798D01*
X137812912Y-147089185D02*
X139550826Y-146072397D01*
X137812912Y-224359784D02*
X139550826Y-223342996D01*
X139550826Y-68801798D02*
X141239090Y-67693011D01*
X139550826Y-146072397D02*
X141239090Y-144963610D01*
X139550826Y-223342996D02*
X141239090Y-222234209D01*
X141239090Y-67693011D02*
X142867665Y-66498321D01*
X141239090Y-144963610D02*
X142867665Y-143768920D01*
X141239090Y-222234209D02*
X142867665Y-221039519D01*
X142867665Y-66498321D02*
X144442034Y-65212455D01*
X142867665Y-143768920D02*
X144442034Y-142483054D01*
X142867665Y-221039519D02*
X144442034Y-219753653D01*
X144442034Y-65212455D02*
X145937889Y-63855269D01*
X144442034Y-142483054D02*
X145937889Y-141125868D01*
X144442034Y-219753653D02*
X145937889Y-218396467D01*
X145937889Y-63855269D02*
X147361491Y-62422439D01*
X145937889Y-141125868D02*
X147361491Y-139693038D01*
X145937889Y-218396467D02*
X147361491Y-216963637D01*
X147361491Y-62422439D02*
X148700650Y-60927650D01*
X147361491Y-139693038D02*
X148709002Y-138188426D01*
X147361491Y-216963637D02*
X148700650Y-215468848D01*
X147474358Y-161541621D02*
X120966928Y-161540596D01*
X147474393Y-84271057D02*
X120991425Y-84270599D01*
X147474513Y-7000617D02*
X120966928Y-6999398D01*
X148700650Y-60927650D02*
X149968975Y-59355710D01*
X148700650Y-215468848D02*
X149968975Y-213896908D01*
X148709002Y-138188426D02*
X149968975Y-136626309D01*
X149968975Y-59355710D02*
X151154216Y-57720214D01*
X149968975Y-136626309D02*
X151154216Y-134990813D01*
X149968975Y-213896908D02*
X151154216Y-212261412D01*
X151154216Y-57720214D02*
X152253179Y-56025570D01*
X151154216Y-134990813D02*
X152253179Y-133296169D01*
X151154216Y-212261412D02*
X152253179Y-210566768D01*
X152253179Y-56025570D02*
X153269122Y-54264903D01*
X152253179Y-133296169D02*
X153269122Y-131535502D01*
X152253179Y-210566768D02*
X153269122Y-208806101D01*
X152473628Y-15659059D02*
X147474513Y-7000617D01*
X152473628Y-92929658D02*
X147474393Y-84271057D01*
X152473628Y-170200257D02*
X147474358Y-161541621D01*
X153269122Y-54264903D02*
X154186360Y-52465400D01*
X153269122Y-131535502D02*
X154186360Y-129735999D01*
X153269122Y-208806101D02*
X154186360Y-207006598D01*
X153467741Y-17426279D02*
X152473628Y-15659059D01*
X153467753Y-94696901D02*
X152473628Y-92929658D01*
X153467753Y-171967500D02*
X152473628Y-170200257D01*
X154186360Y-52465400D02*
X155004265Y-50632704D01*
X154186360Y-129735999D02*
X155004265Y-127903303D01*
X154186360Y-207006598D02*
X155004265Y-205173902D01*
X154365532Y-96506191D02*
X153467753Y-94696901D01*
X154365532Y-173776790D02*
X153467753Y-171967500D01*
X154365543Y-19235616D02*
X153467741Y-17426279D01*
X155004265Y-50632704D02*
X155731138Y-48748215D01*
X155004265Y-127903303D02*
X155731138Y-126018814D01*
X155004265Y-205173902D02*
X155731138Y-203289413D01*
X155168446Y-21088960D02*
X154365543Y-19235616D01*
X155168446Y-98359559D02*
X154365532Y-96506191D01*
X155168446Y-175630158D02*
X154365532Y-173776790D01*
X155731138Y-48748215D02*
X156155078Y-47455270D01*
X155731138Y-126018814D02*
X156155078Y-124725869D01*
X155731138Y-203289413D02*
X156155078Y-201996468D01*
X155870136Y-22969219D02*
X155168446Y-21088960D01*
X155874329Y-100252011D02*
X155168446Y-98359559D01*
X155874329Y-177522610D02*
X155168446Y-175630158D01*
X156155078Y-47455270D02*
X156164199Y-47432988D01*
X156155078Y-124725869D02*
X156174385Y-124681770D01*
X156155078Y-201996468D02*
X156174385Y-201952369D01*
X156164199Y-47432988D02*
X156185611Y-47389872D01*
X156174385Y-124681770D02*
X156197851Y-124639738D01*
X156174385Y-201952369D02*
X156185611Y-201931070D01*
X156185611Y-47389872D02*
X156211078Y-47349020D01*
X156185611Y-201931070D02*
X156211078Y-201890218D01*
X156197851Y-124639738D02*
X156211078Y-124619619D01*
X156211078Y-47349020D02*
X156240363Y-47310812D01*
X156211078Y-124619619D02*
X156240363Y-124581411D01*
X156211078Y-201890218D02*
X156240363Y-201852010D01*
X156240363Y-47310812D02*
X156273193Y-47275604D01*
X156240363Y-124581411D02*
X156273193Y-124546203D01*
X156240363Y-201852010D02*
X156273193Y-201816802D01*
X156273193Y-47275604D02*
X156309263Y-47243723D01*
X156273193Y-124546203D02*
X156309263Y-124514322D01*
X156273193Y-201816802D02*
X156309263Y-201784921D01*
X156309263Y-47243723D02*
X156348237Y-47215467D01*
X156309263Y-124514322D02*
X156328409Y-124499724D01*
X156309263Y-201784921D02*
X156348237Y-201756665D01*
X156328409Y-124499724D02*
X156368701Y-124473380D01*
X156348237Y-47215467D02*
X156368701Y-47202781D01*
X156348237Y-201756665D02*
X156389753Y-201732295D01*
X156368701Y-47202781D02*
X156411344Y-47180442D01*
X156368701Y-124473380D02*
X156411344Y-124451041D01*
X156389753Y-201732295D02*
X156433423Y-201712039D01*
X156411344Y-47180442D02*
X156455941Y-47162317D01*
X156411344Y-124451041D02*
X156455941Y-124432916D01*
X156433423Y-201712039D02*
X156478843Y-201696086D01*
X156455941Y-47162317D02*
X156502077Y-47148573D01*
X156455941Y-124432916D02*
X156502077Y-124419172D01*
X156477731Y-102166076D02*
X155874329Y-100252011D01*
X156477731Y-179436675D02*
X155874329Y-177522610D01*
X156478843Y-201696086D02*
X156525588Y-201684584D01*
X156481288Y-24907871D02*
X155870136Y-22969219D01*
X156502077Y-47148573D02*
X156549322Y-47139338D01*
X156502077Y-124419172D02*
X156549322Y-124409937D01*
X156525588Y-201684584D02*
X156573224Y-201677639D01*
X156549322Y-47139338D02*
X156597238Y-47134700D01*
X156549322Y-124409937D02*
X156597238Y-124405299D01*
X156573224Y-201677639D02*
X156597238Y-201675898D01*
X156597238Y-47134700D02*
X161363284Y-47134119D01*
X156597238Y-124405299D02*
X161363284Y-124404718D01*
X156597238Y-201675898D02*
X161363284Y-201675317D01*
X156984783Y-104121208D02*
X156477731Y-102166076D01*
X156984783Y-181391807D02*
X156477731Y-179436675D01*
X156987699Y-26863195D02*
X156481288Y-24907871D01*
X157389933Y-106099970D02*
X156984783Y-104121208D01*
X157389933Y-183370569D02*
X156984783Y-181391807D01*
X157392189Y-28842066D02*
X156987699Y-26863195D01*
X157526852Y-41628951D02*
X157529902Y-41579691D01*
X157527158Y-118924233D02*
X157527768Y-118874883D01*
X157527158Y-196194832D02*
X157527768Y-196145482D01*
X157527768Y-118874883D02*
X157533251Y-118825821D01*
X157527768Y-196145482D02*
X157533251Y-196096420D01*
X157528683Y-41678272D02*
X157526852Y-41628951D01*
X157529902Y-41579691D02*
X157639455Y-40898281D01*
X157531426Y-118973403D02*
X157527158Y-118924233D01*
X157531426Y-196244002D02*
X157527158Y-196194832D01*
X157533251Y-118825821D02*
X157639455Y-118168880D01*
X157533251Y-196096420D02*
X157639455Y-195439479D01*
X157535378Y-41727170D02*
X157528683Y-41678272D01*
X157540530Y-41751311D02*
X157535378Y-41727170D01*
X157540530Y-119021910D02*
X157531426Y-118973403D01*
X157540530Y-196292509D02*
X157531426Y-196244002D01*
X157554382Y-41798682D02*
X157540530Y-41751311D01*
X157554382Y-119069281D02*
X157540530Y-119021910D01*
X157554382Y-196339880D02*
X157540530Y-196292509D01*
X157563048Y-41821796D02*
X157554382Y-41798682D01*
X157572846Y-41844453D02*
X157563048Y-41821796D01*
X157572846Y-119115052D02*
X157554382Y-119069281D01*
X157572846Y-196385651D02*
X157554382Y-196339880D01*
X157595741Y-41888176D02*
X157572846Y-41844453D01*
X157595741Y-119158775D02*
X157572846Y-119115052D01*
X157595741Y-196429374D02*
X157572846Y-196385651D01*
X157608782Y-41909135D02*
X157595741Y-41888176D01*
X157622843Y-119200022D02*
X157595741Y-119158775D01*
X157622843Y-196470621D02*
X157595741Y-196429374D01*
X157637890Y-41948991D02*
X157608782Y-41909135D01*
X157639455Y-40898281D02*
X157857741Y-38903290D01*
X157639455Y-118168880D02*
X157857741Y-116173889D01*
X157639455Y-195439479D02*
X157857741Y-193444488D01*
X157653887Y-119238390D02*
X157622843Y-119200022D01*
X157653887Y-196508989D02*
X157622843Y-196470621D01*
X157670794Y-41985777D02*
X157637890Y-41948991D01*
X157688570Y-42002905D02*
X157670794Y-41985777D01*
X157688570Y-119273504D02*
X157653887Y-119238390D01*
X157688570Y-196544103D02*
X157653887Y-196508989D01*
X157692089Y-30826429D02*
X157392189Y-28842066D01*
X157692093Y-108097053D02*
X157389933Y-106099970D01*
X157692093Y-185367652D02*
X157389933Y-183370569D01*
X157726551Y-42034421D02*
X157688570Y-42002905D01*
X157726551Y-119305020D02*
X157688570Y-119273504D01*
X157726551Y-196575619D02*
X157688570Y-196544103D01*
X157746664Y-42048732D02*
X157726551Y-42034421D01*
X157767461Y-42062031D02*
X157746664Y-42048732D01*
X157767461Y-119332630D02*
X157726551Y-119305020D01*
X157767461Y-196603229D02*
X157726551Y-196575619D01*
X157810897Y-42085465D02*
X157767461Y-42062031D01*
X157810897Y-119356064D02*
X157767461Y-119332630D01*
X157810897Y-196626663D02*
X157767461Y-196603229D01*
X157833431Y-42095542D02*
X157810897Y-42085465D01*
X157856436Y-119375092D02*
X157810897Y-119356064D01*
X157856436Y-196645691D02*
X157810897Y-196626663D01*
X157857741Y-38903290D02*
X157973520Y-36886799D01*
X157857741Y-116173889D02*
X157973520Y-114157398D01*
X157857741Y-193444488D02*
X157973520Y-191427997D01*
X157879856Y-42112294D02*
X157833431Y-42095542D01*
X157890451Y-32836478D02*
X157692089Y-30826429D01*
X157890451Y-110107077D02*
X157692093Y-108097053D01*
X157890451Y-187377676D02*
X157692093Y-185367652D01*
X157903632Y-119389528D02*
X157856436Y-119375092D01*
X157903632Y-196660127D02*
X157856436Y-196645691D01*
X157927708Y-42124379D02*
X157879856Y-42112294D01*
X157952023Y-42128632D02*
X157927708Y-42124379D01*
X157952023Y-119399231D02*
X157903632Y-119389528D01*
X157952023Y-196669830D02*
X157903632Y-196660127D01*
X157973520Y-36886799D02*
X157984480Y-34854126D01*
X157973520Y-114157398D02*
X157984480Y-112124725D01*
X157973520Y-191427997D02*
X157984480Y-189395324D01*
X157984480Y-34854126D02*
X157890451Y-32836478D01*
X157984480Y-112124725D02*
X157890451Y-110107077D01*
X157984480Y-189395324D02*
X157890451Y-187377676D01*
X158001136Y-42133508D02*
X157952023Y-42128632D01*
X158001136Y-119404107D02*
X157952023Y-119399231D01*
X158001136Y-196674706D02*
X157952023Y-196669830D01*
X158025826Y-42134119D02*
X158001136Y-42133508D01*
X158025826Y-119404718D02*
X158001136Y-119404107D01*
X158025826Y-196675317D02*
X158001136Y-196674706D01*
X159960415Y-119404718D02*
X158025826Y-119404718D01*
X159960415Y-196675317D02*
X158025826Y-196675317D01*
X159984891Y-42133518D02*
X158025826Y-42134119D01*
X159984891Y-119404117D02*
X159960415Y-119404718D01*
X159984891Y-196674716D02*
X159960415Y-196675317D01*
X160000374Y-36411395D02*
X160088513Y-38386036D01*
X160000374Y-113681994D02*
X160088513Y-115656635D01*
X160000374Y-190952593D02*
X160088513Y-192927234D01*
X160012397Y-34434799D02*
X160000374Y-36411395D01*
X160012397Y-111705398D02*
X160000374Y-113681994D01*
X160012397Y-188975997D02*
X160000374Y-190952593D01*
X160033585Y-42128726D02*
X159984891Y-42133518D01*
X160033585Y-119399325D02*
X159984891Y-119404117D01*
X160033585Y-196669924D02*
X159984891Y-196674716D01*
X160081574Y-42119189D02*
X160033585Y-42128726D01*
X160081574Y-119389788D02*
X160033585Y-119399325D01*
X160081574Y-196660387D02*
X160033585Y-196669924D01*
X160088513Y-38386036D02*
X160275065Y-40341124D01*
X160088513Y-115656635D02*
X160275063Y-117611698D01*
X160088513Y-192927234D02*
X160275063Y-194882297D01*
X160105161Y-119383266D02*
X160081574Y-119389788D01*
X160105161Y-196653865D02*
X160081574Y-196660387D01*
X160125587Y-32448801D02*
X160012397Y-34434799D01*
X160125587Y-109719400D02*
X160012397Y-111705398D01*
X160125587Y-186989999D02*
X160012397Y-188975997D01*
X160128399Y-42104997D02*
X160081574Y-42119189D01*
X160128399Y-196646195D02*
X160105161Y-196653865D01*
X160151234Y-119366796D02*
X160105161Y-119383266D01*
X160173610Y-42086288D02*
X160128399Y-42104997D01*
X160173610Y-119356887D02*
X160151234Y-119366796D01*
X160173610Y-196627486D02*
X160128399Y-196646195D01*
X160216770Y-42063241D02*
X160173610Y-42086288D01*
X160216770Y-119333840D02*
X160173610Y-119356887D01*
X160216770Y-196604439D02*
X160173610Y-196627486D01*
X160237451Y-196591357D02*
X160216770Y-196604439D01*
X160257466Y-42036078D02*
X160216770Y-42063241D01*
X160257466Y-119306677D02*
X160216770Y-119333840D01*
X160275065Y-40341124D02*
X160454130Y-41562600D01*
X160275063Y-117611698D02*
X160454130Y-118833199D01*
X160275063Y-194882297D02*
X160454130Y-196103798D01*
X160276766Y-196562231D02*
X160237451Y-196591357D01*
X160295306Y-42005060D02*
X160257466Y-42036078D01*
X160295306Y-119275659D02*
X160257466Y-119306677D01*
X160295306Y-196546258D02*
X160276766Y-196562231D01*
X160313040Y-119258796D02*
X160295306Y-119275659D01*
X160313040Y-196529395D02*
X160295306Y-196546258D01*
X160329926Y-41970485D02*
X160295306Y-42005060D01*
X160329926Y-119241084D02*
X160313040Y-119258796D01*
X160338218Y-30483664D02*
X160125587Y-32448801D01*
X160338221Y-107754238D02*
X160125587Y-109719400D01*
X160338221Y-185024837D02*
X160125587Y-186989999D01*
X160345924Y-41951967D02*
X160329926Y-41970485D01*
X160345924Y-196493165D02*
X160313040Y-196529395D01*
X160360994Y-119203285D02*
X160329926Y-119241084D01*
X160360994Y-196473884D02*
X160345924Y-196493165D01*
X160375101Y-41912690D02*
X160345924Y-41951967D01*
X160388211Y-119162625D02*
X160360994Y-119203285D01*
X160388211Y-196433224D02*
X160360994Y-196473884D01*
X160400292Y-41870744D02*
X160375101Y-41912690D01*
X160400292Y-119141343D02*
X160388211Y-119162625D01*
X160411315Y-196390094D02*
X160388211Y-196433224D01*
X160421253Y-41826534D02*
X160400292Y-41870744D01*
X160421253Y-119097133D02*
X160400292Y-119141343D01*
X160421253Y-196367732D02*
X160411315Y-196390094D01*
X160430084Y-119074310D02*
X160421253Y-119097133D01*
X160437784Y-41780482D02*
X160421253Y-41826534D01*
X160437784Y-119051081D02*
X160430084Y-119074310D01*
X160437784Y-196321680D02*
X160421253Y-196367732D01*
X160449726Y-41733034D02*
X160437784Y-41780482D01*
X160449726Y-119003633D02*
X160437784Y-119051081D01*
X160449726Y-196274232D02*
X160437784Y-196321680D01*
X160454130Y-41562600D02*
X160457092Y-41586904D01*
X160454130Y-118833199D02*
X160457092Y-118857503D01*
X160454130Y-196103798D02*
X160457092Y-196128102D01*
X160456963Y-41684643D02*
X160449726Y-41733034D01*
X160456963Y-118955242D02*
X160449726Y-119003633D01*
X160456963Y-196225841D02*
X160449726Y-196274232D01*
X160457092Y-41586904D02*
X160459426Y-41635777D01*
X160457092Y-118857503D02*
X160459426Y-118906376D01*
X160457092Y-196128102D02*
X160459426Y-196176975D01*
X160459426Y-41635777D02*
X160456963Y-41684643D01*
X160459426Y-118906376D02*
X160456963Y-118955242D01*
X160459426Y-196176975D02*
X160456963Y-196225841D01*
X160647837Y-105814829D02*
X160338221Y-107754238D01*
X160647837Y-183085428D02*
X160338221Y-185024837D01*
X160650141Y-28531824D02*
X160338218Y-30483664D01*
X161057621Y-103881191D02*
X160647837Y-105814829D01*
X161057621Y-181151790D02*
X160647837Y-183085428D01*
X161060557Y-26598295D02*
X160650141Y-28531824D01*
X161363284Y-47134119D02*
X161412078Y-47136509D01*
X161363284Y-124404718D02*
X161412078Y-124407108D01*
X161363284Y-201675317D02*
X161412078Y-201677707D01*
X161412078Y-47136509D02*
X161460393Y-47143657D01*
X161412078Y-124407108D02*
X161460393Y-124414256D01*
X161412078Y-201677707D02*
X161460393Y-201684855D01*
X161460393Y-47143657D02*
X161484230Y-47148995D01*
X161460393Y-124414256D02*
X161484230Y-124419594D01*
X161460393Y-201684855D02*
X161484230Y-201690193D01*
X161484230Y-47148995D02*
X161530979Y-47163137D01*
X161484230Y-124419594D02*
X161507778Y-124426092D01*
X161484230Y-201690193D02*
X161530979Y-201704335D01*
X161507778Y-124426092D02*
X161553778Y-124442505D01*
X161530979Y-47163137D02*
X161553778Y-47171906D01*
X161530979Y-201704335D02*
X161553778Y-201713104D01*
X161553778Y-47171906D02*
X161597954Y-47192737D01*
X161553778Y-124442505D02*
X161597954Y-124463336D01*
X161553778Y-201713104D02*
X161597954Y-201733935D01*
X161564861Y-101970751D02*
X161057621Y-103881191D01*
X161564861Y-179241350D02*
X161057621Y-181151790D01*
X161568409Y-24688043D02*
X161060557Y-26598295D01*
X161597954Y-47192737D02*
X161619225Y-47204748D01*
X161597954Y-124463336D02*
X161619225Y-124475347D01*
X161597954Y-201733935D02*
X161619225Y-201745946D01*
X161619225Y-47204748D02*
X161659876Y-47231820D01*
X161619225Y-124475347D02*
X161659876Y-124502419D01*
X161619225Y-201745946D02*
X161659876Y-201773018D01*
X161659876Y-47231820D02*
X161679160Y-47246815D01*
X161659876Y-124502419D02*
X161679160Y-124517414D01*
X161659876Y-201773018D02*
X161679160Y-201788013D01*
X161679160Y-47246815D02*
X161715412Y-47279544D01*
X161679160Y-124517414D02*
X161715412Y-124550143D01*
X161679160Y-201788013D02*
X161715412Y-201820742D01*
X161715412Y-47279544D02*
X161732294Y-47297200D01*
X161715412Y-124550143D02*
X161732294Y-124567799D01*
X161715412Y-201820742D02*
X161732294Y-201838398D01*
X161732294Y-47297200D02*
X161748291Y-47315661D01*
X161732294Y-124567799D02*
X161763366Y-124605481D01*
X161732294Y-201838398D02*
X161763366Y-201876080D01*
X161748291Y-47315661D02*
X161777482Y-47354818D01*
X161763366Y-124605481D02*
X161777482Y-124625417D01*
X161763366Y-201876080D02*
X161777482Y-201896016D01*
X161777482Y-47354818D02*
X161790605Y-47375421D01*
X161777482Y-124625417D02*
X161790605Y-124646020D01*
X161777482Y-201896016D02*
X161802704Y-201937840D01*
X161790605Y-47375421D02*
X161813751Y-47418430D01*
X161790605Y-124646020D02*
X161813751Y-124689029D01*
X161802704Y-201937840D02*
X161813751Y-201959628D01*
X161813751Y-47418430D02*
X161832581Y-47463494D01*
X161813751Y-124689029D02*
X161832581Y-124734093D01*
X161813751Y-201959628D02*
X161832581Y-202004692D01*
X161832581Y-47463494D02*
X161840324Y-47486675D01*
X161832581Y-124734093D02*
X161840324Y-124757274D01*
X161832581Y-202004692D02*
X161840324Y-202027873D01*
X161840324Y-47486675D02*
X162014737Y-48053671D01*
X161840324Y-124757274D02*
X162014737Y-125324270D01*
X161840324Y-202027873D02*
X162014737Y-202594869D01*
X162014737Y-48053671D02*
X162685539Y-49899530D01*
X162014737Y-125324270D02*
X162685539Y-127170129D01*
X162014737Y-202594869D02*
X162685539Y-204440728D01*
X162168238Y-22817889D02*
X161568409Y-24688043D01*
X162172395Y-100076575D02*
X161564861Y-101970751D01*
X162172395Y-177347174D02*
X161564861Y-179241350D01*
X162685539Y-49899530D02*
X163458830Y-51732321D01*
X162685539Y-127170129D02*
X163458830Y-129002920D01*
X162685539Y-204440728D02*
X163458830Y-206273519D01*
X162866206Y-20968615D02*
X162168238Y-22817889D01*
X162870971Y-98227503D02*
X162172395Y-100076575D01*
X162870971Y-175498102D02*
X162172395Y-177347174D01*
X163458830Y-51732321D02*
X164312993Y-53500816D01*
X163458830Y-129002920D02*
X164312993Y-130771415D01*
X163458830Y-206273519D02*
X164318767Y-208053233D01*
X163656974Y-19157079D02*
X162866206Y-20968615D01*
X163662315Y-96416246D02*
X162870971Y-98227503D01*
X163662315Y-173686845D02*
X162870971Y-175498102D01*
X164312993Y-53500816D02*
X165261435Y-55234982D01*
X164312993Y-130771415D02*
X165261435Y-132505581D01*
X164318767Y-208053233D02*
X165261435Y-209776180D01*
X164538497Y-17387960D02*
X163656974Y-19157079D01*
X164538508Y-94658536D02*
X163662315Y-96416246D01*
X164538508Y-171929135D02*
X163662315Y-173686845D01*
X165261435Y-55234982D02*
X166296536Y-56918889D01*
X165261435Y-132505581D02*
X166296536Y-134189488D01*
X165261435Y-209776180D02*
X166296536Y-211460087D01*
X165512342Y-15659122D02*
X164538497Y-17387960D01*
X165512342Y-92929721D02*
X164538508Y-94658536D01*
X165512342Y-170200320D02*
X164538508Y-171929135D01*
X166296536Y-56918889D02*
X167415638Y-58548210D01*
X166296536Y-134189488D02*
X167415638Y-135818809D01*
X166296536Y-211460087D02*
X167415638Y-213089408D01*
X167415638Y-58548210D02*
X168615840Y-60118717D01*
X167415638Y-135818809D02*
X168615840Y-137389316D01*
X167415638Y-213089408D02*
X168615840Y-214659915D01*
X168615840Y-60118717D02*
X169894072Y-61626396D01*
X168615840Y-137389316D02*
X169894072Y-138896995D01*
X168615840Y-214659915D02*
X169894072Y-216167594D01*
X169894072Y-61626396D02*
X171247051Y-63067377D01*
X169894072Y-138896995D02*
X171247051Y-140337976D01*
X169894072Y-216167594D02*
X171247051Y-217608575D01*
X170511648Y-7000423D02*
X165512342Y-15659122D01*
X170511684Y-84270988D02*
X165512342Y-92929721D01*
X170511684Y-161541587D02*
X165512342Y-170200320D01*
X171247051Y-63067377D02*
X172680632Y-64446488D01*
X171247051Y-140337976D02*
X172680632Y-141717087D01*
X171247051Y-217608575D02*
X172671301Y-218979154D01*
X172671301Y-218979154D02*
X174163144Y-220275796D01*
X172680632Y-64446488D02*
X174172895Y-65742646D01*
X172680632Y-141717087D02*
X174172895Y-143013245D01*
X174163144Y-220275796D02*
X175728932Y-221502746D01*
X174172895Y-65742646D02*
X175728932Y-66961548D01*
X174172895Y-143013245D02*
X175728932Y-144232147D01*
X175728932Y-66961548D02*
X177334234Y-68093041D01*
X175728932Y-144232147D02*
X177334234Y-145363640D01*
X175728932Y-221502746D02*
X177334234Y-222634239D01*
X177334234Y-68093041D02*
X179005276Y-69148738D01*
X177334234Y-145363640D02*
X179005276Y-146419337D01*
X177334234Y-222634239D02*
X179005276Y-223689936D01*
X179005276Y-69148738D02*
X180738875Y-70124359D01*
X179005276Y-146419337D02*
X180738875Y-147394958D01*
X179005276Y-223689936D02*
X180738875Y-224665557D01*
X180738875Y-70124359D02*
X182497026Y-70999615D01*
X180738875Y-147394958D02*
X182508461Y-148275549D01*
X180738875Y-224665557D02*
X182508461Y-225546148D01*
X182497026Y-70999615D02*
X184308700Y-71790004D01*
X182508461Y-148275549D02*
X184308700Y-149060603D01*
X182508461Y-225546148D02*
X184308700Y-226331202D01*
X184308700Y-71790004D02*
X186170079Y-72491764D01*
X184308700Y-149060603D02*
X186170079Y-149762363D01*
X184308700Y-226331202D02*
X186170079Y-227032962D01*
X186170079Y-72491764D02*
X188052636Y-73094140D01*
X186170079Y-149762363D02*
X188052636Y-150364739D01*
X186170079Y-227032962D02*
X188052636Y-227635338D01*
X188052636Y-73094140D02*
X189951044Y-73597444D01*
X188052636Y-150364739D02*
X189951044Y-150868043D01*
X188052636Y-227635338D02*
X189951044Y-228138642D01*
X189951044Y-73597444D02*
X191884790Y-74006840D01*
X189951044Y-150868043D02*
X191884790Y-151277439D01*
X189951044Y-228138642D02*
X191884790Y-228548038D01*
X191884790Y-74006840D02*
X193446342Y-74256212D01*
X191884790Y-151277439D02*
X193446342Y-151526811D01*
X191884790Y-228548038D02*
X193446342Y-228797410D01*
X193446342Y-74256212D02*
X193493375Y-74268484D01*
X193446342Y-151526811D02*
X193493375Y-151539083D01*
X193446342Y-228797410D02*
X193493375Y-228809682D01*
X193493375Y-74268484D02*
X193538991Y-74285274D01*
X193493375Y-151539083D02*
X193538991Y-151555873D01*
X193493375Y-228809682D02*
X193538991Y-228826472D01*
X193538991Y-74285274D02*
X193561132Y-74295315D01*
X193538991Y-151555873D02*
X193582758Y-151577022D01*
X193538991Y-228826472D02*
X193582758Y-228847621D01*
X193561132Y-74295315D02*
X193603816Y-74318570D01*
X193582758Y-151577022D02*
X193603816Y-151589169D01*
X193582758Y-228847621D02*
X193603816Y-228859768D01*
X193603816Y-74318570D02*
X193644035Y-74345868D01*
X193603816Y-151589169D02*
X193644035Y-151616467D01*
X193603816Y-228859768D02*
X193644035Y-228887066D01*
X193644035Y-74345868D02*
X193681408Y-74376949D01*
X193644035Y-151616467D02*
X193681408Y-151647548D01*
X193644035Y-228887066D02*
X193663100Y-228902151D01*
X193663100Y-228902151D02*
X193698914Y-228935016D01*
X193681408Y-74376949D02*
X193715579Y-74411519D01*
X193681408Y-151647548D02*
X193715579Y-151682118D01*
X193698914Y-228935016D02*
X193731361Y-228971209D01*
X193715579Y-74411519D02*
X193731361Y-74430011D01*
X193715579Y-151682118D02*
X193746224Y-151719848D01*
X193731361Y-74430011D02*
X193760132Y-74469189D01*
X193731361Y-228971209D02*
X193760132Y-229010387D01*
X193746224Y-151719848D02*
X193773053Y-151760382D01*
X193760132Y-74469189D02*
X193784955Y-74510981D01*
X193760132Y-229010387D02*
X193784955Y-229052179D01*
X193773053Y-151760382D02*
X193784955Y-151781580D01*
X193784955Y-74510981D02*
X193805594Y-74554990D01*
X193784955Y-151781580D02*
X193795811Y-151803333D01*
X193784955Y-229052179D02*
X193795811Y-229073932D01*
X193795811Y-151803333D02*
X193814282Y-151848294D01*
X193795811Y-229073932D02*
X193814282Y-229118893D01*
X193805594Y-74554990D02*
X193814282Y-74577695D01*
X193814282Y-74577695D02*
X193828291Y-74624241D01*
X193814282Y-151848294D02*
X193828291Y-151894840D01*
X193814282Y-229118893D02*
X193828291Y-229165439D01*
X193828291Y-74624241D02*
X193837705Y-74671929D01*
X193828291Y-151894840D02*
X193837705Y-151942528D01*
X193828291Y-229165439D02*
X193837705Y-229213127D01*
X193837705Y-74671929D02*
X193842434Y-74720306D01*
X193837705Y-151942528D02*
X193842434Y-151990905D01*
X193837705Y-229213127D02*
X193842434Y-229261504D01*
X193842434Y-74720306D02*
X193843218Y-81984554D01*
X193842434Y-151990905D02*
X193843218Y-159255153D01*
X193842434Y-229261504D02*
X193843218Y-236525752D01*
X193843218Y-81984554D02*
X194774048Y-82079238D01*
X193843218Y-159255153D02*
X194774048Y-159349837D01*
X193843218Y-236525752D02*
X194774048Y-236620436D01*
X194774048Y-82079238D02*
X195709257Y-82154756D01*
X194774048Y-159349837D02*
X195709257Y-159425355D01*
X194774048Y-236620436D02*
X195709257Y-236695954D01*
X195709257Y-82154756D02*
X196645816Y-82211435D01*
X195709257Y-159425355D02*
X196645816Y-159482034D01*
X195709257Y-236695954D02*
X196645816Y-236752633D01*
X196645816Y-82211435D02*
X197038127Y-82227898D01*
X196645816Y-159482034D02*
X197038127Y-159498497D01*
X196645816Y-236752633D02*
X197038127Y-236769096D01*
X196993447Y-5000000D02*
X197017944Y-5000601D01*
X196993447Y-84270599D02*
X170511684Y-84270988D01*
X196993447Y-161541198D02*
X170511684Y-161541587D01*
X196993447Y-238809436D02*
X120991425Y-238809436D01*
X197017944Y-5000601D02*
X197066678Y-5005401D01*
X197017944Y-6999398D02*
X170511648Y-7000423D01*
X197038127Y-82227898D02*
X197086905Y-82234722D01*
X197038127Y-159498497D02*
X197062600Y-159501307D01*
X197038127Y-236769096D02*
X197062600Y-236771906D01*
X197042370Y-84268195D02*
X196993447Y-84270599D01*
X197042370Y-161538794D02*
X196993447Y-161541198D01*
X197042370Y-238807032D02*
X196993447Y-238809436D01*
X197062600Y-159501307D02*
X197110982Y-159510530D01*
X197062600Y-236771906D02*
X197110982Y-236781129D01*
X197066678Y-5005401D02*
X197114707Y-5014954D01*
X197066678Y-6994598D02*
X197017944Y-6999398D01*
X197086905Y-82234722D02*
X197134773Y-82246322D01*
X197090810Y-84261010D02*
X197042370Y-84268195D01*
X197090810Y-161531609D02*
X197042370Y-161538794D01*
X197090810Y-238799847D02*
X197042370Y-238807032D01*
X197110982Y-159510530D02*
X197158219Y-159524478D01*
X197110982Y-236781129D02*
X197158219Y-236795077D01*
X197114707Y-5014954D02*
X197161568Y-5029169D01*
X197114707Y-6985045D02*
X197066678Y-6994598D01*
X197134773Y-82246322D02*
X197181264Y-82262584D01*
X197138312Y-84249111D02*
X197090810Y-84261010D01*
X197138312Y-161519710D02*
X197090810Y-161531609D01*
X197138312Y-238787948D02*
X197090810Y-238799847D01*
X197158219Y-159524478D02*
X197203851Y-159543015D01*
X197158219Y-236795077D02*
X197203851Y-236813614D01*
X197161568Y-5029169D02*
X197206810Y-5047909D01*
X197161568Y-6970830D02*
X197114707Y-6985045D01*
X197181264Y-82262584D02*
X197203851Y-82272416D01*
X197184419Y-6962015D02*
X197161568Y-6970830D01*
X197184419Y-84232614D02*
X197138312Y-84249111D01*
X197184419Y-161503213D02*
X197138312Y-161519710D01*
X197184419Y-238771451D02*
X197138312Y-238787948D01*
X197203851Y-82272416D02*
X197247433Y-82295362D01*
X197203851Y-159543015D02*
X197247433Y-159565961D01*
X197203851Y-236813614D02*
X197247433Y-236836560D01*
X197206810Y-5047909D02*
X197249997Y-5070993D01*
X197228687Y-6941078D02*
X197184419Y-6962015D01*
X197228687Y-84211677D02*
X197184419Y-84232614D01*
X197228687Y-161482276D02*
X197184419Y-161503213D01*
X197228687Y-238750514D02*
X197184419Y-238771451D01*
X197247433Y-82295362D02*
X197288541Y-82322492D01*
X197247433Y-159565961D02*
X197268322Y-159579018D01*
X197247433Y-236836560D02*
X197288541Y-236863690D01*
X197249997Y-5070993D02*
X197290714Y-5098199D01*
X197249997Y-6929006D02*
X197228687Y-6941078D01*
X197268322Y-159579018D02*
X197308041Y-159608144D01*
X197270689Y-6915903D02*
X197249997Y-6929006D01*
X197270689Y-84186502D02*
X197228687Y-84211677D01*
X197270689Y-161457101D02*
X197228687Y-161482276D01*
X197270689Y-238725339D02*
X197228687Y-238750514D01*
X197288541Y-82322492D02*
X197326774Y-82353542D01*
X197288541Y-236863690D02*
X197326774Y-236894740D01*
X197290714Y-5098199D02*
X197328567Y-5129265D01*
X197308041Y-159608144D02*
X197344695Y-159641043D01*
X197310022Y-6886731D02*
X197270689Y-6915903D01*
X197310022Y-84157330D02*
X197270689Y-84186502D01*
X197310022Y-161427929D02*
X197270689Y-161457101D01*
X197310022Y-238696168D02*
X197270689Y-238725339D01*
X197326774Y-82353542D02*
X197344695Y-82370444D01*
X197326774Y-236894740D02*
X197361760Y-236929408D01*
X197328567Y-5129265D02*
X197363194Y-5163892D01*
X197328567Y-6870734D02*
X197310022Y-6886731D01*
X197344695Y-82370444D02*
X197377927Y-82406797D01*
X197344695Y-159641043D02*
X197377927Y-159677396D01*
X197346306Y-84124445D02*
X197310022Y-84157330D01*
X197346306Y-161395044D02*
X197310022Y-161427929D01*
X197346306Y-238663282D02*
X197310022Y-238696168D01*
X197361760Y-236929408D02*
X197377927Y-236947995D01*
X197363194Y-5163892D02*
X197394260Y-5201746D01*
X197363194Y-6836107D02*
X197328567Y-6870734D01*
X197377927Y-82406797D02*
X197407413Y-82446249D01*
X197377927Y-159677396D02*
X197407413Y-159716848D01*
X197377927Y-236947995D02*
X197407413Y-236987447D01*
X197379192Y-6817562D02*
X197363194Y-6836107D01*
X197379192Y-84088161D02*
X197346306Y-84124445D01*
X197379192Y-161358760D02*
X197346306Y-161395044D01*
X197379192Y-238626998D02*
X197346306Y-238663282D01*
X197394260Y-5201746D02*
X197421466Y-5242462D01*
X197407413Y-82446249D02*
X197420660Y-82467018D01*
X197407413Y-159716848D02*
X197432867Y-159759014D01*
X197407413Y-236987447D02*
X197432867Y-237029613D01*
X197408363Y-6778229D02*
X197379192Y-6817562D01*
X197408363Y-84048828D02*
X197379192Y-84088161D01*
X197408363Y-161319427D02*
X197379192Y-161358760D01*
X197408363Y-238587665D02*
X197379192Y-238626998D01*
X197420660Y-82467018D02*
X197444002Y-82510389D01*
X197421466Y-5242462D02*
X197444550Y-5285650D01*
X197432867Y-159759014D02*
X197444002Y-159780988D01*
X197432867Y-237029613D02*
X197444002Y-237051587D01*
X197433538Y-6736226D02*
X197408363Y-6778229D01*
X197433538Y-84006825D02*
X197408363Y-84048828D01*
X197433538Y-161277424D02*
X197408363Y-161319427D01*
X197433538Y-238545662D02*
X197408363Y-238587665D01*
X197444002Y-82510389D02*
X197454039Y-82532886D01*
X197444002Y-159780988D02*
X197462954Y-159826449D01*
X197444002Y-237051587D02*
X197462954Y-237097048D01*
X197444550Y-5285650D02*
X197463290Y-5330892D01*
X197444550Y-6714349D02*
X197433538Y-6736226D01*
X197454039Y-82532886D02*
X197470725Y-82579227D01*
X197454475Y-6691958D02*
X197444550Y-6714349D01*
X197454475Y-83962557D02*
X197433538Y-84006825D01*
X197454475Y-161233156D02*
X197433538Y-161277424D01*
X197454475Y-238501394D02*
X197433538Y-238545662D01*
X197462954Y-159826449D02*
X197477332Y-159873557D01*
X197462954Y-237097048D02*
X197470725Y-237120425D01*
X197463290Y-5330892D02*
X197477505Y-5377752D01*
X197470725Y-82579227D02*
X197482760Y-82626987D01*
X197470725Y-237120425D02*
X197482760Y-237168185D01*
X197470973Y-6645851D02*
X197454475Y-6691958D01*
X197470973Y-83916450D02*
X197454475Y-83962557D01*
X197470973Y-161187049D02*
X197454475Y-161233156D01*
X197470973Y-238455288D02*
X197454475Y-238501394D01*
X197477332Y-159873557D02*
X197482760Y-159897586D01*
X197477505Y-5377752D02*
X197487059Y-5425781D01*
X197482760Y-82626987D02*
X197490029Y-82675701D01*
X197482760Y-159897586D02*
X197490029Y-159946300D01*
X197482760Y-237168185D02*
X197490029Y-237216899D01*
X197482871Y-6598350D02*
X197470973Y-6645851D01*
X197482871Y-83868949D02*
X197470973Y-83916450D01*
X197482871Y-161139548D02*
X197470973Y-161187049D01*
X197482871Y-238407786D02*
X197470973Y-238455288D01*
X197487059Y-5425781D02*
X197491858Y-5474515D01*
X197487059Y-6574218D02*
X197482871Y-6598350D01*
X197490029Y-82675701D02*
X197492460Y-82724907D01*
X197490029Y-159946300D02*
X197492460Y-159995506D01*
X197490029Y-237216899D02*
X197492460Y-237266105D01*
X197490057Y-83820509D02*
X197482871Y-83868949D01*
X197490057Y-161091108D02*
X197482871Y-161139548D01*
X197490057Y-238359346D02*
X197482871Y-238407786D01*
X197491858Y-5474515D02*
X197492460Y-6500987D01*
X197491858Y-6525484D02*
X197487059Y-6574218D01*
X197492460Y-6500987D02*
X197491858Y-6525484D01*
X197492460Y-82724907D02*
X197492460Y-83771586D01*
X197492460Y-83771586D02*
X197490057Y-83820509D01*
X197492460Y-159995506D02*
X197492460Y-161042185D01*
X197492460Y-161042185D02*
X197490057Y-161091108D01*
X197492460Y-237266105D02*
X197492460Y-238310423D01*
X197492460Y-238310423D02*
X197490057Y-238359346D01*
X200492460Y-6500987D02*
X200493061Y-5474515D01*
X200492460Y-159995551D02*
X200494891Y-159946346D01*
X200492460Y-237266150D02*
X200494891Y-237216945D01*
X200492460Y-238310423D02*
X200492460Y-237266150D01*
X200493061Y-5474515D02*
X200497861Y-5425781D01*
X200493061Y-6525484D02*
X200492460Y-6500987D01*
X200493061Y-83796083D02*
X200493068Y-82700313D01*
X200493061Y-161066682D02*
X200492460Y-159995551D01*
X200493068Y-82700313D02*
X200497924Y-82651300D01*
X200494863Y-238359346D02*
X200492460Y-238310423D01*
X200494891Y-159946346D02*
X200502159Y-159897632D01*
X200494891Y-237216945D02*
X200502159Y-237168231D01*
X200497861Y-5425781D02*
X200507414Y-5377752D01*
X200497861Y-6574218D02*
X200493061Y-6525484D01*
X200497861Y-83844817D02*
X200493061Y-83796083D01*
X200497861Y-161115416D02*
X200493061Y-161066682D01*
X200497924Y-82651300D02*
X200502159Y-82627033D01*
X200502048Y-6598350D02*
X200497861Y-6574218D01*
X200502048Y-83868949D02*
X200497861Y-83844817D01*
X200502048Y-161139548D02*
X200497861Y-161115416D01*
X200502048Y-238407786D02*
X200494863Y-238359346D01*
X200502159Y-82627033D02*
X200514195Y-82579272D01*
X200502159Y-159897632D02*
X200514195Y-159849871D01*
X200502159Y-237168231D02*
X200514195Y-237120470D01*
X200507414Y-5377752D02*
X200521630Y-5330892D01*
X200507414Y-238431683D02*
X200502048Y-238407786D01*
X200513947Y-6645851D02*
X200502048Y-6598350D01*
X200513947Y-83916450D02*
X200502048Y-83868949D01*
X200513947Y-161187049D02*
X200502048Y-161139548D01*
X200514195Y-82579272D02*
X200530880Y-82532931D01*
X200514195Y-159849871D02*
X200521966Y-159826495D01*
X200514195Y-237120470D02*
X200530880Y-237074129D01*
X200521630Y-5330892D02*
X200540369Y-5285650D01*
X200521630Y-83939706D02*
X200513947Y-83916450D01*
X200521630Y-238478543D02*
X200507414Y-238431683D01*
X200521966Y-159826495D02*
X200540918Y-159781034D01*
X200530444Y-6691958D02*
X200513947Y-6645851D01*
X200530444Y-83962557D02*
X200521630Y-83939706D01*
X200530444Y-161233156D02*
X200513947Y-161187049D01*
X200530444Y-238501394D02*
X200521630Y-238478543D01*
X200530880Y-82532931D02*
X200552053Y-82488461D01*
X200530880Y-237074129D02*
X200540918Y-237051633D01*
X200540369Y-5285650D02*
X200563453Y-5242462D01*
X200540369Y-6714349D02*
X200530444Y-6691958D01*
X200540918Y-159781034D02*
X200552053Y-159759060D01*
X200540918Y-237051633D02*
X200564259Y-237008262D01*
X200551381Y-6736226D02*
X200540369Y-6714349D01*
X200551381Y-84006825D02*
X200530444Y-83962557D01*
X200551381Y-161277424D02*
X200530444Y-161233156D01*
X200551381Y-238545662D02*
X200530444Y-238501394D01*
X200552053Y-82488461D02*
X200577506Y-82446295D01*
X200552053Y-159759060D02*
X200577506Y-159716894D01*
X200563453Y-5242462D02*
X200590659Y-5201746D01*
X200563453Y-161298735D02*
X200551381Y-161277424D01*
X200563453Y-238566973D02*
X200551381Y-238545662D01*
X200564259Y-237008262D02*
X200591762Y-236967403D01*
X200576557Y-6778229D02*
X200551381Y-6736226D01*
X200576557Y-84048828D02*
X200551381Y-84006825D01*
X200576557Y-238587665D02*
X200563453Y-238566973D01*
X200577506Y-82446295D02*
X200606993Y-82406843D01*
X200577506Y-159716894D02*
X200606993Y-159677442D01*
X200590659Y-5201746D02*
X200621725Y-5163892D01*
X200590659Y-84068852D02*
X200576557Y-84048828D01*
X200590659Y-161339451D02*
X200563453Y-161298735D01*
X200591762Y-236967403D02*
X200623160Y-236929454D01*
X200605728Y-6817562D02*
X200576557Y-6778229D01*
X200605728Y-84088161D02*
X200590659Y-84068852D01*
X200605728Y-161358760D02*
X200590659Y-161339451D01*
X200605728Y-238626998D02*
X200576557Y-238587665D01*
X200606993Y-82406843D02*
X200640225Y-82370490D01*
X200606993Y-159677442D02*
X200640225Y-159641089D01*
X200621725Y-5163892D02*
X200656352Y-5129265D01*
X200621725Y-6836107D02*
X200605728Y-6817562D01*
X200621725Y-238645543D02*
X200605728Y-238626998D01*
X200623160Y-236929454D02*
X200658146Y-236894786D01*
X200638614Y-84124445D02*
X200605728Y-84088161D01*
X200638614Y-161395044D02*
X200605728Y-161358760D01*
X200640225Y-82370490D02*
X200658146Y-82353588D01*
X200640225Y-159641089D02*
X200676879Y-159608190D01*
X200656352Y-5129265D02*
X200694206Y-5098199D01*
X200656352Y-6870734D02*
X200621725Y-6836107D01*
X200656352Y-161411932D02*
X200638614Y-161395044D01*
X200656352Y-238680170D02*
X200621725Y-238645543D01*
X200658146Y-82353588D02*
X200696379Y-82322537D01*
X200658146Y-236894786D02*
X200696379Y-236863735D01*
X200674898Y-6886731D02*
X200656352Y-6870734D01*
X200674898Y-84157330D02*
X200638614Y-84124445D01*
X200674898Y-238696168D02*
X200656352Y-238680170D01*
X200676879Y-159608190D02*
X200716598Y-159579064D01*
X200694206Y-5098199D02*
X200734923Y-5070993D01*
X200694206Y-161442998D02*
X200656352Y-161411932D01*
X200696379Y-82322537D02*
X200737486Y-82295407D01*
X200696379Y-236863735D02*
X200737486Y-236836605D01*
X200714230Y-6915903D02*
X200674898Y-6886731D01*
X200714230Y-84186502D02*
X200674898Y-84157330D01*
X200714230Y-161457101D02*
X200694206Y-161442998D01*
X200714230Y-238725339D02*
X200674898Y-238696168D01*
X200716598Y-159579064D02*
X200737486Y-159566006D01*
X200734923Y-5070993D02*
X200778110Y-5047909D01*
X200734923Y-6929006D02*
X200714230Y-6915903D01*
X200734923Y-84199605D02*
X200714230Y-84186502D01*
X200737486Y-82295407D02*
X200758994Y-82283397D01*
X200737486Y-159566006D02*
X200781069Y-159543061D01*
X200737486Y-236836605D02*
X200758994Y-236824595D01*
X200756233Y-6941078D02*
X200734923Y-6929006D01*
X200756233Y-161482276D02*
X200714230Y-161457101D01*
X200756233Y-238750514D02*
X200714230Y-238725339D01*
X200758994Y-82283397D02*
X200803656Y-82262630D01*
X200758994Y-236824595D02*
X200781069Y-236813660D01*
X200778110Y-5047909D02*
X200823352Y-5029169D01*
X200778110Y-84222689D02*
X200734923Y-84199605D01*
X200778110Y-238761526D02*
X200756233Y-238750514D01*
X200781069Y-159543061D02*
X200803656Y-159533229D01*
X200781069Y-236813660D02*
X200826700Y-236795123D01*
X200800501Y-6962015D02*
X200756233Y-6941078D01*
X200800501Y-84232614D02*
X200778110Y-84222689D01*
X200800501Y-161503213D02*
X200756233Y-161482276D01*
X200803656Y-82262630D02*
X200826700Y-82253925D01*
X200803656Y-159533229D02*
X200850147Y-159516967D01*
X200823352Y-5029169D02*
X200870213Y-5014954D01*
X200823352Y-6970830D02*
X200800501Y-6962015D01*
X200823352Y-161512028D02*
X200800501Y-161503213D01*
X200823352Y-238780266D02*
X200778110Y-238761526D01*
X200826700Y-82253925D02*
X200873938Y-82239977D01*
X200826700Y-236795123D02*
X200873938Y-236781175D01*
X200846608Y-84249111D02*
X200800501Y-84232614D01*
X200850147Y-159516967D02*
X200898015Y-159505367D01*
X200870213Y-5014954D02*
X200918241Y-5005401D01*
X200870213Y-6985045D02*
X200823352Y-6970830D01*
X200870213Y-161526243D02*
X200823352Y-161512028D01*
X200870213Y-238794481D02*
X200823352Y-238780266D01*
X200873938Y-82239977D02*
X200898015Y-82234768D01*
X200873938Y-236781175D02*
X200922320Y-236771951D01*
X200894110Y-84261010D02*
X200846608Y-84249111D01*
X200894110Y-161531609D02*
X200870213Y-161526243D01*
X200894110Y-238799847D02*
X200870213Y-238794481D01*
X200898015Y-82234768D02*
X200946793Y-82227943D01*
X200898015Y-159505367D02*
X200946793Y-159498542D01*
X200918241Y-5005401D02*
X200966975Y-5000601D01*
X200918241Y-6994598D02*
X200870213Y-6985045D01*
X200922320Y-236771951D02*
X200971387Y-236767542D01*
X200942549Y-84268195D02*
X200894110Y-84261010D01*
X200942549Y-161538794D02*
X200894110Y-161531609D01*
X200942549Y-238807032D02*
X200894110Y-238799847D01*
X200946793Y-82227943D02*
X201340237Y-82211435D01*
X200946793Y-159498542D02*
X201340237Y-159482034D01*
X200966975Y-5000601D02*
X200991472Y-5000000D01*
X200966975Y-6999398D02*
X200918241Y-6994598D01*
X200971387Y-236767542D02*
X201340237Y-236752633D01*
X200991472Y-5000000D02*
X276993494Y-5000000D01*
X200991472Y-84270599D02*
X200942549Y-84268195D01*
X200991472Y-161541198D02*
X200942549Y-161538794D01*
X200991472Y-238809436D02*
X200942549Y-238807032D01*
X201340237Y-82211435D02*
X202271786Y-82155109D01*
X201340237Y-159482034D02*
X202276796Y-159425355D01*
X201340237Y-236752633D02*
X202271786Y-236696307D01*
X202271786Y-82155109D02*
X203212005Y-82079238D01*
X202271786Y-236696307D02*
X203207003Y-236620890D01*
X202276796Y-159425355D02*
X203212005Y-159349837D01*
X203207003Y-236620890D02*
X204142877Y-236525611D01*
X203212005Y-82079238D02*
X204142899Y-81984268D01*
X203212005Y-159349837D02*
X204142026Y-159255785D01*
X204142026Y-159255785D02*
X204143026Y-147588338D01*
X204142877Y-236525611D02*
X204143026Y-224858937D01*
X204142899Y-81984268D02*
X204143026Y-70317739D01*
X204143026Y-70317739D02*
X204145430Y-70268816D01*
X204143026Y-147588338D02*
X204145430Y-147539415D01*
X204143026Y-224858937D02*
X204145430Y-224810014D01*
X204145430Y-70268816D02*
X204152615Y-70220376D01*
X204145430Y-147539415D02*
X204152615Y-147490975D01*
X204145430Y-224810014D02*
X204152615Y-224761574D01*
X204152615Y-70220376D02*
X204164514Y-70172875D01*
X204152615Y-147490975D02*
X204164514Y-147443474D01*
X204152615Y-224761574D02*
X204164514Y-224714073D01*
X204164514Y-70172875D02*
X204181011Y-70126768D01*
X204164514Y-147443474D02*
X204181011Y-147397367D01*
X204164514Y-224714073D02*
X204181011Y-224667966D01*
X204181011Y-70126768D02*
X204201948Y-70082500D01*
X204181011Y-147397367D02*
X204201948Y-147353099D01*
X204181011Y-224667966D02*
X204201948Y-224623698D01*
X204201948Y-70082500D02*
X204227123Y-70040497D01*
X204201948Y-147353099D02*
X204227123Y-147311096D01*
X204201948Y-224623698D02*
X204227123Y-224581695D01*
X204227123Y-70040497D02*
X204256295Y-70001164D01*
X204227123Y-147311096D02*
X204241226Y-147291072D01*
X204227123Y-224581695D02*
X204256295Y-224542362D01*
X204241226Y-147291072D02*
X204272292Y-147253218D01*
X204256295Y-70001164D02*
X204272292Y-69982619D01*
X204256295Y-224542362D02*
X204289180Y-224506078D01*
X204272292Y-69982619D02*
X204306919Y-69947992D01*
X204272292Y-147253218D02*
X204306919Y-147218591D01*
X204289180Y-224506078D02*
X204306919Y-224489190D01*
X204306919Y-69947992D02*
X204344773Y-69916926D01*
X204306919Y-147218591D02*
X204344773Y-147187525D01*
X204306919Y-224489190D02*
X204344773Y-224458124D01*
X204344773Y-69916926D02*
X204385489Y-69889720D01*
X204344773Y-147187525D02*
X204385489Y-147160319D01*
X204344773Y-224458124D02*
X204385489Y-224430918D01*
X204385489Y-69889720D02*
X204428677Y-69866636D01*
X204385489Y-147160319D02*
X204428677Y-147137235D01*
X204385489Y-224430918D02*
X204428677Y-224407834D01*
X204428677Y-69866636D02*
X204473919Y-69847896D01*
X204428677Y-147137235D02*
X204473919Y-147118495D01*
X204428677Y-224407834D02*
X204473919Y-224389094D01*
X204473919Y-69847896D02*
X204520779Y-69833681D01*
X204473919Y-147118495D02*
X204520779Y-147104280D01*
X204473919Y-224389094D02*
X204520779Y-224374879D01*
X204520779Y-69833681D02*
X204568808Y-69824128D01*
X204520779Y-147104280D02*
X204568808Y-147094727D01*
X204520779Y-224374879D02*
X204568808Y-224365326D01*
X204568808Y-69824128D02*
X204617542Y-69819328D01*
X204568808Y-147094727D02*
X204617542Y-147089927D01*
X204568808Y-224365326D02*
X204617542Y-224360526D01*
X204617542Y-69819328D02*
X204642039Y-69818727D01*
X204617542Y-147089927D02*
X204642039Y-147089326D01*
X204617542Y-224360526D02*
X204642039Y-224359925D01*
X204642039Y-69818727D02*
X217812959Y-69818586D01*
X204642039Y-147089326D02*
X217812959Y-147089185D01*
X204642039Y-224359925D02*
X217812959Y-224359784D01*
X217812959Y-69818586D02*
X219550873Y-68801798D01*
X217812959Y-147089185D02*
X219550873Y-146072397D01*
X217812959Y-224359784D02*
X219550873Y-223342996D01*
X219550873Y-68801798D02*
X221239137Y-67693011D01*
X219550873Y-146072397D02*
X221239137Y-144963610D01*
X219550873Y-223342996D02*
X221239137Y-222234209D01*
X221239137Y-67693011D02*
X222867712Y-66498321D01*
X221239137Y-144963610D02*
X222867712Y-143768920D01*
X221239137Y-222234209D02*
X222867712Y-221039519D01*
X222867712Y-66498321D02*
X224442081Y-65212455D01*
X222867712Y-143768920D02*
X224442081Y-142483054D01*
X222867712Y-221039519D02*
X224442081Y-219753653D01*
X224442081Y-65212455D02*
X225937936Y-63855269D01*
X224442081Y-142483054D02*
X225937936Y-141125868D01*
X224442081Y-219753653D02*
X225937936Y-218396467D01*
X225937936Y-63855269D02*
X227361538Y-62422439D01*
X225937936Y-141125868D02*
X227361538Y-139693038D01*
X225937936Y-218396467D02*
X227361538Y-216963637D01*
X227361538Y-62422439D02*
X228709049Y-60917827D01*
X227361538Y-139693038D02*
X228709049Y-138188426D01*
X227361538Y-216963637D02*
X228709049Y-215459025D01*
X227474440Y-84271057D02*
X200991472Y-84270599D01*
X227474440Y-161541656D02*
X200991472Y-161541198D01*
X227474560Y-7000617D02*
X200966975Y-6999398D01*
X228709049Y-60917827D02*
X229969022Y-59355710D01*
X228709049Y-138188426D02*
X229969022Y-136626309D01*
X228709049Y-215459025D02*
X229969022Y-213896908D01*
X229969022Y-59355710D02*
X231154263Y-57720214D01*
X229969022Y-136626309D02*
X231154263Y-134990813D01*
X229969022Y-213896908D02*
X231154263Y-212261412D01*
X231154263Y-57720214D02*
X232253226Y-56025570D01*
X231154263Y-134990813D02*
X232253226Y-133296169D01*
X231154263Y-212261412D02*
X232253226Y-210566768D01*
X232253226Y-56025570D02*
X233269169Y-54264903D01*
X232253226Y-133296169D02*
X233269169Y-131535502D01*
X232253226Y-210566768D02*
X233269169Y-208806101D01*
X232473675Y-15659059D02*
X227474560Y-7000617D01*
X232473675Y-92929658D02*
X227474440Y-84271057D01*
X232473675Y-170200257D02*
X227474440Y-161541656D01*
X233269169Y-54264903D02*
X234186407Y-52465400D01*
X233269169Y-131535502D02*
X234186407Y-129735999D01*
X233269169Y-208806101D02*
X234186407Y-207006598D01*
X233467788Y-17426279D02*
X232473675Y-15659059D01*
X233467800Y-94696901D02*
X232473675Y-92929658D01*
X233467800Y-171967500D02*
X232473675Y-170200257D01*
X234186407Y-52465400D02*
X235004312Y-50632704D01*
X234186407Y-129735999D02*
X235004312Y-127903303D01*
X234186407Y-207006598D02*
X235004312Y-205173902D01*
X234365579Y-96506191D02*
X233467800Y-94696901D01*
X234365579Y-173776790D02*
X233467800Y-171967500D01*
X234365590Y-19235616D02*
X233467788Y-17426279D01*
X235004312Y-50632704D02*
X235731185Y-48748215D01*
X235004312Y-127903303D02*
X235731185Y-126018814D01*
X235004312Y-205173902D02*
X235731185Y-203289413D01*
X235168493Y-21088960D02*
X234365590Y-19235616D01*
X235168493Y-98359559D02*
X234365579Y-96506191D01*
X235168493Y-175630158D02*
X234365579Y-173776790D01*
X235731185Y-48748215D02*
X236155125Y-47455270D01*
X235731185Y-126018814D02*
X236155125Y-124725869D01*
X235731185Y-203289413D02*
X236155125Y-201996468D01*
X235870183Y-22969219D02*
X235168493Y-21088960D01*
X235870183Y-100239818D02*
X235168493Y-98359559D01*
X235870183Y-177510417D02*
X235168493Y-175630158D01*
X236155125Y-47455270D02*
X236174432Y-47411171D01*
X236155125Y-124725869D02*
X236164246Y-124703587D01*
X236155125Y-201996468D02*
X236164246Y-201974186D01*
X236164246Y-124703587D02*
X236185658Y-124660471D01*
X236164246Y-201974186D02*
X236185658Y-201931070D01*
X236174432Y-47411171D02*
X236185658Y-47389872D01*
X236185658Y-47389872D02*
X236211125Y-47349020D01*
X236185658Y-124660471D02*
X236211125Y-124619619D01*
X236185658Y-201931070D02*
X236211125Y-201890218D01*
X236211125Y-47349020D02*
X236240410Y-47310812D01*
X236211125Y-124619619D02*
X236240410Y-124581411D01*
X236211125Y-201890218D02*
X236240410Y-201852010D01*
X236240410Y-47310812D02*
X236273240Y-47275604D01*
X236240410Y-124581411D02*
X236273240Y-124546203D01*
X236240410Y-201852010D02*
X236273240Y-201816802D01*
X236273240Y-47275604D02*
X236309310Y-47243723D01*
X236273240Y-124546203D02*
X236309310Y-124514322D01*
X236273240Y-201816802D02*
X236309310Y-201784921D01*
X236309310Y-47243723D02*
X236348284Y-47215467D01*
X236309310Y-124514322D02*
X236328456Y-124499724D01*
X236309310Y-201784921D02*
X236348284Y-201756665D01*
X236328456Y-124499724D02*
X236368748Y-124473380D01*
X236348284Y-47215467D02*
X236389800Y-47191097D01*
X236348284Y-201756665D02*
X236389800Y-201732295D01*
X236368748Y-124473380D02*
X236411391Y-124451041D01*
X236389800Y-47191097D02*
X236433470Y-47170841D01*
X236389800Y-201732295D02*
X236433470Y-201712039D01*
X236411391Y-124451041D02*
X236455988Y-124432916D01*
X236433470Y-47170841D02*
X236478890Y-47154888D01*
X236433470Y-201712039D02*
X236478890Y-201696086D01*
X236455988Y-124432916D02*
X236502124Y-124419172D01*
X236477778Y-102166076D02*
X235870183Y-100239818D01*
X236477778Y-179436675D02*
X235870183Y-177510417D01*
X236478890Y-47154888D02*
X236502124Y-47148573D01*
X236478890Y-201696086D02*
X236525635Y-201684584D01*
X236481335Y-24907871D02*
X235870183Y-22969219D01*
X236502124Y-47148573D02*
X236549369Y-47139338D01*
X236502124Y-124419172D02*
X236549369Y-124409937D01*
X236525635Y-201684584D02*
X236573271Y-201677639D01*
X236549369Y-47139338D02*
X236597285Y-47134700D01*
X236549369Y-124409937D02*
X236597285Y-124405299D01*
X236573271Y-201677639D02*
X236597285Y-201675898D01*
X236597285Y-47134700D02*
X241363331Y-47134119D01*
X236597285Y-124405299D02*
X241363331Y-124404718D01*
X236597285Y-201675898D02*
X241363331Y-201675317D01*
X236984830Y-104121208D02*
X236477778Y-102166076D01*
X236984830Y-181391807D02*
X236477778Y-179436675D01*
X236987746Y-26863195D02*
X236481335Y-24907871D01*
X237389980Y-106099970D02*
X236984830Y-104121208D01*
X237389980Y-183370569D02*
X236984830Y-181391807D01*
X237392240Y-28842091D02*
X236987746Y-26863195D01*
X237526899Y-41628951D02*
X237529949Y-41579691D01*
X237527205Y-118924233D02*
X237527815Y-118874883D01*
X237527205Y-196194832D02*
X237527815Y-196145482D01*
X237527815Y-118874883D02*
X237533298Y-118825821D01*
X237527815Y-196145482D02*
X237533298Y-196096420D01*
X237528730Y-41678272D02*
X237526899Y-41628951D01*
X237529949Y-41579691D02*
X237639502Y-40898281D01*
X237531473Y-41702804D02*
X237528730Y-41678272D01*
X237531473Y-118973403D02*
X237527205Y-118924233D01*
X237531473Y-196244002D02*
X237527205Y-196194832D01*
X237533298Y-118825821D02*
X237639502Y-118168880D01*
X237533298Y-196096420D02*
X237639502Y-195439479D01*
X237540577Y-41751311D02*
X237531473Y-41702804D01*
X237540577Y-119021910D02*
X237531473Y-118973403D01*
X237540577Y-196292509D02*
X237531473Y-196244002D01*
X237554429Y-41798682D02*
X237540577Y-41751311D01*
X237554429Y-119069281D02*
X237540577Y-119021910D01*
X237554429Y-196339880D02*
X237540577Y-196292509D01*
X237563095Y-41821796D02*
X237554429Y-41798682D01*
X237572893Y-119115052D02*
X237554429Y-119069281D01*
X237572893Y-196385651D02*
X237554429Y-196339880D01*
X237583799Y-41866598D02*
X237563095Y-41821796D01*
X237595788Y-41888176D02*
X237583799Y-41866598D01*
X237595788Y-119158775D02*
X237572893Y-119115052D01*
X237595788Y-196429374D02*
X237572893Y-196385651D01*
X237622890Y-41929423D02*
X237595788Y-41888176D01*
X237622890Y-119200022D02*
X237595788Y-119158775D01*
X237622890Y-196470621D02*
X237595788Y-196429374D01*
X237637937Y-41948991D02*
X237622890Y-41929423D01*
X237639502Y-40898281D02*
X237857788Y-38903290D01*
X237639502Y-118168880D02*
X237857788Y-116173889D01*
X237639502Y-195439479D02*
X237857788Y-193444488D01*
X237653934Y-41967791D02*
X237637937Y-41948991D01*
X237653934Y-119238390D02*
X237622890Y-119200022D01*
X237653934Y-196508989D02*
X237622890Y-196470621D01*
X237688617Y-42002905D02*
X237653934Y-41967791D01*
X237688617Y-119273504D02*
X237653934Y-119238390D01*
X237688617Y-196544103D02*
X237653934Y-196508989D01*
X237692140Y-30826454D02*
X237392240Y-28842091D01*
X237692140Y-108097053D02*
X237389980Y-106099970D01*
X237692140Y-185367652D02*
X237389980Y-183370569D01*
X237726598Y-42034421D02*
X237688617Y-42002905D01*
X237726598Y-119305020D02*
X237688617Y-119273504D01*
X237726598Y-196575619D02*
X237688617Y-196544103D01*
X237746711Y-42048732D02*
X237726598Y-42034421D01*
X237767508Y-42062031D02*
X237746711Y-42048732D01*
X237767508Y-119332630D02*
X237726598Y-119305020D01*
X237767508Y-196603229D02*
X237726598Y-196575619D01*
X237810944Y-42085465D02*
X237767508Y-42062031D01*
X237810944Y-119356064D02*
X237767508Y-119332630D01*
X237810944Y-196626663D02*
X237767508Y-196603229D01*
X237833478Y-42095542D02*
X237810944Y-42085465D01*
X237856483Y-119375092D02*
X237810944Y-119356064D01*
X237856483Y-196645691D02*
X237810944Y-196626663D01*
X237857788Y-38903290D02*
X237973567Y-36886799D01*
X237857788Y-116173889D02*
X237973567Y-114157398D01*
X237857788Y-193444488D02*
X237973567Y-191427997D01*
X237879903Y-42112294D02*
X237833478Y-42095542D01*
X237890498Y-32836478D02*
X237692140Y-30826454D01*
X237890498Y-110107077D02*
X237692140Y-108097053D01*
X237890498Y-187377676D02*
X237692140Y-185367652D01*
X237903679Y-42118929D02*
X237879903Y-42112294D01*
X237903679Y-119389528D02*
X237856483Y-119375092D01*
X237903679Y-196660127D02*
X237856483Y-196645691D01*
X237952070Y-42128632D02*
X237903679Y-42118929D01*
X237952070Y-119399231D02*
X237903679Y-119389528D01*
X237952070Y-196669830D02*
X237903679Y-196660127D01*
X237973567Y-36886799D02*
X237984527Y-34854126D01*
X237973567Y-114157398D02*
X237984527Y-112124725D01*
X237973567Y-191427997D02*
X237984527Y-189395324D01*
X237984527Y-34854126D02*
X237890498Y-32836478D01*
X237984527Y-112124725D02*
X237890498Y-110107077D01*
X237984527Y-189395324D02*
X237890498Y-187377676D01*
X238001183Y-42133508D02*
X237952070Y-42128632D01*
X238001183Y-119404107D02*
X237952070Y-119399231D01*
X238001183Y-196674706D02*
X237952070Y-196669830D01*
X238025873Y-42134119D02*
X238001183Y-42133508D01*
X238025873Y-119404718D02*
X238001183Y-119404107D01*
X238025873Y-196675317D02*
X238001183Y-196674706D01*
X239960462Y-119404718D02*
X238025873Y-119404718D01*
X239960462Y-196675317D02*
X238025873Y-196675317D01*
X239984938Y-42133518D02*
X238025873Y-42134119D01*
X239984938Y-119404117D02*
X239960462Y-119404718D01*
X239984938Y-196674716D02*
X239960462Y-196675317D01*
X240000421Y-36411395D02*
X240088560Y-38386036D01*
X240000421Y-113681994D02*
X240088560Y-115656635D01*
X240000421Y-190952593D02*
X240088560Y-192927234D01*
X240012444Y-34434799D02*
X240000421Y-36411395D01*
X240012444Y-111705398D02*
X240000421Y-113681994D01*
X240012444Y-188975997D02*
X240000421Y-190952593D01*
X240033632Y-42128726D02*
X239984938Y-42133518D01*
X240033632Y-119399325D02*
X239984938Y-119404117D01*
X240033632Y-196669924D02*
X239984938Y-196674716D01*
X240057743Y-119395145D02*
X240033632Y-119399325D01*
X240057743Y-196665744D02*
X240033632Y-196669924D01*
X240081621Y-42119189D02*
X240033632Y-42128726D01*
X240088560Y-38386036D02*
X240275112Y-40341124D01*
X240088560Y-115656635D02*
X240275110Y-117611698D01*
X240088560Y-192927234D02*
X240275110Y-194882297D01*
X240105208Y-119383266D02*
X240057743Y-119395145D01*
X240105208Y-196653865D02*
X240057743Y-196665744D01*
X240125634Y-32448801D02*
X240012444Y-34434799D01*
X240125634Y-109719400D02*
X240012444Y-111705398D01*
X240125634Y-186989999D02*
X240012444Y-188975997D01*
X240128446Y-42104997D02*
X240081621Y-42119189D01*
X240128446Y-196646195D02*
X240105208Y-196653865D01*
X240151281Y-42096197D02*
X240128446Y-42104997D01*
X240151281Y-119366796D02*
X240105208Y-119383266D01*
X240173657Y-119356887D02*
X240151281Y-119366796D01*
X240173657Y-196627486D02*
X240128446Y-196646195D01*
X240195519Y-42075294D02*
X240151281Y-42096197D01*
X240216817Y-119333840D02*
X240173657Y-119356887D01*
X240216817Y-196604439D02*
X240173657Y-196627486D01*
X240237498Y-42050159D02*
X240195519Y-42075294D01*
X240237498Y-196591357D02*
X240216817Y-196604439D01*
X240257513Y-119306677D02*
X240216817Y-119333840D01*
X240257513Y-196577276D02*
X240237498Y-196591357D01*
X240275112Y-40341124D02*
X240454177Y-41562600D01*
X240275110Y-117611698D02*
X240454177Y-118833199D01*
X240275110Y-194882297D02*
X240454177Y-196103798D01*
X240276813Y-42021033D02*
X240237498Y-42050159D01*
X240276813Y-119291632D02*
X240257513Y-119306677D01*
X240295353Y-196546258D02*
X240257513Y-196577276D01*
X240313087Y-41988197D02*
X240276813Y-42021033D01*
X240313087Y-119258796D02*
X240276813Y-119291632D01*
X240313087Y-196529395D02*
X240295353Y-196546258D01*
X240338265Y-30483664D02*
X240125634Y-32448801D01*
X240338268Y-107754238D02*
X240125634Y-109719400D01*
X240338268Y-185024837D02*
X240125634Y-186989999D01*
X240345971Y-41951967D02*
X240313087Y-41988197D01*
X240345971Y-119222566D02*
X240313087Y-119258796D01*
X240345971Y-196493165D02*
X240313087Y-196529395D01*
X240361041Y-119203285D02*
X240345971Y-119222566D01*
X240375148Y-41912690D02*
X240345971Y-41951967D01*
X240375148Y-119183289D02*
X240361041Y-119203285D01*
X240375148Y-196453888D02*
X240345971Y-196493165D01*
X240388258Y-196433224D02*
X240375148Y-196453888D01*
X240400339Y-41870744D02*
X240375148Y-41912690D01*
X240400339Y-119141343D02*
X240375148Y-119183289D01*
X240411362Y-119119495D02*
X240400339Y-119141343D01*
X240411362Y-196390094D02*
X240388258Y-196433224D01*
X240421300Y-41826534D02*
X240400339Y-41870744D01*
X240430131Y-119074310D02*
X240411362Y-119119495D01*
X240430131Y-196344909D02*
X240411362Y-196390094D01*
X240437831Y-41780482D02*
X240421300Y-41826534D01*
X240437831Y-119051081D02*
X240430131Y-119074310D01*
X240444384Y-196298102D02*
X240430131Y-196344909D01*
X240449773Y-41733034D02*
X240437831Y-41780482D01*
X240449773Y-119003633D02*
X240437831Y-119051081D01*
X240449773Y-196274232D02*
X240444384Y-196298102D01*
X240454177Y-41562600D02*
X240457139Y-41586904D01*
X240454177Y-118833199D02*
X240457139Y-118857503D01*
X240454177Y-196103798D02*
X240457139Y-196128102D01*
X240457010Y-41684643D02*
X240449773Y-41733034D01*
X240457010Y-118955242D02*
X240449773Y-119003633D01*
X240457010Y-196225841D02*
X240449773Y-196274232D01*
X240457139Y-41586904D02*
X240459473Y-41635777D01*
X240457139Y-118857503D02*
X240459473Y-118906376D01*
X240457139Y-196128102D02*
X240459473Y-196176975D01*
X240459473Y-41635777D02*
X240457010Y-41684643D01*
X240459473Y-118906376D02*
X240457010Y-118955242D01*
X240459473Y-196176975D02*
X240457010Y-196225841D01*
X240650188Y-28531824D02*
X240338265Y-30483664D01*
X240650188Y-105802423D02*
X240338268Y-107754238D01*
X240650188Y-183073022D02*
X240338268Y-185024837D01*
X241057668Y-103881191D02*
X240650188Y-105802423D01*
X241057668Y-181151790D02*
X240650188Y-183073022D01*
X241060604Y-26598295D02*
X240650188Y-28531824D01*
X241363331Y-47134119D02*
X241412125Y-47136509D01*
X241363331Y-124404718D02*
X241412125Y-124407108D01*
X241363331Y-201675317D02*
X241412125Y-201677707D01*
X241412125Y-47136509D02*
X241436370Y-47139491D01*
X241412125Y-124407108D02*
X241460440Y-124414256D01*
X241412125Y-201677707D02*
X241436370Y-201680689D01*
X241436370Y-47139491D02*
X241484277Y-47148995D01*
X241436370Y-201680689D02*
X241484277Y-201690193D01*
X241460440Y-124414256D02*
X241484277Y-124419594D01*
X241484277Y-47148995D02*
X241531026Y-47163137D01*
X241484277Y-124419594D02*
X241507825Y-124426092D01*
X241484277Y-201690193D02*
X241531026Y-201704335D01*
X241507825Y-124426092D02*
X241553825Y-124442505D01*
X241531026Y-47163137D02*
X241553825Y-47171906D01*
X241531026Y-201704335D02*
X241553825Y-201713104D01*
X241553825Y-47171906D02*
X241598001Y-47192737D01*
X241553825Y-124442505D02*
X241598001Y-124463336D01*
X241553825Y-201713104D02*
X241598001Y-201733935D01*
X241564908Y-101970751D02*
X241057668Y-103881191D01*
X241564908Y-179241350D02*
X241057668Y-181151790D01*
X241568456Y-24688043D02*
X241060604Y-26598295D01*
X241598001Y-47192737D02*
X241619272Y-47204748D01*
X241598001Y-124463336D02*
X241619272Y-124475347D01*
X241598001Y-201733935D02*
X241619272Y-201745946D01*
X241619272Y-47204748D02*
X241659923Y-47231820D01*
X241619272Y-124475347D02*
X241659923Y-124502419D01*
X241619272Y-201745946D02*
X241659923Y-201773018D01*
X241659923Y-47231820D02*
X241679207Y-47246815D01*
X241659923Y-124502419D02*
X241679207Y-124517414D01*
X241659923Y-201773018D02*
X241679207Y-201788013D01*
X241679207Y-47246815D02*
X241715459Y-47279544D01*
X241679207Y-124517414D02*
X241715459Y-124550143D01*
X241679207Y-201788013D02*
X241715459Y-201820742D01*
X241715459Y-47279544D02*
X241732341Y-47297200D01*
X241715459Y-124550143D02*
X241732341Y-124567799D01*
X241715459Y-201820742D02*
X241732341Y-201838398D01*
X241732341Y-47297200D02*
X241748338Y-47315661D01*
X241732341Y-124567799D02*
X241748338Y-124586260D01*
X241732341Y-201838398D02*
X241748338Y-201856859D01*
X241748338Y-47315661D02*
X241777529Y-47354818D01*
X241748338Y-124586260D02*
X241777529Y-124625417D01*
X241748338Y-201856859D02*
X241777529Y-201896016D01*
X241777529Y-47354818D02*
X241790652Y-47375421D01*
X241777529Y-124625417D02*
X241790652Y-124646020D01*
X241777529Y-201896016D02*
X241802751Y-201937840D01*
X241790652Y-47375421D02*
X241813798Y-47418430D01*
X241790652Y-124646020D02*
X241813798Y-124689029D01*
X241802751Y-201937840D02*
X241813798Y-201959628D01*
X241813798Y-47418430D02*
X241832628Y-47463494D01*
X241813798Y-124689029D02*
X241832628Y-124734093D01*
X241813798Y-201959628D02*
X241832628Y-202004692D01*
X241832628Y-47463494D02*
X241840371Y-47486675D01*
X241832628Y-124734093D02*
X241840371Y-124757274D01*
X241832628Y-202004692D02*
X241840371Y-202027873D01*
X241840371Y-47486675D02*
X242014784Y-48053671D01*
X241840371Y-124757274D02*
X242014784Y-125324270D01*
X241840371Y-202027873D02*
X242014784Y-202594869D01*
X242014784Y-48053671D02*
X242685586Y-49899530D01*
X242014784Y-125324270D02*
X242685586Y-127170129D01*
X242014784Y-202594869D02*
X242685586Y-204440728D01*
X242172442Y-22805976D02*
X241568456Y-24688043D01*
X242172442Y-100076575D02*
X241564908Y-101970751D01*
X242172442Y-177347174D02*
X241564908Y-179241350D01*
X242685586Y-49899530D02*
X243458877Y-51732321D01*
X242685586Y-127170129D02*
X243458877Y-129002920D01*
X242685586Y-204440728D02*
X243458877Y-206273519D01*
X242866253Y-20968615D02*
X242172442Y-22805976D01*
X242871018Y-98227503D02*
X242172442Y-100076575D01*
X242871018Y-175498102D02*
X242172442Y-177347174D01*
X243458877Y-51732321D02*
X244313040Y-53500816D01*
X243458877Y-129002920D02*
X244313040Y-130771415D01*
X243458877Y-206273519D02*
X244318814Y-208053233D01*
X243657021Y-19157079D02*
X242866253Y-20968615D01*
X243662362Y-96416246D02*
X242871018Y-98227503D01*
X243662362Y-173686845D02*
X242871018Y-175498102D01*
X244313040Y-53500816D02*
X245261482Y-55234982D01*
X244313040Y-130771415D02*
X245261482Y-132505581D01*
X244318814Y-208053233D02*
X245261482Y-209776180D01*
X244538544Y-17387960D02*
X243657021Y-19157079D01*
X244538555Y-94658536D02*
X243662362Y-96416246D01*
X244538555Y-171929135D02*
X243662362Y-173686845D01*
X245261482Y-55234982D02*
X246296583Y-56918889D01*
X245261482Y-132505581D02*
X246296583Y-134189488D01*
X245261482Y-209776180D02*
X246296583Y-211460087D01*
X245512389Y-15659122D02*
X244538544Y-17387960D01*
X245512389Y-92929721D02*
X244538555Y-94658536D01*
X245512389Y-170200320D02*
X244538555Y-171929135D01*
X246296583Y-56918889D02*
X247415685Y-58548210D01*
X246296583Y-134189488D02*
X247415685Y-135818809D01*
X246296583Y-211460087D02*
X247415685Y-213089408D01*
X247415685Y-58548210D02*
X248615887Y-60118717D01*
X247415685Y-135818809D02*
X248615887Y-137389316D01*
X247415685Y-213089408D02*
X248615887Y-214659915D01*
X248615887Y-60118717D02*
X249894119Y-61626396D01*
X248615887Y-137389316D02*
X249894119Y-138896995D01*
X248615887Y-214659915D02*
X249894119Y-216167594D01*
X249894119Y-61626396D02*
X251247098Y-63067377D01*
X249894119Y-138896995D02*
X251247098Y-140337976D01*
X249894119Y-216167594D02*
X251247098Y-217608575D01*
X250511695Y-7000423D02*
X245512389Y-15659122D01*
X250511731Y-84270988D02*
X245512389Y-92929721D01*
X250511731Y-161541587D02*
X245512389Y-170200320D01*
X251247098Y-63067377D02*
X252680679Y-64446488D01*
X251247098Y-140337976D02*
X252671348Y-141708555D01*
X251247098Y-217608575D02*
X252671348Y-218979154D01*
X252671348Y-141708555D02*
X254163191Y-143005197D01*
X252671348Y-218979154D02*
X254163191Y-220275796D01*
X252680679Y-64446488D02*
X254172942Y-65742646D01*
X254163191Y-143005197D02*
X255728979Y-144232147D01*
X254163191Y-220275796D02*
X255728979Y-221502746D01*
X254172942Y-65742646D02*
X255728979Y-66961548D01*
X255728979Y-66961548D02*
X257334281Y-68093041D01*
X255728979Y-144232147D02*
X257334281Y-145363640D01*
X255728979Y-221502746D02*
X257334281Y-222634239D01*
X257334281Y-68093041D02*
X259005323Y-69148738D01*
X257334281Y-145363640D02*
X259005323Y-146419337D01*
X257334281Y-222634239D02*
X259005323Y-223689936D01*
X259005323Y-69148738D02*
X260738922Y-70124359D01*
X259005323Y-146419337D02*
X260738922Y-147394958D01*
X259005323Y-223689936D02*
X260738922Y-224665557D01*
X260738922Y-70124359D02*
X262497073Y-70999615D01*
X260738922Y-147394958D02*
X262508508Y-148275549D01*
X260738922Y-224665557D02*
X262508508Y-225546148D01*
X262497073Y-70999615D02*
X264308747Y-71790004D01*
X262508508Y-148275549D02*
X264308747Y-149060603D01*
X262508508Y-225546148D02*
X264308747Y-226331202D01*
X264308747Y-71790004D02*
X266170126Y-72491764D01*
X264308747Y-149060603D02*
X266170126Y-149762363D01*
X264308747Y-226331202D02*
X266170126Y-227032962D01*
X266170126Y-72491764D02*
X268052683Y-73094140D01*
X266170126Y-149762363D02*
X268052683Y-150364739D01*
X266170126Y-227032962D02*
X268052683Y-227635338D01*
X268052683Y-73094140D02*
X269951091Y-73597444D01*
X268052683Y-150364739D02*
X269951091Y-150868043D01*
X268052683Y-227635338D02*
X269951091Y-228138642D01*
X269951091Y-73597444D02*
X271884837Y-74006840D01*
X269951091Y-150868043D02*
X271884837Y-151277439D01*
X269951091Y-228138642D02*
X271884837Y-228548038D01*
X271884837Y-74006840D02*
X273446389Y-74256212D01*
X271884837Y-151277439D02*
X273446389Y-151526811D01*
X271884837Y-228548038D02*
X273446389Y-228797410D01*
X273446389Y-74256212D02*
X273493422Y-74268484D01*
X273446389Y-151526811D02*
X273493422Y-151539083D01*
X273446389Y-228797410D02*
X273493422Y-228809682D01*
X273493422Y-74268484D02*
X273539038Y-74285274D01*
X273493422Y-151539083D02*
X273539038Y-151555873D01*
X273493422Y-228809682D02*
X273539038Y-228826472D01*
X273539038Y-74285274D02*
X273561179Y-74295315D01*
X273539038Y-151555873D02*
X273582805Y-151577022D01*
X273539038Y-228826472D02*
X273582805Y-228847621D01*
X273561179Y-74295315D02*
X273603863Y-74318570D01*
X273582805Y-151577022D02*
X273603863Y-151589169D01*
X273582805Y-228847621D02*
X273603863Y-228859768D01*
X273603863Y-74318570D02*
X273644082Y-74345868D01*
X273603863Y-151589169D02*
X273644082Y-151616467D01*
X273603863Y-228859768D02*
X273644082Y-228887066D01*
X273644082Y-74345868D02*
X273681455Y-74376949D01*
X273644082Y-151616467D02*
X273681455Y-151647548D01*
X273644082Y-228887066D02*
X273663147Y-228902151D01*
X273663147Y-228902151D02*
X273698961Y-228935016D01*
X273681455Y-74376949D02*
X273715626Y-74411519D01*
X273681455Y-151647548D02*
X273715626Y-151682118D01*
X273698961Y-228935016D02*
X273731408Y-228971209D01*
X273715626Y-74411519D02*
X273731408Y-74430011D01*
X273715626Y-151682118D02*
X273746271Y-151719848D01*
X273731408Y-74430011D02*
X273760179Y-74469189D01*
X273731408Y-228971209D02*
X273760179Y-229010387D01*
X273746271Y-151719848D02*
X273773100Y-151760382D01*
X273760179Y-74469189D02*
X273785002Y-74510981D01*
X273760179Y-229010387D02*
X273785002Y-229052179D01*
X273773100Y-151760382D02*
X273785002Y-151781580D01*
X273785002Y-74510981D02*
X273805641Y-74554990D01*
X273785002Y-151781580D02*
X273795858Y-151803333D01*
X273785002Y-229052179D02*
X273795858Y-229073932D01*
X273795858Y-151803333D02*
X273814329Y-151848294D01*
X273795858Y-229073932D02*
X273814329Y-229118893D01*
X273805641Y-74554990D02*
X273814329Y-74577695D01*
X273814329Y-74577695D02*
X273828338Y-74624241D01*
X273814329Y-151848294D02*
X273828338Y-151894840D01*
X273814329Y-229118893D02*
X273828338Y-229165439D01*
X273828338Y-74624241D02*
X273837752Y-74671929D01*
X273828338Y-151894840D02*
X273837752Y-151942528D01*
X273828338Y-229165439D02*
X273837752Y-229213127D01*
X273837752Y-74671929D02*
X273842481Y-74720306D01*
X273837752Y-151942528D02*
X273842481Y-151990905D01*
X273837752Y-229213127D02*
X273842481Y-229261504D01*
X273842481Y-74720306D02*
X273843265Y-81984554D01*
X273842481Y-151990905D02*
X273843265Y-159255153D01*
X273842481Y-229261504D02*
X273843265Y-236525752D01*
X273843265Y-81984554D02*
X274774095Y-82079238D01*
X273843265Y-159255153D02*
X274774095Y-159349837D01*
X273843265Y-236525752D02*
X274774095Y-236620436D01*
X274774095Y-82079238D02*
X275709304Y-82154756D01*
X274774095Y-159349837D02*
X275709304Y-159425355D01*
X274774095Y-236620436D02*
X275709304Y-236695954D01*
X275709304Y-82154756D02*
X276645863Y-82211435D01*
X275709304Y-159425355D02*
X276645863Y-159482034D01*
X275709304Y-236695954D02*
X276645863Y-236752633D01*
X276645863Y-82211435D02*
X277038174Y-82227898D01*
X276645863Y-159482034D02*
X277038174Y-159498497D01*
X276645863Y-236752633D02*
X277038174Y-236769096D01*
X276993494Y-5000000D02*
X277017991Y-5000601D01*
X276993494Y-84270599D02*
X250511731Y-84270988D01*
X276993494Y-161541198D02*
X250511731Y-161541587D01*
X276993494Y-238809436D02*
X200991472Y-238809436D01*
X277017991Y-5000601D02*
X277066725Y-5005401D01*
X277017991Y-6999398D02*
X250511695Y-7000423D01*
X277038174Y-82227898D02*
X277086952Y-82234722D01*
X277038174Y-159498497D02*
X277062647Y-159501307D01*
X277038174Y-236769096D02*
X277062647Y-236771906D01*
X277042417Y-84268195D02*
X276993494Y-84270599D01*
X277042417Y-161538794D02*
X276993494Y-161541198D01*
X277042417Y-238807032D02*
X276993494Y-238809436D01*
X277062647Y-159501307D02*
X277111029Y-159510530D01*
X277062647Y-236771906D02*
X277111029Y-236781129D01*
X277066725Y-5005401D02*
X277114754Y-5014954D01*
X277066725Y-6994598D02*
X277017991Y-6999398D01*
X277086952Y-82234722D02*
X277134820Y-82246322D01*
X277090857Y-84261010D02*
X277042417Y-84268195D01*
X277090857Y-161531609D02*
X277042417Y-161538794D01*
X277090857Y-238799847D02*
X277042417Y-238807032D01*
X277111029Y-159510530D02*
X277158266Y-159524478D01*
X277111029Y-236781129D02*
X277158266Y-236795077D01*
X277114754Y-5014954D02*
X277161615Y-5029169D01*
X277114754Y-6985045D02*
X277066725Y-6994598D01*
X277134820Y-82246322D02*
X277181311Y-82262584D01*
X277138359Y-84249111D02*
X277090857Y-84261010D01*
X277138359Y-161519710D02*
X277090857Y-161531609D01*
X277138359Y-238787948D02*
X277090857Y-238799847D01*
X277158266Y-159524478D02*
X277203898Y-159543015D01*
X277158266Y-236795077D02*
X277203898Y-236813614D01*
X277161615Y-5029169D02*
X277206857Y-5047909D01*
X277161615Y-6970830D02*
X277114754Y-6985045D01*
X277181311Y-82262584D02*
X277203898Y-82272416D01*
X277184466Y-6962015D02*
X277161615Y-6970830D01*
X277184466Y-84232614D02*
X277138359Y-84249111D01*
X277184466Y-161503213D02*
X277138359Y-161519710D01*
X277184466Y-238771451D02*
X277138359Y-238787948D01*
X277203898Y-82272416D02*
X277247480Y-82295362D01*
X277203898Y-159543015D02*
X277247480Y-159565961D01*
X277203898Y-236813614D02*
X277247480Y-236836560D01*
X277206857Y-5047909D02*
X277250044Y-5070993D01*
X277228734Y-6941078D02*
X277184466Y-6962015D01*
X277228734Y-84211677D02*
X277184466Y-84232614D01*
X277228734Y-161482276D02*
X277184466Y-161503213D01*
X277228734Y-238750514D02*
X277184466Y-238771451D01*
X277247480Y-82295362D02*
X277288588Y-82322492D01*
X277247480Y-159565961D02*
X277288588Y-159593091D01*
X277247480Y-236836560D02*
X277288588Y-236863690D01*
X277250044Y-5070993D02*
X277290761Y-5098199D01*
X277250044Y-6929006D02*
X277228734Y-6941078D01*
X277270736Y-6915903D02*
X277250044Y-6929006D01*
X277270736Y-84186502D02*
X277228734Y-84211677D01*
X277270736Y-161457101D02*
X277228734Y-161482276D01*
X277270736Y-238725339D02*
X277228734Y-238750514D01*
X277288588Y-82322492D02*
X277308088Y-82337545D01*
X277288588Y-159593091D02*
X277308088Y-159608144D01*
X277288588Y-236863690D02*
X277326821Y-236894740D01*
X277290761Y-5098199D02*
X277328614Y-5129265D01*
X277308088Y-82337545D02*
X277344742Y-82370444D01*
X277308088Y-159608144D02*
X277344742Y-159641043D01*
X277310069Y-6886731D02*
X277270736Y-6915903D01*
X277310069Y-84157330D02*
X277270736Y-84186502D01*
X277310069Y-161427929D02*
X277270736Y-161457101D01*
X277310069Y-238696168D02*
X277270736Y-238725339D01*
X277326821Y-236894740D02*
X277344742Y-236911642D01*
X277328614Y-5129265D02*
X277363241Y-5163892D01*
X277328614Y-6870734D02*
X277310069Y-6886731D01*
X277344742Y-82370444D02*
X277377974Y-82406797D01*
X277344742Y-159641043D02*
X277377974Y-159677396D01*
X277344742Y-236911642D02*
X277377974Y-236947995D01*
X277346353Y-84124445D02*
X277310069Y-84157330D01*
X277346353Y-161395044D02*
X277310069Y-161427929D01*
X277346353Y-238663282D02*
X277310069Y-238696168D01*
X277363241Y-5163892D02*
X277394307Y-5201746D01*
X277363241Y-6836107D02*
X277328614Y-6870734D01*
X277377974Y-82406797D02*
X277407460Y-82446249D01*
X277377974Y-159677396D02*
X277407460Y-159716848D01*
X277377974Y-236947995D02*
X277407460Y-236987447D01*
X277379239Y-6817562D02*
X277363241Y-6836107D01*
X277379239Y-84088161D02*
X277346353Y-84124445D01*
X277379239Y-161358760D02*
X277346353Y-161395044D01*
X277379239Y-238626998D02*
X277346353Y-238663282D01*
X277394307Y-5201746D02*
X277421513Y-5242462D01*
X277407460Y-82446249D02*
X277420707Y-82467018D01*
X277407460Y-159716848D02*
X277420707Y-159737617D01*
X277407460Y-236987447D02*
X277432914Y-237029613D01*
X277408410Y-6778229D02*
X277379239Y-6817562D01*
X277408410Y-84048828D02*
X277379239Y-84088161D01*
X277408410Y-161319427D02*
X277379239Y-161358760D01*
X277408410Y-238587665D02*
X277379239Y-238626998D01*
X277420707Y-82467018D02*
X277444049Y-82510389D01*
X277420707Y-159737617D02*
X277444049Y-159780988D01*
X277421513Y-5242462D02*
X277444597Y-5285650D01*
X277432914Y-237029613D02*
X277444049Y-237051587D01*
X277433585Y-6736226D02*
X277408410Y-6778229D01*
X277433585Y-84006825D02*
X277408410Y-84048828D01*
X277433585Y-161277424D02*
X277408410Y-161319427D01*
X277433585Y-238545662D02*
X277408410Y-238587665D01*
X277444049Y-82510389D02*
X277454086Y-82532886D01*
X277444049Y-159780988D02*
X277454086Y-159803485D01*
X277444049Y-237051587D02*
X277454086Y-237074084D01*
X277444597Y-5285650D02*
X277463337Y-5330892D01*
X277444597Y-6714349D02*
X277433585Y-6736226D01*
X277454086Y-82532886D02*
X277470772Y-82579227D01*
X277454086Y-159803485D02*
X277470772Y-159849826D01*
X277454086Y-237074084D02*
X277470772Y-237120425D01*
X277454522Y-6691958D02*
X277444597Y-6714349D01*
X277454522Y-83962557D02*
X277433585Y-84006825D01*
X277454522Y-161233156D02*
X277433585Y-161277424D01*
X277454522Y-238501394D02*
X277433585Y-238545662D01*
X277463337Y-5330892D02*
X277477552Y-5377752D01*
X277470772Y-82579227D02*
X277482807Y-82626987D01*
X277470772Y-159849826D02*
X277482807Y-159897586D01*
X277470772Y-237120425D02*
X277482807Y-237168185D01*
X277471020Y-6645851D02*
X277454522Y-6691958D01*
X277471020Y-83916450D02*
X277454522Y-83962557D01*
X277471020Y-161187049D02*
X277454522Y-161233156D01*
X277471020Y-238455288D02*
X277454522Y-238501394D01*
X277477552Y-5377752D02*
X277487106Y-5425781D01*
X277482807Y-82626987D02*
X277490076Y-82675701D01*
X277482807Y-159897586D02*
X277490076Y-159946300D01*
X277482807Y-237168185D02*
X277490076Y-237216899D01*
X277482918Y-6598350D02*
X277471020Y-6645851D01*
X277482918Y-83868949D02*
X277471020Y-83916450D01*
X277482918Y-161139548D02*
X277471020Y-161187049D01*
X277482918Y-238407786D02*
X277471020Y-238455288D01*
X277487106Y-5425781D02*
X277491905Y-5474515D01*
X277487106Y-6574218D02*
X277482918Y-6598350D01*
X277490076Y-82675701D02*
X277492507Y-82724907D01*
X277490076Y-159946300D02*
X277492507Y-159995506D01*
X277490076Y-237216899D02*
X277492507Y-237266105D01*
X277490104Y-83820509D02*
X277482918Y-83868949D01*
X277490104Y-161091108D02*
X277482918Y-161139548D01*
X277490104Y-238359346D02*
X277482918Y-238407786D01*
X277491905Y-5474515D02*
X277492507Y-6500987D01*
X277491905Y-6525484D02*
X277487106Y-6574218D01*
X277492507Y-6500987D02*
X277491905Y-6525484D01*
X277492507Y-82724907D02*
X277492507Y-83771586D01*
X277492507Y-83771586D02*
X277490104Y-83820509D01*
X277492507Y-159995506D02*
X277492507Y-161042185D01*
X277492507Y-161042185D02*
X277490104Y-161091108D01*
X277492507Y-237266105D02*
X277492507Y-238310423D01*
X277492507Y-238310423D02*
X277490104Y-238359346D01*
X280492507Y-5499012D02*
X280493108Y-5474515D01*
X280492507Y-6500987D02*
X280492507Y-5499012D01*
X280492507Y-82724952D02*
X280493115Y-82700313D01*
X280492507Y-83771586D02*
X280492507Y-82724952D01*
X280492507Y-159995551D02*
X280494938Y-159946346D01*
X280492507Y-161042185D02*
X280492507Y-159995551D01*
X280492507Y-237266150D02*
X280494938Y-237216945D01*
X280492507Y-238310423D02*
X280492507Y-237266150D01*
X280493108Y-5474515D02*
X280497908Y-5425781D01*
X280493108Y-6525484D02*
X280492507Y-6500987D01*
X280493108Y-83796083D02*
X280492507Y-83771586D01*
X280493115Y-82700313D02*
X280497971Y-82651300D01*
X280494910Y-161091108D02*
X280492507Y-161042185D01*
X280494910Y-238359346D02*
X280492507Y-238310423D01*
X280494938Y-159946346D02*
X280502206Y-159897632D01*
X280494938Y-237216945D02*
X280502206Y-237168231D01*
X280497908Y-5425781D02*
X280507461Y-5377752D01*
X280497908Y-6574218D02*
X280493108Y-6525484D01*
X280497908Y-83844817D02*
X280493108Y-83796083D01*
X280497971Y-82651300D02*
X280507635Y-82603004D01*
X280502095Y-6598350D02*
X280497908Y-6574218D01*
X280502095Y-83868949D02*
X280497908Y-83844817D01*
X280502095Y-161139548D02*
X280494910Y-161091108D01*
X280502095Y-238407786D02*
X280494910Y-238359346D01*
X280502206Y-159897632D02*
X280514242Y-159849871D01*
X280502206Y-237168231D02*
X280514242Y-237120470D01*
X280507461Y-5377752D02*
X280521677Y-5330892D01*
X280507635Y-82603004D02*
X280522013Y-82555896D01*
X280513994Y-6645851D02*
X280502095Y-6598350D01*
X280513994Y-83916450D02*
X280502095Y-83868949D01*
X280513994Y-161187049D02*
X280502095Y-161139548D01*
X280513994Y-238455288D02*
X280502095Y-238407786D01*
X280514242Y-159849871D02*
X280530927Y-159803530D01*
X280514242Y-237120470D02*
X280530927Y-237074129D01*
X280521677Y-5330892D02*
X280540416Y-5285650D01*
X280522013Y-82555896D02*
X280530927Y-82532931D01*
X280530491Y-6691958D02*
X280513994Y-6645851D01*
X280530491Y-83962557D02*
X280513994Y-83916450D01*
X280530491Y-161233156D02*
X280513994Y-161187049D01*
X280530491Y-238501394D02*
X280513994Y-238455288D01*
X280530927Y-82532931D02*
X280552100Y-82488461D01*
X280530927Y-159803530D02*
X280540965Y-159781034D01*
X280530927Y-237074129D02*
X280540965Y-237051633D01*
X280540416Y-5285650D02*
X280563500Y-5242462D01*
X280540416Y-6714349D02*
X280530491Y-6691958D01*
X280540416Y-83984948D02*
X280530491Y-83962557D01*
X280540965Y-159781034D02*
X280552100Y-159759060D01*
X280540965Y-237051633D02*
X280552100Y-237029659D01*
X280551428Y-161277424D02*
X280530491Y-161233156D01*
X280551428Y-238545662D02*
X280530491Y-238501394D01*
X280552100Y-82488461D02*
X280577553Y-82446295D01*
X280552100Y-159759060D02*
X280577553Y-159716894D01*
X280552100Y-237029659D02*
X280577553Y-236987493D01*
X280563500Y-5242462D02*
X280576604Y-5221770D01*
X280563500Y-6757537D02*
X280540416Y-6714349D01*
X280563500Y-84028136D02*
X280540416Y-83984948D01*
X280576604Y-5221770D02*
X280605775Y-5182437D01*
X280576604Y-6778229D02*
X280563500Y-6757537D01*
X280576604Y-84048828D02*
X280563500Y-84028136D01*
X280576604Y-161319427D02*
X280551428Y-161277424D01*
X280576604Y-238587665D02*
X280551428Y-238545662D01*
X280577553Y-82446295D02*
X280607040Y-82406843D01*
X280577553Y-159716894D02*
X280607040Y-159677442D01*
X280577553Y-236987493D02*
X280607040Y-236948041D01*
X280605775Y-5182437D02*
X280638661Y-5146153D01*
X280605775Y-6817562D02*
X280576604Y-6778229D01*
X280605775Y-84088161D02*
X280576604Y-84048828D01*
X280605775Y-161358760D02*
X280576604Y-161319427D01*
X280605775Y-238626998D02*
X280576604Y-238587665D01*
X280607040Y-82406843D02*
X280640272Y-82370490D01*
X280607040Y-159677442D02*
X280640272Y-159641089D01*
X280607040Y-236948041D02*
X280640272Y-236911688D01*
X280638661Y-5146153D02*
X280674945Y-5113268D01*
X280638661Y-6853846D02*
X280605775Y-6817562D01*
X280638661Y-84124445D02*
X280605775Y-84088161D01*
X280638661Y-161395044D02*
X280605775Y-161358760D01*
X280638661Y-238663282D02*
X280605775Y-238626998D01*
X280640272Y-82370490D02*
X280676926Y-82337591D01*
X280640272Y-159641089D02*
X280658193Y-159624187D01*
X280640272Y-236911688D02*
X280658193Y-236894786D01*
X280656399Y-6870734D02*
X280638661Y-6853846D01*
X280656399Y-84141333D02*
X280638661Y-84124445D01*
X280658193Y-159624187D02*
X280696426Y-159593136D01*
X280658193Y-236894786D02*
X280696426Y-236863735D01*
X280674945Y-5113268D02*
X280714277Y-5084096D01*
X280674945Y-161427929D02*
X280638661Y-161395044D01*
X280674945Y-238696168D02*
X280638661Y-238663282D01*
X280676926Y-82337591D02*
X280716645Y-82308465D01*
X280694253Y-6901800D02*
X280656399Y-6870734D01*
X280694253Y-84172399D02*
X280656399Y-84141333D01*
X280696426Y-159593136D02*
X280737533Y-159566006D01*
X280696426Y-236863735D02*
X280737533Y-236836605D01*
X280714277Y-5084096D02*
X280756280Y-5058921D01*
X280714277Y-6915903D02*
X280694253Y-6901800D01*
X280714277Y-84186502D02*
X280694253Y-84172399D01*
X280714277Y-161457101D02*
X280674945Y-161427929D01*
X280714277Y-238725339D02*
X280674945Y-238696168D01*
X280716645Y-82308465D02*
X280737533Y-82295407D01*
X280737533Y-82295407D02*
X280781116Y-82272462D01*
X280737533Y-159566006D02*
X280781116Y-159543061D01*
X280737533Y-236836605D02*
X280781116Y-236813660D01*
X280756280Y-5058921D02*
X280800548Y-5037984D01*
X280756280Y-6941078D02*
X280714277Y-6915903D01*
X280756280Y-84211677D02*
X280714277Y-84186502D01*
X280756280Y-161482276D02*
X280714277Y-161457101D01*
X280756280Y-238750514D02*
X280714277Y-238725339D01*
X280781116Y-82272462D02*
X280803703Y-82262630D01*
X280781116Y-159543061D02*
X280803703Y-159533229D01*
X280781116Y-236813660D02*
X280826747Y-236795123D01*
X280800548Y-5037984D02*
X280823399Y-5029169D01*
X280800548Y-6962015D02*
X280756280Y-6941078D01*
X280800548Y-84232614D02*
X280756280Y-84211677D01*
X280800548Y-161503213D02*
X280756280Y-161482276D01*
X280800548Y-238771451D02*
X280756280Y-238750514D01*
X280803703Y-82262630D02*
X280850194Y-82246368D01*
X280803703Y-159533229D02*
X280850194Y-159516967D01*
X280823399Y-5029169D02*
X280870260Y-5014954D01*
X280823399Y-6970830D02*
X280800548Y-6962015D01*
X280823399Y-84241429D02*
X280800548Y-84232614D01*
X280826747Y-236795123D02*
X280873985Y-236781175D01*
X280846655Y-6978512D02*
X280823399Y-6970830D01*
X280846655Y-161519710D02*
X280800548Y-161503213D01*
X280846655Y-238787948D02*
X280800548Y-238771451D01*
X280850194Y-82246368D02*
X280898062Y-82234768D01*
X280850194Y-159516967D02*
X280898062Y-159505367D01*
X280870260Y-5014954D02*
X280918288Y-5005401D01*
X280870260Y-84255644D02*
X280823399Y-84241429D01*
X280873985Y-236781175D02*
X280922367Y-236771951D01*
X280894157Y-6990411D02*
X280846655Y-6978512D01*
X280894157Y-84261010D02*
X280870260Y-84255644D01*
X280894157Y-161531609D02*
X280846655Y-161519710D01*
X280894157Y-238799847D02*
X280846655Y-238787948D01*
X280898062Y-82234768D02*
X280946840Y-82227943D01*
X280898062Y-159505367D02*
X280946840Y-159498542D01*
X280918288Y-5005401D02*
X280967022Y-5000601D01*
X280918288Y-84265197D02*
X280894157Y-84261010D01*
X280922367Y-236771951D02*
X280946840Y-236769141D01*
X280942596Y-6997596D02*
X280894157Y-6990411D01*
X280942596Y-161538794D02*
X280894157Y-161531609D01*
X280942596Y-238807032D02*
X280894157Y-238799847D01*
X280946840Y-82227943D02*
X280971434Y-82226344D01*
X280946840Y-159498542D02*
X281340284Y-159482034D01*
X280946840Y-236769141D02*
X281340284Y-236752633D01*
X280967022Y-5000601D02*
X280991519Y-5000000D01*
X280967022Y-6999398D02*
X280942596Y-6997596D01*
X280967022Y-84269997D02*
X280918288Y-84265197D01*
X280971434Y-82226344D02*
X281340284Y-82211435D01*
X280991519Y-5000000D02*
X317983873Y-4999869D01*
X280991519Y-161541198D02*
X280942596Y-161538794D01*
X280991519Y-238809436D02*
X280942596Y-238807032D01*
X281340284Y-82211435D02*
X282276843Y-82154756D01*
X281340284Y-159482034D02*
X282276843Y-159425355D01*
X281340284Y-236752633D02*
X282276843Y-236695954D01*
X282276843Y-82154756D02*
X283212052Y-82079238D01*
X282276843Y-159425355D02*
X283212052Y-159349837D01*
X282276843Y-236695954D02*
X283212052Y-236620436D01*
X283212052Y-82079238D02*
X284142912Y-81984460D01*
X283212052Y-159349837D02*
X284142912Y-159255059D01*
X283212052Y-236620436D02*
X284142912Y-236525658D01*
X284142912Y-81984460D02*
X284143073Y-70317739D01*
X284142912Y-159255059D02*
X284143073Y-147588338D01*
X284142912Y-236525658D02*
X284143073Y-224858937D01*
X284143073Y-70317739D02*
X284145477Y-70268816D01*
X284143073Y-147588338D02*
X284145477Y-147539415D01*
X284143073Y-224858937D02*
X284145477Y-224810014D01*
X284145477Y-70268816D02*
X284152662Y-70220376D01*
X284145477Y-147539415D02*
X284152662Y-147490975D01*
X284145477Y-224810014D02*
X284152662Y-224761574D01*
X284152662Y-70220376D02*
X284164561Y-70172875D01*
X284152662Y-147490975D02*
X284164561Y-147443474D01*
X284152662Y-224761574D02*
X284158028Y-224737677D01*
X284158028Y-224737677D02*
X284172243Y-224690817D01*
X284164561Y-70172875D02*
X284181058Y-70126768D01*
X284164561Y-147443474D02*
X284181058Y-147397367D01*
X284172243Y-224690817D02*
X284190983Y-224645575D01*
X284181058Y-70126768D02*
X284190983Y-70104377D01*
X284181058Y-147397367D02*
X284201995Y-147353099D01*
X284190983Y-70104377D02*
X284201995Y-70082500D01*
X284190983Y-224645575D02*
X284201995Y-224623698D01*
X284201995Y-70082500D02*
X284227170Y-70040497D01*
X284201995Y-147353099D02*
X284227170Y-147311096D01*
X284201995Y-224623698D02*
X284227170Y-224581695D01*
X284227170Y-70040497D02*
X284256342Y-70001164D01*
X284227170Y-147311096D02*
X284256342Y-147271763D01*
X284227170Y-224581695D02*
X284256342Y-224542362D01*
X284256342Y-70001164D02*
X284289227Y-69964880D01*
X284256342Y-147271763D02*
X284289227Y-147235479D01*
X284256342Y-224542362D02*
X284289227Y-224506078D01*
X284289227Y-69964880D02*
X284325511Y-69931995D01*
X284289227Y-147235479D02*
X284325511Y-147202594D01*
X284289227Y-224506078D02*
X284325511Y-224473193D01*
X284325511Y-69931995D02*
X284364844Y-69902823D01*
X284325511Y-147202594D02*
X284364844Y-147173422D01*
X284325511Y-224473193D02*
X284344820Y-224458124D01*
X284344820Y-224458124D02*
X284385536Y-224430918D01*
X284364844Y-69902823D02*
X284385536Y-69889720D01*
X284364844Y-147173422D02*
X284406847Y-147148247D01*
X284385536Y-69889720D02*
X284428724Y-69866636D01*
X284385536Y-224430918D02*
X284428724Y-224407834D01*
X284406847Y-147148247D02*
X284451115Y-147127310D01*
X284428724Y-69866636D02*
X284473966Y-69847896D01*
X284428724Y-224407834D02*
X284473966Y-224389094D01*
X284451115Y-147127310D02*
X284497222Y-147110813D01*
X284473966Y-69847896D02*
X284520826Y-69833681D01*
X284473966Y-224389094D02*
X284520826Y-224374879D01*
X284497222Y-147110813D02*
X284544723Y-147098914D01*
X284520826Y-69833681D02*
X284568855Y-69824128D01*
X284520826Y-224374879D02*
X284568855Y-224365326D01*
X284544723Y-147098914D02*
X284593163Y-147091729D01*
X284568855Y-69824128D02*
X284617589Y-69819328D01*
X284568855Y-224365326D02*
X284617589Y-224360526D01*
X284593163Y-147091729D02*
X284642086Y-147089326D01*
X284617589Y-69819328D02*
X284642086Y-69818727D01*
X284617589Y-224360526D02*
X284642086Y-224359925D01*
X284642086Y-69818727D02*
X297813332Y-69818507D01*
X284642086Y-147089326D02*
X297813054Y-147089181D01*
X284642086Y-224359925D02*
X297813332Y-224359705D01*
X297813054Y-147089181D02*
X299561876Y-146065598D01*
X297813332Y-69818507D02*
X299561876Y-68794999D01*
X297813332Y-224359705D02*
X299550920Y-223342996D01*
X299550920Y-223342996D02*
X301239184Y-222234209D01*
X299561876Y-68794999D02*
X301249795Y-67685640D01*
X299561876Y-146065598D02*
X301249795Y-144956239D01*
X301239184Y-222234209D02*
X302867779Y-221039503D01*
X301249795Y-67685640D02*
X302867779Y-66498305D01*
X301249795Y-144956239D02*
X302877973Y-143761010D01*
X302867779Y-66498305D02*
X304432317Y-65220901D01*
X302867779Y-221039503D02*
X304432337Y-219762083D01*
X302877973Y-143761010D02*
X304442108Y-142483072D01*
X304432317Y-65220901D02*
X305928641Y-63864193D01*
X304432337Y-219762083D02*
X305928660Y-218405373D01*
X304442108Y-142483072D02*
X305928660Y-141134774D01*
X305928641Y-63864193D02*
X307352736Y-62431816D01*
X305928660Y-141134774D02*
X307352717Y-139702434D01*
X305928660Y-218405373D02*
X307352736Y-216973014D01*
X307352717Y-139702434D02*
X308709112Y-138188406D01*
X307352736Y-62431816D02*
X308700744Y-60927650D01*
X307352736Y-216973014D02*
X308700744Y-215468848D01*
X307474296Y-7000299D02*
X280967022Y-6999398D01*
X307474338Y-161541525D02*
X280991519Y-161541198D01*
X307474520Y-84271095D02*
X280967022Y-84269997D01*
X308700744Y-60927650D02*
X309969069Y-59355710D01*
X308700744Y-215468848D02*
X309969069Y-213896908D01*
X308709112Y-138188406D02*
X309976902Y-136616067D01*
X309969069Y-59355710D02*
X311161601Y-57709580D01*
X309969069Y-213896908D02*
X311161616Y-212250757D01*
X309976902Y-136616067D02*
X311154295Y-134990834D01*
X311154295Y-134990834D02*
X312260031Y-133285128D01*
X311161601Y-57709580D02*
X312260018Y-56014551D01*
X311161616Y-212250757D02*
X312260018Y-210555749D01*
X312260018Y-56014551D02*
X313269204Y-54264926D01*
X312260018Y-210555749D02*
X313269204Y-208806124D01*
X312260031Y-133285128D02*
X313269204Y-131535525D01*
X312473722Y-170200257D02*
X307474338Y-161541525D01*
X312475088Y-15661455D02*
X307474296Y-7000299D01*
X312475088Y-92932054D02*
X307474520Y-84271095D01*
X313269204Y-54264926D02*
X314180897Y-52477034D01*
X313269204Y-131535525D02*
X314186454Y-129735999D01*
X313269204Y-208806124D02*
X314180897Y-207018232D01*
X313461792Y-171956058D02*
X312473722Y-170200257D01*
X313461805Y-94685481D02*
X312475088Y-92932054D01*
X313467835Y-17426279D02*
X312475088Y-15661455D01*
X314180897Y-52477034D02*
X315004359Y-50632704D01*
X314180897Y-207018232D02*
X315004349Y-205173926D01*
X314186454Y-129735999D02*
X315004359Y-127903303D01*
X314360194Y-96494498D02*
X313461805Y-94685481D01*
X314365626Y-19235592D02*
X313467835Y-17426279D01*
X314365626Y-173776790D02*
X313461792Y-171956058D01*
X315004349Y-205173926D02*
X315735565Y-203277242D01*
X315004359Y-50632704D02*
X315731232Y-48748215D01*
X315004359Y-127903303D02*
X315731223Y-126018838D01*
X315168540Y-21088960D02*
X314365626Y-19235592D01*
X315168540Y-98359559D02*
X314360194Y-96494498D01*
X315168550Y-175630182D02*
X314365626Y-173776790D01*
X315731223Y-126018838D02*
X316363261Y-124086840D01*
X315731232Y-48748215D02*
X316359563Y-46828621D01*
X315735565Y-203277242D02*
X316359563Y-201369819D01*
X315874423Y-100252011D02*
X315168540Y-98359559D01*
X315874423Y-177522610D02*
X315168550Y-175630182D01*
X315874431Y-22981436D02*
X315168540Y-21088960D01*
X316359563Y-46828621D02*
X316887670Y-44879070D01*
X316359563Y-201369819D02*
X316887663Y-199420293D01*
X316363261Y-124086840D02*
X316887670Y-122149669D01*
X316481382Y-102178470D02*
X315874423Y-100252011D01*
X316481382Y-179449069D02*
X315874423Y-177522610D01*
X316481389Y-24907896D02*
X315874431Y-22981436D01*
X316887663Y-199420293D02*
X317316531Y-197433295D01*
X316887670Y-44879070D02*
X317314128Y-42904818D01*
X316887670Y-122149669D02*
X317314128Y-120175417D01*
X316984877Y-181391807D02*
X316481382Y-179449069D01*
X316987788Y-26863170D02*
X316481389Y-24907896D01*
X316987788Y-104133769D02*
X316481382Y-102178470D01*
X317314128Y-42904818D02*
X317637812Y-40911083D01*
X317314128Y-120175417D02*
X317637808Y-118181708D01*
X317316531Y-197433295D02*
X317639545Y-195439505D01*
X317390022Y-28829345D02*
X316987788Y-26863170D01*
X317390022Y-183370543D02*
X316984877Y-181391807D01*
X317392283Y-106112665D02*
X316987788Y-104133769D01*
X317637808Y-118181708D02*
X317857835Y-116173889D01*
X317637812Y-40911083D02*
X317857835Y-38903290D01*
X317639545Y-195439505D02*
X317858905Y-193431639D01*
X317692187Y-30826454D02*
X317390022Y-28829345D01*
X317692187Y-185367652D02*
X317390022Y-183370543D01*
X317693786Y-108109874D02*
X317392283Y-106112665D01*
X317857835Y-38903290D02*
X317973614Y-36886799D01*
X317857835Y-116173889D02*
X317974018Y-114144510D01*
X317858905Y-193431639D02*
X317973614Y-191427997D01*
X317890545Y-32836478D02*
X317692187Y-30826454D01*
X317890545Y-187377676D02*
X317692187Y-185367652D01*
X317891478Y-110119962D02*
X317693786Y-108109874D01*
X317973614Y-36886799D02*
X317984839Y-34867043D01*
X317973614Y-191427997D02*
X317984839Y-189408241D01*
X317974018Y-114144510D02*
X317984574Y-112124699D01*
X317983873Y-4999869D02*
X317984874Y-4993863D01*
X317983873Y-238809566D02*
X280991519Y-238809436D01*
X317984366Y-334D02*
X1098Y-123D01*
X317984539Y-243808928D02*
X317983873Y-238809566D01*
X317984574Y-112124699D02*
X317891478Y-110119962D01*
X317984839Y-34867043D02*
X317890545Y-32836478D01*
X317984839Y-189408241D02*
X317890545Y-187377676D01*
X317984874Y-4993863D02*
X317984366Y-334D01*
M02*
