M48
; DRILL file KiCad 10.0.3 date 2026-06-30T19:13:12
; FORMAT={-:-/ absolute / metric / decimal}
; #@! TF.CreationDate,2026-06-30T19:13:12+02:00
; #@! TF.GenerationSoftware,Kicad,Pcbnew,10.0.3
; #@! TF.FileFunction,NonPlated,1,2,NPTH
FMAT,2
METRIC
; #@! TA.AperFunction,NonPlated,NPTH,ComponentDrill
T1C0.500
; #@! TA.AperFunction,NonPlated,NPTH,ComponentDrill
T2C0.650
; #@! TA.AperFunction,NonPlated,NPTH,ComponentDrill
T3C2.200
; #@! TA.AperFunction,NonPlated,NPTH,ComponentDrill
T4C2.500
%
G90
G05
T1
X36.836Y-7.25
X36.836Y-84.521
X36.846Y-81.969
X36.846Y-159.24
X37.836Y-7.25
X37.836Y-84.521
X37.84Y-82.004
X37.84Y-159.275
X38.836Y-82.018
X38.836Y-159.289
X38.836Y-7.25
X38.836Y-84.521
X39.831Y-82.011
X39.831Y-159.281
X39.836Y-7.25
X39.836Y-84.521
X70.263Y-58.535
X70.263Y-135.806
X70.778Y-57.801
X70.778Y-135.072
X71.243Y-33.589
X71.243Y-110.86
X71.243Y-32.589
X71.243Y-109.86
X71.243Y-31.589
X71.243Y-108.86
X71.243Y-30.589
X71.243Y-107.86
X71.292Y-57.067
X71.292Y-134.338
X71.768Y-56.307
X71.768Y-133.578
X72.243Y-55.547
X72.243Y-132.817
X78.988Y-33.604
X78.988Y-110.874
X79.045Y-32.605
X79.045Y-109.876
X79.146Y-31.61
X79.146Y-108.881
X79.254Y-30.616
X79.254Y-107.887
X84.426Y-55.548
X84.426Y-132.818
X84.893Y-56.308
X84.893Y-133.579
X85.375Y-57.06
X85.375Y-134.33
X85.88Y-57.796
X85.88Y-135.066
X86.392Y-58.527
X86.392Y-135.798
X115.514Y-7.25
X115.514Y-84.521
X115.524Y-81.969
X115.524Y-159.24
X116.514Y-7.25
X116.514Y-84.521
X116.519Y-82.004
X116.519Y-159.275
X117.514Y-82.018
X117.514Y-159.289
X117.514Y-7.25
X117.514Y-84.521
X118.509Y-82.011
X118.509Y-159.281
X118.514Y-7.25
X118.514Y-84.521
X148.942Y-58.535
X148.942Y-135.806
X149.456Y-57.801
X149.456Y-135.072
X149.922Y-33.589
X149.922Y-110.86
X149.922Y-32.589
X149.922Y-109.86
X149.922Y-31.589
X149.922Y-108.86
X149.922Y-30.589
X149.922Y-107.86
X149.971Y-57.067
X149.971Y-134.338
X150.447Y-56.307
X150.447Y-133.578
X150.921Y-55.547
X150.921Y-132.817
X157.667Y-33.604
X157.667Y-110.874
X157.724Y-32.605
X157.724Y-109.876
X157.825Y-31.61
X157.825Y-108.881
X157.932Y-30.616
X157.932Y-107.887
X163.104Y-55.548
X163.104Y-132.818
X163.572Y-56.308
X163.572Y-133.579
X164.054Y-57.06
X164.054Y-134.33
X164.559Y-57.796
X164.559Y-135.066
X165.071Y-58.527
X165.071Y-135.798
X194.193Y-7.25
X194.193Y-84.521
X194.203Y-81.969
X194.203Y-159.24
X195.193Y-7.25
X195.193Y-84.521
X195.198Y-82.004
X195.198Y-159.275
X196.193Y-82.018
X196.193Y-159.289
X196.193Y-7.25
X196.193Y-84.521
X197.188Y-82.011
X197.188Y-159.281
X197.193Y-7.25
X197.193Y-84.521
T2
X36.103Y-75.166
X36.103Y-152.436
X41.883Y-75.166
X41.883Y-152.436
X114.782Y-75.166
X114.782Y-152.436
X120.562Y-75.166
X120.562Y-152.436
X193.46Y-75.166
X193.46Y-152.436
X199.24Y-75.166
X199.24Y-152.436
T3
X4.224Y-23.006
X4.224Y-48.315
X4.224Y-100.276
X4.224Y-125.586
X73.762Y-23.006
X73.762Y-48.315
X73.762Y-100.276
X73.762Y-125.586
X82.903Y-23.006
X82.903Y-48.315
X82.903Y-100.276
X82.903Y-125.586
X152.44Y-23.006
X152.44Y-48.315
X152.44Y-100.276
X152.44Y-125.586
X161.582Y-23.006
X161.582Y-48.315
X161.582Y-100.276
X161.582Y-125.586
X231.119Y-23.006
X231.119Y-48.315
X231.119Y-100.276
X231.119Y-125.586
T4
X10.021Y-54.042
X10.021Y-131.312
X68.021Y-54.042
X68.021Y-131.312
X88.7Y-54.042
X88.7Y-131.312
X146.7Y-54.042
X146.7Y-131.312
X167.379Y-54.042
X167.379Y-131.312
X225.379Y-54.042
X225.379Y-131.312
M30
